<svg xmlns="http://www.w3.org/2000/svg" width="900" height="450" viewBox="0 0 900 450" version="1.1"><path d="M 713 247.075 C 706.709 249.373, 689.240 254.158, 673 258.029 C 670.525 258.619, 664.900 260.412, 660.500 262.013 C 656.100 263.615, 648.900 266.025, 644.500 267.368 C 640.100 268.712, 633.800 271.033, 630.500 272.526 C 616.131 279.024, 592.073 285.434, 578.167 286.469 C 573.033 286.851, 566.283 287.970, 563.167 288.956 C 552.419 292.356, 541.410 293.928, 514 295.980 C 496.475 297.291, 481.009 298.877, 480.069 299.457 C 477.143 301.266, 451.074 303.033, 436 302.445 C 426.925 302.091, 399.475 301.693, 375 301.561 C 346.758 301.410, 328.302 300.904, 324.484 300.177 C 316.285 298.616, 284.628 296.006, 273.539 295.976 C 268.567 295.962, 262.498 295.490, 260.051 294.926 C 251.896 293.046, 225.431 289.962, 213.500 289.500 C 209.650 289.351, 204.588 288.893, 202.250 288.483 C 197.230 287.601, 196.951 288.380, 200.357 293.770 C 202.875 297.756, 208.289 299.527, 230 303.466 C 234.125 304.214, 241.775 305.797, 247 306.984 C 254.371 308.658, 258.405 309.021, 265 308.603 C 269.675 308.306, 277.775 308.489, 283 309.009 C 288.225 309.530, 299.990 310.183, 309.144 310.462 C 318.298 310.741, 327.073 311.462, 328.644 312.065 C 331.845 313.293, 350.748 313.399, 353.971 312.206 C 355.116 311.783, 360.429 311.879, 365.777 312.421 C 371.125 312.963, 379.550 313.345, 384.500 313.269 C 421.704 312.697, 430.645 312.406, 431.684 311.732 C 432.336 311.309, 437.286 310.948, 442.684 310.929 C 448.083 310.910, 455.875 310.481, 460 309.975 C 464.125 309.470, 473.019 308.805, 479.764 308.498 C 486.509 308.191, 493.223 307.485, 494.684 306.930 C 496.145 306.375, 502.551 305.758, 508.920 305.560 C 515.289 305.363, 523.565 304.481, 527.312 303.600 C 531.059 302.720, 536.684 301.973, 539.812 301.940 C 542.940 301.908, 547.750 301.448, 550.500 300.920 C 553.250 300.391, 560.481 299.588, 566.569 299.134 C 572.848 298.667, 580.421 297.409, 584.069 296.227 C 601.717 290.509, 616.656 285.985, 618 285.951 C 618.825 285.930, 621.300 285.214, 623.500 284.361 C 625.700 283.507, 629.525 282.435, 632 281.977 C 639.573 280.577, 649.370 278.191, 652.515 276.980 C 654.157 276.348, 659.100 274.992, 663.500 273.967 C 679.699 270.195, 694.843 263.791, 706.850 255.634 C 709.793 253.635, 713.269 252, 714.575 252 C 716.192 252, 717.435 251.060, 718.474 249.050 C 720.976 244.212, 720.906 244.186, 713 247.075 M 701 289.487 C 697.956 291.211, 680.561 297.323, 673 299.325 C 669.975 300.126, 665.475 301.317, 663 301.971 C 646.458 306.349, 637.103 308.978, 634.515 309.977 C 632.873 310.611, 628.823 311.754, 625.515 312.517 C 622.207 313.280, 617.055 314.597, 614.067 315.443 C 611.079 316.289, 605.679 317.269, 602.067 317.621 C 598.455 317.973, 594.031 318.857, 592.235 319.585 C 590.439 320.314, 584.364 321.213, 578.735 321.583 C 573.106 321.952, 566.700 322.869, 564.500 323.620 C 562.300 324.371, 556.675 325.273, 552 325.625 C 546.597 326.032, 541.416 327.128, 537.780 328.633 C 534.634 329.935, 530.472 331, 528.530 331 C 526.589 331, 525 331.265, 525 331.590 C 525 332.297, 529.238 335.919, 530.121 335.967 C 530.463 335.985, 534.738 338.184, 539.621 340.854 C 550.795 346.963, 573.835 351.523, 592 351.220 C 599.363 351.098, 613.587 349.318, 615.502 348.280 C 616.603 347.683, 625.378 345.288, 635.002 342.957 C 644.626 340.626, 654.750 337.740, 657.500 336.543 C 660.250 335.346, 664.638 333.835, 667.250 333.184 C 681.832 329.550, 680.984 329.953, 683.187 325.605 C 684.330 323.347, 686.515 319.913, 688.041 317.972 C 691.278 313.858, 699 299.504, 699 297.603 C 699 296.886, 700.353 294.433, 702.006 292.150 C 705.203 287.737, 705.007 287.217, 701 289.487 M 250.527 333.591 C 251.001 334.641, 251.563 338.248, 251.774 341.606 C 252.208 348.503, 252.992 348.532, 265.809 342.124 C 268.939 340.559, 273.866 338.503, 276.758 337.556 C 283.972 335.193, 282.782 334.416, 270.786 333.658 C 265.129 333.300, 258.062 332.709, 255.082 332.345 C 250.002 331.723, 249.718 331.801, 250.527 333.591 M 295.177 335.743 C 290.576 337.386, 303.430 342.132, 314 342.692 C 318.125 342.910, 326.450 343.407, 332.500 343.795 C 355.343 345.260, 405.145 342.812, 402.679 340.346 C 402.427 340.093, 392.226 339.909, 380.011 339.937 C 367.796 339.964, 353.684 339.532, 348.651 338.976 C 343.618 338.420, 330.187 337.564, 318.805 337.075 C 307.422 336.586, 297.747 335.979, 297.305 335.728 C 296.862 335.476, 295.904 335.483, 295.177 335.743" stroke="none" fill="#f7d8c0" fill-rule="evenodd"/><path d="M 476.743 33.529 C 469.932 38.157, 468.839 43.849, 473.725 49.248 C 476.389 52.193, 469.936 51.483, 461.875 47.945 C 448.578 42.109, 432.084 50.005, 439.403 58.703 C 441.572 61.280, 441.673 61.800, 440.439 64.029 C 435.931 72.171, 442.278 75.185, 453.948 70.443 C 459.617 68.139, 460.743 67.994, 465.302 68.971 C 475.477 71.153, 474.540 72.594, 457.500 80.971 C 452.550 83.404, 445.997 87.331, 442.938 89.698 C 439.879 92.064, 437.007 94, 436.556 94 C 434.804 94, 417.278 104.558, 413.316 108.001 C 411.014 110.001, 407.306 112.239, 405.076 112.975 C 402.846 113.711, 400.229 114.906, 399.260 115.630 C 390.236 122.382, 387.481 124.179, 383.310 126.034 C 372.128 131.005, 369.290 132.614, 365.427 136.174 C 363.188 138.238, 359.138 140.962, 356.427 142.227 C 353.717 143.491, 348.800 146.541, 345.500 149.004 C 336.054 156.054, 333.019 158, 331.469 158 C 330.676 158, 327.208 160.378, 323.763 163.284 C 313.191 172.204, 305.030 173.660, 297.870 167.903 C 291.001 162.381, 289.506 166.554, 289.502 191.250 C 289.500 210, 289.500 210, 285.937 210 C 275.672 210, 271.676 226.268, 273.935 258.858 C 275.470 280.997, 274.915 287, 271.334 287 C 268.914 287, 268.872 286.871, 269.542 281.513 C 270.987 269.942, 268.912 266.920, 257.797 264.408 C 236.538 259.605, 228 259.796, 228 265.073 C 228 269.636, 227.220 270, 217.450 270 C 207.112 270, 205 271.225, 205 277.223 C 205 280.745, 200.499 281.090, 195.427 277.955 C 186.919 272.696, 184.982 281.177, 191.579 294.807 C 194.160 300.138, 197.105 306.300, 198.124 308.500 C 206.988 327.633, 213.934 332.848, 238.798 339.034 C 245.254 340.640, 245.022 350.963, 238.500 352.351 C 236.300 352.819, 230.900 354.242, 226.500 355.512 C 222.100 356.782, 216.475 358.138, 214 358.524 C 211.525 358.910, 206.125 360.252, 202 361.506 C 197.875 362.760, 193.150 364.050, 191.500 364.373 C 189.850 364.696, 185.350 365.673, 181.500 366.545 C 163.968 370.514, 161.094 370.402, 141.500 364.989 C 137.650 363.925, 132.250 362.570, 129.500 361.977 C 126.750 361.384, 121.791 359.585, 118.479 357.978 C 115.168 356.371, 109.543 354.625, 105.979 354.097 C 102.416 353.569, 98.102 352.838, 96.394 352.472 C 93.822 351.922, 92.682 352.340, 89.759 354.907 C 80.774 362.795, 77.570 363.460, 47.086 363.751 C 10.675 364.099, 0.703 366.770, 0.200 376.308 C -0.117 382.323, 0.016 382.568, 2.764 381.025 C 13.532 374.979, 15.767 374.621, 47 373.940 C 79.462 373.232, 81.474 372.871, 91.806 365.898 C 97.129 362.305, 105.843 362.860, 114.715 367.356 C 119.460 369.760, 125.740 371.568, 150.500 377.661 C 162.009 380.493, 173.609 379.919, 182.686 376.069 C 185.334 374.946, 190.711 373.363, 194.635 372.551 C 198.559 371.740, 203.509 370.402, 205.635 369.579 C 207.761 368.756, 213.231 367.395, 217.791 366.555 C 222.351 365.714, 226.851 364.621, 227.791 364.126 C 228.731 363.631, 232.985 362.511, 237.244 361.636 C 241.503 360.762, 246.678 359.198, 248.744 358.160 C 250.810 357.123, 254.975 355.472, 258 354.492 C 261.025 353.512, 265.975 351.399, 269 349.796 C 281.808 343.010, 287.032 342.094, 292.887 345.610 C 301.706 350.906, 308.473 351.815, 345 352.616 C 369.584 353.154, 389.805 352.020, 401 349.475 C 404.575 348.662, 414.720 347.122, 423.545 346.052 C 432.369 344.982, 440.919 343.587, 442.545 342.951 C 472.255 331.335, 510.352 330.704, 523.318 341.614 C 524.878 342.926, 526.637 344, 527.228 344 C 527.820 344, 531.827 346.032, 536.132 348.516 C 552.543 357.981, 597.291 362.950, 614.500 357.217 C 623.476 354.227, 630.291 352.387, 642.777 349.582 C 648.980 348.188, 657.080 345.725, 660.777 344.108 C 664.475 342.490, 669.300 340.878, 671.500 340.525 C 673.700 340.172, 680.623 338.510, 686.886 336.832 C 700.254 333.251, 702.770 333.431, 711.375 338.581 C 717.807 342.431, 735.028 343.033, 747.675 339.851 C 752.773 338.568, 788.162 339.892, 792.251 341.518 C 793.214 341.901, 797.039 341.502, 800.751 340.630 C 804.463 339.758, 810.425 338.548, 814 337.940 C 817.575 337.333, 823.425 335.590, 827 334.068 C 836.628 329.968, 838.926 329.142, 845.267 327.505 C 848.439 326.687, 853.308 324.864, 856.088 323.455 C 861.143 320.894, 861.143 320.894, 867.321 323.059 C 881.513 328.032, 900 327.029, 900 321.286 C 900 316.287, 900 316.287, 887.250 315.750 C 877.567 315.343, 873.228 314.707, 869.213 313.107 C 862.194 310.310, 859.441 310.444, 852.410 313.929 C 849.159 315.539, 843.774 317.554, 840.441 318.406 C 837.109 319.258, 831.034 321.361, 826.941 323.078 C 814.850 328.151, 794.598 331.636, 781.500 330.898 C 768.777 330.180, 747.706 330.646, 740 331.816 C 721.723 334.590, 722.178 334.617, 715.031 330.353 C 709.370 326.976, 707.591 326.438, 700.633 326 C 692.694 325.500, 692.694 325.500, 695.367 322.332 C 696.837 320.589, 698.919 317.214, 699.993 314.832 C 701.066 312.449, 702.854 309.150, 703.966 307.500 C 705.077 305.850, 705.990 303.763, 705.993 302.862 C 705.997 301.961, 707.556 298.962, 709.459 296.196 C 713.340 290.554, 720 274.360, 720 270.566 C 720 269.204, 722.007 262.895, 724.461 256.548 C 731.043 239.516, 731.503 237.399, 729.321 234.167 C 727.939 232.121, 727.513 229.495, 727.492 222.882 C 727.464 214.202, 726.362 211, 723.406 211 C 721.121 211, 700.971 219.561, 692 224.343 C 678.939 231.306, 674.175 232.695, 672.340 230.075 C 669.620 226.191, 666.194 227.629, 664.321 233.439 C 659.719 247.719, 654.196 245.032, 621.937 212.814 C 606.296 197.195, 591.700 183.089, 589.500 181.467 C 584.532 177.805, 565.501 160.536, 562.051 156.559 C 555.979 149.558, 538.182 131.166, 531.513 125 C 529.431 123.075, 523.194 116.550, 517.653 110.500 C 512.112 104.450, 506.767 98.908, 505.776 98.184 C 504.784 97.460, 503.106 95.210, 502.046 93.184 C 500.985 91.158, 497.444 86.663, 494.175 83.195 C 488.233 76.889, 488.233 76.889, 487.517 65.439 C 486.952 56.386, 486.459 53.797, 485.166 53.073 C 483.740 52.275, 483.884 51.879, 486.285 49.990 C 497.747 40.974, 488.715 25.393, 476.743 33.529 M 452.563 56.456 C 453.448 57.807, 453.835 59.458, 453.422 60.126 C 452.877 61.008, 453.195 61.113, 454.586 60.508 C 455.639 60.051, 458.169 59.479, 460.209 59.237 C 463.918 58.798, 463.918 58.798, 459.406 56.399 C 453.139 53.067, 450.358 53.090, 452.563 56.456 M 468 60.237 C 469.925 60.749, 473.018 61.824, 474.873 62.627 C 477.936 63.951, 478.189 63.936, 477.623 62.461 C 477.281 61.567, 476.996 60.536, 476.992 60.168 C 476.987 59.801, 474.175 59.457, 470.742 59.403 C 465.139 59.317, 464.858 59.402, 468 60.237 M 474 82.168 C 472.075 83.356, 466.218 86.445, 460.984 89.031 C 455.751 91.618, 449.972 94.994, 448.142 96.534 C 444.909 99.255, 441.507 101.254, 428 108.372 C 424.425 110.256, 420.375 113.011, 419 114.495 C 417.625 115.979, 413.326 118.702, 409.447 120.548 C 405.568 122.394, 400.393 125.514, 397.947 127.483 C 395.501 129.451, 389.156 133.009, 383.846 135.389 C 377.982 138.018, 372.683 141.201, 370.346 143.497 C 368.231 145.576, 364.025 148.381, 361 149.731 C 357.975 151.080, 353.700 153.642, 351.500 155.424 C 345.302 160.443, 336.680 166, 335.091 166 C 334.301 166, 331.066 168.252, 327.900 171.005 C 324.735 173.758, 321.127 176.387, 319.881 176.848 C 317.849 177.600, 318.299 178.022, 324.253 180.953 C 334.396 185.946, 334.558 186.244, 334.177 199.243 C 333.855 210.271, 333.855 210.271, 336.177 209.649 C 337.455 209.307, 341.087 209.021, 344.250 209.014 C 350 209, 350 209, 350 205.697 C 350 196.352, 357.883 191.513, 371.746 192.349 C 377.110 192.673, 384.200 193.096, 387.500 193.290 C 395.783 193.777, 398.583 195.212, 401.763 200.596 C 404.591 205.386, 420.645 206.109, 463.145 203.362 C 475.034 202.593, 475.568 203.102, 474 213.692 C 472.919 220.996, 474.130 245.599, 476.206 258.500 C 476.825 262.350, 477.508 271.266, 477.722 278.312 C 478.197 293.900, 481.336 297.611, 481.672 282.983 C 481.766 278.867, 481.893 274.213, 481.953 272.641 C 482.014 271.068, 481.589 269.210, 481.009 268.511 C 480.308 267.666, 479.788 247.158, 479.457 207.370 C 479.183 174.442, 478.460 140.525, 477.850 132 C 477.182 122.657, 477.021 109.251, 477.446 98.250 C 477.834 88.213, 478.005 80.002, 477.826 80.004 C 477.647 80.006, 475.925 80.980, 474 82.168 M 488.378 124.500 C 488.758 143.750, 489.602 165.800, 490.253 173.500 C 490.919 181.375, 491.450 206.203, 491.468 230.249 C 491.501 274.597, 493.862 280.101, 509.306 271.836 C 510.502 271.196, 514.860 270.585, 518.990 270.478 C 528.080 270.242, 534.990 269.293, 541 267.454 C 546.535 265.761, 552.217 264.619, 590.500 257.507 C 604.359 254.932, 617.893 251.647, 629.500 248.040 C 632.800 247.015, 636.786 245.891, 638.357 245.542 C 641.214 244.908, 641.214 244.908, 635.857 239.292 C 615.534 217.986, 590.939 194.244, 573.919 179.500 C 562.826 169.890, 557.791 164.930, 544 150.022 C 538.225 143.779, 532.385 137.733, 531.022 136.586 C 523.587 130.327, 497.542 102.240, 493.969 96.628 C 487.449 86.384, 487.608 85.589, 488.378 124.500 M 298.166 194.870 C 298.546 213.235, 296.813 211.701, 315.671 210.363 C 324.650 209.725, 324.650 209.725, 324.575 204.613 C 324.534 201.801, 324.845 197.879, 325.267 195.899 C 326.033 192.305, 326.021 192.289, 319.984 188.899 C 296.600 175.763, 297.764 175.445, 298.166 194.870 M 360.883 202.666 C 357.086 207.076, 357.554 208.333, 362.728 207.622 C 365.353 207.261, 373.462 206.678, 380.750 206.328 C 388.038 205.977, 394 205.365, 394 204.967 C 394 201.318, 363.848 199.223, 360.883 202.666 M 416.500 213.513 C 388.896 214.686, 377.107 215.358, 333.500 218.243 C 323.050 218.934, 307.878 219.447, 299.784 219.382 C 281.070 219.232, 282.435 216.213, 282.797 256.951 C 282.946 273.699, 283.194 287.527, 283.347 287.681 C 284.039 288.373, 313.062 290.272, 313.669 289.665 C 314.044 289.290, 314.260 287.524, 314.150 285.741 C 312.130 253.091, 315.491 246.011, 333.015 246.004 C 352.435 245.996, 356.880 251.464, 358.384 277.203 C 359.379 294.243, 359.379 294.243, 386.440 293.738 C 401.323 293.460, 422.050 293.686, 432.500 294.240 C 460.444 295.720, 467.590 294.511, 468.426 288.160 C 468.764 285.597, 469.283 281.700, 469.580 279.500 C 469.878 277.300, 469.179 269.875, 468.027 263 C 466.716 255.167, 465.701 243.312, 465.311 231.250 C 464.596 209.140, 470.336 211.226, 416.500 213.513 M 710.250 225.183 C 702.308 228.575, 702.075 229.012, 704.636 235.717 C 706.495 240.586, 706.757 240.661, 713.258 238.191 C 719.741 235.729, 720.071 235.260, 718.919 230.135 C 718.380 227.734, 718.207 224.922, 718.537 223.885 C 719.314 221.437, 718.850 221.509, 710.250 225.183 M 689.251 235.491 C 686.914 236.779, 683.089 238.468, 680.751 239.244 C 673.280 241.725, 673.706 249.470, 681.196 247.336 C 684.113 246.505, 688.862 245.370, 691.750 244.813 C 697.507 243.703, 697.749 243.233, 695.842 236.866 C 694.501 232.391, 694.772 232.448, 689.251 235.491 M 431.398 239.935 C 414.836 240.778, 414.406 241.405, 413.875 265.500 C 413.451 284.733, 409.953 282.724, 442 281.651 C 463.062 280.945, 462 282.148, 462 258.990 C 462 236.542, 464.727 238.240, 431.398 239.935 M 374 242.629 C 362.676 244.649, 360.632 248.266, 360.226 267 C 359.814 285.986, 357.962 284.397, 381.212 285 C 409.755 285.740, 408.619 286.483, 409.556 266.452 C 410.304 250.460, 409.516 246.388, 405.240 244.148 C 403.328 243.147, 378 241.915, 374 242.629 M 713 247.075 C 706.709 249.373, 689.240 254.158, 673 258.029 C 670.525 258.619, 664.900 260.412, 660.500 262.013 C 656.100 263.615, 648.900 266.025, 644.500 267.368 C 640.100 268.712, 633.800 271.033, 630.500 272.526 C 616.131 279.024, 592.073 285.434, 578.167 286.469 C 573.033 286.851, 566.283 287.970, 563.167 288.956 C 552.419 292.356, 541.410 293.928, 514 295.980 C 496.475 297.291, 481.009 298.877, 480.069 299.457 C 477.143 301.266, 451.074 303.033, 436 302.445 C 426.925 302.091, 399.475 301.693, 375 301.561 C 346.758 301.410, 328.302 300.904, 324.484 300.177 C 316.285 298.616, 284.628 296.006, 273.539 295.976 C 268.567 295.962, 262.498 295.490, 260.051 294.926 C 251.896 293.046, 225.431 289.962, 213.500 289.500 C 209.650 289.351, 204.588 288.893, 202.250 288.483 C 197.230 287.601, 196.951 288.380, 200.357 293.770 C 202.875 297.756, 208.289 299.527, 230 303.466 C 234.125 304.214, 241.775 305.797, 247 306.984 C 254.371 308.658, 258.405 309.021, 265 308.603 C 269.675 308.306, 277.775 308.489, 283 309.009 C 288.225 309.530, 299.990 310.183, 309.144 310.462 C 318.298 310.741, 327.073 311.462, 328.644 312.065 C 331.845 313.293, 350.748 313.399, 353.971 312.206 C 355.116 311.783, 360.429 311.879, 365.777 312.421 C 371.125 312.963, 379.550 313.345, 384.500 313.269 C 421.704 312.697, 430.645 312.406, 431.684 311.732 C 432.336 311.309, 437.286 310.948, 442.684 310.929 C 448.083 310.910, 455.875 310.481, 460 309.975 C 464.125 309.470, 473.019 308.805, 479.764 308.498 C 486.509 308.191, 493.223 307.485, 494.684 306.930 C 496.145 306.375, 502.551 305.758, 508.920 305.560 C 515.289 305.363, 523.565 304.481, 527.312 303.600 C 531.059 302.720, 536.684 301.973, 539.812 301.940 C 542.940 301.908, 547.750 301.448, 550.500 300.920 C 553.250 300.391, 560.481 299.588, 566.569 299.134 C 572.848 298.667, 580.421 297.409, 584.069 296.227 C 601.717 290.509, 616.656 285.985, 618 285.951 C 618.825 285.930, 621.300 285.214, 623.500 284.361 C 625.700 283.507, 629.525 282.435, 632 281.977 C 639.573 280.577, 649.370 278.191, 652.515 276.980 C 654.157 276.348, 659.100 274.992, 663.500 273.967 C 679.699 270.195, 694.843 263.791, 706.850 255.634 C 709.793 253.635, 713.269 252, 714.575 252 C 716.192 252, 717.435 251.060, 718.474 249.050 C 720.976 244.212, 720.906 244.186, 713 247.075 M 663.216 246.845 C 661.294 248.065, 662.886 251, 665.468 251 C 667.334 251, 667.640 250.569, 667.245 248.500 C 666.754 245.935, 665.477 245.411, 663.216 246.845 M 435.344 247.745 C 422.787 248.144, 423.099 247.790, 422.309 262.533 C 421.608 275.613, 419.154 274.577, 445.619 272.380 C 453.492 271.727, 454 270.574, 454 253.353 C 454 247, 454 247, 449.750 247.211 C 447.413 247.327, 440.930 247.567, 435.344 247.745 M 374.251 251.659 C 369.829 252.295, 369.157 254.050, 368.923 265.568 C 368.655 278.825, 399.105 282.417, 400.346 269.275 C 401.804 253.839, 401.474 252.001, 397.250 251.994 C 395.188 251.991, 389.900 251.809, 385.500 251.590 C 381.100 251.371, 376.038 251.402, 374.251 251.659 M 652 253.286 C 652 256.047, 653.332 256.890, 654.559 254.904 C 654.932 254.301, 654.508 253.080, 653.618 252.190 C 652.127 250.699, 652 250.785, 652 253.286 M 633.500 256.039 C 630.200 257.101, 626.656 257.977, 625.625 257.985 C 624.053 257.998, 623.853 258.514, 624.385 261.177 C 625.263 265.563, 625.401 265.608, 630.753 263.228 C 633.364 262.066, 637.188 260.605, 639.250 259.981 C 643.094 258.817, 643.445 258.324, 642.393 255.582 C 641.637 253.611, 640.929 253.648, 633.500 256.039 M 323.561 257.614 C 322.869 260.370, 322.520 289.854, 323.172 290.505 C 323.504 290.838, 347.473 294, 349.663 294 C 350.487 294, 349.427 267.757, 348.416 263.122 C 346.690 255.205, 325.352 250.477, 323.561 257.614 M 329.762 261.508 C 325.253 264.581, 324.205 267.980, 326.095 273.404 C 330.550 286.187, 347.934 278.827, 344.606 265.567 C 343.194 259.940, 335.251 257.768, 329.762 261.508 M 607 263.071 C 603.425 264.057, 598.981 264.894, 597.125 264.932 C 593.888 264.997, 593.776 265.128, 594.375 268.125 C 594.719 269.844, 595 272.114, 595 273.170 C 595 274.845, 595.480 275.003, 598.750 274.404 C 604.120 273.420, 616.113 269.437, 616.052 268.658 C 616.023 268.296, 616 266.425, 616 264.500 C 616 260.527, 616.142 260.550, 607 263.071 M 708.038 265.041 C 706.134 266.668, 704.109 268.002, 703.538 268.005 C 702.967 268.008, 699.575 269.505, 696 271.332 C 684.203 277.361, 651.699 287.211, 635.500 289.665 C 633.300 289.999, 630.600 290.737, 629.500 291.306 C 628.400 291.875, 622.775 293.595, 617 295.127 C 611.225 296.660, 603.800 298.788, 600.500 299.857 C 582.639 305.641, 577.169 306.869, 567.490 307.264 C 561.985 307.489, 556.502 308.196, 555.306 308.836 C 554.110 309.476, 549.164 310.011, 544.316 310.024 C 538.779 310.038, 532.736 310.782, 528.068 312.024 C 523.689 313.188, 517.320 314.014, 512.568 314.035 C 508.130 314.054, 500.900 314.720, 496.500 315.515 C 492.100 316.310, 484.399 316.970, 479.386 316.980 C 474.374 316.991, 467.849 317.517, 464.886 318.148 C 459.659 319.263, 453.680 319.558, 419 320.416 C 409.925 320.640, 397.550 321.142, 391.500 321.531 C 385.193 321.936, 376.020 321.782, 370 321.170 C 363.127 320.470, 355.174 320.410, 346.977 320.997 C 339.543 321.528, 332.838 321.525, 330.477 320.988 C 328.290 320.491, 319.075 319.808, 310 319.469 C 300.925 319.131, 291.025 318.381, 288 317.802 C 284.975 317.223, 275.975 316.804, 268 316.870 C 253.840 316.989, 248.200 316.360, 237 313.416 C 233.975 312.621, 227.675 311.306, 223 310.494 C 218.325 309.683, 212.804 308.610, 210.731 308.110 C 206.962 307.202, 206.962 307.202, 209.146 310.851 C 212.550 316.539, 214.169 318.081, 216.095 317.470 C 217.062 317.163, 220.024 317.558, 222.677 318.348 C 227.243 319.708, 244.496 322.551, 253.759 323.470 C 256.101 323.703, 258.379 324.116, 258.822 324.390 C 259.264 324.663, 268.147 325.365, 278.563 325.950 C 288.978 326.535, 301.325 327.451, 306 327.985 C 331.517 330.900, 400.520 332.227, 418 330.138 C 422.695 329.577, 428.840 329.621, 434.430 330.254 C 443.425 331.274, 455.012 330.333, 464.500 327.812 C 468.291 326.805, 477.899 325.724, 495.235 324.355 C 500.342 323.952, 503.963 324.156, 505.893 324.956 C 508.350 325.974, 509.233 325.894, 511.431 324.454 C 513.321 323.215, 516.461 322.689, 522.772 322.555 C 529.360 322.415, 532.651 321.834, 536.195 320.185 C 538.777 318.983, 542.806 318, 545.147 318 C 547.487 318, 553.925 317.135, 559.451 316.078 C 564.978 315.020, 573.550 313.665, 578.500 313.067 C 583.450 312.468, 589.975 311.499, 593 310.913 C 596.025 310.328, 600.975 309.370, 604 308.785 C 615.240 306.612, 625.831 303.794, 656 294.948 C 659.575 293.900, 666.100 292.174, 670.500 291.111 C 690.993 286.164, 709.734 277.237, 710.531 272.043 C 710.829 270.094, 711.465 267.038, 711.943 265.250 C 713.005 261.281, 712.470 261.252, 708.038 265.041 M 578.250 268.800 C 572 270.173, 572 270.173, 572 274.694 C 572 278.405, 572.283 279.105, 573.582 278.607 C 574.452 278.273, 576.411 278, 577.936 278 C 582.275 278, 586.476 273.565, 585.375 270.145 C 584.500 267.426, 584.500 267.426, 578.250 268.800 M 236 271 C 236 271.550, 236.384 272, 236.854 272 C 239.293 272, 243 277.087, 243 280.433 C 243 284.393, 243.144 284.461, 253.618 285.476 C 259.736 286.069, 259.736 286.069, 260.368 282.910 C 261.818 275.659, 261.317 274.142, 257.250 273.481 C 255.188 273.146, 251.685 272.226, 249.467 271.436 C 244.853 269.793, 236 269.507, 236 271 M 553 273.550 C 550.525 274.259, 547.460 274.875, 546.189 274.920 C 544.008 274.995, 543.916 275.268, 544.567 279.750 C 545.419 285.621, 545.178 285.391, 549.175 284.160 C 551.004 283.596, 554.525 282.602, 557 281.950 C 559.475 281.298, 562.063 280.606, 562.750 280.413 C 563.485 280.207, 564 278.403, 564 276.031 C 564 271.416, 562.015 270.968, 553 273.550 M 528 279.149 C 525.525 279.660, 521.813 279.831, 519.750 279.527 C 516 278.976, 516 278.976, 516 283.034 C 516 287.092, 516 287.092, 526.250 286.411 C 538.363 285.607, 537.071 286.211, 536.338 281.697 C 535.684 277.663, 535.485 277.602, 528 279.149 M 214 279.763 C 214 280.669, 216.608 281.134, 230.250 282.661 C 235.923 283.296, 236.775 281.522, 231.250 280.578 C 223.326 279.225, 214 278.785, 214 279.763 M 490.533 282.250 C 488.818 287.559, 490.410 290.159, 495 289.547 C 506.497 288.013, 507 287.864, 507 285.994 C 507 284.987, 507.273 283.452, 507.607 282.582 C 508.132 281.215, 507.042 281, 499.576 281 C 493.547 281, 490.815 281.378, 490.533 282.250 M 701 289.487 C 697.956 291.211, 680.561 297.323, 673 299.325 C 669.975 300.126, 665.475 301.317, 663 301.971 C 646.458 306.349, 637.103 308.978, 634.515 309.977 C 632.873 310.611, 628.823 311.754, 625.515 312.517 C 622.207 313.280, 617.055 314.597, 614.067 315.443 C 611.079 316.289, 605.679 317.269, 602.067 317.621 C 598.455 317.973, 594.031 318.857, 592.235 319.585 C 590.439 320.314, 584.364 321.213, 578.735 321.583 C 573.106 321.952, 566.700 322.869, 564.500 323.620 C 562.300 324.371, 556.675 325.273, 552 325.625 C 546.597 326.032, 541.416 327.128, 537.780 328.633 C 534.634 329.935, 530.472 331, 528.530 331 C 526.589 331, 525 331.265, 525 331.590 C 525 332.297, 529.238 335.919, 530.121 335.967 C 530.463 335.985, 534.738 338.184, 539.621 340.854 C 550.795 346.963, 573.835 351.523, 592 351.220 C 599.363 351.098, 613.587 349.318, 615.502 348.280 C 616.603 347.683, 625.378 345.288, 635.002 342.957 C 644.626 340.626, 654.750 337.740, 657.500 336.543 C 660.250 335.346, 664.638 333.835, 667.250 333.184 C 681.832 329.550, 680.984 329.953, 683.187 325.605 C 684.330 323.347, 686.515 319.913, 688.041 317.972 C 691.278 313.858, 699 299.504, 699 297.603 C 699 296.886, 700.353 294.433, 702.006 292.150 C 705.203 287.737, 705.007 287.217, 701 289.487 M 250.527 333.591 C 251.001 334.641, 251.563 338.248, 251.774 341.606 C 252.208 348.503, 252.992 348.532, 265.809 342.124 C 268.939 340.559, 273.866 338.503, 276.758 337.556 C 283.972 335.193, 282.782 334.416, 270.786 333.658 C 265.129 333.300, 258.062 332.709, 255.082 332.345 C 250.002 331.723, 249.718 331.801, 250.527 333.591 M 295.177 335.743 C 290.576 337.386, 303.430 342.132, 314 342.692 C 318.125 342.910, 326.450 343.407, 332.500 343.795 C 355.343 345.260, 405.145 342.812, 402.679 340.346 C 402.427 340.093, 392.226 339.909, 380.011 339.937 C 367.796 339.964, 353.684 339.532, 348.651 338.976 C 343.618 338.420, 330.187 337.564, 318.805 337.075 C 307.422 336.586, 297.747 335.979, 297.305 335.728 C 296.862 335.476, 295.904 335.483, 295.177 335.743 M 896 347.790 C 891.580 352.490, 886.513 354.171, 880.994 352.770 C 874.977 351.243, 869.853 357.293, 874.250 360.733 C 876.258 362.305, 884.993 364.130, 887.343 363.470 C 898.943 360.210, 900 359.200, 900 351.384 C 900 347.323, 899.888 344.015, 899.750 344.034 C 899.612 344.053, 897.925 345.743, 896 347.790 M 471.178 352.367 C 461.347 355.676, 459.147 357.538, 460.993 360.987 C 462.397 363.610, 464.807 363.526, 474.500 360.515 C 484.866 357.295, 485.730 357.342, 493.663 361.550 C 500.887 365.383, 505.494 365.785, 507.394 362.750 C 508.935 360.289, 507.146 357.782, 502.808 356.327 C 500.885 355.682, 497.129 353.769, 494.460 352.077 C 488.224 348.122, 483.618 348.180, 471.178 352.367 M 711.500 370.132 C 708.750 371.245, 705.825 372.737, 705 373.449 C 695.888 381.307, 670.143 390.186, 652.500 391.555 C 643.281 392.271, 640 393.688, 640 396.955 C 640 406.048, 678.555 398.654, 702.338 385 C 706.649 382.525, 711.149 379.944, 712.338 379.265 C 716.384 376.953, 719.362 377.788, 725.050 382.832 C 738.187 394.480, 749.744 399.762, 759.276 398.475 C 772.860 396.641, 771.868 389.587, 758 389.397 C 747.310 389.251, 743.267 387.143, 727.032 373.250 C 720.232 367.431, 718.857 367.155, 711.500 370.132 M 839.353 378.300 C 836.862 380.551, 832.920 382.634, 828.473 384.050 C 818.495 387.227, 816.296 390.243, 820.913 394.421 C 823.798 397.032, 840.078 392.226, 843.884 387.640 C 844.986 386.312, 845.363 386.363, 847.067 388.067 C 848.949 389.949, 851.915 390.551, 856.988 390.080 C 864.391 389.394, 863.645 380, 856.188 380 C 855.119 380, 853.627 379.072, 852.872 377.937 C 850.262 374.013, 843.909 374.184, 839.353 378.300 M 303.806 383.399 C 301.224 384.094, 298.524 385.130, 297.806 385.702 C 297.088 386.274, 294.025 387.332, 291 388.054 C 287.975 388.775, 285.072 389.733, 284.550 390.183 C 284.027 390.632, 282.574 391, 281.320 391 C 280.066 391, 277.344 391.626, 275.270 392.390 C 273.197 393.155, 268.575 394.719, 265 395.866 C 256.463 398.606, 242.347 403.667, 241.107 404.434 C 240.568 404.767, 235.795 405.449, 230.500 405.950 C 220.613 406.886, 218 407.941, 218 411 C 218 416.555, 232.651 416.297, 249.339 410.447 C 268.396 403.767, 277.260 400.923, 282.382 399.844 C 285.197 399.252, 287.950 398.428, 288.500 398.014 C 289.050 397.600, 291.279 396.940, 293.453 396.547 C 295.628 396.154, 299.003 395.035, 300.953 394.059 C 307.278 390.896, 311.611 390.757, 313.511 393.657 C 317.092 399.123, 355.394 404.206, 359.800 399.800 C 365.004 394.596, 359.471 392.304, 339.674 391.464 C 322.847 390.751, 322.847 390.751, 318.534 386.375 C 313.786 381.560, 311.987 381.196, 303.806 383.399 M 495.500 389.875 C 483.238 394.542, 485.382 402.234, 497.817 398.191 C 504.494 396.021, 504.494 396.021, 510.028 399.436 C 517.171 403.846, 520.088 404.515, 525.522 402.994 C 534.964 400.350, 534.134 393.239, 524.515 394.369 C 519.249 394.988, 511.873 391.840, 509.467 387.947 C 508.461 386.320, 502.780 387.104, 495.500 389.875 M 439.301 416.425 C 436.991 417.746, 434.516 419.305, 433.801 419.891 C 433.085 420.476, 430.322 422.777, 427.659 425.003 C 424.997 427.230, 420.947 430.001, 418.659 431.160 C 416.372 432.320, 414.275 433.584, 414 433.970 C 413.725 434.355, 409.900 435.227, 405.500 435.907 C 393.056 437.829, 393.084 437.819, 392.386 440.600 C 389.760 451.060, 418.161 445.013, 433 431.953 C 443.889 422.369, 447.124 421.372, 449.882 426.750 C 456.117 438.907, 491.709 450.964, 497.396 442.845 C 499.971 439.168, 497.888 437, 491.779 437 C 480.394 437, 460.764 429.092, 458.125 423.443 C 453.865 414.322, 447.275 411.865, 439.301 416.425 M 652.507 427.986 C 650.860 429.071, 647.035 430.445, 644.007 431.039 C 640.978 431.633, 636.475 432.786, 634 433.603 C 623.510 437.063, 606.180 439.899, 599.135 439.308 C 592.783 438.776, 592.122 438.903, 591.073 440.864 C 587.164 448.167, 600.658 450.330, 621 445.661 C 637.076 441.971, 650.553 438.428, 654.095 436.960 C 656.305 436.045, 657.683 436.002, 659.300 436.796 C 672.073 443.070, 717.765 445.791, 727.250 440.843 C 733.517 437.573, 727.777 432.327, 719.585 433.836 C 703.931 436.721, 666.492 432.635, 661.336 427.479 C 659.307 425.450, 656.072 425.636, 652.507 427.986 M 145.984 428.470 C 142.949 429.135, 139.574 430.154, 138.484 430.733 C 137.393 431.312, 132.450 432.596, 127.500 433.585 C 117.298 435.623, 116 436.301, 116 439.587 C 116 444.534, 123.463 444.386, 141.856 439.074 C 153.530 435.703, 155.575 435.706, 158.431 439.100 C 164.473 446.281, 191.403 449.598, 194.180 443.504 C 196.420 438.588, 193.530 437.212, 180.169 436.832 C 168.500 436.500, 168.500 436.500, 163.691 431.750 C 158.342 426.466, 156.596 426.143, 145.984 428.470" stroke="none" fill="#040404" fill-rule="evenodd"/></svg>