<?xml version="1.0" encoding="utf-8"?>
<svg xmlns="http://www.w3.org/2000/svg" viewBox="0 0 500 500">
  <path style="stroke: rgb(0, 0, 0); stroke-width: 6px; paint-order: stroke; fill: none;" d="M 202.439 131.708 C 167.411 158.149 138.316 193.79 102.036 217.264 C 88.456 226.05 74.076 234.464 61.667 245.391 C 60.34 246.561 43.664 255.479 45.106 257.112 C 53.024 266.077 67.436 270.339 77.194 275.864 C 96.356 286.712 118.094 296.645 139.298 301.648 C 148.777 303.883 171.373 303.977 178.632 312.196"/>
  <path style="stroke: rgb(0, 0, 0); fill: none; stroke-width: 6px;" d="M 201.22 301.22 C 211.606 298.623 225.408 268.696 230.488 258.537 C 248.153 223.206 277.677 195.493 301.22 171.951 C 304.43 168.741 314.408 143.902 317.073 143.902"/>
  <path style="stroke: rgb(0, 0, 0); fill: none; stroke-width: 6px;" d="M 358.537 132.927 C 362.145 141.347 369.577 156.74 378.049 160.976 C 382.386 163.144 391.375 165.678 393.902 170.732 C 405.144 193.216 421.821 210.91 439.024 219.512 C 445.034 222.517 467.153 247.402 465.854 250 C 462.768 256.171 452.686 258.352 447.561 262.195 C 429.682 275.605 396.869 276.302 381.707 291.463 C 374.019 299.151 357.745 311.981 347.561 317.073 C 343.523 319.092 338.498 328.049 332.927 328.049"/>
  <path style="fill: rgb(216, 216, 216); stroke: rgb(0, 0, 0);" d="M 645.122 396.341 C 644.43 394.265 642.683 392.433 642.683 390.244"/>
</svg>