<svg xmlns="http://www.w3.org/2000/svg" width="900" height="450" viewBox="0 0 900 450" version="1.1"><path d="M 469.135 49.974 C 466.453 54.746, 467.258 57.080, 472.436 59.536 C 476.624 61.524, 479.679 60.281, 480.581 56.221 C 480.914 54.725, 481.386 52.755, 481.630 51.845 C 483.168 46.116, 472.224 44.477, 469.135 49.974 M 520.758 56.575 C 520.441 56.892, 518.392 57.284, 516.203 57.448 C 502.676 58.456, 516.459 66.358, 535.500 68.512 C 544.783 69.561, 559.139 72.817, 570.488 76.446 C 574.881 77.851, 579.385 79, 580.496 79 C 581.607 79, 584.549 80.082, 587.034 81.405 C 589.519 82.728, 593.790 84.144, 596.526 84.551 C 599.262 84.959, 604.350 86.802, 607.833 88.646 C 611.316 90.491, 615.414 92, 616.939 92 C 618.577 92, 621.618 93.455, 624.366 95.553 C 629.439 99.427, 631.372 99.332, 630.350 95.257 C 629.011 89.923, 621.523 83.814, 608.750 77.635 C 605.587 76.105, 603 74.509, 603 74.089 C 603 69.157, 563.493 58.856, 537.500 57.011 C 520.902 55.833, 521.485 55.848, 520.758 56.575 M 523 60.680 C 523 61.588, 527.085 62.564, 543 65.458 C 557.283 68.055, 560.156 68.745, 569.959 71.928 C 575.162 73.618, 580.373 75, 581.540 75 C 582.707 75, 585.791 76.078, 588.394 77.396 C 590.996 78.714, 595.235 80.098, 597.813 80.471 C 600.391 80.845, 604.750 82.398, 607.500 83.922 C 613.713 87.365, 619.980 89.170, 616.115 86.405 C 614.803 85.466, 611.160 83.453, 608.019 81.931 C 604.877 80.409, 601.653 78.511, 600.855 77.712 C 598.952 75.809, 594.365 73.476, 590 72.190 C 588.075 71.623, 584.025 70.219, 581 69.070 C 573.184 66.102, 551.101 61.944, 540.500 61.443 C 535.550 61.210, 529.587 60.738, 527.250 60.396 C 524.913 60.053, 523 60.181, 523 60.680 M 322 66.864 C 321.175 67.306, 314.875 68.893, 308 70.391 C 284.026 75.616, 261.656 87.424, 251.760 100.077 C 250.517 101.666, 248.444 104.336, 247.153 106.009 C 242.133 112.514, 245.617 113.473, 254.826 108.120 C 258.496 105.986, 264.703 102.665, 268.619 100.739 C 272.534 98.814, 277.709 96.091, 280.119 94.688 C 282.528 93.285, 286.944 91.181, 289.932 90.012 C 294.869 88.079, 298.958 86.798, 318.894 80.938 C 331.596 77.205, 341.497 70.509, 338.916 67.399 C 337.632 65.852, 324.657 65.441, 322 66.864 M 431.500 70.035 C 422.700 70.477, 414.150 71.060, 412.500 71.331 C 410.850 71.602, 403.875 72.332, 397 72.953 C 386.034 73.944, 371.409 76.511, 348.976 81.384 C 345.387 82.163, 338.862 84.145, 334.476 85.787 C 330.089 87.429, 324.475 89.451, 322 90.281 C 317.270 91.867, 293.438 100.890, 279 106.562 C 274.325 108.398, 268.039 111.247, 265.032 112.892 C 261.068 115.059, 259.216 115.594, 258.301 114.835 C 256.018 112.940, 240 123.206, 240 126.565 C 240 134.333, 256.252 131.223, 289.909 117.016 C 305.076 110.614, 314.375 107.091, 319 105.993 C 330.957 103.156, 360.613 97.888, 372.500 96.489 C 380.200 95.583, 387.625 94.694, 389 94.514 C 390.375 94.334, 394.650 93.881, 398.500 93.508 C 402.350 93.134, 409.100 91.916, 413.500 90.801 C 417.900 89.685, 426.675 88.175, 433 87.444 C 439.325 86.713, 447.977 85.628, 452.227 85.032 C 461.871 83.681, 506.073 87.073, 509.936 89.460 C 510.432 89.767, 514.768 90.703, 519.573 91.541 C 524.378 92.379, 531.052 93.945, 534.404 95.023 C 537.757 96.100, 546.350 98.842, 553.500 101.117 C 560.650 103.392, 569.801 106.996, 573.835 109.126 C 577.869 111.257, 581.838 113, 582.655 113 C 583.471 113, 586.021 114.272, 588.320 115.826 C 590.619 117.381, 596.437 120.779, 601.249 123.378 C 606.061 125.977, 612.047 129.877, 614.552 132.045 C 617.057 134.213, 620.094 136.509, 621.303 137.149 C 629.657 141.568, 642.183 154.403, 646.044 162.500 C 648.860 168.405, 649.071 169.540, 653.021 199.863 C 656.023 222.915, 641.523 242.485, 606.500 262.652 C 599.160 266.878, 581.771 275.201, 579.836 275.415 C 578.551 275.557, 574.391 277.323, 570.592 279.340 C 566.792 281.358, 561.842 283.453, 559.592 283.996 C 555.870 284.895, 549.302 286.806, 537 290.572 C 531.999 292.103, 529.493 292.535, 520 293.508 C 516.425 293.875, 511.250 294.796, 508.500 295.556 C 505.750 296.316, 497.425 297.433, 490 298.038 C 473.094 299.417, 472.139 299.440, 463 298.698 C 458.875 298.364, 448.975 297.621, 441 297.047 C 391.229 293.469, 369.551 282.833, 375.361 264.844 C 376.263 262.053, 377 259.204, 377 258.513 C 377 257.052, 393.505 262.245, 395.994 264.489 C 399.139 267.325, 421.330 274.284, 431 275.466 C 434.025 275.836, 437.850 276.536, 439.500 277.023 C 444.364 278.456, 473.619 279.062, 487.065 278.007 C 505.179 276.586, 516.991 273.039, 536.992 263.013 C 565.332 248.807, 571.342 243.492, 589.476 216.595 C 603.777 195.382, 577.753 155.424, 545.851 149.612 C 543.844 149.246, 540.911 148.304, 539.334 147.517 C 536.470 146.088, 525.273 143.756, 512.985 142.029 C 509.402 141.526, 504.452 140.670, 501.985 140.128 C 499.518 139.585, 490.075 138.845, 481 138.482 C 471.925 138.120, 463.147 137.479, 461.493 137.059 C 458.304 136.249, 407.549 138.291, 405 139.332 C 403.671 139.874, 392.175 141.583, 383.310 142.556 C 381.555 142.749, 376.942 143.827, 373.060 144.953 C 369.177 146.079, 362.738 147.907, 358.750 149.015 C 320.098 159.755, 288.768 172.361, 277.231 181.814 C 274.079 184.397, 268.985 188.419, 265.911 190.752 C 239.838 210.544, 225.516 242.289, 231.389 267.272 C 233.622 276.771, 241.142 293.044, 245.862 298.592 C 247.313 300.297, 249.625 303.157, 251 304.946 C 252.375 306.735, 256.449 311.417, 260.053 315.349 C 263.656 319.282, 267.685 324.427, 269.005 326.783 C 271.765 331.708, 280.764 338.937, 284.774 339.450 C 289.522 340.058, 304.254 345.163, 311 348.537 C 314.575 350.325, 318.625 352.118, 320 352.522 C 321.375 352.925, 324.300 354.265, 326.500 355.500 C 361.719 375.260, 374.563 377.620, 451.539 378.472 C 503.724 379.050, 516.799 378.422, 534.500 374.484 C 538.350 373.627, 543.750 372.485, 546.500 371.945 C 568.734 367.582, 598.633 358.097, 624.854 347.088 C 628.898 345.389, 632.724 344, 633.356 344 C 639.202 344, 667.717 322.032, 666.383 318.556 C 665.754 316.917, 661.144 317.121, 658.500 318.906 C 657.950 319.277, 654.800 320.432, 651.500 321.473 C 648.200 322.514, 645.050 323.682, 644.500 324.068 C 643.950 324.454, 639 326.423, 633.500 328.444 C 628 330.465, 622.150 332.732, 620.500 333.483 C 613.412 336.706, 589.263 345, 586.967 345 C 585.868 345, 579.013 346.522, 571.734 348.381 C 564.455 350.241, 555.350 352.328, 551.500 353.020 C 547.650 353.712, 541.125 355.092, 537 356.087 C 514.195 361.589, 514.979 361.509, 486 361.338 C 461.900 361.196, 456.645 360.869, 443.500 358.693 C 435.250 357.327, 427.825 356.196, 427 356.180 C 424.318 356.128, 407.741 353.958, 407.112 353.576 C 406.775 353.372, 401.100 352.480, 394.500 351.594 C 387.900 350.707, 380.250 349.353, 377.500 348.584 C 374.750 347.816, 370.025 346.488, 367 345.634 C 363.975 344.780, 355.425 342.525, 348 340.623 C 340.575 338.720, 333.150 336.650, 331.500 336.022 C 325.634 333.789, 318 329.752, 318 328.883 C 318 328.397, 317.502 328, 316.894 328 C 316.286 328, 314.148 326.712, 312.144 325.139 C 310.140 323.565, 304.338 320.152, 299.250 317.555 C 294.163 314.957, 290 312.445, 290 311.973 C 290 311.500, 288.654 310.318, 287.008 309.346 C 285.233 308.297, 283.541 306.139, 282.849 304.039 C 282.208 302.093, 279.205 296.698, 276.177 292.051 C 265.131 275.099, 261.662 260.306, 265.877 248.127 C 267.045 244.753, 268 241.373, 268 240.617 C 268 234.680, 287.839 210.321, 298.242 203.485 C 300.584 201.946, 303.625 199.934, 305 199.013 C 308.454 196.700, 327.620 188, 329.262 188 C 329.998 188, 331.027 187.609, 331.550 187.130 C 335.262 183.732, 370.383 172.656, 384.500 170.432 C 386.700 170.086, 388.753 169.647, 389.062 169.458 C 394.911 165.879, 471.037 163.496, 487.121 166.389 C 507.978 170.140, 517.787 173.115, 523.500 177.421 C 525.150 178.665, 527.625 179.962, 529 180.303 C 539.977 183.027, 545.143 199.986, 536.830 206.008 C 532.788 208.937, 532.596 208.974, 530.580 207.247 C 526.436 203.695, 522.142 201.074, 519.350 200.392 C 517.783 200.008, 512.900 197.760, 508.500 195.394 C 487.964 184.356, 475.862 182.214, 443.615 183.913 C 422.723 185.013, 402.683 187.582, 396.783 189.916 C 395.528 190.412, 391.800 191.610, 388.500 192.578 C 376.437 196.115, 360.279 206.147, 349 217.101 C 347.075 218.970, 344.548 221.175, 343.383 222 C 339.453 224.786, 330 237.471, 328.852 241.500 C 325.467 253.384, 324.993 262.574, 327.232 272.949 C 328.560 279.106, 342.546 294.422, 352.391 300.500 C 368.188 310.253, 378.655 314.495, 390.805 316.068 C 394.487 316.544, 401.100 317.413, 405.500 317.998 C 413.602 319.075, 423.153 319.679, 444 320.430 C 453.748 320.782, 477.436 319.157, 486 317.548 C 488.200 317.135, 510.302 314.949, 527.500 313.444 C 544.432 311.962, 570.534 306.261, 579.427 302.103 C 585.190 299.407, 589.474 297.611, 597.500 294.524 C 601.350 293.043, 605.962 291.195, 607.750 290.416 C 609.538 289.637, 612.688 288.291, 614.750 287.424 C 623.084 283.923, 634.836 277.431, 644.884 270.778 C 650.723 266.912, 656.854 262.859, 658.508 261.771 C 666.093 256.783, 681.629 231.441, 683.503 221 C 683.849 219.075, 685.049 214.433, 686.169 210.684 C 688.263 203.683, 688.247 202.501, 685.869 188.500 C 683.952 177.211, 682.767 171.599, 681.972 170.050 C 681.535 169.197, 680.389 166.267, 679.425 163.537 C 678.251 160.213, 675.606 156.417, 671.412 152.037 C 667.970 148.442, 664.106 144.158, 662.826 142.517 C 659.141 137.792, 653.911 133.038, 648.500 129.495 C 645.750 127.695, 642.484 125.039, 641.243 123.595 C 640.002 122.150, 636.627 119.916, 633.743 118.630 C 630.859 117.344, 627.375 115.161, 626 113.779 C 624.625 112.396, 620.818 110.043, 617.539 108.550 C 614.261 107.056, 609.853 104.467, 607.743 102.797 C 605.634 101.126, 603.634 100.032, 603.300 100.366 C 602.966 100.700, 601.300 100.128, 599.597 99.095 C 597.893 98.061, 594.925 96.899, 593 96.511 C 591.075 96.123, 587.997 94.941, 586.161 93.884 C 584.324 92.827, 579.454 91.060, 575.338 89.957 C 571.223 88.854, 566.876 87.310, 565.678 86.526 C 564.480 85.742, 561.475 84.816, 559 84.468 C 556.525 84.120, 552.392 82.972, 549.815 81.917 C 547.238 80.863, 543.741 80, 542.044 80 C 540.346 80, 535.705 79.128, 531.729 78.061 C 519.242 74.712, 506.519 72.833, 480.500 70.492 C 470.404 69.583, 445.187 69.349, 431.500 70.035 M 326.500 70.713 C 324.850 70.940, 319 72.192, 313.500 73.496 C 308 74.799, 301.025 76.356, 298 76.956 C 286.308 79.272, 263.423 92.845, 255.433 102.202 C 254.370 103.447, 254.175 103.961, 255 103.345 C 256.211 102.441, 266.345 97.078, 283.681 88.168 C 288.177 85.858, 298.519 82.386, 316.985 76.988 C 321.101 75.784, 326.501 73.741, 328.985 72.447 C 333.404 70.143, 332.948 69.825, 326.500 70.713 M 434 73.990 C 426.025 74.347, 415.225 75.158, 410 75.792 C 404.775 76.426, 395.775 77.438, 390 78.041 C 374.126 79.700, 350.805 84.710, 338 89.213 C 333.325 90.857, 327.475 92.761, 325 93.445 C 322.525 94.129, 318.951 95.490, 317.058 96.469 C 315.166 97.448, 312.466 98.610, 311.058 99.050 C 309.651 99.490, 306.025 100.813, 303 101.989 C 299.975 103.166, 295.025 104.973, 292 106.005 C 274.773 111.885, 247.140 126, 252.858 126 C 256.454 126, 287.300 114.549, 290.500 112.025 C 292.886 110.145, 316.694 101.927, 322.399 101.016 C 325.844 100.466, 333.755 98.866, 339.979 97.461 C 346.203 96.056, 358.541 94.024, 367.397 92.945 C 376.254 91.866, 388.900 90.323, 395.500 89.515 C 402.100 88.707, 410.425 87.308, 414 86.406 C 417.575 85.504, 425.675 84.166, 432 83.432 C 438.325 82.699, 447.028 81.579, 451.339 80.942 C 461.179 79.490, 506.815 82.914, 510.849 85.407 C 511.295 85.682, 514.773 86.390, 518.579 86.980 C 531.016 88.907, 564.796 99.760, 574.857 105.061 C 578.969 107.227, 583.015 109, 583.847 109 C 584.680 109, 588.092 110.778, 591.430 112.950 C 594.769 115.123, 599.075 117.614, 601 118.485 C 606.162 120.823, 613.995 125.794, 618.144 129.364 C 620.148 131.089, 625.146 134.903, 629.251 137.840 C 648.935 151.925, 651.628 157.659, 657.044 197 C 661.163 226.925, 643.959 248.130, 595.264 273.146 C 585.784 278.016, 577.079 282, 575.919 282 C 574.758 282, 572.614 282.823, 571.154 283.829 C 569.694 284.835, 565.800 286.442, 562.500 287.400 C 549.756 291.100, 542.277 293.328, 536.556 295.129 C 533.287 296.158, 528.787 297.006, 526.556 297.013 C 524.325 297.020, 518.225 297.920, 513 299.013 C 507.775 300.105, 498.775 301.268, 493 301.597 C 487.225 301.925, 480.935 302.593, 479.023 303.079 C 475.144 304.066, 454.743 302.880, 432 300.344 C 424.025 299.455, 415.381 298.578, 412.791 298.396 C 397.728 297.333, 385.327 292.138, 378 283.819 C 369.319 273.963, 368.602 271.492, 371.571 261.688 C 375.162 249.833, 376.382 249.633, 393.198 258.131 C 395.232 259.159, 397.569 260, 398.391 260 C 399.213 260, 403.849 261.280, 408.693 262.844 C 413.537 264.409, 420.875 266.463, 425 267.409 C 429.125 268.355, 434.319 269.582, 436.543 270.136 C 452.942 274.223, 506.649 268.525, 523.761 260.884 C 533.057 256.732, 534.811 256, 535.457 256 C 537.228 256, 548.865 249.536, 551.500 247.089 C 553.150 245.557, 557.200 242.408, 560.500 240.090 C 601.004 211.650, 596.414 171.716, 550.799 155.693 C 536.003 150.496, 525.145 147.801, 512 146.064 C 508.425 145.592, 503.457 144.728, 500.960 144.145 C 485.974 140.647, 421.588 140.867, 399 144.494 C 379.815 147.574, 378.538 147.813, 372.500 149.453 C 325.049 162.343, 292.310 174.922, 280.032 184.982 C 276.990 187.475, 272.700 190.845, 270.500 192.471 C 244.485 211.698, 229.965 241.965, 235.366 265.710 C 237.213 273.829, 244.938 290.980, 248.797 295.528 C 250.284 297.281, 252.400 299.778, 253.500 301.079 C 254.600 302.379, 255.954 304.220, 256.508 305.171 C 257.062 306.121, 260.037 309.509, 263.119 312.699 C 266.201 315.890, 270.179 320.871, 271.959 323.769 C 275.286 329.187, 283.518 335.947, 284.220 333.839 C 284.480 333.060, 285.451 333.249, 287.257 334.432 C 288.716 335.389, 294.093 337.649, 299.205 339.454 C 310.468 343.432, 323.736 349.343, 334.500 355.178 C 342.918 359.741, 354.753 365.008, 356.578 365.003 C 357.170 365.001, 360.320 366.071, 363.578 367.381 C 376.090 372.411, 394.502 373.830, 455.660 374.478 C 506.726 375.018, 512.538 374.644, 541 368.989 C 549.574 367.285, 580.026 359.311, 587 356.943 C 612.314 348.348, 637.597 337.892, 642.885 333.832 C 644.197 332.824, 645.796 332, 646.439 332 C 647.082 332, 649.158 330.391, 651.054 328.425 C 654.500 324.850, 654.500 324.850, 647.500 327.537 C 643.650 329.015, 637.125 331.470, 633 332.992 C 628.875 334.514, 623.475 336.704, 621 337.858 C 618.525 339.012, 615.916 339.966, 615.202 339.978 C 614.488 339.990, 612.106 340.868, 609.909 341.930 C 607.712 342.991, 604.471 344.168, 602.707 344.545 C 600.943 344.922, 599.050 345.571, 598.500 345.987 C 597.950 346.402, 595.025 347.299, 592 347.980 C 588.975 348.660, 580.425 350.682, 573 352.474 C 565.575 354.265, 556.350 356.287, 552.500 356.967 C 548.650 357.646, 542.125 359.032, 538 360.047 C 517.890 364.994, 515.726 365.266, 494 365.588 C 472.245 365.910, 451.229 364.846, 443 363.007 C 440.525 362.454, 434.675 361.545, 430 360.988 C 425.325 360.431, 417.450 359.313, 412.500 358.504 C 401.444 356.696, 392.096 355.301, 385.500 354.474 C 382.750 354.129, 373.975 352.052, 366 349.859 C 358.025 347.665, 348.800 345.168, 345.500 344.310 C 332.252 340.865, 323.343 337.817, 320.382 335.714 C 311.660 329.521, 302.816 324.016, 296.778 321.021 C 290.156 317.736, 280 309.129, 280 306.801 C 280 306.144, 278.943 304.008, 277.652 302.054 C 266.916 285.807, 264.097 280.816, 264.034 277.950 C 264.015 277.097, 263.607 275.972, 263.128 275.450 C 262.648 274.928, 261.505 271.350, 260.589 267.500 C 255.337 245.446, 265.871 218.901, 284.500 207.242 C 286.700 205.865, 291.650 202.357, 295.500 199.446 C 302.169 194.402, 327.115 181.373, 341 175.680 C 350.448 171.807, 389.048 162.858, 402 161.537 C 404.475 161.285, 411 160.430, 416.500 159.638 C 443.547 155.741, 445.159 155.642, 461.599 156.849 C 497.655 159.498, 524.633 168.433, 539.169 182.541 C 548.109 191.217, 547.325 207.540, 537.824 210.556 C 536.821 210.874, 536 211.731, 536 212.460 C 536 215.290, 532.877 214.719, 526.817 210.784 C 519.202 205.839, 501.214 197.034, 498.684 197.014 C 497.686 197.006, 496.015 196.543, 494.972 195.985 C 487.193 191.822, 447.315 188.190, 431.003 190.159 C 420.987 191.368, 393.444 198.336, 387 201.291 C 379.723 204.627, 358.040 218.062, 357.041 219.853 C 356.536 220.759, 353.517 223.075, 350.333 225 C 333.448 235.207, 326.429 251.945, 331.015 271.063 C 333.592 281.804, 365.625 307.994, 376.191 307.999 C 377.121 308, 378.128 308.398, 378.429 308.884 C 379.092 309.958, 392.236 312.350, 404 313.537 C 407.025 313.842, 410.091 314.293, 410.813 314.538 C 411.535 314.784, 419.860 315.226, 429.313 315.521 C 438.766 315.816, 448.148 316.268, 450.163 316.526 C 453.273 316.925, 473.183 315.208, 485 313.523 C 486.925 313.248, 493.225 312.577, 499 312.030 C 524.788 309.592, 540.764 307.945, 544 307.391 C 554.190 305.647, 572.639 300.385, 581 296.838 C 586.225 294.621, 591.513 292.400, 592.750 291.904 C 617.762 281.860, 628.080 276.939, 637.504 270.563 C 640.806 268.328, 647.106 264.163, 651.504 261.306 C 663.718 253.373, 676.636 233.753, 679.689 218.500 C 680.460 214.650, 681.726 209.851, 682.502 207.837 C 683.940 204.108, 683.727 197.897, 681.925 191 C 681.423 189.075, 681.009 186.067, 681.006 184.317 C 680.990 175.543, 675.130 162.260, 667.893 154.592 C 664.085 150.558, 659.697 145.512, 658.143 143.379 C 656.588 141.246, 652.697 137.700, 649.496 135.500 C 646.296 133.300, 642.016 129.863, 639.985 127.861 C 637.954 125.860, 634.089 123.250, 631.396 122.060 C 628.703 120.871, 625.150 118.658, 623.500 117.143 C 621.850 115.629, 618.025 113.312, 615 111.996 C 611.975 110.680, 608.571 108.792, 607.436 107.801 C 606.300 106.811, 604.633 106, 603.730 106 C 602.827 106, 600.479 104.907, 598.511 103.572 C 596.544 102.237, 593.486 100.831, 591.717 100.449 C 589.948 100.066, 586.475 98.736, 584 97.493 C 581.525 96.250, 576.685 94.514, 573.244 93.636 C 569.803 92.757, 565.978 91.390, 564.744 90.597 C 563.510 89.804, 560.250 88.837, 557.500 88.448 C 554.750 88.059, 551.150 87.054, 549.500 86.215 C 547.850 85.376, 543.800 84.348, 540.500 83.930 C 537.200 83.511, 532.025 82.485, 529 81.649 C 520.831 79.392, 506.671 77.136, 496.582 76.485 C 491.677 76.169, 487.402 75.757, 487.082 75.570 C 486.342 75.138, 470.364 74.092, 458 73.667 C 452.775 73.488, 441.975 73.633, 434 73.990 M 404.500 97.418 C 379.219 100.704, 356.888 106.418, 351.957 110.864 C 350.960 111.764, 349.436 113.080, 348.572 113.789 C 343.435 118.004, 347.898 118.500, 363.646 115.464 C 371.266 113.996, 380.200 112.421, 383.500 111.965 C 386.800 111.508, 392.875 110.664, 397 110.089 C 401.125 109.513, 406.300 108.812, 408.500 108.531 C 410.700 108.250, 414.075 107.805, 416 107.542 C 417.925 107.280, 424.450 106.809, 430.500 106.496 C 444.182 105.788, 446.668 105.307, 447.471 103.215 C 449.550 97.796, 426.019 94.621, 404.500 97.418 M 474.510 98.953 C 473.711 102.594, 470.360 107, 468.392 107 C 462.680 107, 460.903 111.465, 465.710 113.742 C 468.750 115.183, 469.568 116.219, 470.242 119.483 C 471.541 125.768, 475.529 126.896, 476.192 121.165 C 476.435 119.059, 477.704 117.871, 482.247 115.500 C 489.268 111.835, 489.819 109.507, 483.856 108.707 C 478.993 108.055, 477.920 106.767, 479.026 102.910 C 480.110 99.129, 479.176 96, 476.963 96 C 475.778 96, 474.936 97.013, 474.510 98.953 M 404.500 101.547 C 392.864 103.048, 366.813 108.252, 362.611 109.913 C 357.495 111.937, 360.384 112.008, 370.565 110.109 C 376.029 109.090, 384.550 107.721, 389.500 107.068 C 394.450 106.414, 400.975 105.463, 404 104.954 C 407.025 104.446, 412.875 103.761, 417 103.432 C 421.125 103.104, 426.075 102.679, 428 102.489 C 429.925 102.298, 432.625 102.059, 434 101.956 C 435.844 101.819, 435.451 101.553, 432.500 100.943 C 426.943 99.793, 416.310 100.022, 404.500 101.547 M 323.519 109.390 C 320.398 112.511, 320.356 114.046, 323.314 116.826 C 328.241 121.454, 334.064 117.877, 332.422 111.231 C 331.224 106.383, 327.331 105.578, 323.519 109.390 M 393.265 115.815 C 390.969 117.273, 390.676 122.378, 392.742 124.929 C 397.035 130.231, 403.396 123.346, 400.025 117.046 C 398.920 114.982, 395.545 114.367, 393.265 115.815 M 587.452 137.765 C 575.351 146.247, 585.073 165.550, 597.384 157.484 C 602.784 153.946, 604.687 142.172, 600.282 139.557 C 596.351 137.225, 589.574 136.278, 587.452 137.765 M 262.729 145.750 C 256.174 150.768, 254.235 159.749, 258.589 164.923 C 264.161 171.545, 275.867 164.041, 275.965 153.785 C 276.044 145.439, 268.845 141.069, 262.729 145.750 M 424 148.581 C 409.967 151.420, 406.520 152.558, 406.148 154.479 C 405.840 156.071, 406.272 156.209, 409.648 155.603 C 411.767 155.222, 415.975 154.479, 419 153.951 C 422.025 153.423, 426.750 152.588, 429.500 152.095 C 432.250 151.602, 436.525 151.346, 439 151.526 C 441.475 151.705, 447.213 152.145, 451.752 152.502 C 458.822 153.060, 460.093 152.921, 460.626 151.533 C 461.492 149.276, 460.878 148.922, 455.352 148.493 C 437.855 147.134, 431.057 147.153, 424 148.581 M 545 169.345 C 545 170.085, 545.851 171.460, 546.890 172.400 C 555.583 180.267, 557.421 203.784, 549.877 210.612 C 547.682 212.598, 547.378 216, 549.395 216 C 557.968 216, 561.931 191.359, 555.424 178.515 C 550.630 169.054, 545 164.101, 545 169.345 M 663 173.032 C 663 174.150, 663.745 176.737, 664.656 178.782 C 669.976 190.726, 668.792 213.575, 662.312 224.011 C 661.113 225.942, 659.644 228.806, 659.048 230.374 C 655.825 238.851, 646.302 250.014, 638.081 254.951 C 635.837 256.299, 634 257.949, 634 258.618 C 634 260.836, 636.456 260.725, 639.982 258.348 C 641.897 257.056, 643.947 256, 644.536 256 C 646.741 256, 662 236.660, 662 233.866 C 662 233.438, 663.252 230.931, 664.782 228.294 C 671.708 216.362, 673.058 211.349, 672.001 201.500 C 671.470 196.550, 671.028 190.174, 671.018 187.331 C 671.008 184.488, 670.316 180.888, 669.480 179.331 C 668.644 177.774, 667.530 175.262, 667.005 173.750 C 665.892 170.547, 663 170.029, 663 173.032 M 241.495 178.891 C 240.948 179.430, 237.778 181.218, 234.452 182.864 C 228.649 185.734, 213 200.422, 213 202.998 C 213 203.558, 211.650 205.881, 210 208.159 C 208.350 210.436, 207 212.990, 207 213.834 C 207 214.678, 206.162 217.198, 205.139 219.434 C 200.772 228.972, 198.163 246.642, 199.887 255 C 200.511 258.025, 201.533 263.313, 202.159 266.750 C 204.297 278.503, 207.789 274.309, 209.672 257.727 C 211.077 245.354, 212.251 241.360, 219.010 225.975 C 223.240 216.345, 226.558 210.872, 230.818 206.500 C 232.425 204.850, 235.034 201.475, 236.616 199 C 238.197 196.525, 240.237 193.943, 241.148 193.262 C 245.801 189.784, 252.002 182.328, 251.762 180.500 C 251.470 178.269, 243.407 177.006, 241.495 178.891 M 714.743 180.084 C 709.474 183.152, 707.865 191.645, 711.619 196.567 C 715.082 201.108, 716.914 200.901, 721.987 195.398 C 729.359 187.401, 723.489 174.991, 714.743 180.084 M 238.500 185.597 C 228.509 190.556, 211 209.315, 211 215.061 C 211 215.611, 209.879 218.724, 208.509 221.980 C 205.426 229.303, 202.729 246.473, 203.613 253.141 C 204.247 257.921, 205.536 260.531, 205.607 257.177 C 205.730 251.310, 207.260 243.319, 208.986 239.530 C 210.094 237.099, 211 234.708, 211 234.217 C 211 229.849, 221.753 210.395, 227.986 203.485 C 229.978 201.277, 232.620 197.669, 233.857 195.468 C 235.094 193.267, 237.633 190.420, 239.498 189.142 C 242.149 187.325, 247.073 181.770, 245.773 182.061 C 245.623 182.095, 242.350 183.686, 238.500 185.597 M 423.500 197.975 C 415.973 198.856, 414.047 199.462, 406 203.485 C 392.347 210.312, 388.506 212.799, 388.165 215.035 C 387.731 217.885, 389.448 219.700, 391.208 218.252 C 409.542 203.163, 440.362 199.580, 482.750 207.611 C 485.605 208.152, 486 207.964, 486 206.062 C 486 199.733, 449.194 194.971, 423.500 197.975 M 623.805 204.221 C 621.432 208.688, 619.795 210.603, 618 211.016 C 613.753 211.991, 614.666 215.500, 619.166 215.500 C 623.682 215.500, 623.882 215.696, 624.793 221.033 C 625.837 227.150, 630.972 226.857, 631.015 220.679 C 631.038 217.414, 632.103 216.284, 637.344 213.966 C 643.115 211.413, 643.610 208.287, 638.160 208.822 C 633.815 209.249, 632.354 207.844, 631.547 202.468 C 630.548 195.801, 627.968 196.385, 623.805 204.221 M 266.473 209.059 C 265.467 211.291, 263.470 213.953, 262.036 214.975 C 259.429 216.831, 259.018 217.487, 255.071 226.105 C 248.016 241.509, 245.766 267.762, 251.408 268.842 C 253.211 269.187, 253.281 268.687, 252.689 259.679 C 252.034 249.707, 254.735 235.143, 258.245 229.722 C 259.036 228.500, 259.995 226.236, 260.376 224.691 C 260.756 223.146, 262.792 219.996, 264.900 217.691 C 269.271 212.911, 272.366 207.400, 271.482 205.971 C 270.220 203.930, 268.234 205.154, 266.473 209.059 M 494.652 207.464 C 494.303 208.373, 495.305 209.789, 497.295 211.200 C 501.508 214.186, 507.809 220.824, 508.502 223.006 C 510.283 228.619, 517 229.115, 516.999 223.633 C 516.998 216.724, 496.727 202.057, 494.652 207.464 M 305.911 212.750 C 305.369 214.262, 303.340 216.625, 301.403 218 C 299.466 219.375, 297.303 221.024, 296.597 221.665 C 295.891 222.306, 294.472 222.756, 293.445 222.665 C 289.743 222.338, 290.891 225.469, 295.229 227.530 C 299.008 229.325, 299.715 230.218, 301.368 235.280 C 302.395 238.426, 303.827 241, 304.550 241 C 305.931 241, 310 235.911, 310 234.185 C 310 232.651, 315.924 228, 317.877 228 C 321.674 228, 323.657 222.467, 320.250 221.378 C 315.742 219.937, 313.863 218.348, 311.921 214.336 C 309.512 209.361, 307.331 208.785, 305.911 212.750 M 437.500 211.051 C 425.478 212.220, 412.463 217.054, 406.750 222.473 C 403.676 225.388, 402.853 231, 405.500 231 C 406.325 231, 407 231.567, 407 232.259 C 407 234, 410.728 236.178, 415.500 237.224 C 457.680 246.476, 500.250 242.684, 500.250 229.675 C 500.250 225.735, 492.512 218.261, 487.581 217.437 C 485.336 217.062, 481.362 215.917, 478.749 214.892 C 474.097 213.067, 453.538 209.867, 448.199 210.136 C 446.714 210.211, 441.900 210.623, 437.500 211.051 M 371.420 216.932 C 366.086 221.027, 363 224.887, 363 227.465 C 363 229.976, 365.712 229.213, 367.948 226.074 C 369.094 224.464, 372.252 221.517, 374.966 219.525 C 378.158 217.182, 379.703 215.391, 379.343 214.452 C 378.485 212.216, 376.930 212.702, 371.420 216.932 M 447 217.114 C 442.875 217.492, 434.143 219.191, 427.596 220.891 C 408.769 225.779, 405.841 227.207, 411.750 228.619 C 413.262 228.980, 414.985 229.654, 415.577 230.117 C 419.438 233.132, 444.467 237.364, 453.500 236.530 C 455.700 236.327, 461.254 235.856, 465.841 235.483 C 483.931 234.013, 494.934 229.794, 491.260 225.735 C 488.834 223.054, 484.600 221, 481.500 221 C 480.070 221, 477.470 220.260, 475.722 219.356 C 473.688 218.304, 470.326 217.751, 466.381 217.818 C 462.991 217.875, 458.931 217.586, 457.359 217.175 C 455.786 216.764, 451.125 216.736, 447 217.114 M 303.780 221.538 C 300.466 223.834, 299.498 224.977, 300.531 225.374 C 301.341 225.684, 302.761 227.528, 303.688 229.471 C 305.372 233.004, 305.372 233.004, 308.329 229.417 C 309.955 227.444, 312.051 225.531, 312.986 225.165 C 314.454 224.590, 314.265 224.077, 311.593 221.384 C 308.500 218.268, 308.500 218.268, 303.780 221.538 M 383.481 224.030 C 380.576 228.731, 384.937 240.660, 390.458 243.116 C 391.581 243.616, 394.039 244.953, 395.920 246.087 C 411.983 255.773, 488.756 257.073, 509.252 248.007 C 514.824 245.542, 523 238.401, 523 235.998 C 523 232.777, 520.601 233.184, 517 237.015 C 511.681 242.674, 496.594 246.453, 477.573 246.890 C 471.701 247.024, 466.132 247.277, 465.198 247.452 C 458.567 248.689, 436.914 249.054, 432.979 247.994 C 430.520 247.332, 427.831 246.660, 427.004 246.502 C 426.177 246.343, 421.497 245.463, 416.604 244.547 C 399.663 241.374, 392.186 237.088, 389.503 229.010 C 388.620 226.351, 387.209 223.910, 386.367 223.587 C 384.343 222.811, 384.224 222.829, 383.481 224.030 M 547.545 232.927 C 547.197 233.491, 544.344 235.642, 541.206 237.709 C 534.628 242.040, 534.494 242.137, 530.500 245.406 C 528.151 247.328, 527.762 248.127, 528.705 249.085 C 530.017 250.419, 549.248 238.401, 550.335 235.568 C 551.008 233.815, 548.477 231.420, 547.545 232.927 M 345.380 237.634 C 342.778 243.860, 342.257 255.290, 344.595 254.839 C 346.141 254.542, 346.721 253.008, 347.687 246.663 C 348.342 242.367, 349.394 238.230, 350.025 237.470 C 350.656 236.710, 350.882 235.618, 350.527 235.044 C 349.213 232.918, 346.854 234.106, 345.380 237.634 M 688.279 235.750 C 685.731 242.530, 678.649 250.643, 667.984 259 C 665.528 260.925, 661.714 264.340, 659.509 266.588 C 651.316 274.942, 634.220 286.924, 621.584 293.168 C 617.138 295.365, 610.575 298.748, 607 300.685 C 598.783 305.139, 570.669 316, 567.359 316 C 565.231 316, 564.913 316.401, 565.184 318.750 C 565.816 324.247, 598.186 318.119, 615.650 309.197 C 616.668 308.677, 619.525 307.226, 622 305.972 C 630.960 301.433, 648.011 290.587, 654.500 285.297 C 655.050 284.849, 657.525 282.930, 660 281.033 C 670.086 273.302, 678.453 264.730, 689.313 251 C 693.847 245.268, 694.829 241.696, 693.370 236.250 C 692.647 233.553, 689.231 233.217, 688.279 235.750 M 361.807 249.750 C 356.024 262.313, 355.896 270.299, 361.272 283.122 C 363.104 287.492, 366.866 292, 368.680 292 C 370.709 292, 370.246 288.642, 367.866 286.087 C 360.724 278.420, 359.761 263.587, 365.630 251.640 C 369.463 243.837, 369.760 242, 367.187 242 C 365.900 242, 364.341 244.246, 361.807 249.750 M 679.483 254.775 C 677.274 256.824, 673.480 260.075, 671.054 262 C 668.627 263.925, 664.345 267.750, 661.538 270.500 C 654.732 277.168, 653.028 278.507, 642.500 285.449 C 637.550 288.713, 633.275 291.687, 633 292.058 C 632.725 292.429, 629.125 294.208, 625 296.010 C 620.875 297.812, 616.150 300.305, 614.500 301.549 C 611.482 303.825, 590.881 313, 588.789 313 C 588.172 313, 587.937 313.270, 588.266 313.600 C 590.852 316.185, 625.904 300.565, 639.500 290.768 C 659.550 276.320, 670.921 266.884, 676.043 260.441 C 676.892 259.374, 679.076 256.813, 680.897 254.750 C 685.081 250.010, 684.612 250.018, 679.483 254.775 M 574 255.982 C 569.454 258.620, 568.218 259.173, 557.500 263.376 C 549.562 266.488, 545.908 267.749, 532.358 272.053 C 530.630 272.602, 526.355 273.457, 522.858 273.953 C 508.775 275.951, 505.663 277.347, 507.801 280.712 C 508.667 282.075, 523.824 283.839, 531.500 283.469 C 546.268 282.757, 564.903 274.192, 577.089 262.513 C 584.249 255.651, 582.165 251.245, 574 255.982 M 563 265.712 C 547.389 271.873, 536.077 275.478, 526 277.502 C 519.144 278.880, 519.581 279.058, 530.500 279.336 C 535.716 279.468, 553.552 274.906, 555 273.069 C 555.275 272.720, 558.763 270.516, 562.750 268.172 C 566.737 265.828, 570 263.706, 570 263.455 C 570 262.897, 570.725 262.663, 563 265.712 M 298.907 278.099 C 294.024 283.326, 297.470 289.954, 304.911 289.646 C 309.173 289.470, 311.324 286.252, 310.583 281.161 C 309.564 274.164, 303.957 272.694, 298.907 278.099 M 221.035 303.934 C 219.455 306.886, 219.797 310.506, 221.829 312.345 C 226.795 316.839, 230.971 311.420, 227.839 304.547 C 226.433 301.460, 222.547 301.110, 221.035 303.934 M 431 309.573 C 431 312.086, 433.619 312.492, 450.818 312.650 C 467.802 312.805, 471.454 312.120, 468.639 309.305 C 467.286 307.952, 431 308.211, 431 309.573 M 247.190 322.271 C 244.751 325.210, 263.682 347.495, 270.439 349.639 C 271.531 349.986, 273.196 351.251, 274.139 352.450 C 275.083 353.649, 277.800 355.472, 280.177 356.500 C 282.555 357.529, 285.400 359.119, 286.500 360.034 C 288.762 361.916, 301.212 367, 303.560 367 C 304.407 367, 306.408 367.677, 308.008 368.504 C 309.607 369.331, 312.622 370.231, 314.708 370.504 C 316.794 370.777, 320.975 371.472, 324 372.047 C 327.025 372.622, 331.750 373.488, 334.500 373.971 C 337.250 374.454, 341.750 375.553, 344.500 376.414 C 350.824 378.393, 351 378.385, 351 376.121 C 351 374.169, 349.780 373.538, 340 370.427 C 336.975 369.465, 331.723 367.625, 328.329 366.339 C 324.936 365.052, 321.423 364, 320.525 364 C 316.401 364, 291.458 351.087, 280.500 343.280 C 277.200 340.929, 271.575 336.987, 268 334.521 C 264.425 332.054, 259.250 328.427, 256.500 326.460 C 249.193 321.234, 248.362 320.859, 247.190 322.271 M 484.007 329.581 C 476.604 332.817, 474.355 337.544, 476.960 344.395 C 480.221 352.971, 487.705 353.206, 496.243 345 C 504.105 337.444, 494.296 325.084, 484.007 329.581 M 261.954 337.257 C 265.504 340.947, 269.786 344.620, 271.469 345.418 C 273.153 346.217, 275.580 347.989, 276.864 349.355 C 278.147 350.721, 280.616 352.412, 282.349 353.113 C 284.082 353.813, 285.725 354.681, 286 355.042 C 287.012 356.368, 299.916 362.030, 303.156 362.569 C 306.399 363.109, 306.364 363.054, 302 360.740 C 289.149 353.925, 283.917 350.855, 278 346.656 C 274.425 344.119, 269.025 340.409, 266 338.411 C 262.975 336.414, 259.375 333.827, 258 332.664 C 256.625 331.500, 258.404 333.567, 261.954 337.257 M 626.129 356.506 C 623.370 361.182, 623.444 363.129, 626.490 365.991 C 631 370.228, 637.433 364.830, 636.815 357.326 C 636.337 351.523, 629.384 350.989, 626.129 356.506 M 374.187 360.735 C 374.400 361.836, 375.795 362.681, 378.011 363.050 C 379.930 363.369, 382.483 364.163, 383.684 364.815 C 387.418 366.841, 401.220 366.386, 400.814 364.250 C 400.546 362.844, 399.108 362.399, 393.491 361.987 C 389.646 361.704, 385.517 360.917, 384.316 360.237 C 380.813 358.253, 373.776 358.599, 374.187 360.735 M 419.396 383.169 C 415.082 390.149, 460.838 398.933, 481.500 395.092 C 498.927 391.853, 502.548 381.822, 485.668 383.545 C 472.764 384.863, 448.730 384.821, 437 383.460 C 423.837 381.933, 420.197 381.873, 419.396 383.169 M 569.003 386.492 C 568.451 387.943, 568 389.481, 568 389.910 C 568 391.548, 564.307 393.873, 559.500 395.262 C 552.692 397.229, 552.667 399.080, 559.412 401.875 C 563.973 403.766, 565.086 404.731, 566.042 407.628 C 567.487 412.006, 570.151 411.806, 571.083 407.250 C 571.877 403.365, 573.620 401.095, 576.709 399.921 C 578.942 399.072, 579.971 396, 578.023 396 C 576.361 396, 573.838 391.258, 573.665 387.808 C 573.450 383.537, 570.449 382.690, 569.003 386.492 M 481 388.203 C 477.425 388.657, 465.950 388.887, 455.500 388.713 C 445.050 388.539, 437.850 388.723, 439.500 389.122 C 451.616 392.050, 479.706 392.426, 485.876 389.743 C 490.468 387.746, 488.780 387.212, 481 388.203 M 370 397.752 C 364.008 400.745, 365.072 408.130, 371.903 410.960 C 376.104 412.700, 379.692 411.553, 382.027 407.723 C 387.160 399.304, 379.539 392.986, 370 397.752" stroke="none" fill="#040404" fill-rule="evenodd"/><path d="M 523.634 60.783 C 523.307 61.312, 524.493 61.999, 526.270 62.309 C 532.809 63.452, 551.634 67.002, 556 67.915 C 558.475 68.433, 564.757 70.239, 569.959 71.928 C 575.162 73.618, 580.373 75, 581.540 75 C 582.707 75, 585.791 76.078, 588.394 77.396 C 590.996 78.714, 595.235 80.098, 597.813 80.471 C 600.391 80.845, 604.856 82.467, 607.735 84.076 C 612.798 86.904, 616.687 87.921, 615.578 86.126 C 615.281 85.645, 612.442 84.029, 609.269 82.535 C 606.096 81.041, 601.949 78.644, 600.053 77.208 C 591.325 70.598, 559.616 62.250, 540.321 61.483 C 535.273 61.282, 529.587 60.826, 527.686 60.469 C 525.785 60.112, 523.961 60.253, 523.634 60.783 M 327 70.664 C 325.625 70.880, 319.775 72.142, 314 73.469 C 308.225 74.796, 301.025 76.368, 298 76.963 C 289.174 78.699, 278.176 84.099, 268.500 91.445 C 252.040 103.942, 252.154 104.522, 269.324 95.611 C 285.988 86.962, 285.154 87.384, 288 86.141 C 290.477 85.060, 302.554 81.252, 316.985 77.004 C 321.101 75.792, 326.501 73.741, 328.985 72.447 C 333.326 70.184, 332.842 69.749, 327 70.664 M 434 74.018 C 426.025 74.391, 415.225 75.210, 410 75.840 C 404.775 76.469, 395.775 77.477, 390 78.080 C 377.214 79.416, 351.839 84.483, 342.500 87.565 C 337.283 89.288, 317.624 96.352, 312.500 98.346 C 301.994 102.435, 297.064 104.277, 292 106.005 C 274.773 111.885, 247.140 126, 252.858 126 C 256.418 126, 285.369 115.340, 288.624 112.831 C 291.235 110.818, 316.594 101.944, 322.373 101.020 C 325.832 100.468, 333.801 98.853, 340.081 97.431 C 346.361 96.010, 358.700 93.977, 367.500 92.913 C 401.796 88.767, 407.702 87.929, 413.500 86.390 C 416.800 85.515, 424.900 84.194, 431.500 83.457 C 438.100 82.719, 447.028 81.591, 451.339 80.950 C 461.168 79.489, 506.804 82.907, 510.849 85.407 C 511.295 85.682, 514.773 86.384, 518.579 86.966 C 530.964 88.860, 564.691 99.705, 574.857 105.061 C 578.969 107.227, 583.015 109, 583.847 109 C 584.680 109, 588.092 110.778, 591.430 112.950 C 594.769 115.123, 599.075 117.637, 601 118.537 C 607.641 121.642, 611.478 123.987, 616.481 127.999 C 619.241 130.212, 624.650 134.317, 628.500 137.121 C 649.027 152.068, 651.603 157.472, 657.044 197 C 661.163 226.925, 643.959 248.130, 595.264 273.146 C 585.784 278.016, 577.079 282, 575.919 282 C 574.758 282, 572.614 282.823, 571.154 283.829 C 569.694 284.835, 565.800 286.442, 562.500 287.400 C 549.756 291.100, 542.277 293.328, 536.556 295.129 C 533.287 296.158, 528.948 297, 526.914 297 C 524.880 297, 518.732 297.899, 513.252 298.998 C 507.771 300.096, 497.650 301.388, 490.759 301.867 C 483.868 302.347, 477.768 303.025, 477.203 303.374 C 475.938 304.156, 451.503 302.519, 432 300.344 C 424.025 299.455, 415.381 298.578, 412.791 298.396 C 397.882 297.344, 385.329 292.135, 378.074 283.991 C 369.412 274.266, 368.602 271.490, 371.571 261.688 C 374.560 251.821, 377.040 250.306, 384.439 253.829 C 395.399 259.046, 406.578 262.975, 419 265.975 C 420.925 266.440, 425.875 267.649, 430 268.660 C 451.822 274.013, 504.073 269.672, 523.795 260.868 C 533.078 256.724, 534.812 256, 535.457 256 C 537.271 256, 548.881 249.515, 551.500 247.039 C 553.150 245.479, 557.199 242.332, 560.497 240.044 C 600.965 211.984, 596.433 172.010, 550.939 155.720 C 538.031 151.098, 523.673 147.556, 511.500 145.989 C 508.200 145.565, 503.457 144.738, 500.960 144.151 C 486.146 140.674, 421.194 140.879, 399.500 144.471 C 394 145.382, 387.025 146.509, 384 146.975 C 358.278 150.938, 292.790 174.226, 282.525 183.059 C 280.861 184.491, 276.350 188.049, 272.500 190.966 C 243.933 212.607, 229.608 241.623, 235.408 266.094 C 237.298 274.066, 245.064 291.133, 248.797 295.518 C 250.284 297.264, 252.625 300.157, 254 301.946 C 255.375 303.735, 259.453 308.417, 263.062 312.349 C 266.671 316.282, 270.846 321.586, 272.340 324.136 C 275.126 328.891, 282.277 334.565, 284.079 333.451 C 284.634 333.108, 286.304 333.624, 287.791 334.598 C 289.277 335.572, 294.545 337.802, 299.497 339.553 C 310.501 343.444, 323.836 349.397, 334.500 355.178 C 342.918 359.741, 354.753 365.008, 356.578 365.003 C 357.170 365.001, 360.320 366.071, 363.578 367.381 C 369.552 369.783, 386.387 372.485, 401.500 373.468 C 418.378 374.566, 501.988 374.946, 510.160 373.962 C 546.070 369.638, 579.849 360.631, 618.248 345.142 C 625.260 342.314, 631.560 339.965, 632.248 339.921 C 632.937 339.878, 635.525 338.530, 638 336.924 C 640.475 335.319, 643.850 333.369, 645.500 332.590 C 648.881 330.995, 653.962 326, 652.204 326 C 651.016 326, 617.533 338.801, 610.500 341.944 C 608.299 342.927, 604.924 344.069, 603 344.481 C 601.075 344.894, 599.050 345.571, 598.500 345.987 C 597.950 346.402, 595.025 347.299, 592 347.980 C 588.975 348.660, 580.425 350.721, 573 352.559 C 559.383 355.930, 558.157 356.191, 550 357.456 C 547.525 357.840, 541.225 359.198, 536 360.475 C 530.775 361.751, 524.025 363.362, 521 364.054 C 509.318 366.725, 457.629 366.007, 442.484 362.964 C 439.725 362.409, 434.100 361.544, 429.984 361.041 C 425.868 360.539, 418 359.396, 412.500 358.502 C 400.535 356.557, 392.262 355.323, 385.500 354.474 C 382.750 354.129, 374.200 352.113, 366.500 349.993 C 358.800 347.873, 346.421 344.510, 338.991 342.519 C 325.841 338.995, 323.379 337.847, 312.346 330.096 C 309.681 328.223, 303.294 324.484, 298.154 321.785 C 288.775 316.862, 280.772 310.007, 279.416 305.736 C 279.033 304.527, 277.942 302.405, 276.992 301.019 C 269.800 290.524, 265.036 282.425, 264.454 279.707 C 264.078 277.943, 263.432 276.050, 263.021 275.500 C 252.686 261.682, 262.323 224.549, 279.803 210.832 C 300.625 194.493, 334.699 176.095, 351.500 172.119 C 354.250 171.468, 363.025 169.392, 371 167.506 C 386.049 163.947, 396.107 162.185, 416.500 159.538 C 423.100 158.681, 432.203 157.463, 436.730 156.832 C 445.072 155.668, 477.462 157.147, 482.403 158.917 C 483.556 159.330, 487.875 160.247, 492 160.955 C 509.652 163.982, 529.313 172.944, 539.022 182.390 C 548.152 191.271, 547.462 207.497, 537.824 210.556 C 536.821 210.874, 536 211.731, 536 212.460 C 536 215.288, 532.878 214.720, 526.817 210.790 C 509.611 199.635, 489.851 192.880, 469 191.025 C 439.520 188.404, 430.780 188.996, 407 195.226 C 386.652 200.557, 365.489 211.150, 356.162 220.674 C 354.326 222.549, 350.365 225.470, 347.360 227.166 C 326.831 238.752, 323.332 267.580, 340.405 284.472 C 359.904 303.763, 374.863 310.557, 404.500 313.581 C 407.250 313.862, 410.079 314.288, 410.787 314.529 C 411.495 314.769, 420.045 315.216, 429.787 315.521 C 439.529 315.827, 448.901 316.293, 450.614 316.558 C 453.215 316.960, 471.391 315.343, 485 313.498 C 486.925 313.237, 493.225 312.577, 499 312.030 C 524.788 309.592, 540.764 307.945, 544 307.391 C 554.190 305.647, 572.639 300.385, 581 296.838 C 586.225 294.621, 591.513 292.400, 592.750 291.904 C 619.668 281.094, 627.190 277.395, 641.837 267.764 C 647.702 263.907, 653.956 259.795, 655.734 258.626 C 663.694 253.394, 677.565 229.844, 679.957 217.500 C 680.703 213.650, 681.901 209.093, 682.619 207.374 C 683.951 204.181, 683.677 197.705, 681.925 191 C 681.423 189.075, 681.009 186.067, 681.006 184.317 C 680.990 175.405, 675.139 162.269, 667.658 154.349 C 663.721 150.181, 659.793 145.697, 658.930 144.385 C 656.713 141.017, 651.380 136.323, 645.255 132.348 C 642.370 130.477, 639.317 127.888, 638.470 126.595 C 637.624 125.303, 634.852 123.451, 632.312 122.481 C 629.771 121.511, 626.074 119.303, 624.096 117.575 C 622.118 115.847, 618.025 113.346, 615 112.018 C 611.975 110.689, 608.571 108.792, 607.436 107.801 C 606.300 106.811, 604.571 106, 603.593 106 C 602.615 106, 600.661 105.092, 599.250 103.982 C 597.839 102.872, 594.225 101.249, 591.218 100.375 C 588.211 99.501, 584.345 97.971, 582.626 96.976 C 580.907 95.980, 576.369 94.392, 572.543 93.447 C 568.717 92.502, 565.016 91.159, 564.319 90.462 C 563.622 89.765, 560.722 88.874, 557.873 88.483 C 555.025 88.091, 551.076 87.065, 549.097 86.203 C 547.119 85.341, 543.025 84.309, 540 83.909 C 536.975 83.510, 532.025 82.496, 529 81.656 C 521.736 79.640, 506.639 77.078, 501 76.905 C 498.525 76.829, 493.800 76.400, 490.500 75.952 C 475.426 73.906, 452.899 73.135, 434 74.018 M 404.500 101.547 C 392.864 103.048, 366.813 108.252, 362.611 109.913 C 357.495 111.937, 360.384 112.008, 370.565 110.109 C 376.029 109.090, 384.550 107.721, 389.500 107.068 C 394.450 106.414, 400.975 105.463, 404 104.954 C 407.025 104.446, 412.875 103.761, 417 103.432 C 421.125 103.104, 426.075 102.679, 428 102.489 C 429.925 102.298, 432.625 102.059, 434 101.956 C 435.844 101.819, 435.451 101.553, 432.500 100.943 C 426.943 99.793, 416.310 100.022, 404.500 101.547 M 424 148.581 C 409.967 151.420, 406.520 152.558, 406.148 154.479 C 405.840 156.073, 406.268 156.208, 409.648 155.589 C 411.767 155.201, 415.975 154.480, 419 153.988 C 422.025 153.496, 426.750 152.671, 429.500 152.153 C 432.250 151.636, 436.075 151.333, 438 151.480 C 439.925 151.627, 445.655 152.087, 450.732 152.501 C 458.868 153.166, 460.041 153.057, 460.606 151.584 C 461.493 149.272, 460.901 148.924, 455.352 148.493 C 437.855 147.134, 431.057 147.153, 424 148.581 M 545 169.345 C 545 170.085, 545.851 171.460, 546.890 172.400 C 555.583 180.267, 557.421 203.784, 549.877 210.612 C 547.698 212.584, 547.372 216, 549.364 216 C 557.774 216, 561.969 192.156, 555.840 179.187 C 551.404 169.801, 545 163.986, 545 169.345 M 663 173.550 C 663 174.952, 663.767 177.539, 664.704 179.300 C 665.859 181.468, 666.765 187.016, 667.511 196.500 C 668.669 211.199, 668.456 212.580, 663.666 221.500 C 663.075 222.600, 661.059 226.425, 659.184 230 C 652.145 243.427, 646.934 249.580, 638.053 254.951 C 635.824 256.299, 634 257.960, 634 258.642 C 634 261.144, 636.210 261.127, 639.862 258.595 C 641.922 257.168, 644.058 256, 644.608 256 C 646.768 256, 662 236.590, 662 233.837 C 662 233.393, 663.304 230.886, 664.897 228.265 C 671.510 217.389, 673.157 211.181, 672.032 201.363 C 671.473 196.488, 671.013 190.094, 671.008 187.154 C 671.004 184.214, 670.328 180.614, 669.507 179.154 C 668.686 177.694, 667.572 175.262, 667.032 173.750 C 665.771 170.220, 663 170.083, 663 173.550 M 237.500 186.091 C 230.179 189.719, 221.213 198.296, 215.675 206.968 C 211.978 212.759, 210.330 216.429, 206.904 226.500 C 204.867 232.488, 203 247.539, 203.630 252.889 C 204.383 259.279, 205.498 257.989, 206.366 249.725 C 206.699 246.549, 207.879 241.962, 208.986 239.530 C 210.094 237.099, 211 234.708, 211 234.217 C 211 230.194, 223.496 207.323, 227.517 203.986 C 228.444 203.216, 230.797 200.092, 232.745 197.043 C 234.693 193.995, 237.139 190.900, 238.181 190.167 C 240.455 188.567, 245 184.093, 245 183.455 C 245 182.592, 243.480 183.127, 237.500 186.091 M 423.500 197.975 C 415.978 198.855, 414.052 199.461, 406 203.480 C 391.517 210.710, 388.506 212.648, 388.165 214.959 C 387.506 219.434, 389.529 219.276, 398.625 214.140 C 420.534 201.771, 442.529 200.066, 482.750 207.617 C 485.604 208.153, 486 207.963, 486 206.062 C 486 199.698, 449.336 194.954, 423.500 197.975 M 266.473 209.059 C 265.467 211.291, 263.470 213.953, 262.036 214.975 C 259.429 216.831, 259.018 217.487, 255.071 226.105 C 248.016 241.509, 245.766 267.762, 251.408 268.842 C 253.211 269.187, 253.281 268.687, 252.689 259.679 C 252.034 249.706, 254.473 236.469, 258.270 229.393 C 259.124 227.802, 260.350 225.078, 260.995 223.341 C 261.640 221.603, 263.466 219.024, 265.054 217.610 C 268.358 214.665, 272.366 207.402, 271.479 205.966 C 270.220 203.929, 268.233 205.158, 266.473 209.059 M 494.700 207.341 C 494.046 209.042, 494.839 210.121, 498.120 212 C 500.597 213.418, 506.277 219.687, 510.340 225.488 C 513.056 229.365, 516.419 228.586, 516.763 224 C 517.293 216.929, 496.922 201.548, 494.700 207.341 M 437.500 210.998 C 425.376 212.257, 412.425 217.090, 406.750 222.473 C 403.676 225.388, 402.853 231, 405.500 231 C 406.325 231, 407 231.604, 407 232.343 C 407 235.116, 419.796 239.314, 431.938 240.522 C 434.881 240.815, 438.939 241.426, 440.956 241.879 C 455.888 245.234, 492.858 240.234, 498.400 234.111 C 503.101 228.916, 496.028 219.142, 486.068 217.072 C 483.081 216.451, 480.131 215.524, 479.513 215.011 C 476.151 212.221, 449.880 209.711, 437.500 210.998 M 371.420 216.917 C 366.082 221.031, 363 224.891, 363 227.465 C 363 229.976, 365.712 229.213, 367.948 226.074 C 369.094 224.464, 372.294 221.486, 375.060 219.456 C 379.909 215.896, 380.887 213.772, 377.917 213.251 C 377.138 213.115, 374.214 214.764, 371.420 216.917 M 303.780 221.538 C 300.466 223.834, 299.498 224.977, 300.531 225.374 C 301.341 225.684, 302.761 227.528, 303.688 229.471 C 305.372 233.004, 305.372 233.004, 308.329 229.417 C 309.955 227.444, 312.051 225.531, 312.986 225.165 C 314.454 224.590, 314.265 224.077, 311.593 221.384 C 308.500 218.268, 308.500 218.268, 303.780 221.538 M 383.481 224.030 C 380.576 228.731, 384.937 240.660, 390.458 243.116 C 391.581 243.616, 394.075 244.987, 396 246.162 C 411.829 255.827, 488.502 257.078, 509.427 248.013 C 514.669 245.742, 523 238.368, 523 235.998 C 523 232.777, 520.601 233.184, 517 237.015 C 511.681 242.674, 496.594 246.453, 477.573 246.890 C 471.701 247.024, 466.132 247.277, 465.198 247.452 C 458.567 248.689, 436.914 249.054, 432.979 247.994 C 430.520 247.332, 427.831 246.660, 427.004 246.502 C 426.177 246.343, 421.497 245.463, 416.604 244.547 C 399.663 241.374, 392.186 237.088, 389.503 229.010 C 388.620 226.351, 387.209 223.910, 386.367 223.587 C 384.343 222.811, 384.224 222.829, 383.481 224.030 M 546.336 233.733 C 545.326 234.743, 542.475 236.903, 540 238.534 C 529.784 245.267, 527.264 247.621, 528.705 249.085 C 530.017 250.419, 549.248 238.401, 550.335 235.568 C 551.321 233, 548.407 231.664, 546.336 233.733 M 345.380 237.634 C 342.778 243.860, 342.257 255.290, 344.595 254.839 C 346.141 254.542, 346.721 253.008, 347.687 246.663 C 348.342 242.367, 349.394 238.230, 350.025 237.470 C 350.656 236.710, 350.882 235.618, 350.527 235.044 C 349.213 232.918, 346.854 234.106, 345.380 237.634 M 361.562 250.250 C 355.905 262.493, 357.578 288, 364.039 288 C 364.493 288, 365.151 288.900, 365.500 290 C 366.306 292.538, 370 292.693, 370 290.189 C 370 289.192, 369.040 287.346, 367.866 286.087 C 360.724 278.420, 359.761 263.587, 365.630 251.640 C 369.463 243.837, 369.760 242, 367.187 242 C 365.892 242, 364.287 244.353, 361.562 250.250 M 676.863 257.359 C 672.418 260.608, 666.132 265.999, 661.538 270.500 C 655.505 276.411, 652.987 278.484, 646.980 282.483 C 644.516 284.123, 640.119 287.189, 637.208 289.295 C 634.298 291.401, 628.687 294.499, 624.738 296.179 C 620.790 297.859, 616.196 300.264, 614.530 301.523 C 612.863 302.782, 607 305.714, 601.500 308.038 C 590.280 312.781, 588.952 313.566, 593.969 312.489 C 604.505 310.229, 629.043 298.357, 640.992 289.740 C 659.218 276.596, 669.320 268.119, 676.885 259.617 C 679.482 256.699, 679.470 255.452, 676.863 257.359 M 561.500 266.232 C 549.505 271.129, 536.701 275.247, 526.500 277.487 C 520.624 278.777, 520.582 278.809, 524.500 279.042 C 538.593 279.879, 549.406 276.655, 564.691 267.058 C 570.189 263.605, 568.809 263.248, 561.500 266.232 M 431 309.573 C 431 312.071, 433.591 312.478, 450.805 312.677 C 467.826 312.875, 471.511 312.178, 468.639 309.305 C 467.286 307.952, 431 308.211, 431 309.573 M 263.972 339.472 C 266.386 341.931, 269.749 344.602, 271.445 345.407 C 273.142 346.212, 275.580 347.989, 276.864 349.355 C 278.147 350.721, 280.616 352.412, 282.349 353.113 C 284.082 353.813, 285.725 354.681, 286 355.042 C 287.012 356.368, 299.916 362.030, 303.156 362.569 C 306.399 363.109, 306.364 363.054, 302 360.740 C 289.149 353.925, 283.917 350.855, 278 346.656 C 260.497 334.235, 257.152 332.523, 263.972 339.472 M 374.177 360.641 C 374.990 364.771, 401 368.099, 401 364.073 C 401 362.184, 400.402 361.997, 394.250 361.965 C 390.295 361.944, 386.465 361.337, 385 360.500 C 381.335 358.405, 373.755 358.503, 374.177 360.641 M 481 388.193 C 477.425 388.642, 466.555 388.895, 456.845 388.755 C 447.135 388.615, 439.359 388.772, 439.564 389.103 C 441.090 391.572, 480.453 392.123, 485.876 389.751 C 490.459 387.747, 488.789 387.213, 481 388.193" stroke="none" fill="#fcdcc4" fill-rule="evenodd"/></svg>