<svg xmlns="http://www.w3.org/2000/svg" width="900" height="450" viewBox="0 0 900 900" version="1.1"><path d="M 424.841 215.470 C 424.479 215.845, 418.179 216.559, 410.841 217.058 C 392.092 218.334, 386.858 219.362, 380.445 223.032 C 376.155 225.486, 373.257 226.358, 368.165 226.726 C 359.707 227.338, 354.503 229.042, 344.500 234.475 C 340.100 236.865, 333.650 239.778, 330.166 240.949 C 326.682 242.120, 321.386 244.523, 318.398 246.289 C 315.410 248.055, 311.735 250.177, 310.233 251.004 C 305.343 253.694, 287.119 266.152, 285.868 267.659 C 284.475 269.337, 285.320 269.209, 297.780 265.844 C 301.784 264.763, 308.309 263.655, 312.280 263.382 C 316.251 263.110, 321.434 262.397, 323.798 261.800 C 326.787 261.044, 328.766 261.029, 330.298 261.750 C 333.781 263.389, 346.513 266.037, 355.900 267.075 C 360.630 267.598, 365.625 268.447, 367 268.962 C 369.241 269.802, 376.756 271.377, 391.500 274.097 C 394.250 274.604, 398.075 275.447, 400 275.969 C 401.925 276.491, 408 278.099, 413.500 279.542 C 419 280.985, 424.400 282.555, 425.500 283.032 C 426.600 283.508, 430.875 285.295, 435 287.002 C 439.125 288.710, 448.021 293.007, 454.769 296.553 C 461.517 300.099, 468.163 303, 469.538 303 C 470.913 303, 474.489 304.308, 477.484 305.906 C 480.479 307.505, 484.858 309.105, 487.215 309.463 C 489.572 309.821, 492.400 310.519, 493.500 311.015 C 494.600 311.511, 498.875 313.445, 503 315.311 C 517.168 321.723, 537.874 334.028, 542.825 338.979 C 546 342.154, 546 342.154, 546 322.277 C 546 310.324, 545.600 302, 544.997 301.397 C 544.446 300.846, 543.578 297.268, 543.068 293.447 C 540.379 273.280, 529.980 254.081, 518.636 248.336 C 514.860 246.424, 508.779 242.049, 505.121 238.614 C 501.167 234.900, 496.045 231.276, 492.486 229.675 C 486.739 227.089, 484.517 225.969, 473.551 220.134 C 469.032 217.729, 467.249 217.443, 453.051 216.848 C 444.498 216.489, 434.800 215.879, 431.500 215.493 C 428.200 215.106, 425.204 215.096, 424.841 215.470 M 406.358 223.954 C 388.750 228.153, 388.892 247.645, 406.536 248.328 C 415.951 248.693, 424.737 235.956, 416.807 233.439 C 415.115 232.902, 413.971 233.468, 411.769 235.932 C 409.497 238.475, 408.270 239.058, 405.710 238.810 C 399.164 238.177, 402.422 234.542, 412 231.792 C 422.464 228.788, 417.135 221.384, 406.358 223.954 M 529.031 275.969 C 527.551 277.449, 527.245 278.734, 527.701 281.546 C 528.389 285.782, 526.923 287.294, 522.939 286.460 C 516.955 285.207, 515.304 292.641, 521.039 295.016 C 527.219 297.576, 538.106 291.148, 537.924 285.047 C 537.690 277.216, 532.788 272.212, 529.031 275.969 M 655 327.004 C 631.808 332.254, 623.618 335.385, 616.137 341.861 C 613.824 343.862, 610.539 346.595, 608.836 347.934 C 607.133 349.272, 604.210 352.760, 602.339 355.684 C 600.469 358.608, 598.518 361, 598.004 361 C 596.968 361, 586 377.408, 586 378.957 C 586 379.899, 583.690 385.657, 581.869 389.250 C 580.630 391.697, 582.452 391.497, 588.500 388.522 C 591.250 387.169, 594.336 386.048, 595.357 386.031 C 596.378 386.014, 599.978 384.704, 603.357 383.120 C 618.224 376.150, 625.225 373, 625.854 373 C 626.226 373, 628.170 372.121, 630.175 371.046 C 632.179 369.972, 636.205 368.776, 639.120 368.390 C 642.035 368.003, 647.138 366.595, 650.460 365.260 C 653.782 363.926, 660.775 362.228, 666 361.488 C 671.225 360.749, 677.525 359.681, 680 359.115 C 682.475 358.550, 690.661 358.068, 698.191 358.044 C 705.721 358.020, 712.117 357.619, 712.405 357.153 C 713.834 354.841, 755.278 353.721, 775.750 355.441 C 781.805 355.950, 785.985 355.933, 785.965 355.401 C 785.863 352.814, 779.026 344.474, 775.181 342.247 C 763.198 335.306, 753.310 331.259, 755.868 334.341 C 756.579 335.198, 756.815 336.889, 756.435 338.404 C 755.938 340.383, 756.161 341, 757.373 341 C 760.206 341, 760.637 346.066, 757.986 348.212 C 754.097 351.362, 745.003 348.222, 744.997 343.727 C 744.993 340.720, 749.098 333.148, 750.983 332.683 C 752.140 332.398, 752.025 332.137, 750.500 331.582 C 749.400 331.181, 747.606 330.367, 746.514 329.771 C 742.753 327.720, 711.221 325.106, 683 324.505 C 668.900 324.204, 666.371 324.430, 655 327.004 M 677.035 333.934 C 675.050 337.644, 675.767 345.432, 678.314 347.826 C 687.005 355.990, 704.944 344.195, 698.589 334.496 C 695.694 330.077, 690.500 331.823, 690.500 337.214 C 690.500 340.055, 690.128 340.543, 687.750 340.816 C 685.232 341.106, 685 340.849, 685 337.766 C 685 332.258, 679.380 329.554, 677.035 333.934 M 615.739 346.750 C 606.979 356.506, 615.979 372.199, 627.050 366.474 C 632.267 363.776, 630.139 357.167, 624.405 358.263 C 621.802 358.760, 621.800 358.755, 622.456 353.508 C 623.371 346.181, 619.629 342.417, 615.739 346.750 M 291 383.195 C 289.591 383.822, 281.735 384.395, 273 384.509 C 256.997 384.717, 248.049 386.867, 239.164 392.641 C 237.879 393.476, 234.646 394.807, 231.979 395.599 C 229.313 396.391, 224.964 398.732, 222.315 400.802 C 219.667 402.872, 214.346 406.627, 210.490 409.146 C 206.635 411.665, 201.910 415.505, 199.990 417.678 C 198.071 419.851, 195.333 422.951, 193.906 424.565 C 192.480 426.179, 188.568 429.738, 185.213 432.474 C 181.858 435.209, 179.256 437.589, 179.430 437.763 C 179.811 438.145, 191.686 435.123, 194.500 433.929 C 218.451 423.759, 309.282 418.092, 335.640 425.122 C 339.963 426.275, 346.425 427.794, 350 428.496 C 353.575 429.199, 359.204 430.874, 362.508 432.218 C 370.319 435.395, 374 436.299, 374 435.040 C 374 428.478, 361.823 402.450, 357.654 400.103 C 356.089 399.221, 353.197 397.248, 351.227 395.718 C 347.241 392.622, 339.628 389, 337.108 389 C 336.207 389, 333.686 388.044, 331.505 386.874 C 327.283 384.612, 316.790 382.613, 311 382.968 C 302.957 383.461, 298.355 383.397, 296 382.760 C 294.625 382.388, 292.375 382.584, 291 383.195 M 255 393.868 C 238.772 401.986, 233.527 409.315, 238.982 416.250 C 243.658 422.195, 271 413.121, 271 405.625 C 271 400.295, 266.515 399.653, 259.656 404.003 C 254.263 407.424, 247.921 410.254, 247.220 409.554 C 246.710 409.044, 251.099 406.264, 259.936 401.500 C 271.510 395.260, 266.794 387.968, 255 393.868 M 386.990 427.250 C 386.883 440.648, 397.509 452.572, 405.488 448.007 C 412.208 444.162, 415.512 444.330, 425.560 449.028 C 439.173 455.393, 456.488 452.368, 443.717 445.857 C 441.397 444.674, 437.523 442.198, 435.106 440.353 C 432.017 437.995, 429.642 436.996, 427.106 436.985 C 425.123 436.977, 421.700 436.321, 419.500 435.529 C 417.300 434.736, 413.925 434.065, 412 434.038 C 410.075 434.010, 407.150 433.279, 405.500 432.412 C 402.998 431.098, 388.586 426, 387.372 426 C 387.168 426, 386.996 426.563, 386.990 427.250 M 456.722 436.250 C 457.860 437.488, 460.163 440.685, 461.838 443.355 C 467.716 452.722, 471.334 454.844, 479.500 453.713 C 488.170 452.512, 495.377 452.419, 500.149 453.445 C 502.813 454.017, 505.649 453.660, 510.649 452.122 C 518.189 449.803, 527.311 448.104, 536.451 447.316 C 542.960 446.754, 533.150 441.011, 525.651 440.992 C 523.918 440.988, 519.575 440.094, 516 439.006 C 507.885 436.535, 483.998 435.917, 477.248 438.003 C 472.645 439.426, 464.409 438.256, 458.800 435.383 C 454.952 433.412, 454.344 433.666, 456.722 436.250 M 617.151 470.819 C 616.169 471.490, 616.752 471.919, 619.300 472.396 C 624.370 473.348, 628.181 476.649, 627.805 479.765 C 627.337 483.655, 624.771 484.738, 620.663 482.779 C 617.304 481.177, 617.061 481.211, 610.891 484.129 C 603.757 487.503, 599.987 487.032, 600.015 482.771 C 600.038 479.449, 600.787 478.784, 608.500 475.237 C 614.408 472.521, 615.028 472.017, 612.473 472.009 C 610.807 472.004, 608.557 472.614, 607.473 473.365 C 606.388 474.116, 604.375 475.078, 603 475.503 C 601.625 475.928, 599.427 477.113, 598.115 478.138 C 596.803 479.162, 594.300 480, 592.553 480 C 590.805 480, 587.513 480.900, 585.236 482 C 582.959 483.100, 580.175 484, 579.048 484 C 577.922 484, 576.277 484.852, 575.394 485.894 C 569.271 493.118, 568.100 494, 564.636 494 C 562.701 494, 560.876 494.391, 560.581 494.869 C 560.286 495.346, 558.308 496.015, 556.187 496.354 C 552.393 496.961, 545 508.670, 545 514.072 C 545 514.888, 544.408 516.443, 543.685 517.527 C 542.514 519.283, 540 526.689, 540 528.381 C 540 528.737, 541.688 527.904, 543.750 526.529 C 545.813 525.155, 548.937 523.382, 550.693 522.590 C 552.449 521.798, 555.591 519.991, 557.675 518.575 C 559.759 517.159, 562.732 516, 564.282 516 C 567.845 516, 571.794 513.960, 575 510.464 C 577.649 507.575, 588.327 502.002, 591.215 502.001 C 592.159 502, 594.409 500.718, 596.215 499.150 C 598.022 497.583, 600.823 495.978, 602.439 495.584 C 604.055 495.190, 606.530 494.058, 607.939 493.069 C 609.348 492.080, 612.300 490.701, 614.500 490.005 C 616.700 489.308, 620.075 488.165, 622 487.465 C 623.925 486.766, 628.200 485.650, 631.500 484.985 C 634.800 484.321, 637.967 483.401, 638.538 482.942 C 639.109 482.482, 642.484 481.970, 646.038 481.803 C 652.500 481.500, 652.500 481.500, 648.782 479.500 C 646.737 478.400, 642.494 475.958, 639.353 474.074 C 633.383 470.493, 620.414 468.592, 617.151 470.819" stroke="none" fill="#fadac2" fill-rule="evenodd"/><path d="M 403.620 203.143 C 386.890 204.024, 386.667 204.066, 378.620 207.892 C 367.626 213.119, 365.536 213.771, 358 214.328 C 351.651 214.797, 336.303 221.083, 334.539 223.936 C 334.178 224.521, 333.121 225.003, 332.191 225.006 C 331.261 225.010, 329.293 225.642, 327.817 226.412 C 326.342 227.182, 323.642 228.137, 321.817 228.536 C 319.993 228.934, 316.700 230.459, 314.500 231.923 C 312.300 233.388, 309.375 235.131, 308 235.796 C 302.951 238.239, 294.542 243.238, 293.535 244.396 C 292.966 245.051, 288.516 248.241, 283.647 251.486 C 278.778 254.730, 274.075 258.535, 273.197 259.942 C 272.318 261.349, 268.838 265.650, 265.463 269.500 C 256.456 279.775, 255.465 281.530, 256.896 284.671 C 257.842 286.747, 257.795 287.580, 256.658 288.880 C 249.713 296.821, 250.348 305.200, 258.561 314 C 260.357 315.925, 263.623 319.525, 265.817 322 C 270.270 327.021, 279.944 333.123, 290.488 337.560 C 295.720 339.761, 299.489 342.392, 305.488 348.028 C 314.379 356.381, 318.878 359.441, 323.800 360.483 C 325.616 360.867, 329.666 362.208, 332.800 363.463 C 336.309 364.867, 341.904 366.009, 347.356 366.433 C 354.067 366.955, 359.243 368.197, 368.726 371.561 C 375.609 374.002, 381.973 376.001, 382.870 376.002 C 385.691 376.005, 385.690 407.560, 382.870 409.070 C 380.385 410.399, 381.132 411.303, 375.653 400.345 C 371.496 392.032, 367.197 387, 364.251 387 C 363.734 387, 362.004 385.858, 360.406 384.461 C 357.193 381.655, 347.137 376.558, 342.567 375.421 C 340.953 375.020, 338.478 374.088, 337.067 373.352 C 335.655 372.615, 333.803 372.010, 332.950 372.006 C 332.098 372.003, 330.929 371.529, 330.354 370.954 C 328.768 369.368, 314.043 368.287, 299.500 368.689 C 292.350 368.887, 280.561 369.150, 273.301 369.274 C 264.344 369.428, 259.700 369.902, 258.851 370.750 C 258.163 371.438, 256.227 371.998, 254.550 371.995 C 250.923 371.989, 237.942 376.507, 233 379.495 C 231.075 380.658, 227.478 382.199, 225.008 382.918 C 222.537 383.637, 218.037 386.095, 215.008 388.380 C 211.978 390.666, 206.800 394.279, 203.500 396.411 C 200.200 398.543, 191.980 405.819, 185.233 412.581 C 178.485 419.344, 172.074 425.159, 170.986 425.505 C 169.897 425.850, 167.789 428.240, 166.301 430.816 C 164.814 433.392, 161.775 437.722, 159.548 440.437 C 157.322 443.152, 154.961 446.077, 154.302 446.937 C 153.644 447.797, 149.990 451.875, 146.183 456 C 139.261 463.500, 139.261 463.500, 138.476 474 C 136.616 498.872, 140.865 510.631, 152.719 513.422 C 154.249 513.783, 158.630 515.026, 162.455 516.185 C 175.175 520.041, 240.466 518.050, 250.268 513.508 C 257.918 509.963, 261.523 528.892, 256.455 546 C 252.936 557.881, 250.897 564.644, 249.863 567.872 C 249.268 569.727, 248.393 574.342, 247.918 578.128 C 247.442 581.913, 245.916 587.414, 244.527 590.352 C 243.137 593.289, 242 596.411, 242 597.287 C 242 598.164, 241.550 599.160, 241 599.500 C 240.450 599.840, 240 600.932, 240 601.927 C 240 603.779, 234.249 614.742, 231.198 618.707 C 229.521 620.886, 229.016 620.925, 190.957 621.811 C 165.549 622.402, 151.685 623.098, 150.273 623.854 C 148.851 624.615, 140.299 625.024, 124.816 625.071 C 95.936 625.159, 82.139 626.564, 72.500 630.399 C 70.300 631.274, 66.475 632.409, 64 632.920 C 61.525 633.432, 55.225 634.830, 50 636.028 C 44.775 637.225, 37.575 638.814, 34 639.558 C 23.241 641.798, 9.319 646.089, 6.500 648.034 C 5.950 648.414, 4.262 649.020, 2.750 649.381 C 0.073 650.021, -1.845 665.001, 0.750 664.999 C 1.610 664.999, 11.042 661.539, 15.500 659.589 C 19.059 658.032, 31.344 654.765, 42.500 652.408 C 46.900 651.479, 51.222 650.351, 52.105 649.901 C 52.988 649.452, 56.813 648.601, 60.605 648.010 C 64.397 647.419, 71.775 645.628, 77 644.029 C 100.790 636.750, 277.788 632.189, 288.142 638.588 C 288.799 638.994, 292.973 640.122, 297.418 641.095 C 301.863 642.068, 309.654 643.990, 314.732 645.367 C 324.592 648.041, 521.379 650.023, 557.500 647.813 C 607.832 644.733, 628.018 643.206, 633.500 642.065 C 642.224 640.250, 662.356 639.826, 750 639.613 C 844.741 639.382, 836.011 639.877, 896.250 631.322 C 900 630.790, 900 630.790, 900 623.278 C 900 615.767, 900 615.767, 897.250 616.405 C 895.738 616.756, 891.350 617.517, 887.500 618.097 C 883.650 618.676, 878.925 619.547, 877 620.032 C 875.075 620.517, 867.106 621.409, 859.290 622.015 C 851.475 622.621, 843.600 623.611, 841.790 624.215 C 831.852 627.532, 735.191 626.285, 735.259 622.841 C 735.295 620.975, 733.408 615.084, 730.985 609.500 C 727.757 602.060, 726.540 597.836, 726.230 593 C 726.001 589.425, 724.567 582.675, 723.043 578 C 721.349 572.803, 720.049 566.172, 719.698 560.936 C 719.177 553.168, 716.646 543.234, 711.426 528.467 C 708.330 519.710, 710.568 501.154, 716.006 490.489 C 717.109 488.325, 718 484.599, 718 482.150 C 718 479.715, 718.938 472.272, 720.084 465.611 C 721.243 458.879, 721.925 451.667, 721.620 449.372 C 720.795 443.164, 724.952 440.697, 741.608 437.511 C 748.935 436.109, 763.500 430.618, 764.596 428.845 C 765.859 426.802, 780.518 417.989, 785.290 416.404 C 797.933 412.204, 809.041 397.725, 810.149 384 C 810.571 378.775, 811.207 372.338, 811.563 369.695 C 812.190 365.038, 812.083 364.770, 808.089 360.970 C 804.225 357.294, 804.009 356.797, 804.619 352.983 C 805.323 348.576, 802.472 344, 799.022 344 C 797.248 344, 791.904 338.796, 790.137 335.347 C 789.530 334.163, 787.004 332.212, 784.522 331.011 C 782.041 329.810, 779.778 328.451, 779.494 327.990 C 779.210 327.530, 777.632 326.858, 775.989 326.497 C 774.345 326.136, 772.997 325.539, 772.993 325.171 C 772.977 323.547, 766.075 320.182, 761.601 319.617 C 758.906 319.276, 756.206 318.613, 755.601 318.144 C 751.364 314.859, 740.086 313.092, 719 312.411 C 711.025 312.154, 703.593 311.486, 702.485 310.928 C 698.772 309.058, 663.891 310.361, 652 312.813 C 646.225 314.004, 639.551 315.380, 637.170 315.870 C 634.788 316.360, 632.335 317.265, 631.720 317.880 C 631.104 318.496, 629.941 319, 629.136 319 C 622.620 319, 600.631 334.102, 593.284 343.622 C 590.965 346.627, 587.699 350.454, 586.027 352.127 C 584.354 353.800, 581.776 357.268, 580.298 359.834 C 578.820 362.400, 576.607 365.850, 575.380 367.500 C 574.153 369.150, 571.947 374.100, 570.478 378.500 C 569.008 382.900, 566.635 388.975, 565.205 392 C 561.522 399.789, 562.037 413.583, 566.314 421.700 C 567.241 423.461, 568 426.070, 568 427.498 C 568 433.537, 578.528 439.209, 591.500 440.158 C 600.593 440.824, 607.013 441.939, 612.500 443.807 C 616.202 445.067, 625.468 447.670, 629.500 448.584 C 634.567 449.731, 641.248 449.439, 646.750 447.829 C 652.515 446.142, 652.636 446.265, 650.585 451.730 C 649.807 453.803, 648.888 456.778, 648.543 458.341 C 648.056 460.551, 647.537 461.017, 646.208 460.438 C 632.966 454.667, 608.611 454.869, 600.257 460.817 C 598.571 462.018, 596.755 463, 596.223 463 C 595.690 463, 593.285 463.846, 590.877 464.879 C 581.580 468.871, 581.432 468.823, 580.197 461.369 C 579.596 457.741, 578.455 454.036, 577.663 453.136 C 576.870 452.236, 574.635 448.324, 572.695 444.442 C 568.152 435.351, 567.957 435.224, 558.500 435.241 C 551.512 435.254, 549.804 434.879, 545 432.283 C 530.300 424.338, 486.792 419.327, 474.172 424.125 C 472.230 424.863, 470.625 424.415, 466.134 421.881 C 461 418.983, 460.184 418.805, 456.521 419.782 C 451.197 421.203, 451.528 423.833, 452.670 389.244 C 453.228 372.335, 453.333 357.530, 452.903 356.344 C 452.460 355.122, 452.785 350.358, 453.655 345.344 C 455.650 333.835, 455.580 332.917, 452.493 330.250 C 445.603 324.297, 441.238 329.368, 438.936 346 C 438.441 349.575, 437.482 354.680, 436.805 357.345 C 435.762 361.449, 435.808 362.600, 437.105 364.859 C 440.567 370.892, 438.314 424.128, 434.620 423.573 C 432.904 423.315, 429.475 422.834, 427 422.502 C 424.525 422.171, 420.475 421.273, 418 420.507 C 415.525 419.741, 409.969 418.095, 405.653 416.850 C 397.805 414.587, 397.805 414.587, 398.585 411.043 C 399.534 406.733, 399.497 396.495, 398.504 388.862 C 398.041 385.303, 398.197 381.934, 398.926 379.724 C 399.561 377.800, 400.513 372.012, 401.041 366.862 C 401.569 361.713, 402.280 355.771, 402.621 353.659 C 402.971 351.485, 402.753 348.880, 402.118 347.659 C 401.442 346.358, 400.898 338.386, 400.748 327.607 C 400.500 309.713, 400.500 309.713, 397.758 307.668 C 393.421 304.431, 388 307.315, 388 312.859 C 388 316.436, 387.742 316.802, 384.800 317.390 C 380.167 318.317, 366.106 328.015, 365.370 330.790 C 363.512 337.800, 369.548 338.340, 378.901 332 C 382.958 329.250, 386.665 327, 387.138 327 C 387.612 327, 388 335.380, 388 345.622 C 388 360.382, 387.741 364.040, 386.750 363.255 C 386.063 362.711, 382.575 361.285, 379 360.086 C 375.425 358.887, 370.959 357.194, 369.076 356.324 C 367.193 355.453, 363.143 354.358, 360.076 353.889 C 343.071 351.291, 338.306 350.370, 336.482 349.329 C 335.371 348.696, 332.671 347.853, 330.482 347.457 C 324.812 346.431, 323.762 345.740, 313.988 336.596 C 307.370 330.405, 303.538 327.681, 298.360 325.489 C 282.851 318.923, 267 305.874, 267 299.673 C 267 296.851, 282.915 285.070, 289.283 283.177 C 300.328 279.895, 304.233 278.934, 310.377 277.984 C 318.433 276.739, 319.735 277.135, 313.755 279.012 C 311.415 279.747, 309.072 280.720, 308.550 281.174 C 308.027 281.628, 306.102 282, 304.271 282 C 296.900 282, 283 291.140, 283 295.987 C 283 301.067, 288.081 302.782, 291.595 298.890 C 294.405 295.777, 307.109 289.500, 310 289.796 C 311.375 289.937, 316.282 288.670, 320.905 286.980 C 329.584 283.808, 346.897 283.164, 351.673 285.837 C 352.585 286.347, 355.001 286.541, 357.042 286.268 C 361.851 285.622, 367.114 288.660, 377.343 297.984 C 384.694 304.686, 390 306.336, 390 301.921 C 390 301.505, 390.268 300.464, 390.597 299.609 C 390.988 298.590, 389.241 296.007, 385.531 292.117 C 379.868 286.181, 379.868 286.181, 383.684 287.098 C 385.783 287.603, 389.750 288.477, 392.500 289.040 C 418.791 294.429, 461.988 312.832, 462.846 319.010 C 463.561 324.162, 469.337 326.040, 472.128 322.028 C 473.491 320.069, 473.543 320.070, 480 322.178 C 496.931 327.707, 496.527 327.358, 487 328.218 C 482.325 328.640, 476.925 329.621, 475 330.397 C 473.075 331.174, 469.925 332.204, 468 332.686 C 464.880 333.468, 464.467 333.964, 464.192 337.248 C 463.764 342.362, 466.472 342.878, 478.280 339.931 C 504.805 333.310, 526.693 338.675, 536.620 354.230 C 539.724 359.095, 539.632 360.211, 535.757 364.624 C 526.228 375.477, 502 376.092, 502 365.481 C 502 360.462, 499.493 352.751, 497.190 350.687 C 492.519 346.500, 470.740 342.311, 467.523 344.981 C 463.446 348.364, 467.461 353.988, 473.973 354.015 C 494.136 354.099, 499.274 366.869, 479.924 368.804 C 473.282 369.468, 467.011 370.459, 465.989 371.006 C 464.968 371.553, 462.617 372, 460.766 372 C 456.445 372, 455 373.515, 455 378.045 C 455 385.387, 458.889 386.247, 479 383.353 C 490.461 381.704, 490.525 381.706, 498 384.002 C 524.351 392.095, 551.873 380.634, 552.035 361.500 C 552.073 356.978, 552.384 356.306, 555.289 354.476 C 559.712 351.688, 560.365 297.417, 556.136 284 C 546.839 254.505, 539.329 242.519, 526.011 235.922 C 522.442 234.154, 516.779 230.073, 513.426 226.854 C 510.073 223.634, 506.999 221, 506.595 221 C 506.191 221, 503.979 219.709, 501.680 218.130 C 499.381 216.552, 495.925 214.918, 494 214.500 C 492.075 214.082, 488.700 212.508, 486.500 211.002 C 481.920 207.867, 474.577 204.385, 470.965 203.634 C 466.045 202.611, 420.084 202.276, 403.620 203.143 M 424.838 215.496 C 424.477 215.856, 418.179 216.568, 410.841 217.077 C 390.948 218.458, 387.143 219.189, 380.725 222.866 C 375.997 225.576, 373.392 226.317, 366.350 226.959 C 358.618 227.664, 356.527 228.350, 345.625 233.762 C 338.956 237.073, 331.250 240.577, 328.500 241.548 C 325.750 242.519, 321.123 244.706, 318.218 246.407 C 315.314 248.108, 310.956 250.625, 308.535 252 C 301.463 256.017, 287.527 265.754, 285.430 268.144 C 284.368 269.354, 284.024 270.039, 284.665 269.666 C 287.595 267.959, 306.248 263.791, 313 263.333 C 317.125 263.053, 321.954 262.382, 323.731 261.841 C 325.879 261.187, 328.060 261.200, 330.231 261.879 C 338.018 264.314, 346.098 266.009, 354.330 266.935 C 359.186 267.481, 364.586 268.385, 366.330 268.944 C 368.073 269.502, 373.325 270.705, 378 271.617 C 382.675 272.528, 389.425 273.847, 393 274.548 C 396.575 275.248, 402.875 276.726, 407 277.833 C 411.125 278.939, 416.525 280.368, 419 281.008 C 421.475 281.647, 424.400 282.559, 425.500 283.035 C 426.600 283.510, 430.875 285.295, 435 287.002 C 439.125 288.710, 448.021 293.007, 454.769 296.553 C 461.517 300.099, 468.179 303, 469.573 303 C 470.967 303, 474.446 304.296, 477.304 305.879 C 480.162 307.463, 484.525 309.096, 487 309.509 C 497.957 311.337, 534.502 330.656, 542.912 339.066 C 546.236 342.390, 547.319 308.459, 544.239 297.500 C 543.620 295.300, 542.691 291.250, 542.174 288.500 C 538.656 269.779, 528.888 253.214, 518.333 248.067 C 514.633 246.263, 508.881 242.222, 505.552 239.088 C 498.362 232.318, 496.238 230.926, 487.989 227.574 C 484.545 226.174, 480.326 223.984, 478.614 222.707 C 472.867 218.422, 467.380 217.198, 451 216.546 C 442.475 216.206, 433.248 215.684, 430.497 215.384 C 427.745 215.085, 425.198 215.135, 424.838 215.496 M 406.358 223.954 C 388.750 228.153, 388.892 247.645, 406.536 248.328 C 415.951 248.693, 424.737 235.956, 416.807 233.439 C 415.115 232.902, 413.971 233.468, 411.769 235.932 C 409.497 238.475, 408.270 239.058, 405.710 238.810 C 399.164 238.177, 402.422 234.542, 412 231.792 C 422.464 228.788, 417.135 221.384, 406.358 223.954 M 529.031 275.969 C 527.551 277.449, 527.245 278.734, 527.701 281.546 C 528.389 285.782, 526.923 287.294, 522.939 286.460 C 516.955 285.207, 515.304 292.641, 521.039 295.016 C 527.219 297.576, 538.106 291.148, 537.924 285.047 C 537.690 277.216, 532.788 272.212, 529.031 275.969 M 345 304.032 C 332.109 305.152, 317 312.620, 317 317.872 C 317 323.711, 321.236 324.505, 328.344 319.997 C 339.744 312.767, 364.394 310.099, 374.090 315.046 C 384.524 320.369, 388.637 312.327, 378.703 306.027 C 373.471 302.709, 365.609 302.243, 345 304.032 M 663.500 325.092 C 661.300 325.624, 657.025 326.524, 654 327.093 C 629.669 331.670, 611.148 341.914, 602.357 355.656 C 600.477 358.595, 598.518 361, 598.004 361 C 597.005 361, 586 377.380, 586 378.867 C 586 379.353, 584.881 382.282, 583.513 385.376 C 580.727 391.674, 581.260 392.181, 587.386 389.058 C 589.481 387.990, 592.614 386.817, 594.348 386.452 C 596.081 386.087, 600.750 384.261, 604.722 382.394 C 608.693 380.527, 612.141 379, 612.382 379 C 612.624 379, 616.349 377.385, 620.661 375.412 C 624.972 373.438, 629.925 371.185, 631.668 370.404 C 633.410 369.623, 637.010 368.727, 639.668 368.413 C 642.325 368.098, 645.400 367.473, 646.500 367.024 C 656.264 363.033, 659.527 362.134, 666.500 361.508 C 670.900 361.114, 675.400 360.304, 676.500 359.709 C 677.600 359.114, 686.150 358.288, 695.500 357.875 C 704.850 357.462, 716.775 356.550, 722 355.849 C 732.956 354.379, 760.807 354.163, 775.750 355.432 C 781.811 355.946, 785.986 355.934, 785.965 355.401 C 785.906 353.912, 783.688 350.477, 780.363 346.726 C 775.701 341.468, 751.719 329.342, 755.868 334.341 C 756.579 335.198, 756.815 336.889, 756.435 338.404 C 755.938 340.383, 756.161 341, 757.373 341 C 760.206 341, 760.637 346.066, 757.986 348.212 C 754.097 351.362, 745.003 348.222, 744.997 343.727 C 744.993 340.707, 749.105 333.140, 750.983 332.709 C 753.845 332.053, 744.555 328.789, 737 327.795 C 718.361 325.343, 669.840 323.559, 663.500 325.092 M 677.035 333.934 C 675.050 337.644, 675.767 345.432, 678.314 347.826 C 687.005 355.990, 704.944 344.195, 698.589 334.496 C 695.694 330.077, 690.500 331.823, 690.500 337.214 C 690.500 340.055, 690.128 340.543, 687.750 340.816 C 685.232 341.106, 685 340.849, 685 337.766 C 685 332.258, 679.380 329.554, 677.035 333.934 M 615.739 346.750 C 606.979 356.506, 615.979 372.199, 627.050 366.474 C 632.267 363.776, 630.139 357.167, 624.405 358.263 C 621.802 358.760, 621.800 358.755, 622.456 353.508 C 623.371 346.181, 619.629 342.417, 615.739 346.750 M 730 369.163 C 727.525 369.707, 724.535 370.339, 723.355 370.568 C 721.830 370.865, 719.867 373.585, 716.565 379.979 C 711.616 389.561, 709.842 391.270, 706.250 389.914 C 703.193 388.760, 703.285 384.344, 706.500 378 C 707.875 375.287, 709 372.930, 709 372.763 C 709 372.597, 704.163 372.578, 698.250 372.722 C 692.337 372.865, 687.097 372.987, 686.605 372.992 C 686.107 372.996, 685.985 375.933, 686.329 379.616 C 687.066 387.515, 686.051 390, 682.087 390 C 678.185 390, 677.309 388.561, 676.487 380.797 C 675.687 373.241, 676.667 373.617, 664.500 376.197 C 656.611 377.870, 656.275 378.442, 661.789 380.814 C 668.357 383.640, 669.750 388.458, 664.769 391.124 C 663.152 391.989, 661.323 391.467, 655.136 388.372 C 641.728 381.665, 641.618 381.649, 633.546 385.159 C 629.671 386.844, 624.250 389.189, 621.500 390.370 C 618.750 391.552, 614.250 393.792, 611.500 395.348 C 608.750 396.904, 604.925 398.425, 603 398.729 C 595.808 399.862, 579.878 408.269, 578.597 411.607 C 576.139 418.015, 584.542 426, 593.744 426 C 599.478 426, 601.616 426.505, 613 430.544 C 621.045 433.399, 641.238 435.648, 645.189 434.129 C 649.669 432.407, 652.733 422.792, 649.892 419.370 C 648.408 417.582, 648.376 417.432, 648.152 411.357 C 647.843 402.939, 619.833 407.104, 606.352 417.573 C 595.872 425.711, 589.256 419.112, 599.250 410.489 C 611.079 400.283, 648.089 392.231, 654.357 398.500 C 655.182 399.325, 656.959 400, 658.306 400 C 662.041 400, 663.451 402.492, 663.194 408.638 C 663.069 411.623, 663.649 418.629, 664.483 424.208 C 666.766 439.474, 666.484 449.261, 663.500 458.403 C 660.058 468.949, 660.669 471.469, 668.597 479.397 C 672.452 483.252, 672.832 485.671, 670.126 489.115 C 668.555 491.114, 668.166 493.856, 667.727 506.038 C 667.350 516.526, 666.731 521.681, 665.508 524.538 C 664.376 527.184, 663.728 531.822, 663.557 538.500 C 663.165 553.806, 661.234 578.030, 660.049 582.500 C 659.465 584.700, 658.587 589.510, 658.095 593.189 C 657.109 600.581, 654.356 606.958, 647.600 617.500 C 645.133 621.350, 643.089 624.896, 643.057 625.380 C 642.998 626.291, 720.552 625.781, 721.469 624.864 C 721.748 624.585, 719.732 619.279, 716.988 613.072 C 712.870 603.756, 712 600.774, 712 595.975 C 712 592.778, 711.374 588.888, 710.610 587.331 C 708.123 582.268, 705.715 570.724, 704.956 560.232 C 704.548 554.584, 703.763 549.409, 703.212 548.732 C 702.231 547.528, 699.144 537.796, 696.382 527.201 C 694.782 521.067, 694.582 511.998, 695.948 507.571 C 696.469 505.882, 697.599 501.369, 698.459 497.541 C 699.320 493.714, 700.871 488.764, 701.907 486.541 C 702.951 484.300, 704.076 478.937, 704.432 474.500 C 704.785 470.100, 705.725 463.800, 706.521 460.500 C 707.317 457.200, 707.976 452.603, 707.984 450.285 C 707.993 447.967, 708.641 444.142, 709.424 441.785 C 710.207 439.428, 711.331 433.420, 711.922 428.434 C 713.601 414.265, 718.072 405, 723.232 405 C 723.825 405, 723.529 404.137, 722.575 403.082 C 716.164 395.998, 731.257 389.475, 752.498 390.149 C 769.576 390.691, 780.284 397.133, 774.898 403.623 C 773.821 404.921, 774.049 405.030, 776.575 404.423 C 785.941 402.171, 796 391.403, 796 383.630 C 796 378.238, 795.202 376.978, 788.619 371.969 C 785.208 369.374, 739.091 367.167, 730 369.163 M 747 369.735 C 736.815 373.657, 721.994 383.545, 722.015 386.405 C 722.063 392.943, 725.873 392.678, 739.185 385.207 C 745.062 381.908, 751.137 378.789, 752.685 378.273 C 756.120 377.130, 757.974 372.879, 756.050 370.560 C 754.781 369.031, 749.969 368.593, 747 369.735 M 291 383.206 C 289.610 383.818, 281.616 384.399, 273 384.513 C 256.678 384.730, 251.153 385.982, 240.196 391.944 C 238.163 393.050, 233.989 394.869, 230.921 395.986 C 227.852 397.102, 223.576 399.475, 221.417 401.258 C 215.641 406.030, 211.234 409, 209.928 409 C 209.294 409, 203.989 413.850, 198.138 419.778 C 192.287 425.705, 185.507 432.230, 183.070 434.278 C 180.634 436.325, 178.953 438, 179.335 438 C 180.547 438, 192.416 434.814, 194.500 433.929 C 199.540 431.789, 222.389 426.689, 230.500 425.893 C 235.450 425.408, 243.100 424.469, 247.500 423.807 C 263.182 421.449, 324.924 422.231, 335 424.916 C 339.675 426.162, 346.425 427.758, 350 428.463 C 355.745 429.596, 359.047 430.697, 366.500 433.967 C 370.016 435.510, 374 436.080, 374 435.040 C 374 428.478, 361.823 402.450, 357.654 400.103 C 356.089 399.221, 353.197 397.248, 351.227 395.718 C 347.241 392.622, 339.628 389, 337.108 389 C 336.207 389, 333.686 388.044, 331.505 386.874 C 327.291 384.616, 316.810 382.616, 311 382.961 C 302.499 383.467, 299.308 383.429, 296.500 382.788 C 294.850 382.412, 292.375 382.600, 291 383.206 M 255 393.868 C 238.772 401.986, 233.527 409.315, 238.982 416.250 C 243.658 422.195, 271 413.121, 271 405.625 C 271 400.295, 266.515 399.653, 259.656 404.003 C 254.263 407.424, 247.921 410.254, 247.220 409.554 C 246.710 409.044, 251.099 406.264, 259.936 401.500 C 271.510 395.260, 266.794 387.968, 255 393.868 M 740.830 400.023 C 731.955 401.521, 731.869 402.313, 740.091 406.801 C 744.166 409.026, 748.781 411.559, 750.346 412.431 C 751.911 413.303, 753.426 414.913, 753.712 416.008 C 754.376 418.544, 754.201 418.583, 759.341 414.750 C 761.738 412.962, 765.888 410.215, 768.564 408.645 C 773.429 405.790, 773.429 405.790, 769.705 404.509 C 767.657 403.805, 765.423 402.793, 764.741 402.259 C 761.157 399.456, 750.240 398.435, 740.830 400.023 M 386.990 427.250 C 386.883 440.648, 397.509 452.572, 405.488 448.007 C 412.208 444.162, 415.512 444.330, 425.560 449.028 C 439.173 455.393, 456.488 452.368, 443.717 445.857 C 441.397 444.674, 437.523 442.198, 435.106 440.353 C 432.017 437.995, 429.642 436.996, 427.106 436.985 C 425.123 436.977, 421.700 436.321, 419.500 435.529 C 417.300 434.736, 413.925 434.065, 412 434.038 C 410.075 434.010, 407.150 433.279, 405.500 432.412 C 402.998 431.098, 388.586 426, 387.372 426 C 387.168 426, 386.996 426.563, 386.990 427.250 M 456.722 436.250 C 457.860 437.488, 460.163 440.685, 461.838 443.355 C 467.716 452.722, 471.334 454.844, 479.500 453.713 C 488.170 452.512, 495.377 452.419, 500.149 453.445 C 502.813 454.017, 505.649 453.660, 510.649 452.122 C 518.137 449.819, 527.277 448.110, 536.310 447.323 C 542.749 446.761, 533.938 441, 526.640 441 C 524.891 441, 520.228 440.104, 516.278 439.010 C 507.599 436.605, 484.157 435.955, 477.116 437.923 C 472.611 439.183, 459.800 437.103, 458.432 434.890 C 458.130 434.401, 457.155 434, 456.267 434 C 454.914 434, 454.988 434.366, 456.722 436.250 M 283.639 437.750 C 283.366 438.712, 282.579 442.130, 281.891 445.345 C 280.316 452.700, 277.447 455.178, 273.500 452.592 C 270.883 450.877, 270.422 448.698, 271.854 444.815 C 274.773 436.896, 274.853 436.998, 265.769 437.018 C 252.843 437.046, 224.249 440.396, 218.500 442.557 C 216.300 443.384, 212.250 444.445, 209.500 444.916 C 199.967 446.548, 184.163 451.792, 179.842 454.757 C 177.454 456.395, 173.250 458.714, 170.500 459.909 C 159.381 464.742, 158.451 465.543, 154.510 473.688 C 148.017 487.107, 151.493 497.841, 163.500 501.454 C 166.800 502.447, 170.534 503.651, 171.797 504.129 C 174.930 505.317, 203.689 505.237, 205.936 504.034 C 206.929 503.503, 211.446 502.759, 215.974 502.382 C 221.640 501.909, 223.707 501.415, 222.603 500.798 C 219.739 499.195, 220.530 492.034, 224.108 487.167 C 231.153 477.587, 245.923 467.323, 248.687 470.087 C 249.470 470.870, 249.967 470.862, 250.463 470.059 C 250.842 469.446, 250.215 468.169, 249.069 467.222 C 247.923 466.275, 246.889 464.252, 246.772 462.727 C 246.615 460.670, 246.165 460.118, 245.030 460.589 C 242.743 461.536, 242.136 461.543, 233.990 460.719 C 221.265 459.433, 204.709 468.134, 196.281 480.537 C 193.793 484.198, 189.635 485.235, 187.200 482.800 C 181.687 477.287, 198.428 460.486, 216.824 453.071 C 227.979 448.574, 247 450.281, 247 455.777 C 247 457.110, 247.239 457.094, 248.829 455.655 C 252.950 451.925, 259.903 455.390, 265.431 463.928 C 267.820 467.618, 270.062 470, 271.146 470 C 274.475 470, 275.049 473.139, 273.923 485.169 C 273.339 491.401, 272.508 507.975, 272.077 522 C 271.406 543.791, 270.992 548.373, 269.231 553.500 C 266.408 561.723, 263.459 572.315, 261.994 579.500 C 258.956 594.401, 254.007 608.932, 249.615 615.844 C 246.166 621.275, 244.845 620.721, 263 621.466 C 280.957 622.204, 305.047 626.762, 316.645 631.617 C 318.229 632.280, 318.873 623.320, 317.356 621.724 C 316.084 620.384, 307 599.806, 307 598.263 C 307 597.737, 306.270 595.843, 305.377 594.054 C 301.731 586.744, 301.106 566.325, 302.693 506.341 C 303.771 465.615, 302.773 470.162, 313.338 457.840 C 318.205 452.164, 320.760 449.993, 323.203 449.460 C 325.016 449.065, 327.772 447.674, 329.327 446.370 C 330.882 445.066, 333.357 443.728, 334.827 443.396 C 342.389 441.689, 343.704 441.187, 340.880 441.090 C 339.439 441.041, 335.443 440.100, 332 439 C 319.539 435.019, 313.840 436.032, 309.360 443.024 C 305.393 449.215, 302.140 451.203, 299.095 449.295 C 296.523 447.684, 296.651 444.125, 299.434 439.920 C 302.028 436, 302.028 436, 293.082 436 C 285.417 436, 284.064 436.251, 283.639 437.750 M 350 450.543 C 337.161 452.777, 336.366 453.054, 333.763 456.196 C 332.258 458.013, 329.524 461.075, 327.688 463 C 319.683 471.391, 317.309 475.302, 318.401 478.299 C 319.136 480.316, 319.082 481.638, 318.210 483.035 C 316.494 485.784, 316.599 496, 318.343 496 C 320.778 496, 334.125 491.095, 355.774 482.245 C 366.540 477.843, 356.272 470.216, 341.225 471.437 C 331.841 472.198, 330 471.471, 330 467 C 330 457.106, 359.023 459.926, 367.889 470.682 C 371.457 475.010, 372.005 474.795, 381.301 465.406 C 386.612 460.043, 386.950 459.444, 385.301 458.316 C 384.310 457.639, 382.302 455.869, 380.839 454.383 C 378.673 452.184, 367.120 447.911, 364 448.154 C 363.725 448.176, 357.425 449.251, 350 450.543 M 531 462.055 C 521.989 463.634, 517.155 465.299, 516.717 466.975 C 516.476 467.895, 513.629 470.437, 510.390 472.624 C 507.150 474.811, 502.375 478.118, 499.778 479.973 C 490.554 486.561, 485.351 478.641, 494.376 471.750 C 498.751 468.409, 498.751 468.409, 494.773 467.168 C 491.629 466.186, 490.484 466.183, 489.316 467.153 C 488.503 467.827, 485.629 468.346, 482.929 468.305 C 477.436 468.223, 477.450 468.167, 480.652 477.376 C 485.371 490.946, 479.461 506.384, 467 513.042 C 465.075 514.070, 464.088 514.931, 464.806 514.956 C 467.256 515.039, 470.076 523.645, 470.638 532.755 C 470.934 537.565, 471.779 543.525, 472.515 546 C 474.048 551.157, 474.377 575.261, 472.999 581.458 C 472.432 584.009, 472.517 586.903, 473.237 589.597 C 474.327 593.672, 471.123 614.523, 468.949 617.500 C 468.355 618.314, 465 632.937, 465 634.713 C 465 634.987, 468.712 634.889, 473.250 634.494 C 480.717 633.844, 497.438 633.740, 535.250 634.108 C 551.600 634.267, 556.944 633.503, 556.315 631.097 C 556.068 630.154, 557.697 624.510, 559.933 618.555 C 562.170 612.601, 564.015 607.227, 564.034 606.614 C 564.053 606.001, 564.937 603.700, 566 601.500 C 567.063 599.300, 567.947 596.109, 567.966 594.409 C 567.985 592.709, 568.670 589.109, 569.488 586.409 C 572.246 577.309, 572.676 568.568, 570.304 569.837 C 569.206 570.425, 564.976 571.381, 560.904 571.962 C 556.832 572.544, 551.025 573.507, 548 574.104 C 519.073 579.811, 509.831 567.049, 517.506 532 C 518.240 528.644, 518.194 528.566, 516.386 530.101 C 514.298 531.872, 505.225 535, 502.173 535 C 499.058 535, 497.953 581.128, 500.856 589.993 C 505.436 603.978, 501.657 632, 495.191 632 C 488.923 632, 488.570 630.992, 487.793 610.833 C 487.405 600.750, 486.585 589.350, 485.973 585.500 C 484.158 574.097, 483.699 560.931, 485.029 558.446 C 486.159 556.335, 485.977 551.356, 484.462 542.903 C 484.062 540.674, 484.396 537.600, 485.340 534.820 C 486.178 532.353, 487.177 527.446, 487.562 523.917 C 487.946 520.388, 488.610 517.050, 489.037 516.500 C 489.464 515.950, 490.132 513.357, 490.522 510.738 C 491.478 504.313, 494.193 501, 498.500 501 C 504.997 501, 507.019 506.171, 504.464 516.250 C 503.576 519.755, 504.903 519.802, 511.419 516.496 C 514.560 514.902, 518.013 514, 520.969 514 C 526.346 514, 528 512.744, 528 508.664 C 528 505.752, 527.963 505.733, 523.419 506.356 C 517.622 507.151, 515 505.821, 515 502.087 C 515 497.878, 517.056 496.838, 526.547 496.245 C 535.125 495.710, 535.125 495.710, 539.313 490.734 C 542.901 486.470, 553.373 480, 556.687 480 C 563.033 480, 568.687 470.933, 564.686 467.174 C 561.834 464.496, 561 464.440, 561 466.929 C 561 469.876, 558.235 472, 554.397 472 C 542.972 472, 521.988 483.618, 512.218 495.352 C 506.969 501.656, 501 501.801, 501 495.625 C 501 490.664, 515.374 476.727, 525.925 471.457 C 534.482 467.183, 542.068 464.078, 545.549 463.425 C 547.459 463.066, 549.269 462.374, 549.570 461.887 C 550.226 460.825, 537.356 460.942, 531 462.055 M 420.558 464.626 C 420.235 465.912, 418.628 467.658, 416.986 468.507 C 415.313 469.372, 414 470.860, 414 471.891 C 414 474.096, 410.622 478.597, 407.855 480.077 C 403.264 482.535, 398.347 474.446, 402.392 471.090 C 403.157 470.454, 404.004 469.092, 404.273 468.063 C 405.036 465.147, 396.035 470.849, 389.153 477.643 C 379.162 487.505, 375.863 489.372, 349.694 499.975 C 327.405 509.006, 318.946 528.071, 339.527 522.889 C 342.222 522.210, 345.011 522.114, 346.715 522.640 C 358.749 526.356, 364.080 520.027, 358.373 508.800 C 354.031 500.258, 361.166 493.145, 365.946 501.250 C 367.001 503.038, 368.946 505.625, 370.269 507 C 376.659 513.643, 381.431 572.103, 376.912 588.380 C 376.113 591.255, 376.160 593.896, 377.092 598.585 C 378.400 605.165, 378.308 605.835, 374.426 618 C 373.636 620.475, 372.992 623.720, 372.995 625.211 C 373.002 628.789, 369.441 632, 365.466 632 C 361.781 632, 358.767 629.175, 358.859 625.808 C 358.988 621.085, 360.639 612.428, 361.821 610.277 C 364.707 605.022, 364.652 535.153, 361.762 535.705 C 359.286 536.178, 359.254 536.280, 360.753 538.892 C 362.187 541.391, 362.106 542.374, 359.651 552.175 C 358.193 557.996, 357 564.154, 357 565.859 C 357 568.693, 355.264 575.147, 351.314 587 C 350.489 589.475, 349.244 594.425, 348.548 598 C 346.791 607.018, 344.917 612.824, 343.338 614.134 C 342.602 614.745, 342 616.354, 342 617.710 C 342 619.066, 340.386 623.061, 338.414 626.588 C 334.828 633, 334.828 633, 372.027 633 C 409.227 633, 409.227 633, 408.641 630.250 C 408.318 628.737, 407.574 624.575, 406.986 621 C 406.399 617.425, 405.169 611.350, 404.254 607.500 C 403.338 603.650, 402.240 593.750, 401.812 585.500 C 401.385 577.250, 400.763 567.443, 400.430 563.708 C 400.017 559.060, 400.207 556.455, 401.034 555.458 C 401.918 554.393, 401.963 553.262, 401.201 551.251 C 398.851 545.047, 397.984 515.586, 399.810 504 C 402.380 487.694, 402.668 486.682, 405.426 484.310 C 408.680 481.511, 411.028 481.392, 414.090 483.872 C 416.359 485.709, 416.532 485.700, 423.376 483.372 C 436.538 478.896, 452.903 481.077, 461.467 488.449 C 468.761 494.728, 462.445 501.548, 454.689 495.767 C 447.869 490.683, 435.600 489.525, 425.473 493.009 C 422.261 494.114, 418.814 494.758, 417.812 494.440 C 415.347 493.658, 414.371 496.494, 415.800 500.282 C 416.745 502.784, 416.581 504.017, 414.789 507.884 C 413.613 510.423, 412.450 515.087, 412.205 518.250 C 411.690 524.898, 412.196 525.173, 419.141 522.022 C 421.538 520.934, 425.075 520.019, 427 519.989 C 432.472 519.902, 435.964 516.546, 433.231 514 C 432.090 512.937, 430.872 511.172, 430.524 510.077 C 430.113 508.780, 428.293 507.634, 425.303 506.790 C 418.649 504.910, 416.480 498.252, 421.956 496.514 C 426.334 495.124, 439 500.955, 439 504.360 C 439 508.868, 443.219 509.839, 447.973 506.424 C 450.594 504.541, 453.047 503, 453.424 503 C 459.522 503, 469.545 492.963, 468.681 487.722 C 466.144 472.338, 457.248 466, 438.193 466 C 430.651 466, 427.593 465.577, 424.784 464.145 C 421.144 462.289, 421.144 462.289, 420.558 464.626 M 617.151 470.831 C 616.174 471.490, 616.766 471.921, 619.300 472.396 C 624.370 473.348, 628.181 476.649, 627.805 479.765 C 627.337 483.655, 624.771 484.738, 620.663 482.779 C 617.304 481.177, 617.061 481.211, 610.891 484.129 C 603.757 487.503, 599.987 487.032, 600.015 482.771 C 600.038 479.449, 600.787 478.784, 608.500 475.237 C 614.408 472.521, 615.028 472.017, 612.473 472.009 C 610.807 472.004, 608.557 472.614, 607.473 473.365 C 606.388 474.116, 604.375 475.075, 603 475.496 C 601.625 475.918, 599.306 477.103, 597.846 478.131 C 596.386 479.159, 593.883 480, 592.283 480 C 590.684 480, 587.513 480.900, 585.236 482 C 582.959 483.100, 580.175 484, 579.048 484 C 577.922 484, 576.277 484.852, 575.394 485.894 C 569.271 493.118, 568.100 494, 564.636 494 C 562.701 494, 560.876 494.391, 560.581 494.869 C 560.286 495.346, 558.347 496.013, 556.272 496.349 C 552.323 496.990, 547.248 504.542, 545.418 512.500 C 545.039 514.150, 544.145 516.625, 543.431 518 C 540.544 523.567, 538.840 530.448, 540.761 528.782 C 544.533 525.511, 562.448 515.998, 564.899 515.965 C 568.112 515.921, 570.763 514.469, 575.461 510.181 C 579.275 506.701, 588.287 502.026, 591.215 502.010 C 592.159 502.004, 594.468 500.650, 596.347 499 C 598.226 497.350, 600.424 496, 601.231 496 C 602.038 496, 605.667 494.425, 609.294 492.500 C 612.921 490.575, 616.634 489, 617.544 489 C 618.453 489, 620.616 488.378, 622.349 487.618 C 624.082 486.858, 628.200 485.683, 631.500 485.007 C 634.800 484.331, 637.967 483.401, 638.538 482.942 C 639.109 482.482, 642.484 481.970, 646.038 481.803 C 652.500 481.500, 652.500 481.500, 648.750 479.801 C 646.688 478.867, 645 477.728, 645 477.270 C 645 476.813, 643.763 475.881, 642.250 475.199 C 640.737 474.518, 638.150 473.196, 636.500 472.262 C 633.141 470.360, 619.360 469.341, 617.151 470.831 M 240.345 485.114 C 234.814 489.831, 231.688 493.323, 230.631 495.965 C 229.773 498.107, 228.268 500.328, 227.286 500.900 C 224.246 502.669, 240.227 502.284, 243.636 500.506 C 245.211 499.685, 247.187 499.010, 248.027 499.006 C 252.750 498.987, 253.943 496.344, 251.750 490.758 C 250.615 487.866, 249.419 483.848, 249.093 481.829 C 248.500 478.159, 248.500 478.159, 240.345 485.114 M 642.250 496.706 C 640.675 497.009, 640 497.847, 640 499.498 C 640 502.564, 637.505 505, 634.364 505 C 629.418 505, 622.257 508.938, 621.021 512.336 C 617.958 520.760, 615.568 522.598, 611.524 519.641 C 609.756 518.348, 609.666 517.705, 610.608 513.104 C 611.880 506.896, 611.477 506.804, 603.793 511.547 C 600.632 513.498, 595.673 515.820, 592.773 516.707 C 588.143 518.123, 587.804 518.397, 589.992 518.953 C 595.581 520.374, 598.786 530.784, 594.500 533.592 C 591.971 535.249, 587 533.614, 587 531.125 C 587 528.547, 581.245 524.348, 579.480 525.638 C 577.461 527.115, 571.044 529.527, 566.542 530.502 C 563.583 531.143, 563.583 531.143, 568.334 534.099 C 570.947 535.726, 573.338 537.719, 573.649 538.528 C 573.987 539.409, 575.528 540, 577.485 540 C 583.695 540, 585.434 546.041, 585.401 567.500 C 585.374 585.487, 583.015 599.608, 578.385 609.500 C 577.613 611.150, 576.566 613.850, 576.058 615.500 C 575.550 617.150, 574.039 621.538, 572.700 625.250 C 570.264 632, 570.264 632, 584.111 632 C 597.957 632, 597.957 632, 596.801 629.463 C 595.679 627, 598.294 612.182, 601.082 605.203 C 601.587 603.940, 602.017 599.665, 602.037 595.703 C 602.057 591.741, 602.751 585.350, 603.579 581.500 C 604.406 577.650, 605.716 571.575, 606.489 568 C 607.262 564.425, 608.786 557.225, 609.876 552 C 613.485 534.692, 613.913 533.090, 615.944 529.281 C 623.576 514.972, 632.253 511.687, 635.572 521.851 C 636.531 524.788, 636.787 524.962, 637.999 523.501 C 638.745 522.603, 640.620 521.214, 642.167 520.413 C 643.715 519.613, 645.837 517.281, 646.884 515.229 C 647.931 513.178, 649.735 510.643, 650.894 509.595 C 658.250 502.942, 652.716 494.690, 642.250 496.706 M 316.491 539.303 C 314.971 563.633, 316.954 586.571, 321.435 596.500 C 323.968 602.113, 326.703 608.495, 327.435 610.500 C 328.275 612.803, 330.408 607.946, 333.997 595.559 C 335.121 591.676, 336.534 587.150, 337.136 585.500 C 337.738 583.850, 338.562 580.475, 338.967 578 C 339.371 575.525, 340.442 572.150, 341.345 570.500 C 342.249 568.850, 342.990 565.378, 342.994 562.785 C 342.997 560.192, 343.644 556.142, 344.430 553.785 C 345.217 551.428, 346.176 547.700, 346.562 545.500 C 346.948 543.300, 347.643 540.763, 348.107 539.862 C 349.210 537.720, 345.992 537.070, 337.608 537.743 C 330.133 538.343, 320.959 534.708, 318.604 530.213 C 317.333 527.787, 317.166 528.506, 316.491 539.303 M 646.491 535.014 C 646.146 535.572, 643.982 536.971, 641.682 538.122 C 639.382 539.274, 636.150 541.483, 634.500 543.032 C 632.850 544.582, 630.162 545.996, 628.527 546.175 C 625.558 546.500, 625.550 546.519, 622.882 559.500 C 621.412 566.650, 619.456 575.650, 618.535 579.500 C 617.614 583.350, 616.459 591.450, 615.969 597.500 C 615.479 603.550, 614.581 610.300, 613.975 612.500 C 613.368 614.700, 612.296 619.016, 611.593 622.091 C 610.890 625.167, 609.992 628.204, 609.598 628.841 C 608.768 630.184, 612.009 630.316, 622.197 629.353 C 628.835 628.726, 628.889 628.697, 628.352 626.008 C 627.770 623.101, 628.847 620.757, 636.621 608.003 C 641.781 599.538, 643.511 594.940, 644.525 587 C 644.911 583.975, 645.802 579.700, 646.506 577.500 C 648.110 572.487, 649.519 534, 648.099 534 C 647.560 534, 646.836 534.456, 646.491 535.014 M 545.415 538.776 C 544.818 539.174, 543.907 540.274, 543.391 541.220 C 542.876 542.167, 540.635 544.867, 538.413 547.220 C 534.795 551.051, 531 558.182, 531 561.147 C 531 562.467, 537.238 561.870, 547.500 559.569 C 551.349 558.706, 555.849 557.993, 557.500 557.985 C 570.460 557.920, 575.398 547.989, 564.815 543.272 C 560.234 541.231, 559.576 541.168, 556.957 542.522 C 551.719 545.231, 547.766 544.156, 546.858 539.776 C 546.654 538.796, 546.032 538.365, 545.415 538.776 M 430.557 546.137 C 430.301 546.886, 429.855 554.475, 429.567 563 C 428.673 589.438, 428.120 592.243, 423.454 594.017 C 421.288 594.841, 421.602 600.029, 424.556 612.183 C 424.980 613.932, 424.649 615.663, 423.604 617.155 C 421.932 619.542, 421.371 629.462, 422.782 631.681 C 423.248 632.414, 427.508 633.034, 434.016 633.316 C 439.782 633.565, 445.894 634.087, 447.598 634.476 C 450.696 635.182, 450.696 635.182, 451.936 627.341 C 453.269 618.913, 455.465 610.724, 457.255 607.500 C 460.319 601.983, 458.941 544.426, 455.785 546.115 C 453.650 547.258, 437.176 546.821, 433.262 545.518 C 431.737 545.010, 430.876 545.207, 430.557 546.137" stroke="none" fill="#040404" fill-rule="evenodd"/></svg>