<svg xmlns="http://www.w3.org/2000/svg" id="canvas" viewBox="213.637 335.125 864.023 165.221"><path d="M 255.79,346.11 C 255.34 347.05, 254.93 348.22, 253.81 350.90 C 252.70 353.58, 251.97 355.30, 250.23 359.49 C 248.48 363.67, 247.34 366.48, 245.09 371.83 C 242.84 377.17, 241.51 380.29, 239.00 386.22 C 236.48 392.14, 234.99 395.39, 232.50 401.44 C 230.02 407.48, 228.71 410.71, 226.57 416.42 C 224.42 422.13, 223.40 425.03, 221.78 429.99 C 220.16 434.95, 219.45 437.34, 218.45 441.22 C 217.46 445.10, 217.13 446.84, 216.81 449.38 C 216.48 451.93, 216.70 452.67, 216.83 453.97 C 216.97 455.27, 217.17 455.48, 217.47 455.87 C 217.77 456.25, 218.16 455.91, 218.33 455.89 C 218.50 455.88, 218.47 455.81, 218.33 455.79 C 218.19 455.76, 217.85 456.13, 217.63 455.76 C 217.41 455.39, 217.28 455.20, 217.21 453.94 C 217.15 452.68, 216.98 451.97, 217.31 449.45 C 217.64 446.93, 217.89 445.19, 218.85 441.32 C 219.81 437.45, 220.50 435.05, 222.10 430.09 C 223.70 425.13, 224.72 422.23, 226.85 416.53 C 228.99 410.82, 230.29 407.59, 232.78 401.55 C 235.27 395.51, 236.76 392.26, 239.29 386.34 C 241.82 380.43, 243.16 377.31, 245.44 371.97 C 247.71 366.64, 248.88 363.84, 250.66 359.67 C 252.44 355.50, 253.25 353.80, 254.32 351.11 C 255.40 348.41, 255.73 347.20, 256.02 346.20 C 256.32 345.20, 256.23 345.17, 255.79 346.11" style="stroke: black; fill: black;"/><path d="M 264.06,340.39 C 263.91 340.99, 263.80 341.61, 263.54 343.41 C 263.28 345.21, 263.11 346.40, 262.77 349.39 C 262.44 352.37, 262.28 354.46, 261.87 358.34 C 261.45 362.22, 261.19 364.53, 260.71 368.77 C 260.22 373.02, 259.86 375.36, 259.45 379.58 C 259.04 383.79, 258.82 386.00, 258.64 389.86 C 258.45 393.71, 258.39 395.62, 258.54 398.86 C 258.68 402.10, 258.81 403.64, 259.36 406.04 C 259.90 408.45, 260.30 409.50, 261.28 410.90 C 262.27 412.30, 262.86 412.79, 264.27 413.05 C 265.69 413.31, 266.48 413.21, 268.34 412.21 C 270.20 411.21, 271.21 410.36, 273.58 408.04 C 275.95 405.72, 277.26 404.17, 280.20 400.61 C 283.13 397.05, 284.85 394.77, 288.25 390.23 C 291.65 385.70, 293.62 382.88, 297.20 377.94 C 300.79 373.00, 302.76 370.26, 306.20 365.54 C 309.63 360.83, 311.41 358.38, 314.38 354.38 C 317.34 350.37, 318.79 348.45, 321.02 345.52 C 323.26 342.59, 324.32 341.14, 325.56 339.74 C 326.80 338.34, 327.13 337.91, 327.21 338.52 C 327.30 339.13, 326.93 340.09, 325.97 342.79 C 325.02 345.49, 324.22 347.56, 322.44 352.03 C 320.65 356.50, 319.35 359.56, 317.02 365.12 C 314.70 370.69, 313.25 374.04, 310.82 379.84 C 308.39 385.64, 307.04 388.71, 304.88 394.11 C 302.73 399.51, 301.63 402.19, 300.03 406.85 C 298.44 411.51, 297.77 413.70, 296.93 417.39 C 296.08 421.09, 295.83 422.71, 295.80 425.30 C 295.78 427.90, 296.00 429.05, 296.81 430.38 C 297.62 431.70, 298.55 431.79, 299.87 431.92 C 301.19 432.05, 302.16 431.60, 303.41 431.05 C 304.66 430.49, 305.61 429.59, 306.12 429.15 C 306.63 428.72, 306.54 428.62, 305.95 428.89 C 305.36 429.16, 304.39 430.00, 303.18 430.52 C 301.97 431.03, 301.11 431.54, 299.90 431.48 C 298.70 431.41, 297.86 431.41, 297.15 430.18 C 296.43 428.94, 296.27 427.85, 296.31 425.31 C 296.35 422.77, 296.53 421.16, 297.34 417.49 C 298.15 413.82, 298.80 411.61, 300.37 406.96 C 301.94 402.31, 303.03 399.63, 305.18 394.23 C 307.33 388.83, 308.68 385.76, 311.12 379.97 C 313.56 374.17, 315.02 370.82, 317.37 365.27 C 319.73 359.72, 321.05 356.67, 322.88 352.21 C 324.72 347.75, 325.64 345.73, 326.53 342.98 C 327.43 340.23, 327.62 339.18, 327.36 338.48 C 327.11 337.78, 326.62 338.12, 325.28 339.47 C 323.94 340.82, 322.90 342.31, 320.66 345.24 C 318.42 348.18, 317.03 350.14, 314.09 354.16 C 311.14 358.18, 309.36 360.63, 305.93 365.35 C 302.50 370.06, 300.53 372.81, 296.93 377.74 C 293.34 382.67, 291.37 385.49, 287.95 390.01 C 284.53 394.52, 282.80 396.79, 279.84 400.31 C 276.88 403.83, 275.51 405.33, 273.15 407.60 C 270.80 409.88, 269.83 410.70, 268.06 411.71 C 266.30 412.71, 265.63 412.85, 264.35 412.64 C 263.07 412.42, 262.56 411.98, 261.67 410.64 C 260.78 409.30, 260.43 408.28, 259.90 405.92 C 259.38 403.56, 259.23 402.04, 259.07 398.83 C 258.91 395.63, 258.94 393.72, 259.11 389.88 C 259.28 386.03, 259.49 383.83, 259.90 379.62 C 260.32 375.41, 260.68 373.07, 261.19 368.83 C 261.69 364.59, 261.98 362.28, 262.44 358.40 C 262.90 354.53, 263.15 352.45, 263.48 349.47 C 263.82 346.48, 263.93 345.29, 264.09 343.48 C 264.26 341.67, 264.31 341.04, 264.31 340.42 C 264.30 339.81, 264.21 339.80, 264.06 340.39" style="stroke: black; fill: black;"/><path d="M 346.27,391.48 C 346.21 391.86, 346.25 392.21, 346.21 393.38 C 346.17 394.56, 346.03 395.45, 346.06 397.35 C 346.08 399.26, 346.09 400.53, 346.33 402.90 C 346.57 405.26, 346.73 406.78, 347.26 409.18 C 347.80 411.59, 348.08 412.85, 349.00 414.91 C 349.93 416.96, 350.50 417.97, 351.89 419.46 C 353.28 420.96, 354.11 421.59, 355.96 422.38 C 357.80 423.17, 358.89 423.39, 361.13 423.41 C 363.36 423.42, 364.62 423.22, 367.12 422.46 C 369.63 421.70, 371.03 421.07, 373.66 419.62 C 376.29 418.16, 377.71 417.16, 380.26 415.20 C 382.82 413.24, 384.17 412.00, 386.43 409.81 C 388.70 407.63, 389.87 406.33, 391.58 404.27 C 393.29 402.21, 394.02 401.07, 395.00 399.51 C 395.97 397.96, 396.38 397.00, 396.46 396.48 C 396.54 395.97, 396.27 395.88, 395.40 396.93 C 394.53 397.99, 393.72 399.11, 392.11 401.77 C 390.50 404.43, 389.55 406.31, 387.36 410.23 C 385.17 414.15, 383.76 416.68, 381.17 421.39 C 378.58 426.10, 377.11 428.80, 374.41 433.77 C 371.71 438.75, 370.31 441.35, 367.68 446.25 C 365.05 451.14, 363.75 453.65, 361.26 458.23 C 358.77 462.82, 357.55 465.10, 355.22 469.18 C 352.88 473.27, 351.70 475.25, 349.59 478.65 C 347.48 482.05, 346.45 483.59, 344.66 486.19 C 342.87 488.79, 342.02 489.87, 340.64 491.65 C 339.27 493.44, 338.66 494.07, 337.78 495.09 C 336.90 496.11, 336.68 496.32, 336.23 496.74 C 335.78 497.15, 335.70 497.15, 335.54 497.19 C 335.38 497.22, 335.46 496.97, 335.41 496.92 C 335.37 496.88, 335.30 496.89, 335.33 496.97 C 335.35 497.06, 335.33 497.34, 335.55 497.34 C 335.78 497.35, 335.94 497.39, 336.45 497.00 C 336.97 496.61, 337.20 496.40, 338.13 495.40 C 339.05 494.40, 339.68 493.77, 341.07 491.99 C 342.47 490.20, 343.31 489.10, 345.09 486.48 C 346.86 483.86, 347.86 482.29, 349.95 478.87 C 352.04 475.45, 353.22 473.47, 355.54 469.37 C 357.87 465.28, 359.08 462.99, 361.57 458.40 C 364.05 453.81, 365.35 451.30, 367.98 446.41 C 370.61 441.51, 372.01 438.91, 374.72 433.94 C 377.43 428.98, 378.90 426.27, 381.52 421.58 C 384.14 416.89, 385.58 414.38, 387.82 410.49 C 390.06 406.60, 391.12 404.79, 392.71 402.13 C 394.29 399.47, 395.03 398.32, 395.74 397.18 C 396.46 396.04, 396.54 396.02, 396.30 396.43 C 396.05 396.83, 395.56 397.71, 394.52 399.20 C 393.47 400.68, 392.78 401.82, 391.07 403.85 C 389.37 405.88, 388.24 407.19, 386.00 409.37 C 383.76 411.54, 382.42 412.78, 379.88 414.71 C 377.35 416.64, 375.93 417.62, 373.34 419.04 C 370.75 420.46, 369.37 421.07, 366.93 421.81 C 364.48 422.56, 363.28 422.77, 361.13 422.78 C 358.98 422.79, 357.95 422.59, 356.18 421.85 C 354.42 421.10, 353.64 420.51, 352.32 419.07 C 351.00 417.63, 350.46 416.65, 349.59 414.65 C 348.73 412.64, 348.47 411.40, 347.98 409.03 C 347.49 406.66, 347.37 405.16, 347.14 402.82 C 346.91 400.48, 346.91 399.22, 346.84 397.33 C 346.77 395.44, 346.85 394.55, 346.78 393.38 C 346.71 392.20, 346.61 391.84, 346.51 391.46 C 346.41 391.08, 346.33 391.09, 346.27 391.48" style="stroke: black; fill: black;"/><path d="M 582.47,347.01 C 582.06 346.72, 581.47 346.15, 580.30 345.77 C 579.13 345.39, 578.41 345.16, 576.61 345.13 C 574.80 345.10, 573.66 345.00, 571.27 345.62 C 568.88 346.24, 567.56 346.84, 564.65 348.23 C 561.74 349.61, 559.98 350.55, 556.74 352.55 C 553.49 354.55, 551.58 355.80, 548.44 358.24 C 545.31 360.68, 543.57 362.11, 541.05 364.76 C 538.54 367.41, 537.35 368.84, 535.87 371.48 C 534.39 374.12, 533.87 375.46, 533.66 377.95 C 533.44 380.45, 533.69 381.68, 534.78 383.96 C 535.87 386.24, 536.88 387.30, 539.11 389.34 C 541.33 391.39, 542.89 392.32, 545.90 394.18 C 548.90 396.05, 550.80 396.92, 554.12 398.66 C 557.44 400.40, 559.36 401.22, 562.50 402.89 C 565.63 404.55, 567.30 405.38, 569.81 407.00 C 572.32 408.62, 573.51 409.40, 575.05 410.97 C 576.58 412.55, 577.13 413.31, 577.47 414.86 C 577.80 416.40, 577.69 417.16, 576.74 418.68 C 575.78 420.21, 574.89 420.95, 572.69 422.47 C 570.48 423.99, 568.96 424.81, 565.71 426.29 C 562.46 427.77, 560.49 428.55, 556.44 429.88 C 552.38 431.20, 549.94 431.85, 545.43 432.91 C 540.92 433.98, 538.38 434.50, 533.89 435.22 C 529.41 435.93, 527.03 436.20, 523.01 436.50 C 518.99 436.80, 516.97 436.82, 513.78 436.72 C 510.58 436.62, 508.39 436.10, 507.03 436.00 C 505.68 435.90, 505.66 436.00, 507.00 436.24 C 508.35 436.48, 510.55 437.05, 513.76 437.19 C 516.97 437.33, 519.00 437.26, 523.04 436.95 C 527.08 436.64, 529.46 436.36, 533.96 435.63 C 538.46 434.91, 541.01 434.40, 545.53 433.34 C 550.06 432.28, 552.50 431.64, 556.59 430.34 C 560.67 429.03, 562.65 428.28, 565.95 426.82 C 569.25 425.35, 570.83 424.60, 573.07 423.02 C 575.32 421.45, 576.21 420.60, 577.18 418.95 C 578.14 417.30, 578.26 416.43, 577.91 414.76 C 577.56 413.09, 577.00 412.25, 575.44 410.60 C 573.88 408.95, 572.66 408.14, 570.12 406.51 C 567.59 404.87, 565.90 404.07, 562.75 402.41 C 559.60 400.75, 557.68 399.93, 554.37 398.19 C 551.06 396.45, 549.17 395.56, 546.20 393.70 C 543.23 391.84, 541.70 390.89, 539.52 388.89 C 537.33 386.90, 536.34 385.90, 535.27 383.72 C 534.21 381.54, 533.97 380.39, 534.18 378.00 C 534.40 375.61, 534.90 374.33, 536.35 371.75 C 537.80 369.17, 538.95 367.73, 541.43 365.11 C 543.91 362.49, 545.64 361.06, 548.76 358.64 C 551.87 356.23, 553.79 354.99, 557.02 353.02 C 560.26 351.06, 562.04 350.15, 564.93 348.81 C 567.81 347.47, 569.12 346.91, 571.45 346.31 C 573.79 345.71, 574.87 345.82, 576.60 345.82 C 578.34 345.82, 578.99 346.03, 580.14 346.32 C 581.29 346.60, 581.88 347.12, 582.34 347.26 C 582.81 347.40, 582.88 347.31, 582.47 347.01" style="stroke: black; fill: black;"/><path d="M 605.32,415.93 C 605.85 415.97, 606.52 416.03, 607.96 415.84 C 609.40 415.65, 610.28 415.51, 612.52 414.99 C 614.76 414.47, 616.33 414.13, 619.16 413.23 C 621.99 412.34, 623.63 411.74, 626.68 410.52 C 629.73 409.29, 631.46 408.52, 634.41 407.11 C 637.36 405.70, 638.97 404.94, 641.44 403.46 C 643.91 401.99, 645.12 401.20, 646.76 399.73 C 648.41 398.26, 649.08 397.49, 649.66 396.11 C 650.23 394.73, 650.27 393.99, 649.65 392.84 C 649.04 391.69, 648.42 391.04, 646.57 390.37 C 644.72 389.69, 643.39 389.37, 640.41 389.46 C 637.44 389.54, 635.52 389.80, 631.68 390.79 C 627.84 391.78, 625.50 392.57, 621.19 394.39 C 616.89 396.21, 614.34 397.46, 610.15 399.90 C 605.96 402.34, 603.69 403.85, 600.25 406.58 C 596.82 409.30, 595.19 410.83, 592.97 413.55 C 590.76 416.26, 589.91 417.66, 589.18 420.16 C 588.45 422.66, 588.51 423.92, 589.34 426.07 C 590.17 428.21, 591.04 429.26, 593.33 430.89 C 595.61 432.52, 597.19 433.23, 600.74 434.20 C 604.29 435.17, 606.53 435.46, 611.09 435.73 C 615.65 436.00, 618.36 435.92, 623.54 435.55 C 628.71 435.17, 631.65 434.79, 636.97 433.87 C 642.30 432.96, 645.15 432.31, 650.16 430.97 C 655.16 429.64, 657.92 428.68, 662.01 427.22 C 666.10 425.75, 667.93 424.89, 670.63 423.63 C 673.32 422.37, 674.53 421.49, 675.48 420.91 C 676.44 420.33, 676.40 420.27, 675.39 420.73 C 674.38 421.20, 673.14 422.01, 670.44 423.23 C 667.74 424.45, 665.94 425.34, 661.87 426.82 C 657.79 428.30, 655.05 429.28, 650.06 430.62 C 645.07 431.96, 642.22 432.61, 636.91 433.51 C 631.60 434.42, 628.67 434.80, 623.51 435.15 C 618.35 435.51, 615.64 435.58, 611.11 435.28 C 606.59 434.99, 604.37 434.66, 600.88 433.69 C 597.39 432.71, 595.89 431.97, 593.67 430.41 C 591.45 428.85, 590.59 427.91, 589.79 425.89 C 588.99 423.87, 588.95 422.71, 589.66 420.30 C 590.37 417.89, 591.17 416.53, 593.34 413.85 C 595.51 411.17, 597.12 409.63, 600.52 406.91 C 603.92 404.19, 606.19 402.69, 610.36 400.26 C 614.53 397.84, 617.08 396.59, 621.37 394.80 C 625.66 393.01, 628.00 392.25, 631.81 391.31 C 635.62 390.38, 637.52 390.23, 640.43 390.15 C 643.35 390.07, 644.61 390.34, 646.38 390.92 C 648.15 391.50, 648.72 392.04, 649.29 393.04 C 649.86 394.04, 649.82 394.68, 649.24 395.93 C 648.66 397.18, 648.01 397.90, 646.38 399.29 C 644.75 400.69, 643.56 401.45, 641.11 402.91 C 638.66 404.36, 637.08 405.16, 634.15 406.56 C 631.22 407.97, 629.49 408.74, 626.45 409.93 C 623.41 411.12, 621.76 411.66, 618.94 412.52 C 616.12 413.39, 614.56 413.71, 612.34 414.26 C 610.13 414.81, 609.28 415.00, 607.87 415.28 C 606.46 415.57, 605.80 415.55, 605.29 415.68 C 604.78 415.81, 604.78 415.90, 605.32 415.93" style="stroke: black; fill: black;"/><path d="M 697.21,396.77 C 696.91 397.30, 696.71 397.96, 695.95 399.50 C 695.20 401.03, 694.62 402.11, 693.43 404.45 C 692.24 406.78, 691.44 408.49, 690.00 411.18 C 688.57 413.88, 687.65 415.51, 686.26 417.93 C 684.87 420.35, 684.05 421.62, 683.03 423.29 C 682.01 424.96, 681.58 425.71, 681.17 426.28 C 680.75 426.84, 680.69 426.85, 680.95 426.13 C 681.21 425.42, 681.53 424.60, 682.45 422.70 C 683.36 420.80, 683.97 419.32, 685.52 416.63 C 687.07 413.94, 687.98 412.18, 690.19 409.24 C 692.40 406.29, 693.79 404.63, 696.57 401.91 C 699.36 399.18, 701.01 397.84, 704.13 395.61 C 707.25 393.38, 709.00 392.37, 712.15 390.76 C 715.30 389.15, 716.99 388.51, 719.89 387.58 C 722.78 386.64, 724.14 386.43, 726.62 386.08 C 729.10 385.73, 731.16 385.92, 732.29 385.81 C 733.42 385.71, 733.43 385.60, 732.28 385.55 C 731.14 385.50, 729.07 385.25, 726.56 385.55 C 724.04 385.85, 722.64 386.09, 719.71 387.04 C 716.79 387.99, 715.09 388.67, 711.92 390.31 C 708.75 391.94, 706.99 392.96, 703.84 395.21 C 700.70 397.46, 699.04 398.81, 696.22 401.54 C 693.40 404.28, 692.00 405.94, 689.73 408.89 C 687.46 411.83, 686.45 413.55, 684.86 416.25 C 683.27 418.95, 682.62 420.43, 681.78 422.40 C 680.94 424.36, 680.74 425.26, 680.65 426.07 C 680.57 426.88, 680.78 426.95, 681.36 426.46 C 681.94 425.97, 682.45 425.26, 683.55 423.63 C 684.66 422.00, 685.48 420.72, 686.90 418.30 C 688.32 415.88, 689.22 414.24, 690.67 411.54 C 692.12 408.84, 692.98 407.16, 694.14 404.80 C 695.30 402.44, 695.82 401.32, 696.48 399.74 C 697.14 398.15, 697.30 397.45, 697.44 396.86 C 697.59 396.27, 697.50 396.24, 697.21 396.77" style="stroke: black; fill: black;"/><path d="M 765.05,387.24 C 764.84 387.67, 764.67 388.08, 764.23 389.46 C 763.79 390.84, 763.52 391.84, 762.85 394.14 C 762.18 396.43, 761.69 398.02, 760.86 400.93 C 760.03 403.84, 759.53 405.62, 758.72 408.70 C 757.92 411.78, 757.40 413.47, 756.84 416.33 C 756.28 419.19, 756.02 420.63, 755.93 423.00 C 755.85 425.37, 755.90 426.51, 756.42 428.18 C 756.94 429.86, 757.39 430.61, 758.54 431.40 C 759.68 432.19, 760.42 432.39, 762.15 432.13 C 763.88 431.87, 764.86 431.47, 767.17 430.09 C 769.47 428.72, 770.82 427.65, 773.67 425.26 C 776.53 422.87, 778.21 421.28, 781.44 418.16 C 784.68 415.05, 786.54 413.09, 789.83 409.68 C 793.13 406.26, 794.96 404.29, 797.91 401.08 C 800.87 397.88, 802.31 396.24, 804.61 393.66 C 806.90 391.09, 807.84 389.97, 809.38 388.23 C 810.92 386.49, 811.46 385.90, 812.31 384.98 C 813.16 384.06, 813.26 383.93, 813.65 383.61 C 814.03 383.30, 814.13 383.46, 814.24 383.40 C 814.35 383.34, 814.36 383.30, 814.22 383.31 C 814.07 383.31, 813.96 383.15, 813.51 383.42 C 813.07 383.70, 812.91 383.80, 812.01 384.69 C 811.10 385.58, 810.54 386.15, 808.98 387.87 C 807.43 389.60, 806.51 390.75, 804.23 393.33 C 801.95 395.92, 800.53 397.58, 797.59 400.79 C 794.65 404.00, 792.82 405.97, 789.52 409.38 C 786.23 412.78, 784.36 414.73, 781.12 417.82 C 777.87 420.91, 776.17 422.48, 773.31 424.81 C 770.44 427.15, 769.06 428.14, 766.81 429.50 C 764.56 430.86, 763.67 431.30, 762.06 431.60 C 760.46 431.91, 759.82 431.75, 758.79 431.04 C 757.76 430.32, 757.36 429.64, 756.91 428.04 C 756.46 426.44, 756.42 425.35, 756.54 423.03 C 756.65 420.71, 756.91 419.29, 757.48 416.46 C 758.04 413.62, 758.53 411.93, 759.36 408.87 C 760.18 405.80, 760.73 404.04, 761.58 401.14 C 762.43 398.24, 762.96 396.66, 763.60 394.35 C 764.24 392.05, 764.44 391.02, 764.77 389.61 C 765.11 388.20, 765.23 387.78, 765.28 387.30 C 765.34 386.83, 765.26 386.80, 765.05 387.24" style="stroke: black; fill: black;"/><path d="M 846.15,388.40 C 845.85 388.80, 845.68 389.17, 844.88 390.49 C 844.09 391.81, 843.51 392.72, 842.19 395.00 C 840.87 397.27, 839.98 398.91, 838.28 401.88 C 836.59 404.84, 835.48 406.70, 833.71 409.81 C 831.94 412.93, 830.91 414.65, 829.43 417.45 C 827.95 420.25, 827.20 421.73, 826.32 423.82 C 825.44 425.91, 825.32 426.68, 825.03 427.89 C 824.73 429.09, 824.80 429.41, 824.82 429.84 C 824.85 430.28, 825.07 430.02, 825.14 430.06 C 825.20 430.09, 825.19 430.07, 825.17 430.02 C 825.14 429.98, 824.97 430.25, 825.02 429.85 C 825.08 429.45, 825.09 429.17, 825.45 428.01 C 825.82 426.85, 825.96 426.11, 826.86 424.05 C 827.76 422.00, 828.50 420.53, 829.97 417.74 C 831.44 414.95, 832.45 413.21, 834.23 410.11 C 836.01 407.01, 837.14 405.16, 838.87 402.22 C 840.60 399.27, 841.57 397.68, 842.87 395.39 C 844.17 393.09, 844.67 392.13, 845.37 390.76 C 846.06 389.38, 846.20 388.98, 846.36 388.51 C 846.51 388.04, 846.44 388.01, 846.15 388.40" style="stroke: black; fill: black;"/><path d="M 862.63,350.14 C 862.66 350.03, 862.56 349.77, 862.47 349.70 C 862.37 349.63, 862.19 349.70, 862.16 349.81 C 862.13 349.92, 862.23 350.19, 862.33 350.26 C 862.42 350.32, 862.60 350.25, 862.63 350.14" style="stroke: black; fill: black;"/><path d="M 919.55,384.83 C 918.98 384.73, 918.28 384.57, 916.69 384.58 C 915.09 384.60, 914.06 384.49, 911.58 384.91 C 909.09 385.34, 907.47 385.59, 904.26 386.72 C 901.06 387.84, 899.19 388.71, 895.57 390.54 C 891.95 392.36, 889.79 393.51, 886.16 395.84 C 882.53 398.16, 880.54 399.56, 877.42 402.16 C 874.30 404.75, 872.74 406.21, 870.57 408.80 C 868.40 411.39, 867.45 412.74, 866.56 415.09 C 865.67 417.44, 865.55 418.59, 866.10 420.54 C 866.65 422.50, 867.33 423.43, 869.32 424.85 C 871.30 426.27, 872.74 426.87, 876.01 427.64 C 879.28 428.42, 881.32 428.61, 885.66 428.71 C 890.00 428.82, 892.64 428.66, 897.72 428.17 C 902.80 427.68, 905.74 427.22, 911.06 426.25 C 916.39 425.29, 919.24 424.65, 924.34 423.34 C 929.43 422.03, 932.08 421.26, 936.53 419.70 C 940.97 418.15, 943.34 417.00, 946.58 415.57 C 949.83 414.15, 951.53 413.21, 952.74 412.58 C 953.95 411.94, 953.91 411.85, 952.65 412.38 C 951.38 412.90, 949.67 413.80, 946.42 415.19 C 943.17 416.58, 940.83 417.77, 936.39 419.33 C 931.96 420.89, 929.33 421.68, 924.25 422.99 C 919.17 424.31, 916.31 424.94, 911.00 425.89 C 905.68 426.84, 902.74 427.29, 897.68 427.76 C 892.61 428.23, 889.98 428.37, 885.68 428.24 C 881.37 428.10, 879.35 427.85, 876.14 427.08 C 872.94 426.32, 871.56 425.73, 869.64 424.40 C 867.72 423.07, 867.06 422.24, 866.54 420.42 C 866.03 418.60, 866.16 417.54, 867.05 415.28 C 867.93 413.02, 868.83 411.69, 870.97 409.13 C 873.10 406.58, 874.63 405.10, 877.72 402.52 C 880.81 399.94, 882.80 398.54, 886.42 396.23 C 890.03 393.93, 892.19 392.79, 895.80 391.00 C 899.41 389.22, 901.29 388.39, 904.47 387.32 C 907.65 386.24, 909.26 386.07, 911.70 385.63 C 914.15 385.20, 915.14 385.25, 916.71 385.14 C 918.28 385.03, 918.98 385.15, 919.55 385.09 C 920.12 385.02, 920.13 384.93, 919.55 384.83" style="stroke: black; fill: black;"/><path d="M 960.38,406.65 C 961.03 406.54, 961.82 406.39, 963.54 405.84 C 965.26 405.29, 966.41 404.88, 968.98 403.89 C 971.54 402.91, 973.30 402.24, 976.36 400.92 C 979.41 399.59, 981.20 398.80, 984.25 397.28 C 987.30 395.76, 988.97 394.88, 991.62 393.30 C 994.27 391.73, 995.65 390.89, 997.52 389.41 C 999.40 387.93, 1000.22 387.22, 1000.99 385.91 C 1001.76 384.59, 1001.92 383.87, 1001.38 382.83 C 1000.84 381.80, 1000.23 381.19, 998.29 380.73 C 996.34 380.27, 994.91 380.10, 991.66 380.52 C 988.41 380.93, 986.27 381.39, 982.04 382.81 C 977.80 384.23, 975.15 385.32, 970.49 387.61 C 965.83 389.89, 963.08 391.42, 958.74 394.24 C 954.40 397.06, 952.10 398.74, 948.79 401.71 C 945.48 404.68, 944.00 406.28, 942.19 409.08 C 940.38 411.88, 939.87 413.28, 939.74 415.72 C 939.62 418.17, 940.06 419.35, 941.58 421.30 C 943.10 423.26, 944.38 424.13, 947.35 425.50 C 950.31 426.86, 952.27 427.38, 956.38 428.13 C 960.50 428.88, 963.01 429.09, 967.93 429.24 C 972.84 429.40, 976.07 429.15, 980.95 428.90 C 985.82 428.64, 988.51 428.37, 992.32 427.97 C 996.13 427.56, 998.48 427.14, 1000.01 426.88 C 1001.54 426.61, 1001.53 426.51, 999.98 426.65 C 998.44 426.78, 996.09 427.19, 992.28 427.56 C 988.47 427.92, 985.79 428.22, 980.92 428.47 C 976.06 428.72, 972.83 428.97, 967.94 428.81 C 963.05 428.65, 960.54 428.41, 956.47 427.65 C 952.40 426.89, 950.48 426.32, 947.58 424.99 C 944.68 423.66, 943.45 422.84, 941.97 420.99 C 940.50 419.14, 940.08 418.08, 940.20 415.75 C 940.33 413.42, 940.81 412.08, 942.58 409.34 C 944.36 406.59, 945.79 404.97, 949.06 402.02 C 952.34 399.06, 954.63 397.38, 958.95 394.57 C 963.28 391.76, 966.02 390.24, 970.67 387.98 C 975.32 385.72, 977.98 384.64, 982.19 383.28 C 986.41 381.91, 988.55 381.55, 991.74 381.15 C 994.94 380.76, 996.30 380.92, 998.16 381.29 C 1000.03 381.66, 1000.58 382.12, 1001.07 383.00 C 1001.56 383.88, 1001.39 384.48, 1000.61 385.67 C 999.82 386.86, 999.02 387.52, 997.16 388.94 C 995.30 390.36, 993.94 391.21, 991.31 392.77 C 988.67 394.34, 987.03 395.24, 983.98 396.74 C 980.94 398.25, 979.15 399.02, 976.10 400.30 C 973.04 401.59, 971.25 402.18, 968.70 403.17 C 966.15 404.17, 965.03 404.65, 963.35 405.30 C 961.67 405.94, 960.90 406.14, 960.30 406.41 C 959.71 406.68, 959.73 406.76, 960.38 406.65" style="stroke: black; fill: black;"/><path d="M 1074.46,388.87 C 1074.13 388.46, 1073.78 387.77, 1072.65 387.02 C 1071.51 386.28, 1070.78 385.70, 1068.77 385.15 C 1066.76 384.60, 1065.41 384.23, 1062.61 384.26 C 1059.80 384.30, 1058.07 384.64, 1054.75 385.33 C 1051.43 386.02, 1049.41 386.57, 1046.02 387.73 C 1042.63 388.89, 1040.69 389.65, 1037.81 391.14 C 1034.94 392.63, 1033.47 393.51, 1031.66 395.17 C 1029.85 396.83, 1029.19 397.74, 1028.75 399.44 C 1028.31 401.13, 1028.53 402.01, 1029.46 403.67 C 1030.38 405.34, 1031.36 406.19, 1033.37 407.76 C 1035.38 409.34, 1036.89 410.11, 1039.51 411.56 C 1042.13 413.01, 1043.81 413.71, 1046.49 415.04 C 1049.16 416.36, 1050.68 417.00, 1052.90 418.20 C 1055.11 419.40, 1056.23 419.95, 1057.57 421.03 C 1058.91 422.11, 1059.40 422.62, 1059.62 423.61 C 1059.83 424.60, 1059.65 425.04, 1058.64 425.97 C 1057.63 426.90, 1056.76 427.33, 1054.57 428.26 C 1052.38 429.19, 1050.84 429.72, 1047.69 430.62 C 1044.55 431.52, 1042.55 431.99, 1038.83 432.76 C 1035.11 433.53, 1032.93 433.89, 1029.08 434.49 C 1025.24 435.08, 1023.10 435.34, 1019.62 435.72 C 1016.13 436.10, 1014.21 436.17, 1011.65 436.40 C 1009.09 436.62, 1007.79 436.71, 1006.83 436.84 C 1005.86 436.97, 1005.87 437.03, 1006.84 437.05 C 1007.81 437.06, 1009.12 437.07, 1011.69 436.91 C 1014.25 436.75, 1016.18 436.65, 1019.67 436.26 C 1023.17 435.88, 1025.31 435.59, 1029.16 435.00 C 1033.02 434.40, 1035.20 434.05, 1038.94 433.31 C 1042.69 432.56, 1044.69 432.14, 1047.87 431.26 C 1051.06 430.38, 1052.63 429.90, 1054.85 428.91 C 1057.07 427.92, 1057.95 427.39, 1058.98 426.32 C 1060.00 425.24, 1060.19 424.67, 1059.98 423.53 C 1059.77 422.39, 1059.27 421.80, 1057.91 420.62 C 1056.56 419.44, 1055.44 418.86, 1053.21 417.62 C 1050.99 416.38, 1049.46 415.76, 1046.79 414.42 C 1044.12 413.09, 1042.45 412.38, 1039.85 410.94 C 1037.25 409.49, 1035.78 408.72, 1033.79 407.22 C 1031.80 405.71, 1030.82 404.95, 1029.90 403.41 C 1028.98 401.88, 1028.75 401.11, 1029.18 399.55 C 1029.61 397.99, 1030.26 397.17, 1032.04 395.60 C 1033.82 394.02, 1035.26 393.13, 1038.09 391.67 C 1040.92 390.20, 1042.85 389.42, 1046.21 388.28 C 1049.57 387.13, 1051.60 386.60, 1054.88 385.95 C 1058.16 385.29, 1059.87 385.04, 1062.61 385.02 C 1065.36 385.00, 1066.64 385.34, 1068.59 385.84 C 1070.54 386.34, 1071.22 386.86, 1072.35 387.50 C 1073.49 388.15, 1073.86 388.79, 1074.28 389.07 C 1074.70 389.34, 1074.79 389.28, 1074.46 388.87" style="stroke: black; fill: black;"/></svg>