<svg xmlns="http://www.w3.org/2000/svg" id="canvas" viewBox="350.821 321.239 743.250 199.400"><path d="M 397.71,334.79 C 397.22 335.97, 396.70 337.46, 395.55 340.81 C 394.41 344.15, 393.76 346.37, 391.98 351.51 C 390.20 356.66, 389.01 360.08, 386.65 366.54 C 384.29 372.99, 382.87 376.70, 380.17 383.79 C 377.47 390.88, 375.93 394.78, 373.16 401.99 C 370.39 409.21, 368.84 412.99, 366.32 419.84 C 363.80 426.70, 362.54 430.25, 360.56 436.29 C 358.57 442.33, 357.67 445.31, 356.40 450.05 C 355.13 454.79, 354.69 456.88, 354.19 459.99 C 353.69 463.10, 353.82 464.04, 353.89 465.61 C 353.95 467.19, 354.22 467.40, 354.52 467.86 C 354.82 468.31, 355.22 467.90, 355.39 467.88 C 355.57 467.86, 355.53 467.80, 355.40 467.78 C 355.26 467.75, 354.91 468.19, 354.70 467.76 C 354.48 467.32, 354.32 467.14, 354.33 465.60 C 354.33 464.07, 354.22 463.16, 354.71 460.07 C 355.20 456.98, 355.55 454.89, 356.78 450.15 C 358.01 445.41, 358.90 442.43, 360.86 436.39 C 362.83 430.35, 364.09 426.80, 366.60 419.95 C 369.11 413.09, 370.66 409.31, 373.43 402.10 C 376.20 394.89, 377.75 390.98, 380.46 383.90 C 383.17 376.81, 384.60 373.11, 386.99 366.67 C 389.38 360.22, 390.59 356.80, 392.40 351.66 C 394.21 346.52, 394.93 344.33, 396.05 340.97 C 397.17 337.62, 397.66 336.12, 397.99 334.88 C 398.32 333.65, 398.20 333.61, 397.71 334.79" style="stroke: black; fill: black;"/><path d="M 409.82,329.11 C 409.66 329.83, 409.52 330.57, 409.30 332.73 C 409.09 334.89, 409.02 336.33, 408.75 339.92 C 408.47 343.52, 408.29 346.05, 407.94 350.69 C 407.59 355.34, 407.35 358.15, 407.00 363.14 C 406.64 368.13, 406.40 370.85, 406.16 375.66 C 405.92 380.48, 405.74 382.91, 405.80 387.20 C 405.87 391.48, 405.95 393.58, 406.48 397.09 C 407.01 400.60, 407.39 402.25, 408.46 404.74 C 409.52 407.23, 410.21 408.26, 411.81 409.54 C 413.42 410.83, 414.31 411.22, 416.48 411.17 C 418.65 411.12, 419.88 410.84, 422.66 409.27 C 425.44 407.70, 426.96 406.47, 430.38 403.33 C 433.80 400.18, 435.76 398.05, 439.78 393.55 C 443.79 389.05, 446.12 386.21, 450.46 380.82 C 454.80 375.43, 457.18 372.23, 461.46 366.61 C 465.75 360.99, 468.02 357.93, 471.89 352.72 C 475.77 347.51, 477.69 344.86, 480.85 340.55 C 484.02 336.24, 485.48 334.20, 487.72 331.17 C 489.97 328.13, 491.05 326.58, 492.09 325.38 C 493.12 324.17, 493.25 323.88, 492.90 325.14 C 492.54 326.39, 491.90 327.88, 490.31 331.64 C 488.72 335.39, 487.51 338.19, 484.95 343.91 C 482.40 349.62, 480.62 353.44, 477.53 360.23 C 474.44 367.01, 472.57 370.94, 469.50 377.83 C 466.43 384.71, 464.79 388.29, 462.19 394.65 C 459.59 401.00, 458.35 404.12, 456.49 409.60 C 454.63 415.07, 453.88 417.67, 452.89 422.02 C 451.91 426.37, 451.65 428.27, 451.58 431.33 C 451.52 434.40, 451.98 435.54, 452.59 437.35 C 453.20 439.15, 454.19 439.79, 454.63 440.37 C 455.07 440.95, 455.13 440.88, 454.81 440.25 C 454.48 439.62, 453.54 438.99, 453.01 437.21 C 452.47 435.43, 452.07 434.37, 452.13 431.35 C 452.19 428.33, 452.36 426.44, 453.30 422.11 C 454.24 417.78, 454.98 415.18, 456.82 409.71 C 458.65 404.24, 459.88 401.11, 462.47 394.76 C 465.06 388.41, 466.70 384.83, 469.78 377.95 C 472.85 371.07, 474.73 367.14, 477.84 360.37 C 480.96 353.60, 482.76 349.79, 485.36 344.09 C 487.96 338.39, 489.26 335.63, 490.83 331.85 C 492.39 328.08, 493.00 326.54, 493.20 325.20 C 493.40 323.86, 493.00 324.00, 491.83 325.13 C 490.65 326.27, 489.58 327.83, 487.32 330.87 C 485.07 333.91, 483.69 336.00, 480.55 340.33 C 477.41 344.66, 475.50 347.31, 471.63 352.52 C 467.76 357.74, 465.49 360.80, 461.21 366.42 C 456.92 372.03, 454.54 375.23, 450.19 380.60 C 445.84 385.97, 443.51 388.81, 439.48 393.28 C 435.44 397.75, 433.46 399.86, 430.04 402.95 C 426.61 406.03, 425.05 407.17, 422.34 408.70 C 419.62 410.23, 418.50 410.51, 416.46 410.60 C 414.43 410.68, 413.64 410.34, 412.15 409.12 C 410.67 407.90, 410.06 406.92, 409.04 404.50 C 408.01 402.07, 407.57 400.47, 407.02 397.00 C 406.47 393.54, 406.37 391.45, 406.29 387.19 C 406.20 382.93, 406.37 380.49, 406.61 375.69 C 406.85 370.88, 407.10 368.16, 407.48 363.17 C 407.85 358.19, 408.10 355.38, 408.49 350.74 C 408.89 346.10, 409.15 343.57, 409.44 339.98 C 409.73 336.39, 409.81 334.95, 409.94 332.78 C 410.07 330.61, 410.12 329.87, 410.10 329.14 C 410.08 328.41, 409.98 328.40, 409.82 329.11" style="stroke: black; fill: black;"/><path d="M 511.98,394.18 C 511.84 394.73, 511.73 395.37, 511.59 396.94 C 511.46 398.51, 511.27 399.69, 511.30 402.04 C 511.33 404.39, 511.37 405.97, 511.75 408.68 C 512.12 411.40, 512.36 413.01, 513.16 415.61 C 513.97 418.20, 514.45 419.54, 515.78 421.66 C 517.12 423.78, 517.94 424.77, 519.84 426.20 C 521.73 427.64, 522.84 428.22, 525.27 428.83 C 527.70 429.43, 529.12 429.54, 531.97 429.24 C 534.83 428.94, 536.43 428.49, 539.54 427.32 C 542.64 426.14, 544.33 425.28, 547.48 423.38 C 550.63 421.47, 552.32 420.21, 555.27 417.78 C 558.23 415.35, 559.77 413.81, 562.27 411.24 C 564.76 408.68, 566.02 407.21, 567.77 404.95 C 569.52 402.70, 570.19 401.46, 571.01 399.95 C 571.84 398.43, 572.06 397.54, 571.87 397.39 C 571.68 397.23, 571.24 397.50, 570.05 399.16 C 568.87 400.82, 567.89 402.37, 565.94 405.70 C 563.99 409.04, 562.80 411.24, 560.29 415.84 C 557.78 420.44, 556.26 423.33, 553.38 428.72 C 550.51 434.11, 548.89 437.12, 545.90 442.79 C 542.91 448.46, 541.40 451.46, 538.43 457.07 C 535.47 462.69, 533.95 465.57, 531.06 470.87 C 528.18 476.17, 526.71 478.82, 524.01 483.58 C 521.32 488.34, 520.00 490.66, 517.58 494.67 C 515.16 498.68, 513.99 500.53, 511.91 503.65 C 509.83 506.76, 508.78 508.07, 507.18 510.23 C 505.57 512.40, 504.90 513.18, 503.89 514.47 C 502.87 515.76, 502.61 516.07, 502.09 516.67 C 501.58 517.27, 501.45 517.29, 501.31 517.47 C 501.17 517.65, 501.19 517.69, 501.40 517.57 C 501.60 517.46, 501.76 517.46, 502.34 516.91 C 502.92 516.35, 503.24 516.08, 504.31 514.82 C 505.38 513.56, 506.08 512.79, 507.69 510.61 C 509.29 508.43, 510.29 507.07, 512.34 503.92 C 514.39 500.78, 515.54 498.92, 517.94 494.89 C 520.34 490.86, 521.65 488.54, 524.34 483.77 C 527.02 479.00, 528.49 476.35, 531.37 471.04 C 534.25 465.73, 535.77 462.85, 538.74 457.23 C 541.70 451.62, 543.21 448.62, 546.21 442.96 C 549.21 437.29, 550.83 434.28, 553.73 428.90 C 556.63 423.53, 558.17 420.65, 560.72 416.08 C 563.28 411.51, 564.55 409.36, 566.52 406.04 C 568.49 402.73, 569.51 401.23, 570.57 399.51 C 571.64 397.78, 571.85 397.39, 571.84 397.42 C 571.83 397.45, 571.47 398.24, 570.54 399.66 C 569.61 401.08, 568.94 402.28, 567.20 404.51 C 565.45 406.74, 564.28 408.25, 561.82 410.81 C 559.36 413.37, 557.83 414.92, 554.90 417.32 C 551.96 419.73, 550.28 420.98, 547.16 422.85 C 544.04 424.72, 542.35 425.55, 539.30 426.68 C 536.25 427.81, 534.67 428.21, 531.90 428.50 C 529.12 428.79, 527.77 428.71, 525.44 428.15 C 523.11 427.58, 522.06 427.04, 520.25 425.66 C 518.44 424.29, 517.65 423.34, 516.39 421.28 C 515.13 419.22, 514.68 417.92, 513.93 415.37 C 513.18 412.83, 512.99 411.23, 512.65 408.56 C 512.30 405.89, 512.27 404.34, 512.20 402.02 C 512.12 399.70, 512.26 398.53, 512.27 396.97 C 512.29 395.41, 512.33 394.76, 512.27 394.20 C 512.21 393.65, 512.11 393.64, 511.98 394.18" style="stroke: black; fill: black;"/><path d="M 753.71,334.31 C 753.36 334.87, 753.00 335.43, 752.21 337.26 C 751.42 339.08, 751.01 340.19, 749.77 343.42 C 748.52 346.64, 747.76 348.88, 746.00 353.39 C 744.23 357.90, 743.17 360.64, 740.94 365.97 C 738.72 371.29, 737.34 374.35, 734.86 380.00 C 732.38 385.65, 730.91 388.70, 728.52 394.21 C 726.14 399.71, 724.85 402.58, 722.93 407.52 C 721.00 412.46, 720.11 414.89, 718.90 418.92 C 717.69 422.95, 717.22 424.78, 716.87 427.67 C 716.51 430.56, 716.59 431.75, 717.12 433.37 C 717.65 434.99, 718.19 435.48, 719.54 435.76 C 720.89 436.03, 721.83 435.79, 723.89 434.75 C 725.95 433.71, 727.16 432.76, 729.83 430.56 C 732.50 428.36, 734.04 426.79, 737.25 423.75 C 740.45 420.72, 742.35 418.77, 745.85 415.38 C 749.35 411.99, 751.34 409.99, 754.77 406.80 C 758.20 403.62, 760.02 401.88, 763.01 399.46 C 766.00 397.04, 767.57 395.78, 769.71 394.72 C 771.85 393.67, 772.60 393.45, 773.69 394.18 C 774.79 394.92, 774.85 395.99, 775.17 398.40 C 775.49 400.80, 775.39 402.66, 775.28 406.20 C 775.17 409.75, 774.83 412.16, 774.63 416.12 C 774.43 420.08, 774.20 422.33, 774.28 426.00 C 774.36 429.67, 774.44 431.49, 775.02 434.47 C 775.60 437.46, 775.99 438.82, 777.17 440.93 C 778.36 443.04, 779.14 443.91, 780.95 445.03 C 782.77 446.14, 783.85 446.51, 786.26 446.52 C 788.68 446.53, 790.09 446.27, 793.02 445.08 C 795.96 443.89, 797.57 442.99, 800.95 440.57 C 804.33 438.14, 806.20 436.58, 809.93 432.96 C 813.66 429.34, 815.71 427.10, 819.61 422.48 C 823.50 417.86, 825.59 415.16, 829.41 409.85 C 833.24 404.55, 835.24 401.55, 838.73 395.95 C 842.23 390.35, 843.97 387.31, 846.90 381.87 C 849.84 376.44, 851.21 373.65, 853.40 368.77 C 855.60 363.90, 856.50 361.51, 857.87 357.50 C 859.25 353.50, 859.70 351.67, 860.28 348.75 C 860.87 345.82, 860.74 344.05, 860.79 342.86 C 860.84 341.68, 860.75 341.68, 860.55 342.84 C 860.35 343.99, 860.41 345.74, 859.79 348.64 C 859.17 351.55, 858.79 353.36, 857.45 357.36 C 856.10 361.35, 855.22 363.75, 853.06 368.62 C 850.89 373.49, 849.52 376.28, 846.60 381.71 C 843.68 387.14, 841.94 390.18, 838.45 395.77 C 834.96 401.36, 832.96 404.36, 829.13 409.65 C 825.30 414.94, 823.21 417.63, 819.31 422.23 C 815.41 426.83, 813.36 429.06, 809.62 432.63 C 805.88 436.21, 804.00 437.75, 800.63 440.11 C 797.26 442.48, 795.64 443.30, 792.77 444.45 C 789.90 445.60, 788.56 445.84, 786.26 445.86 C 783.96 445.87, 782.97 445.57, 781.26 444.52 C 779.55 443.48, 778.83 442.66, 777.71 440.63 C 776.59 438.59, 776.22 437.28, 775.65 434.35 C 775.09 431.42, 774.97 429.63, 774.89 425.99 C 774.81 422.35, 775.05 420.11, 775.27 416.15 C 775.49 412.20, 775.88 409.80, 775.99 406.23 C 776.10 402.66, 776.24 400.77, 775.82 398.30 C 775.40 395.83, 775.17 394.69, 773.90 393.88 C 772.62 393.06, 771.71 393.19, 769.47 394.22 C 767.22 395.25, 765.67 396.59, 762.67 399.04 C 759.66 401.48, 757.87 403.25, 754.44 406.45 C 751.01 409.64, 749.02 411.64, 745.51 415.02 C 741.99 418.40, 740.08 420.34, 736.86 423.34 C 733.63 426.34, 732.04 427.85, 729.38 430.01 C 726.72 432.17, 725.52 433.06, 723.56 434.13 C 721.61 435.20, 720.82 435.53, 719.61 435.35 C 718.41 435.17, 717.98 434.76, 717.55 433.24 C 717.12 431.72, 717.10 430.58, 717.45 427.74 C 717.81 424.90, 718.18 423.07, 719.34 419.05 C 720.51 415.04, 721.39 412.60, 723.30 407.66 C 725.20 402.72, 726.48 399.86, 728.86 394.35 C 731.24 388.85, 732.71 385.79, 735.20 380.15 C 737.70 374.51, 739.08 371.45, 741.33 366.13 C 743.59 360.82, 744.67 358.07, 746.49 353.58 C 748.30 349.09, 749.16 346.89, 750.42 343.67 C 751.67 340.45, 752.07 339.34, 752.78 337.49 C 753.49 335.64, 753.78 335.06, 753.97 334.42 C 754.15 333.78, 754.07 333.74, 753.71 334.31" style="stroke: black; fill: black;"/><path d="M 914.30,397.66 C 913.80 397.21, 913.06 396.45, 911.63 395.68 C 910.19 394.91, 909.33 394.31, 907.14 393.80 C 904.95 393.30, 903.49 392.92, 900.67 393.16 C 897.86 393.41, 896.36 393.85, 893.07 395.04 C 889.78 396.22, 887.86 397.04, 884.23 399.07 C 880.60 401.11, 878.52 402.43, 874.93 405.19 C 871.35 407.95, 869.35 409.65, 866.30 412.87 C 863.25 416.08, 861.74 417.96, 859.68 421.26 C 857.63 424.56, 856.74 426.31, 856.02 429.36 C 855.31 432.40, 855.33 433.99, 856.10 436.50 C 856.87 439.01, 857.72 440.20, 859.88 441.91 C 862.05 443.61, 863.59 444.28, 866.91 445.02 C 870.23 445.77, 872.36 445.92, 876.47 445.62 C 880.59 445.33, 882.99 444.84, 887.48 443.55 C 891.98 442.27, 894.50 441.33, 898.94 439.20 C 903.38 437.06, 905.76 435.72, 909.68 432.86 C 913.60 430.00, 915.52 428.19, 918.54 424.91 C 921.55 421.62, 922.89 419.75, 924.77 416.43 C 926.65 413.10, 927.27 411.28, 927.92 408.30 C 928.57 405.31, 928.44 403.82, 928.01 401.50 C 927.57 399.18, 926.68 398.13, 925.75 396.70 C 924.81 395.28, 923.85 394.81, 923.33 394.38 C 922.82 393.95, 922.76 394.03, 923.16 394.55 C 923.55 395.07, 924.45 395.57, 925.30 396.98 C 926.15 398.39, 926.98 399.38, 927.39 401.61 C 927.79 403.85, 927.94 405.26, 927.32 408.17 C 926.71 411.08, 926.14 412.89, 924.31 416.17 C 922.49 419.46, 921.17 421.33, 918.19 424.59 C 915.21 427.86, 913.30 429.66, 909.41 432.49 C 905.52 435.33, 903.16 436.67, 898.74 438.78 C 894.33 440.90, 891.81 441.82, 887.35 443.08 C 882.88 444.33, 880.49 444.80, 876.43 445.07 C 872.37 445.33, 870.28 445.14, 867.05 444.41 C 863.82 443.68, 862.36 443.02, 860.28 441.40 C 858.20 439.79, 857.40 438.71, 856.66 436.32 C 855.93 433.94, 855.90 432.45, 856.60 429.49 C 857.29 426.54, 858.12 424.80, 860.14 421.54 C 862.15 418.29, 863.64 416.40, 866.67 413.21 C 869.69 410.03, 871.68 408.33, 875.25 405.60 C 878.81 402.87, 880.90 401.55, 884.50 399.57 C 888.11 397.58, 890.04 396.78, 893.29 395.66 C 896.53 394.54, 898.01 394.19, 900.74 393.98 C 903.48 393.76, 904.84 394.13, 906.96 394.59 C 909.08 395.05, 909.89 395.62, 911.32 396.29 C 912.76 396.95, 913.53 397.66, 914.12 397.93 C 914.72 398.20, 914.80 398.11, 914.30 397.66" style="stroke: black; fill: black;"/><path d="M 965.01,403.49 C 964.67 404.01, 964.42 404.62, 963.54 406.22 C 962.66 407.82, 962.01 408.98, 960.60 411.50 C 959.18 414.01, 958.22 415.78, 956.46 418.78 C 954.70 421.79, 953.57 423.62, 951.82 426.50 C 950.06 429.39, 949.02 430.94, 947.68 433.23 C 946.34 435.52, 945.75 436.67, 945.11 437.95 C 944.47 439.22, 944.32 439.66, 944.48 439.59 C 944.64 439.53, 945.00 439.09, 945.92 437.62 C 946.83 436.15, 947.49 434.83, 949.05 432.23 C 950.62 429.63, 951.53 427.79, 953.72 424.61 C 955.92 421.43, 957.23 419.54, 960.03 416.34 C 962.83 413.14, 964.51 411.44, 967.74 408.62 C 970.98 405.79, 972.85 404.42, 976.20 402.22 C 979.55 400.03, 981.30 399.07, 984.48 397.63 C 987.67 396.19, 989.26 395.73, 992.12 395.03 C 994.99 394.33, 996.41 394.26, 998.79 394.15 C 1001.16 394.04, 1002.33 394.30, 1004.02 394.47 C 1005.71 394.65, 1006.21 394.81, 1007.25 395.04 C 1008.28 395.27, 1008.80 395.54, 1009.20 395.61 C 1009.61 395.69, 1009.64 395.61, 1009.27 395.41 C 1008.91 395.21, 1008.40 394.91, 1007.36 394.59 C 1006.33 394.28, 1005.81 394.08, 1004.09 393.85 C 1002.37 393.63, 1001.18 393.36, 998.75 393.47 C 996.33 393.58, 994.87 393.67, 991.97 394.40 C 989.07 395.13, 987.46 395.64, 984.25 397.11 C 981.04 398.59, 979.28 399.56, 975.91 401.79 C 972.54 404.01, 970.66 405.39, 967.40 408.23 C 964.14 411.06, 962.46 412.77, 959.62 415.97 C 956.77 419.17, 955.44 421.06, 953.18 424.23 C 950.91 427.39, 949.87 429.17, 948.30 431.78 C 946.74 434.40, 946.12 435.75, 945.35 437.30 C 944.57 438.86, 944.39 439.39, 944.43 439.57 C 944.47 439.75, 944.77 439.39, 945.55 438.20 C 946.33 437.01, 946.96 435.89, 948.34 433.62 C 949.71 431.36, 950.67 429.76, 952.42 426.87 C 954.18 423.98, 955.32 422.16, 957.11 419.17 C 958.90 416.18, 959.96 414.46, 961.37 411.92 C 962.77 409.39, 963.35 408.18, 964.13 406.52 C 964.91 404.85, 965.09 404.21, 965.27 403.61 C 965.45 403.00, 965.36 402.97, 965.01 403.49" style="stroke: black; fill: black;"/><path d="M 1061.53,356.20 C 1060.96 357.15, 1060.49 358.40, 1058.93 361.05 C 1057.36 363.70, 1056.24 365.49, 1053.71 369.44 C 1051.17 373.39, 1049.44 376.06, 1046.26 380.81 C 1043.09 385.56, 1041.19 388.25, 1037.84 393.19 C 1034.49 398.13, 1032.63 400.77, 1029.51 405.51 C 1026.39 410.26, 1024.79 412.72, 1022.22 416.91 C 1019.66 421.09, 1018.50 423.10, 1016.70 426.43 C 1014.89 429.77, 1014.15 431.22, 1013.21 433.60 C 1012.27 435.97, 1012.18 436.98, 1012.01 438.32 C 1011.83 439.66, 1012.09 439.84, 1012.34 440.30 C 1012.58 440.75, 1013.04 440.54, 1013.23 440.58 C 1013.42 440.61, 1013.41 440.53, 1013.27 440.46 C 1013.13 440.38, 1012.71 440.61, 1012.55 440.20 C 1012.39 439.79, 1012.22 439.67, 1012.47 438.40 C 1012.71 437.12, 1012.84 436.16, 1013.77 433.82 C 1014.71 431.47, 1015.38 430.01, 1017.14 426.67 C 1018.90 423.33, 1020.04 421.31, 1022.58 417.12 C 1025.12 412.94, 1026.71 410.47, 1029.83 405.73 C 1032.95 400.98, 1034.80 398.35, 1038.16 393.41 C 1041.52 388.48, 1043.43 385.79, 1046.63 381.05 C 1049.83 376.32, 1051.59 373.67, 1054.15 369.73 C 1056.71 365.79, 1057.92 364.03, 1059.45 361.36 C 1060.98 358.68, 1061.38 357.36, 1061.79 356.33 C 1062.21 355.30, 1062.10 355.26, 1061.53 356.20" style="stroke: black; fill: black;"/><path d="M 1077.94,394.10 C 1077.18 394.06, 1076.25 393.99, 1074.17 394.20 C 1072.09 394.41, 1070.69 394.47, 1067.53 395.17 C 1064.37 395.86, 1062.23 396.35, 1058.37 397.68 C 1054.52 399.02, 1052.25 400.03, 1048.26 401.84 C 1044.26 403.66, 1042.03 404.76, 1038.40 406.77 C 1034.77 408.78, 1032.84 409.85, 1030.13 411.90 C 1027.41 413.94, 1026.17 415.02, 1024.84 416.99 C 1023.51 418.95, 1023.18 419.96, 1023.46 421.72 C 1023.74 423.49, 1024.32 424.34, 1026.23 425.81 C 1028.15 427.28, 1029.64 427.94, 1033.05 429.07 C 1036.46 430.19, 1038.69 430.65, 1043.30 431.42 C 1047.91 432.19, 1050.72 432.46, 1056.12 432.92 C 1061.51 433.37, 1065.08 433.41, 1070.27 433.67 C 1075.47 433.94, 1078.18 434.10, 1082.11 434.26 C 1086.03 434.41, 1088.34 434.46, 1089.90 434.44 C 1091.46 434.43, 1091.46 434.31, 1089.91 434.18 C 1088.35 434.06, 1086.05 434.00, 1082.13 433.81 C 1078.21 433.62, 1075.49 433.49, 1070.30 433.22 C 1065.10 432.95, 1061.54 432.92, 1056.16 432.46 C 1050.78 431.99, 1047.97 431.70, 1043.39 430.90 C 1038.81 430.10, 1036.61 429.57, 1033.25 428.45 C 1029.90 427.33, 1028.48 426.66, 1026.61 425.30 C 1024.75 423.94, 1024.18 423.24, 1023.92 421.65 C 1023.66 420.05, 1024.00 419.17, 1025.31 417.32 C 1026.63 415.46, 1027.82 414.39, 1030.49 412.38 C 1033.16 410.36, 1035.06 409.25, 1038.66 407.24 C 1042.26 405.23, 1044.50 404.13, 1048.48 402.34 C 1052.47 400.55, 1054.73 399.56, 1058.57 398.28 C 1062.42 396.99, 1064.56 396.59, 1067.69 395.90 C 1070.83 395.22, 1072.20 395.15, 1074.25 394.85 C 1076.31 394.55, 1077.23 394.54, 1077.97 394.39 C 1078.70 394.24, 1078.70 394.13, 1077.94 394.10" style="stroke: black; fill: black;"/></svg>