<svg xmlns="http://www.w3.org/2000/svg" width="900" height="450" viewBox="0 0 900 450" version="1.1"><path d="M 299.130 30.250 C 299.190 31.488, 298.285 35.158, 297.119 38.407 C 295.954 41.655, 295 44.940, 295 45.707 C 295 46.474, 293.697 50.566, 292.105 54.801 C 290.513 59.035, 288.431 65.200, 287.478 68.500 C 286.526 71.800, 284.930 76.525, 283.932 79 C 280.883 86.565, 278.068 94.949, 274.388 107.424 C 272.454 113.983, 270.225 120.598, 269.436 122.125 C 268.646 123.651, 268 126.686, 268 128.867 C 268 131.048, 267.481 133.006, 266.846 133.218 C 266.212 133.429, 265.345 135.829, 264.920 138.551 C 264.053 144.101, 262.663 149.627, 259.885 158.570 C 258.848 161.909, 257.997 165.734, 257.993 167.070 C 257.990 168.407, 257.093 170.850, 256 172.500 C 254.907 174.150, 254.010 176.647, 254.007 178.050 C 254.003 179.452, 253.500 181.100, 252.889 181.711 C 251.522 183.078, 254.966 194.944, 258.053 199.500 C 259.171 201.150, 260.674 203.855, 261.392 205.512 C 263.078 209.398, 270.377 217, 272.422 217 C 273.757 217, 274 218.580, 274 227.257 C 274 232.898, 274.402 238.915, 274.893 240.628 C 275.786 243.742, 275.786 243.742, 270.391 244.299 C 267.423 244.605, 263.534 245.614, 261.748 246.540 C 259.961 247.467, 256.598 248.737, 254.272 249.362 C 243.831 252.172, 232.371 268.788, 232.707 280.631 C 232.787 283.475, 232.455 284, 230.578 284 C 205.105 284, 195.939 321.210, 217.672 336.396 C 223.187 340.250, 223.195 340.268, 224.411 351.134 C 224.696 353.683, 225.566 357.508, 226.344 359.634 C 231.474 373.656, 233.194 377.271, 237.822 383.754 C 243.977 392.375, 243.835 391.621, 239.447 392.444 C 235.168 393.247, 235.327 392.826, 234.149 406.500 C 233.252 416.917, 233.882 421.427, 235.801 418.322 C 236.541 417.125, 242.894 416.917, 269 417.232 C 276.425 417.321, 284.975 417.375, 288 417.350 C 291.025 417.325, 302.050 417.323, 312.500 417.344 C 349.756 417.421, 355.863 417.421, 385.500 417.342 C 402 417.298, 417.750 417.415, 420.500 417.602 C 442.197 419.080, 595.284 418.956, 614.138 417.446 C 634.638 415.804, 649.587 415.905, 669.500 417.820 C 679.301 418.762, 679.773 418.566, 679.286 413.752 C 679.105 411.964, 678.950 409.375, 678.942 408 C 678.924 404.863, 676.964 396.858, 675.861 395.416 C 675.355 394.755, 672.792 394.519, 669.287 394.809 C 663.542 395.286, 663.542 395.286, 666.834 391.536 C 670.928 386.874, 674.078 380.125, 677.586 368.500 C 679.080 363.550, 681.134 356.927, 682.151 353.782 C 683.168 350.636, 684 346.509, 684 344.609 C 684 341.577, 684.410 341.020, 687.355 340.048 C 711.382 332.118, 705.839 285.701, 680.608 283.550 C 678.899 283.404, 676.958 283.221, 676.295 283.142 C 675.633 283.064, 674.824 281.313, 674.499 279.250 C 672.214 264.759, 671.610 262.711, 668.008 257.222 C 664.783 252.308, 663.422 251.170, 658.376 249.164 C 655.144 247.879, 651.022 246.192, 649.216 245.414 C 647.410 244.636, 643.499 244, 640.525 244 C 635.117 244, 635.117 244, 635.309 232.501 C 635.500 221.002, 635.500 221.002, 639.282 221.001 C 648.754 220.999, 655.486 216.093, 668.875 199.437 C 672.204 195.295, 673.330 185.724, 670.610 184.681 C 669.845 184.387, 668.547 182.877, 667.724 181.324 C 666.902 179.771, 664.612 175.575, 662.637 172 C 660.662 168.425, 659.035 164.666, 659.023 163.647 C 659.010 162.628, 657.283 158.128, 655.185 153.647 C 651.393 145.548, 650.620 142.922, 644.997 119 C 639.230 94.470, 628.777 64.650, 621.511 52 C 616.942 44.047, 614.875 38.490, 615.693 36.359 C 617.437 31.813, 596.842 30.647, 550 32.639 C 523.588 33.762, 461.687 33.112, 460.816 31.703 C 460.323 30.905, 459.437 30.963, 457.669 31.910 C 455.888 32.863, 453.037 33.042, 447.354 32.559 C 437.689 31.737, 407.825 31.614, 391 32.328 C 384.125 32.619, 372.200 32.421, 364.500 31.887 C 347.908 30.737, 333.160 30.089, 315.837 29.749 C 308.872 29.612, 302.834 29.163, 302.420 28.750 C 300.881 27.218, 299.025 28.064, 299.130 30.250 M 303.780 33.746 C 302.671 33.997, 301.474 36.156, 300.412 39.818 C 299.507 42.943, 297.671 48.875, 296.333 53 C 294.995 57.125, 292.974 63.650, 291.841 67.500 C 290.709 71.350, 288.737 76.975, 287.461 80 C 286.184 83.025, 284.820 86.850, 284.429 88.500 C 284.039 90.150, 283.032 92.850, 282.191 94.500 C 281.350 96.150, 280.330 99.075, 279.924 101 C 278.389 108.275, 274.067 122.333, 273.055 123.345 C 272.475 123.925, 271.997 126.223, 271.993 128.450 C 271.990 130.746, 271.161 133.753, 270.080 135.393 C 269.031 136.984, 268.416 138.921, 268.714 139.697 C 269.012 140.473, 268.566 142.771, 267.724 144.804 C 266.882 146.837, 265.650 151.200, 264.985 154.500 C 264.321 157.800, 263.420 160.950, 262.982 161.500 C 262.545 162.050, 261.858 164.750, 261.456 167.500 C 261.054 170.250, 260.111 173.388, 259.362 174.473 C 255.076 180.678, 258.395 181.300, 295.389 181.224 C 324.577 181.164, 323.945 181.291, 323.996 175.500 C 324.010 173.850, 324.692 170.291, 325.511 167.591 C 326.330 164.891, 327 161.376, 327 159.779 C 327 158.182, 327.621 154.766, 328.380 152.188 C 329.965 146.805, 333.012 127.955, 333.018 123.500 C 333.020 121.850, 333.701 118.261, 334.531 115.524 C 335.361 112.787, 335.826 109.989, 335.564 109.307 C 335.302 108.625, 335.719 105.914, 336.491 103.283 C 337.262 100.652, 338.369 94, 338.952 88.500 C 341.135 67.886, 342.024 61.453, 343.475 55.790 C 344.296 52.588, 345.429 47.075, 345.994 43.539 C 346.559 40.002, 347.304 36.370, 347.651 35.467 C 348.205 34.023, 347.271 33.832, 339.890 33.874 C 335.276 33.901, 325.650 33.795, 318.500 33.639 C 311.350 33.484, 304.726 33.531, 303.780 33.746 M 351.448 36.085 C 350.789 37.151, 348.491 49.056, 346.446 62 C 345.620 67.225, 344.463 73.975, 343.875 77 C 343.287 80.025, 342.669 84.975, 342.504 88 C 342.338 91.025, 341.683 96.200, 341.048 99.500 C 339.724 106.385, 338.571 113.508, 337.162 123.500 C 336.619 127.350, 335.193 135.900, 333.992 142.500 C 332.791 149.100, 331.443 156.842, 330.997 159.705 C 330.550 162.568, 329.731 166.393, 329.177 168.205 C 326.451 177.124, 326.975 180.736, 330.891 180.020 C 332.876 179.657, 347.374 179.454, 363.110 179.568 C 391.720 179.776, 391.720 179.776, 391.912 170.638 C 392.159 158.887, 392.556 152.596, 393.403 147 C 393.778 144.525, 394.510 135.075, 395.029 126 C 395.982 109.370, 396.171 106.560, 397.991 82 C 398.542 74.575, 398.994 65.292, 398.996 61.372 C 398.998 57.382, 399.645 52.700, 400.466 50.736 C 401.272 48.807, 401.891 45.200, 401.841 42.720 C 401.791 40.241, 402.062 37.709, 402.442 37.094 C 402.942 36.284, 398.219 36.004, 385.316 36.079 C 375.517 36.136, 364.011 35.962, 359.746 35.693 C 355.482 35.423, 351.747 35.600, 351.448 36.085 M 409.335 35.633 C 405.309 36.532, 403.247 49.879, 401.580 85.820 C 401.342 90.945, 400.687 99.945, 400.123 105.820 C 399.560 111.694, 398.820 122.913, 398.479 130.752 C 398.138 138.591, 397.447 146.440, 396.944 148.195 C 395.616 152.827, 394.691 176.626, 395.765 178.545 C 396.538 179.926, 399.238 180.224, 413.588 180.512 C 422.890 180.699, 432.750 181.097, 435.500 181.396 C 461.460 184.225, 462.210 183.632, 458.081 163.523 C 457.626 161.311, 457.151 144.875, 457.026 127 C 456.900 109.125, 456.505 92.510, 456.148 90.077 C 455.792 87.644, 455.758 76.394, 456.073 65.077 C 456.896 35.558, 457.400 37.365, 448.134 36.644 C 436.436 35.733, 411.764 35.091, 409.335 35.633 M 554.500 35.668 C 538.573 36.249, 517.966 38.396, 518.325 39.436 C 518.527 40.021, 518.374 41.627, 517.986 43.005 C 517.598 44.383, 518.115 51.133, 519.135 58.005 C 520.235 65.407, 521.209 79.060, 521.525 91.500 C 522.236 119.437, 523.550 134.331, 526.002 142.271 C 527.116 145.878, 528.467 152.354, 529.004 156.664 C 532.543 185.038, 532.762 185.282, 554.500 184.878 C 560 184.776, 566.525 184.737, 569 184.791 C 571.475 184.845, 575.525 184.428, 578 183.865 C 580.547 183.286, 586.029 183.128, 590.632 183.501 C 599.241 184.199, 599.574 182.500, 594.096 165.838 C 593.492 164.002, 591.420 156.650, 589.490 149.500 C 587.561 142.350, 585.565 135.150, 585.055 133.500 C 584.545 131.850, 583.829 128.250, 583.465 125.500 C 582.652 119.380, 576.645 94.629, 574.970 90.500 C 574.301 88.850, 573.389 84.125, 572.944 80 C 571.566 67.223, 569.258 54.419, 567.143 47.820 C 566.028 44.344, 564.725 40.178, 564.246 38.563 C 563.248 35.196, 563.704 35.332, 554.500 35.668 M 567.541 36.876 C 570.814 44.950, 575.582 67.493, 576.455 79.017 C 576.685 82.052, 577.344 85.774, 577.919 87.288 C 579.876 92.435, 585.923 116.933, 586.543 122.228 C 586.883 125.128, 587.783 129.525, 588.543 132 C 589.304 134.475, 591.546 142.575, 593.526 150 C 595.506 157.425, 597.512 164.625, 597.983 166 C 598.454 167.375, 599.571 171.650, 600.466 175.500 C 601.968 181.962, 602.301 182.512, 604.796 182.657 C 606.283 182.743, 616.725 183.062, 628 183.364 C 639.275 183.667, 652.212 184.199, 656.750 184.547 C 661.288 184.895, 665 184.974, 665 184.723 C 665 184.472, 662.759 180.044, 660.019 174.883 C 657.280 169.722, 655.030 164.598, 655.019 163.497 C 655.009 162.395, 653.415 158.225, 651.477 154.231 C 649.539 150.236, 646.832 142.138, 645.462 136.234 C 635.869 94.917, 624.557 62.085, 615.061 48 C 613.165 45.187, 610.861 38.034, 611.512 36.980 C 612.001 36.189, 612.859 36.235, 586.691 35.676 C 568.709 35.291, 566.944 35.402, 567.541 36.876 M 462.359 36.805 C 459.991 37.143, 460.113 35.327, 459.861 74 C 459.689 100.517, 461.075 159.275, 461.984 164 C 462.461 166.475, 463.161 171.702, 463.541 175.616 C 464.344 183.887, 465.805 184.243, 495 183.294 C 513.551 182.690, 514.659 182.700, 523.099 183.550 C 530.118 184.256, 530.782 181.799, 527.026 169.007 C 526.462 167.085, 526 163.451, 526 160.930 C 526 158.409, 524.701 151.656, 523.113 145.923 C 519.264 132.027, 519.167 131.095, 517.964 96.500 C 517.324 78.090, 516.316 63.225, 515.357 58.022 C 514.358 52.602, 514.029 47.461, 514.446 43.772 C 514.805 40.597, 514.739 37.942, 514.300 37.871 C 511.120 37.356, 465.113 36.413, 462.359 36.805 M 256 183.715 C 256 185.818, 259.487 194.753, 261.664 198.230 C 262.949 200.282, 264 202.438, 264 203.023 C 264 204.540, 273.034 214, 274.483 214 C 275.148 214, 277.139 214.721, 278.906 215.603 C 289.621 220.948, 301.019 216.182, 310.238 202.500 C 312.461 199.200, 315.283 195.375, 316.508 194 C 323.294 186.386, 320.515 183.650, 307.376 185.013 C 302.137 185.556, 296.872 185.769, 295.675 185.485 C 294.479 185.202, 285.850 184.800, 276.500 184.593 C 267.150 184.386, 258.712 183.894, 257.750 183.501 C 256.788 183.108, 256 183.204, 256 183.715 M 328.764 183.926 C 323.909 184.514, 324.885 190.875, 330.818 197.320 C 331.743 198.325, 334.525 202.146, 337 205.811 C 340.986 211.714, 341.957 212.553, 345.500 213.154 C 347.700 213.528, 350.767 214.321, 352.315 214.917 C 362.823 218.960, 382.069 208.493, 387.283 195.898 C 390.935 187.076, 390.603 184.309, 385.817 183.679 C 380.368 182.962, 335.105 183.158, 328.764 183.926 M 394.677 188.211 C 397.285 210.686, 407.782 217.587, 433.176 213.517 C 445.417 211.555, 446.795 211.037, 451.828 206.500 C 455.908 202.822, 457.865 198.440, 457.262 194.331 C 457.012 192.625, 457.316 190.278, 457.939 189.115 C 458.561 187.952, 458.942 186.961, 458.785 186.913 C 456.929 186.348, 428.218 184.755, 413.340 184.391 C 394.180 183.922, 394.180 183.922, 394.677 188.211 M 464.400 186.752 C 460.913 189.125, 462.058 198.641, 466.335 202.826 C 484.574 220.674, 516.923 220.892, 525.063 203.222 C 526.259 200.625, 527.604 197.768, 528.051 196.873 C 532.076 188.813, 521.404 183.309, 508.602 186.844 C 506.220 187.502, 502.580 187.501, 497.817 186.841 C 492.606 186.119, 489.466 186.170, 486.405 187.027 C 482.580 188.098, 475.493 187.885, 468 186.474 C 466.625 186.215, 465.005 186.340, 464.400 186.752 M 605.156 190.637 C 614.977 212.918, 631.882 222.553, 647.719 214.897 C 662.269 207.863, 673.479 188.438, 663.048 188.334 C 659.997 188.304, 650.750 187.997, 642.500 187.652 C 624.076 186.882, 625.811 186.930, 618 186.985 C 614.425 187.011, 609.590 186.749, 607.256 186.403 C 603.013 185.775, 603.013 185.775, 605.156 190.637 M 535 189.818 C 535 213.757, 576.964 225.361, 593.045 205.868 C 595.480 202.915, 597.858 200.222, 598.330 199.883 C 605.534 194.699, 599.719 187.480, 588.539 187.728 C 566.530 188.218, 562.036 188.299, 557.500 188.291 C 555.025 188.287, 550.413 188.332, 547.250 188.392 C 544.087 188.451, 540.038 188.127, 538.250 187.671 C 535.125 186.873, 535 186.956, 535 189.818 M 322 192.211 C 322 193.060, 321.247 194.373, 320.327 195.128 C 319.408 195.882, 316.916 199.200, 314.791 202.500 C 304.291 218.803, 291.240 224.992, 278.803 219.567 C 277.252 218.890, 277.152 219.709, 277.629 229.164 C 278.454 245.500, 278.412 272.763, 277.480 324.500 C 276.172 397.169, 275.564 391.481, 284.732 392.347 C 293.385 393.164, 306.425 393.178, 312.276 392.376 C 317.844 391.612, 318.194 390.657, 316.393 381.132 C 314.862 373.035, 314.774 367.157, 316.055 358.500 C 316.954 352.428, 317.548 333.370, 318.567 278 C 318.875 261.225, 319.211 243.035, 319.314 237.577 C 319.500 227.654, 319.500 227.654, 368 227.176 C 394.675 226.913, 418.300 226.672, 420.500 226.640 C 422.700 226.609, 431.475 226.898, 440 227.284 C 448.525 227.669, 459.775 228.100, 465 228.242 C 474.500 228.500, 474.500 228.500, 474.321 232 C 471.413 288.898, 472.005 393.248, 475.231 392.493 C 477.029 392.072, 486.282 391.619, 495.794 391.487 C 505.305 391.354, 513.340 390.994, 513.648 390.685 C 513.956 390.377, 514.370 361.184, 514.567 325.812 C 515.058 237.775, 510.309 247.543, 552.601 247.575 C 581.444 247.598, 587.473 248.235, 583.289 250.821 C 582.431 251.351, 582.249 254.367, 582.642 261.530 C 582.943 267.013, 583.071 283.425, 582.927 298 C 582.561 334.873, 582.607 337.102, 584.370 367.886 C 586.240 400.530, 582.744 396.549, 608.234 395.060 C 633.299 393.597, 630.397 395.088, 629.115 384.333 C 628.151 376.254, 628.374 316.420, 629.421 301.984 C 632.945 253.384, 632.689 222.661, 628.748 221.434 C 623.513 219.804, 615.978 213.224, 609.641 204.750 C 605.371 199.040, 603 196.574, 603 197.840 C 603 199.715, 599.096 205.177, 593.365 211.322 C 579.667 226.007, 545.734 220.658, 535.719 202.235 C 532.313 195.969, 532.313 195.969, 529.562 202.443 C 521.742 220.842, 496.013 226.368, 476 213.949 C 475.175 213.437, 472.475 211.935, 470 210.611 C 467.525 209.287, 464.474 206.808, 463.220 205.102 C 460.843 201.868, 459 201.078, 459 203.292 C 459 207.140, 447.144 215.497, 440.431 216.381 C 438.269 216.666, 432.695 217.415, 428.045 218.046 C 421.861 218.886, 418.606 218.899, 415.929 218.097 C 413.915 217.494, 411.118 217, 409.712 217 C 404.210 217, 396.570 208.600, 392.978 198.602 C 391.864 195.500, 391.864 195.500, 389.534 200 C 385.219 208.336, 381.194 211.509, 367.262 217.555 C 360.349 220.555, 357.647 220.520, 346.039 217.275 C 340.612 215.758, 339.092 214.819, 336.539 211.405 C 329.766 202.347, 326.417 197.592, 324.838 194.790 C 322.662 190.932, 322 190.330, 322 192.211 M 334 231.016 C 330.975 231.405, 327.327 231.518, 325.893 231.266 C 323.018 230.760, 323.040 230.601, 322.735 254 C 322.438 276.737, 320.948 335.649, 320.493 342.621 C 319.893 351.814, 320.828 352.288, 337.455 351.221 C 344.953 350.740, 344.953 350.740, 344.864 326.620 C 344.744 294.229, 345.624 278.073, 347.629 275.857 C 350.390 272.806, 357.855 272.491, 411 273.183 C 415.125 273.237, 423.675 273.262, 430 273.239 C 436.325 273.216, 446.450 273.209, 452.500 273.224 C 472.235 273.271, 469.918 275.647, 469.948 255.329 C 469.962 245.610, 470.233 236.272, 470.550 234.579 C 471.202 231.090, 459.015 230.366, 406.500 230.771 C 352.759 231.185, 343.131 231.182, 341.356 230.754 C 340.335 230.508, 337.025 230.626, 334 231.016 M 268.745 247.992 C 265.029 248.967, 261.429 250.223, 260.745 250.784 C 260.060 251.345, 257.547 252.327, 255.159 252.965 C 245.958 255.426, 232.674 276.288, 236.994 281.493 C 238.588 283.414, 235.816 287, 232.738 287 C 214.735 287, 201.846 311.487, 212.331 325.770 C 219.607 335.682, 220.190 335.849, 246 335.403 C 258.375 335.189, 269.779 335.011, 271.343 335.007 C 274.186 335, 274.186 335, 274.027 318.750 C 273.939 309.813, 274.271 289.900, 274.764 274.500 C 275.257 259.100, 275.624 246.437, 275.580 246.360 C 275.536 246.283, 272.460 247.018, 268.745 247.992 M 638.904 247.892 C 635.309 248.500, 635.309 248.500, 635.088 263.452 C 634.967 271.676, 634.709 278.662, 634.514 278.978 C 634.319 279.294, 633.850 286.965, 633.472 296.026 C 633.094 305.087, 632.641 312.741, 632.466 313.036 C 631.833 314.098, 631.644 332.978, 632.260 333.593 C 632.606 333.939, 639.777 334.323, 648.195 334.446 C 657.771 334.586, 664.997 335.173, 667.500 336.013 C 686.482 342.387, 699.581 332.833, 698.621 313.316 C 697.757 295.767, 689.680 286.356, 676.178 287.166 C 670.607 287.500, 670.607 287.500, 670.335 280.561 C 669.774 266.250, 665.984 257.112, 659.141 253.573 C 656.258 252.082, 642.881 246.871, 642.631 247.142 C 642.559 247.220, 640.882 247.557, 638.904 247.892 M 536.841 250.492 C 536.364 250.969, 532.152 251.403, 523.328 251.882 C 519.010 252.117, 517.529 280.160, 518.039 352 C 518.119 363.275, 518.197 376.856, 518.212 382.179 C 518.242 392.655, 519.885 394.174, 531 394.005 C 542.107 393.836, 570.434 394.764, 575.857 395.474 C 582.780 396.381, 582.604 397.549, 580.587 364 C 579.141 339.960, 578.939 334.169, 579.156 323 C 579.440 308.429, 579.346 278.320, 578.968 262.379 C 578.705 251.257, 578.705 251.257, 562.602 251.323 C 553.746 251.359, 544.452 251.061, 541.948 250.662 C 539.445 250.263, 537.147 250.187, 536.841 250.492 M 548.403 263.079 C 539.923 265.540, 531.316 278.913, 529.071 293.116 C 527.836 300.925, 524.656 300.315, 563 299.618 C 570.422 299.483, 571.439 296.685, 569.040 283 C 566.441 268.172, 558.216 260.231, 548.403 263.079 M 547.500 267.515 C 541.257 270.814, 540.648 273.031, 545.088 276.296 C 547.239 277.878, 549 279.584, 549 280.087 C 549 281.930, 551.031 280.913, 554.115 277.523 C 555.856 275.611, 558.117 273.780, 559.140 273.456 C 561.736 272.632, 561.458 270.530, 558.496 268.589 C 554.726 266.119, 550.857 265.741, 547.500 267.515 M 383 276.097 C 381.075 276.609, 374.405 276.773, 368.177 276.461 C 352.511 275.676, 350.320 276.480, 349.525 283.306 C 348.030 296.149, 348.267 314.113, 349.923 313.451 C 350.790 313.104, 354.955 312.574, 359.178 312.272 C 366.855 311.724, 366.855 311.724, 367.552 304.290 C 368.395 295.295, 369.278 294.710, 380.176 295.918 C 384.204 296.364, 387.842 296.536, 388.259 296.300 C 391.189 294.643, 392.918 297.267, 393.206 303.803 C 393.500 310.500, 393.500 310.500, 399.500 310.561 C 402.800 310.594, 407.136 310.972, 409.135 311.400 C 413.361 312.306, 414.156 311.510, 414.965 305.570 C 415.419 302.238, 415.956 301.518, 418.500 300.837 C 423.331 299.543, 443.105 299.600, 447.855 300.922 C 450.250 301.588, 452.786 301.912, 453.490 301.642 C 456.281 300.571, 458.742 303.772, 458.839 308.600 C 458.952 314.246, 459.279 314.649, 462.543 313.162 C 463.946 312.523, 465.973 312, 467.047 312 C 468.869 312, 469.006 311.210, 469.084 300.250 C 469.131 293.788, 469.490 285.932, 469.882 282.794 C 470.683 276.387, 477.585 277.141, 413.500 276.633 C 401.400 276.537, 390.375 276.168, 389 275.812 C 387.625 275.457, 384.925 275.585, 383 276.097 M 556.945 280.250 C 552.477 285.027, 551.721 286.986, 552.180 292.595 C 552.416 295.475, 552.894 296.400, 554 296.120 C 554.825 295.911, 558.021 295.790, 561.102 295.852 C 566.703 295.965, 566.703 295.965, 566.294 290.732 C 565.105 275.543, 563.271 273.486, 556.945 280.250 M 535.587 283.771 C 532.509 291.826, 532.233 295.923, 534.750 296.175 C 549.166 297.619, 553.873 289.933, 544.279 280.614 C 539.238 275.718, 538.572 275.960, 535.587 283.771 M 371.519 304.696 C 370.796 310.479, 385.137 315.462, 389.398 310.909 C 391.202 308.982, 388.529 299.991, 386.123 299.893 C 384.680 299.834, 380.958 299.659, 377.851 299.505 C 372.203 299.224, 372.203 299.224, 371.519 304.696 M 420.059 304.387 C 415.557 306.396, 417.327 311.369, 422.250 310.540 C 424.587 310.147, 428.525 309.639, 431 309.413 C 433.475 309.186, 436.472 308.777, 437.659 308.504 C 438.846 308.231, 442.221 309.127, 445.159 310.494 C 453.101 314.191, 455 313.922, 455 309.097 C 455 305.193, 455 305.193, 449.750 304.591 C 440.698 303.554, 422.211 303.427, 420.059 304.387 M 431 313.226 C 425.139 313.955, 389.593 315.122, 378.500 314.950 C 366.179 314.758, 351.879 316.221, 349.065 317.960 C 330.614 329.363, 352.843 351.603, 382.642 351.554 C 419.669 351.494, 416.798 352.235, 416.198 342.891 C 415.912 338.437, 419.141 336.539, 426.625 336.761 C 434.870 337.005, 434.780 336.932, 435.585 344.044 C 436.342 350.736, 436.844 351.102, 445 350.906 C 447.475 350.846, 453.532 350.824, 458.460 350.855 C 463.389 350.887, 467.664 350.670, 467.960 350.375 C 469.664 348.676, 468.984 314.793, 467.260 315.493 C 463.716 316.933, 460.138 317.805, 459.676 317.342 C 459.414 317.081, 456.675 316.715, 453.589 316.529 C 450.448 316.339, 446.207 315.267, 443.958 314.095 C 441.747 312.943, 439.615 312.066, 439.219 312.147 C 438.824 312.227, 435.125 312.713, 431 313.226 M 565.500 313.216 C 560.442 316.096, 559.526 321.617, 563.455 325.545 C 567.740 329.831, 573.318 327.513, 574.505 320.952 C 575.539 315.236, 570.123 310.583, 565.500 313.216 M 643.500 338.112 C 641.850 338.629, 638.543 338.928, 636.152 338.776 C 630.758 338.434, 629.840 390.784, 635.181 394.108 C 649.594 403.078, 666.505 392.184, 673.383 369.500 C 674.884 364.550, 676.946 357.800, 677.965 354.500 C 682.125 341.032, 682.912 342.125, 667.500 339.961 C 663.100 339.343, 657.873 338.424, 655.884 337.919 C 651.483 336.801, 647.486 336.863, 643.500 338.112 M 235.940 338.784 C 226.248 339.072, 224.008 348.445, 230.589 361.172 C 231.471 362.877, 232.964 366.574, 233.908 369.386 C 245.464 403.835, 273.386 400.765, 273.804 364.999 C 274.107 339, 274.107 339, 264.804 338.872 C 259.687 338.802, 253.250 338.689, 250.500 338.622 C 247.750 338.555, 241.198 338.628, 235.940 338.784 M 421.344 340.722 C 420.709 341.151, 420.103 343.301, 419.998 345.501 C 419.703 351.649, 419.853 352.175, 421.750 351.651 C 422.712 351.386, 425.592 350.885, 428.149 350.538 C 432.378 349.965, 434.246 345.008, 431.612 341.344 C 431.114 340.650, 422.247 340.114, 421.344 340.722 M 427.812 354.522 C 427.458 354.875, 403.078 355.159, 373.635 355.153 C 311.014 355.138, 317.173 351.603, 320.603 385.595 C 321.314 392.639, 325.644 393.061, 401.500 393.472 C 422.950 393.589, 442.349 394.009, 444.609 394.406 C 447.296 394.878, 450.804 394.587, 454.753 393.564 C 458.073 392.704, 462.556 392, 464.716 392 C 468.065 392, 470.867 358.421, 467.767 355.444 C 467.132 354.835, 428.393 353.941, 427.812 354.522 M 241.598 395.500 C 208.377 406.223, 240.894 413.619, 321.714 413.722 C 367.796 413.781, 428.225 414.120, 456 414.474 C 535.511 415.490, 595.109 415.378, 612.500 414.180 C 634.019 412.698, 655.773 412.526, 665.461 413.761 C 675.157 414.997, 675.961 414.748, 675.455 410.672 C 675.238 408.927, 674.806 405.436, 674.494 402.913 C 673.926 398.325, 673.926 398.325, 621.713 398.353 C 559.546 398.387, 526.008 397.618, 520.087 396.023 C 515.283 394.730, 510.665 394.602, 488.180 395.136 C 474.386 395.464, 472.753 395.689, 471.796 397.399 C 470.765 399.242, 470.686 399.235, 469.117 397.180 C 467.586 395.175, 467.153 395.124, 461 396.223 C 454.813 397.328, 439.891 397.697, 428 397.039 C 424.975 396.872, 407.762 396.907, 389.750 397.117 C 371.737 397.328, 356.887 397.183, 356.750 396.796 C 356.415 395.851, 307.760 395.412, 306.259 396.340 C 305.610 396.741, 298.649 396.547, 290.790 395.909 C 272.545 394.428, 245.614 394.204, 241.598 395.500" stroke="none" fill="#040404" fill-rule="evenodd"/><path d="M 303.897 33.724 C 302.970 33.936, 301.615 36.286, 300.684 39.295 C 299.798 42.158, 297.910 48.100, 296.487 52.500 C 295.064 56.900, 292.974 63.650, 291.841 67.500 C 290.709 71.350, 288.737 76.975, 287.461 80 C 286.184 83.025, 284.820 86.850, 284.429 88.500 C 284.039 90.150, 283.032 92.850, 282.191 94.500 C 281.350 96.150, 280.330 99.075, 279.924 101 C 278.389 108.275, 274.067 122.333, 273.055 123.345 C 272.475 123.925, 271.997 126.223, 271.993 128.450 C 271.990 130.746, 271.161 133.753, 270.080 135.393 C 269.031 136.984, 268.416 138.921, 268.714 139.697 C 269.012 140.473, 268.566 142.771, 267.724 144.804 C 266.882 146.837, 265.650 151.200, 264.985 154.500 C 264.321 157.800, 263.440 160.950, 263.027 161.500 C 262.614 162.050, 261.994 164.668, 261.648 167.317 C 261.303 169.966, 260.340 173.104, 259.510 174.289 C 255.023 180.695, 258.157 181.301, 295.389 181.224 C 324.693 181.164, 323.956 181.317, 323.985 175.315 C 323.993 173.563, 324.481 170.866, 325.068 169.321 C 325.656 167.776, 326.538 163.809, 327.029 160.506 C 327.520 157.203, 329.051 148.425, 330.431 141 C 331.812 133.575, 332.959 125.925, 332.981 124 C 333.004 122.075, 333.701 118.261, 334.531 115.524 C 335.361 112.787, 335.826 109.989, 335.564 109.307 C 335.302 108.625, 335.719 105.914, 336.491 103.283 C 337.262 100.652, 338.369 94, 338.952 88.500 C 340.822 70.843, 341.906 62.617, 343.039 57.500 C 343.648 54.750, 344.794 49.125, 345.585 45 C 346.377 40.875, 347.286 36.674, 347.606 35.665 C 348.141 33.981, 347.500 33.836, 339.844 33.901 C 335.255 33.940, 325.650 33.834, 318.500 33.665 C 311.350 33.497, 304.779 33.523, 303.897 33.724 M 351.476 36.038 C 350.855 37.043, 348.552 48.980, 346.466 62 C 345.629 67.225, 344.474 73.975, 343.899 77 C 343.323 80.025, 342.705 84.975, 342.524 88 C 342.343 91.025, 341.677 96.200, 341.045 99.500 C 339.683 106.606, 338.506 113.915, 337.182 123.500 C 335.567 135.189, 333.249 148.166, 329.947 164 C 326.467 180.686, 324.181 179.492, 359.782 179.587 C 391.721 179.673, 391.721 179.673, 391.913 170.586 C 392.159 158.905, 392.557 152.599, 393.400 147 C 393.772 144.525, 394.487 134.850, 394.989 125.500 C 395.490 116.150, 396.132 106.250, 396.416 103.500 C 397.069 97.183, 398.117 79.643, 398.657 66 C 398.886 60.225, 399.711 53.250, 400.491 50.500 C 401.271 47.750, 401.885 43.842, 401.855 41.816 C 401.825 39.790, 402.100 37.647, 402.466 37.054 C 402.934 36.297, 397.826 36.007, 385.316 36.079 C 375.517 36.136, 364.011 35.962, 359.746 35.693 C 355.482 35.423, 351.760 35.579, 351.476 36.038 M 409.307 35.640 C 406.867 36.179, 405.336 40.075, 405.076 46.414 C 404.988 48.567, 404.597 50.817, 404.208 51.414 C 403.553 52.418, 402.798 62.453, 401.618 85.820 C 401.359 90.945, 400.688 99.945, 400.126 105.820 C 399.564 111.694, 398.834 122.800, 398.503 130.500 C 398.173 138.200, 397.506 146.075, 397.021 148 C 395.766 152.990, 394.866 177.240, 395.878 178.837 C 396.515 179.842, 400.903 180.257, 413.613 180.512 C 422.901 180.699, 432.750 181.097, 435.500 181.396 C 461.455 184.224, 462.230 183.611, 458.075 163.523 C 457.617 161.311, 457.162 144.902, 457.064 127.061 C 456.965 109.220, 456.662 94.261, 456.389 93.820 C 455.663 92.646, 455.825 51.091, 456.560 49.902 C 460.162 44.075, 455.556 37.202, 447.665 36.630 C 434.895 35.703, 411.731 35.106, 409.307 35.640 M 560.832 35.502 C 560.533 35.800, 554.711 36.202, 547.894 36.395 C 532.005 36.844, 517.939 38.092, 518.502 39.004 C 518.744 39.395, 518.568 41.019, 518.111 42.613 C 517.580 44.464, 517.950 50.023, 519.135 58.005 C 520.235 65.407, 521.209 79.060, 521.525 91.500 C 522.236 119.437, 523.550 134.331, 526.002 142.271 C 527.116 145.878, 528.467 152.354, 529.004 156.664 C 532.543 185.038, 532.762 185.282, 554.500 184.878 C 560 184.776, 566.525 184.737, 569 184.791 C 571.475 184.845, 575.525 184.428, 578 183.865 C 580.544 183.286, 586.028 183.127, 590.616 183.499 C 599.528 184.222, 599.511 184.289, 594.508 167.500 C 589.843 151.848, 584.059 129.827, 583.475 125.500 C 582.633 119.255, 576.700 94.992, 574.581 89.124 C 573.711 86.718, 573 82.973, 573 80.804 C 573 76.450, 570.713 62.558, 568.587 54 C 564.630 38.072, 562.749 33.585, 560.832 35.502 M 569.748 43.409 C 572.469 52.521, 575.988 70.953, 576.448 78.500 C 576.615 81.250, 577.674 86.650, 578.800 90.500 C 583.729 107.347, 584.881 111.935, 585.955 119 C 586.582 123.125, 587.720 128.750, 588.483 131.500 C 589.247 134.250, 591.519 142.575, 593.532 150 C 595.546 157.425, 597.587 164.625, 598.069 166 C 598.550 167.375, 599.642 171.650, 600.495 175.500 C 601.937 182.008, 602.238 182.510, 604.773 182.644 C 606.273 182.724, 616.725 183.043, 628 183.354 C 639.275 183.665, 652.212 184.203, 656.750 184.549 C 665.411 185.211, 666.016 184.896, 663.366 181.111 C 660.725 177.342, 655 165.097, 655 163.220 C 655 162.270, 653.409 158.213, 651.464 154.205 C 649.449 150.051, 646.643 141.450, 644.941 134.208 C 640.631 115.877, 639.586 111.872, 635.626 98.500 C 629.563 78.028, 619.673 53.797, 615.393 48.927 C 613.830 47.149, 610.869 38.021, 611.516 36.974 C 612.006 36.182, 612.532 36.209, 586.916 35.705 C 567.333 35.319, 567.333 35.319, 569.748 43.409 M 462.359 36.805 C 460.333 37.094, 460.212 37.684, 460.093 47.805 C 459.582 91.580, 460.646 157.092, 461.981 164 C 462.459 166.475, 463.161 171.702, 463.541 175.616 C 464.344 183.887, 465.805 184.243, 495 183.294 C 513.551 182.690, 514.659 182.700, 523.099 183.550 C 529.956 184.240, 531.084 180.242, 527.036 169.594 C 526.466 168.096, 525.994 164.537, 525.988 161.685 C 525.981 158.833, 524.834 152.450, 523.439 147.500 C 519.541 133.666, 519.139 129.952, 517.984 97.113 C 517.322 78.267, 516.306 63.233, 515.342 58 C 514.383 52.794, 514.007 47.271, 514.373 43.750 C 514.701 40.587, 514.639 37.942, 514.235 37.871 C 511.342 37.361, 465.117 36.412, 462.359 36.805 M 256 183.715 C 256 185.756, 259.457 194.706, 261.518 198 C 262.722 199.925, 264 202.423, 264.358 203.551 C 266.733 211.041, 277.054 216.404, 289.204 216.460 C 299.223 216.506, 302.076 214.612, 310.238 202.500 C 312.461 199.200, 315.283 195.375, 316.508 194 C 323.294 186.386, 320.515 183.650, 307.376 185.013 C 302.137 185.556, 296.872 185.768, 295.675 185.484 C 294.479 185.199, 285.850 184.805, 276.500 184.606 C 267.150 184.408, 258.712 183.917, 257.750 183.516 C 256.788 183.114, 256 183.204, 256 183.715 M 328.744 183.922 C 324.169 184.478, 325.779 194.273, 330.974 197.484 C 331.619 197.883, 334.129 201.301, 336.551 205.080 C 339.795 210.140, 341.686 212.111, 343.728 212.559 C 345.252 212.893, 348.493 213.804, 350.928 214.583 C 363.742 218.683, 382.244 208.984, 387.332 195.500 C 390.824 186.243, 390.568 184.301, 385.773 183.686 C 380.255 182.979, 334.964 183.166, 328.744 183.922 M 394.676 188.204 C 397.389 211.585, 408.611 218.133, 437 212.900 C 450.531 210.407, 458.544 203.063, 457.262 194.331 C 457.012 192.625, 457.316 190.278, 457.939 189.115 C 458.561 187.952, 458.942 186.961, 458.785 186.913 C 457.026 186.378, 428.283 184.791, 413.339 184.403 C 394.178 183.907, 394.178 183.907, 394.676 188.204 M 464.400 186.740 C 460.915 189.149, 462.057 198.640, 466.335 202.826 C 484.574 220.674, 516.923 220.892, 525.063 203.222 C 526.259 200.625, 527.604 197.768, 528.051 196.873 C 531.999 188.967, 520.699 183.269, 508.279 186.902 C 506.230 187.501, 502.414 187.478, 497.798 186.838 C 492.460 186.098, 489.577 186.149, 486.906 187.031 C 483.601 188.122, 473.770 187.814, 467.500 186.424 C 466.400 186.180, 465.005 186.322, 464.400 186.740 M 604.494 188.637 C 605.316 190.211, 605.990 191.998, 605.994 192.607 C 606.001 193.857, 614.846 206.040, 618.827 210.283 C 631.467 223.757, 651.332 218.569, 665.094 198.200 C 669.833 191.187, 669.195 188.522, 662.750 188.402 C 659.863 188.348, 650.750 188.013, 642.500 187.657 C 624.697 186.888, 626.132 186.927, 618 186.985 C 614.425 187.011, 609.588 186.749, 607.250 186.402 C 603.001 185.773, 603.001 185.773, 604.494 188.637 M 535.405 191.134 C 540.017 219.972, 581.757 225.195, 598.266 199 C 599.133 197.625, 599.833 194.842, 599.821 192.816 C 599.809 190.790, 600.027 188.765, 600.304 188.316 C 600.582 187.867, 595.339 187.612, 588.654 187.750 C 581.969 187.887, 573.237 188.067, 569.250 188.149 C 565.263 188.232, 559.975 188.295, 557.500 188.291 C 555.025 188.287, 550.413 188.332, 547.250 188.392 C 544.087 188.451, 539.972 188.112, 538.104 187.639 C 534.709 186.777, 534.709 186.777, 535.405 191.134 M 371.603 304.723 C 370.922 310.515, 385.141 315.457, 389.398 310.909 C 391.478 308.686, 388.492 299.994, 385.623 299.920 C 383.905 299.877, 380.195 299.688, 377.378 299.502 C 372.256 299.163, 372.256 299.163, 371.603 304.723 M 420.500 304.333 C 415.476 306.008, 417.006 311.425, 422.250 310.530 C 436.636 308.074, 440.299 308.083, 445.595 310.588 C 453.180 314.176, 455 313.893, 455 309.124 C 455 305.248, 455 305.248, 449.250 304.588 C 440.298 303.561, 423.269 303.410, 420.500 304.333 M 642.893 338.310 C 641.027 338.795, 637.835 338.969, 635.799 338.698 C 630.730 338.021, 630.093 390.967, 635.132 394.082 C 649.645 403.051, 666.493 392.223, 673.383 369.500 C 674.884 364.550, 676.946 357.800, 677.965 354.500 C 682.142 340.976, 683.229 342.424, 667 339.882 C 663.425 339.322, 658.250 338.472, 655.500 337.994 C 649.827 337.006, 647.705 337.060, 642.893 338.310 M 236.136 338.789 C 226.283 339.093, 224.482 344.612, 229.705 358.500 C 230.532 360.700, 232.097 364.949, 233.182 367.943 C 246.125 403.660, 273.375 401.685, 273.804 364.999 C 274.107 339, 274.107 339, 264.804 338.872 C 259.687 338.802, 253.250 338.689, 250.500 338.622 C 247.750 338.555, 241.286 338.630, 236.136 338.789 M 421.344 340.722 C 420.709 341.151, 420.103 343.301, 419.998 345.501 C 419.714 351.422, 419.839 351.845, 421.750 351.458 C 422.712 351.264, 425.592 350.835, 428.149 350.506 C 432.377 349.962, 434.248 345.012, 431.612 341.344 C 431.114 340.650, 422.247 340.114, 421.344 340.722" stroke="none" fill="#fcdcc4" fill-rule="evenodd"/></svg>