<svg xmlns="http://www.w3.org/2000/svg" width="900" height="450" viewBox="0 0 900 450" version="1.1"><path d="M 656.685 26.250 L 654.268 28.500 653.824 37.037 C 653.238 48.320, 654.167 47.678, 639.832 46.707 C 633.050 46.248, 611.750 46.068, 592.500 46.307 L 557.500 46.743 547.500 48.325 C 537.040 49.980, 517.511 51.768, 498 52.858 L 486.500 53.500 486.187 55.698 C 485.730 58.910, 487.740 62, 490.285 62 L 492.500 62 492.240 92.250 C 492.016 118.357, 491.606 146.578, 491.131 168.566 L 491 174.632 485.250 176.964 C 482.087 178.246, 476.350 180.974, 472.500 183.027 C 468.650 185.079, 464.375 187.103, 463 187.524 C 459.974 188.451, 436.577 199.951, 425.500 205.957 C 412.655 212.920, 399.885 219.165, 394.500 221.116 C 391.750 222.113, 389.950 222.948, 390.500 222.973 C 391.690 223.027, 381.931 227.923, 380.543 227.969 C 380.017 227.986, 377.021 229.800, 373.884 232 C 370.748 234.200, 367.792 236, 367.315 236 C 366.120 236, 350.396 244.045, 345.500 247.162 C 343.300 248.562, 340.375 250.044, 339 250.455 C 334.632 251.760, 325.656 257.149, 321 261.263 C 318.525 263.450, 315.375 265.720, 314 266.308 C 312.625 266.896, 310.375 268.381, 309 269.608 C 307.625 270.835, 301.333 274.616, 295.017 278.010 C 288.701 281.404, 281.726 285.472, 279.517 287.049 C 277.308 288.627, 273.700 290.895, 271.500 292.089 C 269.300 293.283, 267.147 294.864, 266.716 295.602 C 265.589 297.530, 255.404 303.307, 249.223 305.523 L 243.945 307.415 244.591 308.957 C 244.947 309.806, 245.466 313.728, 245.745 317.673 L 246.253 324.847 248.573 325.429 C 250.805 325.989, 256.918 323.020, 264.250 317.816 L 267 315.864 267 323.732 C 267 328.477, 266.528 332.072, 265.811 332.789 L 264.622 333.978 264.246 373.739 C 264.039 395.607, 263.621 414.175, 263.317 415 C 263.013 415.825, 262.848 419.052, 262.950 422.172 L 263.135 427.843 260.896 428.172 C 258.608 428.507, 258.552 428.667, 257.646 437.500 L 257.235 441.500 259.231 444.314 L 261.227 447.128 273.864 447.017 C 280.814 446.956, 299.100 446.940, 314.500 446.982 C 329.900 447.024, 352.850 446.550, 365.500 445.928 C 386.053 444.918, 503.351 444.518, 635.500 445.006 C 657.500 445.087, 686.959 444.989, 700.964 444.787 L 726.428 444.421 726.129 439.551 C 725.964 436.873, 725.429 433.628, 724.939 432.341 L 724.050 430 720.350 430 L 716.651 430 718.709 427.750 C 721.428 424.776, 723.300 420.792, 725.404 413.500 C 726.356 410.200, 727.555 406.466, 728.068 405.203 C 728.580 403.940, 729.001 401.690, 729.003 400.203 L 729.005 397.500 732.722 395.500 C 734.766 394.400, 737.511 391.925, 738.821 390 L 741.205 386.500 740.688 379.367 C 739.887 368.295, 735.294 362.104, 726.750 360.579 L 723 359.909 722.956 356.205 C 722.824 345.079, 713.620 336, 702.471 336 L 699 336 699 329 L 699 322 701.662 322 C 709.044 322, 721.986 309.112, 721.996 301.750 C 721.998 300.238, 721.647 299, 721.216 299 C 718.362 299, 710.712 280.037, 705.482 260 C 699.102 235.555, 695.096 224.127, 690.007 215.857 C 685.670 208.808, 684.700 199.002, 686.063 176 C 686.373 170.775, 686.263 158.850, 685.818 149.500 C 685.077 133.908, 686.041 91.868, 687.644 69.831 L 688.275 61.161 690.887 61.331 L 693.500 61.500 693.822 57.558 C 694.004 55.332, 694.874 53.082, 695.820 52.389 C 698.505 50.426, 697.072 50.034, 682.719 48.802 L 669.138 47.636 668.528 43.068 C 667.983 38.985, 668.753 32.722, 670.593 26.250 C 671.309 23.733, 670.876 23.601, 666.243 24.930 C 664.243 25.504, 663 25.504, 663 24.930 C 663 23.183, 659.107 23.996, 656.685 26.250 M 658.095 28.170 L 656.256 28.841 656.108 36.078 C 656.026 40.059, 655.694 44.370, 655.371 45.658 L 654.783 48 660.269 48 L 665.755 48 666.239 39.250 C 666.505 34.438, 667.023 29.803, 667.391 28.950 L 668.060 27.400 663.997 27.450 C 661.762 27.478, 659.107 27.802, 658.095 28.170 M 570 49.037 C 565.875 49.460, 559.125 50.032, 555 50.307 C 550.875 50.582, 543.900 51.268, 539.500 51.831 C 532.708 52.699, 512.475 54.355, 493.500 55.594 C 490.750 55.774, 488.365 55.938, 488.200 55.960 C 488.035 55.982, 488.338 56.781, 488.872 57.736 L 489.844 59.472 495.172 59.704 C 498.102 59.832, 506.800 59.287, 514.500 58.493 C 555.811 54.234, 686.438 53.815, 687.812 57.937 C 688.007 58.522, 689.029 59, 690.083 59 L 692 59 692 55.617 L 692 52.233 689.250 51.611 C 687.737 51.269, 677.050 50.748, 665.500 50.453 C 653.950 50.159, 639.248 49.486, 632.828 48.959 C 619.382 47.854, 581.046 47.902, 570 49.037 M 568.841 57.463 C 568.654 57.635, 559.950 58.069, 549.500 58.428 C 539.050 58.786, 526.675 59.538, 522 60.097 C 517.325 60.657, 509.402 61.365, 504.394 61.671 L 495.287 62.226 494.613 74.164 C 494.242 80.730, 494.216 92.492, 494.556 100.301 C 494.895 108.111, 494.790 122.150, 494.322 131.500 C 493.853 140.850, 493.702 155.025, 493.985 163 C 494.268 170.975, 494.231 177.725, 493.902 178 C 493.573 178.275, 493.028 181.425, 492.690 185 C 492.353 188.575, 491.776 193.614, 491.409 196.199 L 490.742 200.897 493.121 201.448 C 501.002 203.271, 602.759 204.780, 658.097 203.894 L 682.695 203.500 683.373 179.301 C 683.746 165.992, 683.775 148.442, 683.438 140.301 C 682.898 127.267, 684.285 80.386, 685.668 64.891 L 686.169 59.283 681.834 58.529 C 677.742 57.818, 569.568 56.798, 568.841 57.463 M 634.987 76.157 C 634.979 79.096, 634.720 86, 634.409 91.500 C 631.631 140.712, 629.752 136.052, 651.867 134.799 C 667.175 133.932, 665.477 137.737, 665.637 103.953 L 665.774 75.073 664.637 73.636 L 663.500 72.200 649.250 71.507 L 635 70.814 634.987 76.157 M 576.500 74.207 C 574.850 74.793, 572.933 75.424, 572.240 75.609 L 570.981 75.945 571.189 86.222 C 571.304 91.875, 571.270 104.990, 571.115 115.366 L 570.832 134.232 571.966 135.366 C 572.703 136.103, 577.995 136.500, 587.086 136.500 L 601.073 136.500 601.907 135.151 C 602.365 134.409, 603.042 127.659, 603.411 120.151 C 604.026 107.634, 605.790 80.272, 606.290 75.500 L 606.500 73.500 603.500 73.963 C 599.170 74.632, 592.387 74.573, 585.500 73.808 C 581.979 73.417, 578.261 73.582, 576.500 74.207 M 513.250 75.527 L 512 76.916 512 106.360 L 512 135.804 517.750 136.347 C 520.913 136.647, 525.750 136.934, 528.500 136.986 C 531.250 137.038, 534.597 137.175, 535.937 137.290 L 538.375 137.500 539.088 135 C 539.480 133.625, 539.855 126.875, 539.921 120 C 540.031 108.646, 541.845 89.167, 543.513 81.444 L 544.172 78.388 542.713 77.177 C 541.857 76.466, 536.545 75.746, 529.876 75.435 C 523.619 75.143, 517.600 74.732, 516.500 74.521 C 515.400 74.310, 513.938 74.763, 513.250 75.527 M 637 86.875 L 637 99.750 640.125 100.375 C 641.844 100.719, 644.319 101, 645.625 101 L 648 101 648.009 92.750 C 648.013 88.213, 648.301 82.138, 648.648 79.250 L 649.279 74 643.139 74 L 637 74 637 86.875 M 651.552 76.118 C 651.249 77.428, 650.855 83.581, 650.677 89.792 L 650.354 101.084 656.576 100.792 L 662.798 100.500 663.203 88 C 663.426 81.125, 663.561 75.402, 663.503 75.282 C 663.445 75.162, 660.857 74.766, 657.751 74.401 L 652.104 73.737 651.552 76.118 M 576.750 76.716 L 574 77.133 573.998 91.316 L 573.996 105.500 579.941 105.164 L 585.885 104.828 586.193 92.664 C 586.362 85.974, 586.335 79.487, 586.133 78.250 L 585.767 76 582.633 76.150 C 580.910 76.232, 578.263 76.487, 576.750 76.716 M 514 91.486 L 514 106 519 106 L 524 106 524.009 97.750 C 524.020 87.432, 524.998 79, 526.183 79 C 526.694 79, 526.960 84.997, 526.794 92.750 L 526.500 106.500 531.750 106.802 C 534.638 106.969, 537 107.501, 537 107.985 C 537 109.436, 533.321 110.151, 529.520 109.438 L 525.952 108.768 526.099 121.307 L 526.247 133.846 531.187 134.526 C 537.460 135.388, 536.886 136.751, 537.540 119.428 C 537.850 111.218, 538.787 98.719, 539.623 91.654 C 541.429 76.377, 543.198 78.384, 527.250 77.612 L 514 76.971 514 91.486 M 588.648 82.250 C 588.301 85.138, 588.013 91.438, 588.009 96.250 L 588 105 595 105 L 602 105 602.073 102.250 C 602.432 88.706, 602.903 80.880, 603.466 79.108 L 604.135 77 596.707 77 L 589.279 77 588.648 82.250 M 635.903 106 C 635.161 119.105, 635.400 131.559, 636.407 132.235 C 637.731 133.125, 642.667 133.196, 645.750 132.370 L 648 131.767 648 117.902 L 648 104.038 645.463 103.401 C 644.068 103.051, 641.625 103.025, 640.034 103.343 C 638.222 103.706, 636.957 103.469, 636.649 102.711 C 636.379 102.045, 636.043 103.525, 635.903 106 M 650.630 105.250 C 650.299 106.487, 650.021 112.980, 650.014 119.677 L 650 131.853 651.629 132.177 C 652.524 132.355, 655.738 132.342, 658.771 132.149 L 664.285 131.798 663.643 122.746 C 663.289 117.767, 663 111.287, 663 108.346 L 663 103 657.117 103 L 651.233 103 650.630 105.250 M 577.372 107.714 L 574.244 108.109 573.633 111.804 C 573.297 113.837, 573.017 119.662, 573.011 124.750 L 573 134 578.865 134 L 584.729 134 585.440 121.526 C 586.330 105.901, 586.702 106.538, 577.372 107.714 M 588 120.485 L 588 134 593.941 134 C 601.245 134, 600.733 134.987, 601.152 120.096 L 601.500 107.692 594.750 107.331 L 588 106.969 588 120.485 M 515.444 108.761 C 514.834 109.188, 514.274 114.421, 514.118 121.158 L 513.847 132.817 515.685 133.400 C 516.696 133.721, 518.981 134.153, 520.762 134.361 L 524 134.738 524 121.869 L 524 109 521.582 109 C 520.252 109, 518.564 108.780, 517.832 108.511 C 517.099 108.241, 516.025 108.354, 515.444 108.761 M 669.977 144.472 C 668.615 145.832, 665.278 148.016, 662.562 149.325 L 657.625 151.705 654.562 151.019 C 652.878 150.643, 648.350 150.671, 644.500 151.083 C 635.297 152.068, 613.317 152.065, 604.500 151.079 C 600.650 150.648, 596.565 150.638, 595.421 151.058 C 590.452 152.881, 525.462 154.330, 519.803 152.744 C 518.320 152.329, 515.055 149.966, 512.547 147.494 C 508.725 143.726, 505 141.723, 505 143.437 C 505 143.677, 507.443 146.264, 510.428 149.187 L 515.856 154.500 516.134 170 L 516.412 185.500 512.206 189.594 C 509.893 191.846, 508 193.983, 508 194.344 C 508 196.044, 510.758 194.704, 513.085 191.874 L 515.669 188.730 527.585 188.513 C 534.138 188.394, 545.800 187.984, 553.500 187.600 C 570.438 186.757, 615.985 185.694, 640 185.582 L 657.500 185.500 663.420 190.750 C 666.677 193.637, 669.977 196, 670.754 196 C 673.002 196, 671.914 194.625, 665.391 189.222 L 659.281 184.161 659.465 168.872 L 659.649 153.583 663.955 151.415 C 668.484 149.135, 674 144.467, 674 142.915 C 674 141.343, 672.550 141.904, 669.977 144.472 M 576.500 154.763 C 565.500 155.601, 549.653 156.243, 541.284 156.189 L 526.068 156.092 526.671 159.106 C 527.027 160.887, 526.707 163.185, 525.887 164.723 L 524.500 167.327 525.750 167.747 C 527.568 168.357, 527.280 170.743, 525.250 171.883 L 523.500 172.865 525.202 175.757 C 527.209 179.164, 526.585 182.680, 523.817 183.558 C 521.214 184.384, 520.041 183.116, 522.258 181.875 C 524.151 180.816, 524.609 177.494, 523 176.500 C 521.626 175.651, 521.732 170, 523.122 170 L 524.245 170 523.004 168.505 L 521.763 167.010 523.454 164.431 L 525.144 161.851 524.154 159.011 C 523.609 157.448, 523.427 155.907, 523.748 155.585 C 524.070 155.263, 523.164 155, 521.734 155 C 518.327 155, 518.092 156.089, 518.397 170.500 C 518.766 187.938, 517.730 186.981, 535 185.839 C 541.875 185.385, 562.575 184.796, 581 184.532 C 599.425 184.267, 618.808 183.527, 624.074 182.887 C 629.339 182.247, 636.314 182.037, 639.574 182.421 C 642.833 182.805, 647.975 183.204, 651 183.309 L 656.500 183.500 656.726 180.500 C 656.851 178.850, 656.996 172.372, 657.050 166.105 L 657.148 154.709 655.824 153.814 C 655.096 153.322, 651.125 153.178, 647 153.495 C 636.054 154.337, 612.658 154.522, 604 153.835 C 599.875 153.508, 587.500 153.925, 576.500 154.763 M 647.305 156.647 C 646.957 157.554, 647.131 159.509, 647.692 160.994 L 648.710 163.693 647.105 164.749 L 645.500 165.805 647.128 167.495 L 648.756 169.185 647.672 172.717 L 646.588 176.249 649.427 178.691 L 652.267 181.133 653.383 179.942 L 654.500 178.750 653.232 178.286 C 652.535 178.030, 651.268 177.126, 650.418 176.275 L 648.871 174.729 649.936 173.664 C 651.350 172.250, 651.304 167, 649.878 167 C 649.112 167, 649.158 166.514, 650.025 165.470 L 651.294 163.941 650.147 161.423 C 648.616 158.064, 648.701 157, 650.500 157 C 651.325 157, 652 156.550, 652 156 C 652 154.330, 647.982 154.884, 647.305 156.647 M 625.457 160.703 C 625.590 163.341, 625.766 166.602, 625.849 167.950 L 626 170.400 627.054 169.346 C 628.436 167.964, 627.839 156.770, 626.358 156.282 C 625.587 156.028, 625.294 157.465, 625.457 160.703 M 608.905 158.324 L 607.310 159.500 606.771 168.164 L 606.232 176.827 607.866 177.248 C 610.351 177.888, 617 176.900, 617 175.891 C 617 175.401, 615.200 175, 613 175 L 609 175 609 171.393 L 609 167.786 610.500 168.362 C 612.238 169.029, 615 168.168, 615 166.959 C 615 166.505, 613.763 165.990, 612.250 165.816 L 609.500 165.500 609.500 163 L 609.500 160.500 613.283 160 C 615.364 159.725, 617.164 159.110, 617.283 158.634 C 617.624 157.273, 610.679 157.016, 608.905 158.324 M 555.655 159.829 C 553.161 162.585, 553.685 167.010, 557.028 171.428 C 561.287 177.057, 560.731 181.532, 556.081 179.044 C 554.859 178.389, 553.900 178.353, 553.533 178.947 C 552.872 180.016, 556.043 182, 558.411 182 C 559.260 182, 560.669 180.909, 561.542 179.576 L 563.130 177.152 561.448 173.826 C 560.523 171.997, 558.864 169.512, 557.761 168.305 L 555.755 166.111 556.397 163.555 C 557.096 160.770, 558.945 160.324, 561.968 162.212 C 564.880 164.031, 565.855 162.116, 563.139 159.914 C 560.174 157.510, 557.778 157.482, 555.655 159.829 M 592.871 160.750 C 592.800 162.262, 592.592 166.731, 592.410 170.679 L 592.078 177.858 595.017 178.504 C 598.270 179.218, 602 178.379, 602 176.933 C 602 176.420, 600.425 176, 598.500 176 L 595 176 595 167 C 595 158.880, 593.206 153.615, 592.871 160.750 M 573.588 168.497 C 570.965 173.170, 568.410 177.247, 567.910 177.556 C 566.352 178.519, 566.913 180.163, 568.683 179.822 C 569.609 179.644, 571.298 177.699, 572.436 175.499 L 574.505 171.500 577.239 171.185 L 579.973 170.870 581.194 175.435 C 581.906 178.099, 582.998 180, 583.814 180 C 584.584 180, 585.005 179.438, 584.749 178.750 C 584.049 176.866, 582.112 167.995, 581.473 163.750 C 580.620 158.078, 578.833 159.154, 573.588 168.497 M 577.528 165.912 C 576.695 168.538, 577.566 169.834, 579.120 168.280 C 579.853 167.547, 579.886 166.620, 579.223 165.433 L 578.238 163.674 577.528 165.912 M 625.250 172.667 C 623.457 173.384, 623.707 176.950, 625.601 177.677 C 627.358 178.352, 629.141 176.316, 628.749 174.083 C 628.468 172.481, 627.099 171.927, 625.250 172.667 M 485.240 179.326 L 482.981 180.581 484.083 181.683 L 485.185 182.785 484.057 184.893 C 482.764 187.310, 484.141 187.740, 486 185.500 C 486.685 184.675, 487.849 184, 488.587 184 C 490.217 184, 492.330 180.342, 491.487 178.979 C 490.668 177.654, 487.982 177.803, 485.240 179.326 M 476.041 183.044 C 474.139 184.105, 472.228 185.091, 471.795 185.236 C 471.362 185.381, 470.827 187.381, 470.606 189.680 L 470.203 193.860 471.852 193.148 C 478.643 190.211, 482.855 185.670, 481.664 182.567 C 480.911 180.605, 480.326 180.654, 476.041 183.044 M 482.882 189.953 C 479.243 191.904, 475.643 194.007, 474.882 194.628 C 474.122 195.248, 472.375 196.085, 471 196.487 C 469.625 196.890, 464 199.398, 458.500 202.061 C 449.713 206.316, 443.812 208.925, 440.500 210.019 C 439.262 210.429, 428.131 215.731, 425.764 217.040 C 424.809 217.568, 423.465 218, 422.778 218 C 422.091 218, 419.272 219.105, 416.514 220.455 C 413.756 221.806, 408.575 224.289, 405 225.975 C 395.370 230.515, 386.700 235.208, 383.247 237.750 C 381.566 238.988, 379.848 240, 379.428 240 C 378.126 240, 356.668 251.129, 353.500 253.447 C 351.850 254.655, 348.025 257.003, 345 258.665 C 331.560 266.050, 314 277.104, 314 278.180 C 314 278.631, 313.357 279, 312.572 279 C 311.231 279, 299.089 285.713, 298 287.055 C 297.725 287.395, 294.505 289.336, 290.845 291.369 C 287.185 293.402, 283.614 295.760, 282.910 296.609 C 282.205 297.457, 278.379 299.936, 274.406 302.116 C 270.434 304.296, 266.931 306.737, 266.623 307.540 C 266.315 308.343, 265.408 309, 264.608 309 C 263.808 309, 261.150 310.529, 258.702 312.398 C 256.254 314.267, 253.294 316.307, 252.125 316.933 C 250.852 317.614, 250 319.046, 250 320.504 L 250 322.937 251.750 322.299 C 252.713 321.948, 255.975 320.069, 259 318.124 C 262.025 316.179, 266.075 313.740, 268 312.704 C 269.925 311.668, 273.075 309.789, 275 308.529 C 287.888 300.092, 296.916 294.337, 299.500 292.910 C 301.150 291.999, 304.882 289.847, 307.794 288.127 C 310.706 286.407, 313.323 285, 313.611 285 C 313.898 285, 315.566 283.921, 317.317 282.602 C 322.133 278.974, 351.300 264.330, 361.500 260.418 C 366.450 258.519, 373.650 255.425, 377.500 253.541 C 381.350 251.658, 386.975 249.157, 390 247.983 C 393.025 246.809, 400.450 243.467, 406.500 240.557 C 412.550 237.647, 420.425 233.981, 424 232.411 C 427.575 230.840, 432.750 228.188, 435.500 226.516 C 438.250 224.844, 442.300 222.858, 444.500 222.101 C 451.476 219.703, 462.806 214.194, 464.739 212.261 C 466.988 210.012, 480.313 203, 482.337 203 C 483.130 203, 484.740 202.213, 485.915 201.250 L 488.051 199.500 489.067 193.125 C 490.301 185.386, 490.864 185.675, 482.882 189.953 M 461.074 190.617 L 456.647 192.965 456.285 196.847 L 455.924 200.729 461.712 197.817 C 467.698 194.804, 469.767 191.675, 467.376 189.250 C 466.698 188.563, 465.998 188.060, 465.821 188.134 C 465.645 188.208, 463.508 189.325, 461.074 190.617 M 447.973 196.668 C 446.613 197.586, 445.440 198.374, 445.367 198.418 C 445.294 198.463, 444.920 199.963, 444.537 201.750 L 443.841 205 445.387 205 C 447.740 205, 454.002 201.771, 453.986 200.565 C 453.918 195.259, 451.951 193.984, 447.973 196.668 M 433 204.512 L 425.500 208.845 425.399 211.443 L 425.298 214.040 427.399 213.390 C 428.554 213.032, 432.087 211.441, 435.250 209.855 L 441 206.971 441 203.486 C 441 201.569, 440.887 200.040, 440.750 200.089 C 440.613 200.138, 437.125 202.128, 433 204.512 M 480.500 206.314 C 472.634 209.829, 467.476 212.721, 466.084 214.399 C 464.687 216.082, 456.952 219.873, 447.500 223.507 C 444.200 224.776, 438.410 227.625, 434.634 229.838 C 430.858 232.051, 425.233 234.839, 422.134 236.033 C 419.035 237.227, 411.100 240.826, 404.500 244.031 C 397.900 247.236, 390.700 250.433, 388.500 251.136 C 386.300 251.839, 383.825 252.951, 383 253.607 C 382.175 254.264, 378.575 255.999, 375 257.463 C 371.425 258.927, 367.082 260.772, 365.349 261.562 C 363.616 262.353, 361.661 263, 361.006 263 C 360.350 263, 356.143 264.864, 351.657 267.142 C 347.171 269.420, 339 273.536, 333.500 276.288 C 328 279.041, 322.375 282.075, 321 283.031 C 318.369 284.861, 312.209 288.423, 302.943 293.472 C 299.886 295.137, 291.062 300.700, 283.333 305.833 L 269.281 315.166 268.566 330.787 C 268.173 339.379, 267.423 347.210, 266.899 348.189 C 266.344 349.227, 266 363.430, 266.076 382.235 C 266.148 399.981, 265.878 417.751, 265.477 421.723 L 264.747 428.947 278.123 428.335 C 285.481 427.998, 291.640 427.608, 291.810 427.468 C 293.748 425.876, 294.359 369.007, 292.745 340.500 C 292.621 338.300, 292.884 333.913, 293.331 330.750 L 294.144 325 292.572 325 C 291.707 325, 291 324.438, 291 323.750 L 291 322.500 302.250 322.671 C 308.438 322.765, 320.112 322.198, 328.193 321.410 L 342.886 319.978 352.193 321.001 C 358.342 321.677, 372.187 321.720, 393 321.127 C 410.325 320.634, 424.725 320.358, 425 320.514 C 425.275 320.671, 431.125 321.074, 438 321.410 C 444.875 321.746, 455.563 322.296, 461.750 322.631 L 473 323.240 473 321.808 C 473 321.020, 471.654 319.381, 470.008 318.164 C 468.363 316.948, 466.052 314.050, 464.874 311.726 C 463.695 309.402, 462.407 307.275, 462.010 307 C 461.613 306.725, 460.862 304.700, 460.340 302.500 L 459.391 298.500 461.196 293.514 C 462.188 290.772, 463 287.728, 463 286.751 C 463 285.773, 463.431 284.191, 463.957 283.236 C 464.484 282.281, 465.641 278.350, 466.527 274.500 C 469.742 260.547, 470.717 257.287, 477.143 239 C 480.958 228.143, 487.095 209.174, 487.738 206.250 C 488.365 203.400, 486.995 203.412, 480.500 206.314 M 490.921 206.079 C 489.865 207.135, 489 208.676, 489 209.503 C 489 211.315, 483.850 227.610, 479.994 238 C 477.061 245.903, 473.106 258.784, 472.317 263 C 472.060 264.375, 471.485 266.400, 471.039 267.500 C 470.593 268.600, 469.754 271.300, 469.174 273.500 C 468.594 275.700, 467.418 279.835, 466.560 282.688 C 465.702 285.541, 465 288.777, 465 289.879 C 465 290.981, 464.550 292.160, 464 292.500 C 458.699 295.776, 464.558 297.012, 485.584 297.052 C 506.067 297.092, 504.090 297.963, 505.657 288.207 C 506.339 283.968, 507.596 276.450, 508.451 271.500 C 512.255 249.491, 513.188 243.699, 514.976 231 C 516.021 223.575, 517.370 214.853, 517.973 211.618 C 519.329 204.339, 520.612 205.069, 505.585 204.575 L 492.843 204.157 490.921 206.079 M 560.755 205.805 L 556.011 206.109 555.548 208.305 C 554.587 212.862, 552.995 227.851, 552.499 237 C 552.216 242.225, 551.431 253.250, 550.754 261.500 C 550.076 269.750, 549.517 280.917, 549.511 286.316 L 549.500 296.131 560 296.604 C 565.775 296.865, 574.733 297.343, 579.908 297.669 L 589.315 298.260 588.669 289.854 C 588.314 285.231, 587.736 264.810, 587.386 244.474 C 587.036 224.138, 586.636 207.368, 586.498 207.207 C 586.003 206.629, 565.401 205.506, 560.755 205.805 M 657.011 206 C 656.575 206.275, 656.982 208.975, 657.916 212 C 658.850 215.025, 660.179 221.550, 660.870 226.500 C 662.052 234.965, 664.130 244.327, 666.088 250 C 666.562 251.375, 667.379 255.268, 667.904 258.652 C 668.428 262.035, 670.689 271.189, 672.929 278.994 C 675.168 286.798, 677.007 293.705, 677.015 294.342 C 677.024 294.979, 677.399 296.081, 677.849 296.790 L 678.668 298.080 697.834 298.636 C 708.375 298.941, 717 298.920, 717 298.588 C 717 298.257, 715.887 295.851, 714.527 293.243 C 711.086 286.643, 705.322 271.302, 704.480 266.500 C 702.059 252.704, 694.483 229.825, 688.391 217.914 C 685.976 213.192, 684 208.675, 684 207.878 C 684 207.081, 683.212 206.368, 682.250 206.294 C 675.826 205.801, 657.663 205.589, 657.011 206 M 519.183 217.314 C 518.020 223.466, 516.344 234.350, 515.461 241.500 C 514.577 248.650, 513.472 255.850, 513.006 257.500 C 512.200 260.350, 508.243 284.259, 507.254 292.250 L 506.790 296 526.787 296 L 546.785 296 546.904 290.250 C 546.970 287.087, 547.238 282.025, 547.501 279 C 548.909 262.762, 550.090 244.940, 550.583 232.500 C 550.888 224.800, 551.395 217.825, 551.711 217 C 552.027 216.175, 552.586 213.396, 552.953 210.825 L 553.622 206.150 537.461 206.139 L 521.299 206.127 519.183 217.314 M 590.584 206.837 L 588.857 207.174 589.438 245.337 C 589.757 266.327, 590.526 286.762, 591.147 290.750 L 592.274 298 594.887 298.110 C 596.324 298.171, 605.510 298.291, 615.300 298.378 L 633.100 298.535 632.583 296.476 C 632.299 295.343, 631.773 291.735, 631.414 288.458 C 631.056 285.181, 629.691 278.288, 628.381 273.141 L 626 263.781 625.966 251.641 C 625.948 244.963, 625.442 234.775, 624.841 229 C 624.241 223.225, 623.658 216.139, 623.546 213.254 C 623.433 210.369, 623.124 207.791, 622.859 207.526 C 622.295 206.962, 593.131 206.340, 590.584 206.837 M 632.287 206.739 L 626.073 207.094 625.444 210.445 C 625.099 212.288, 625.302 216.204, 625.896 219.148 C 626.490 222.092, 627.198 231.025, 627.468 239 C 628.136 258.677, 628.923 267.571, 630.521 273.500 C 631.261 276.250, 632.541 282.707, 633.365 287.848 C 635.152 299.002, 643.678 302.293, 661.804 298.823 C 664.387 298.328, 668.683 298.214, 671.352 298.570 L 676.203 299.216 675.639 297.358 C 675.328 296.336, 674.656 293.700, 674.145 291.500 C 673.634 289.300, 672.442 284.800, 671.496 281.500 C 670.551 278.200, 668.911 271.675, 667.852 267 C 666.793 262.325, 664.623 253.325, 663.030 247 C 661.437 240.675, 659.592 231.675, 658.930 227 C 658.269 222.325, 656.871 215.688, 655.824 212.250 L 653.920 206 646.210 206.193 C 641.969 206.299, 635.704 206.545, 632.287 206.739 M 417.126 212.999 C 414.170 214.628, 411.133 216.475, 410.376 217.103 L 409 218.245 409 217.063 C 409 216.414, 408.522 216.177, 407.938 216.538 C 406.740 217.279, 404.727 222.060, 405.350 222.683 C 406.114 223.447, 416.981 217.778, 416.438 216.899 C 416.140 216.417, 416.574 216.283, 417.402 216.601 C 419.510 217.410, 422.477 214.936, 422.620 212.250 C 422.686 211.012, 422.686 210.008, 422.620 210.018 C 422.554 210.028, 420.082 211.369, 417.126 212.999 M 393.325 224.305 C 387.438 227.746, 384.002 231.335, 385.326 232.659 C 385.536 232.869, 394.226 228.676, 400.065 225.546 C 402.071 224.471, 403.339 219.969, 401.611 220.055 C 401 220.086, 397.271 221.998, 393.325 224.305 M 375.500 233.981 C 367.884 238.962, 367 239.750, 367 241.556 L 367 243.034 371.750 240.655 C 374.363 239.347, 378.121 237.519, 380.103 236.594 L 383.706 234.912 383.236 232.456 C 382.637 229.320, 382.623 229.322, 375.500 233.981 M 358 242.962 C 354.975 244.566, 351.712 246.116, 350.750 246.408 L 349 246.937 349 250.558 L 349 254.178 351.797 251.839 C 353.335 250.553, 356.918 248.375, 359.758 247 L 364.922 244.500 364.961 242.250 C 365.010 239.398, 364.654 239.435, 358 242.962 M 345.112 250.365 C 344.467 251.142, 342.041 252.280, 339.720 252.893 C 333.679 254.490, 332.189 255.926, 332.732 259.627 L 333.188 262.736 339.544 259.118 L 345.899 255.500 346.545 252.678 C 347.310 249.332, 346.737 248.407, 345.112 250.365 M 322.509 263.069 C 319.213 265.791, 315.726 268.270, 314.759 268.577 C 313.618 268.939, 313 270.145, 313 272.009 L 313 274.884 316.750 272.657 C 318.813 271.433, 322.885 268.903, 325.799 267.035 L 331.098 263.640 330.799 261.147 C 330.346 257.370, 329.040 257.673, 322.509 263.069 M 307 273.961 C 305.625 274.958, 301.575 277.320, 298 279.210 L 291.500 282.645 292 285.471 L 292.500 288.296 295.500 285.898 C 297.150 284.579, 300.092 282.693, 302.038 281.707 C 307.716 278.829, 310.915 275.725, 310.163 273.824 L 309.500 272.148 307 273.961 M 281.101 288.710 L 274 293.413 274 296.206 C 274 299.739, 275.100 299.724, 279.215 296.135 C 281.022 294.559, 284.373 292.319, 286.663 291.159 L 290.825 289.048 290.292 287.009 C 289.411 283.639, 288.505 283.807, 281.101 288.710 M 267.732 297.536 C 265.679 298.931, 264 300.476, 264 300.969 C 264 301.462, 263.100 302.151, 262 302.500 C 260.692 302.915, 260 304.013, 260 305.674 C 260 308.715, 260.950 308.475, 267.317 303.828 L 271.876 300.500 271.938 297.750 C 272.013 294.423, 272.292 294.437, 267.732 297.536 M 462 299.195 C 462 301.280, 466.981 311.137, 469.403 313.845 C 472.725 317.560, 476.455 319, 482.754 319 L 488.608 319 491.647 315.750 C 495.236 311.912, 500.541 304.023, 501.443 301.180 L 502.080 299.172 484.537 299.105 C 474.889 299.067, 465.871 298.755, 464.497 298.410 L 462 297.783 462 299.195 M 506.750 298.679 C 504.540 299.270, 504.542 300.797, 506.755 304.116 C 515.212 316.793, 514.660 316.280, 521.784 318.069 L 527.068 319.396 533.467 316.240 L 539.866 313.085 542.351 308.792 C 543.718 306.432, 544.986 303.150, 545.168 301.500 L 545.500 298.500 527 298.355 C 516.825 298.276, 507.712 298.421, 506.750 298.679 M 550.219 298.660 L 547.937 299.147 548.604 302.824 C 550.352 312.462, 554.456 316.765, 562.726 317.629 L 568.801 318.264 575.806 316.548 C 584.500 314.417, 587.107 311.937, 587.757 305.181 L 588.226 300.297 575.863 299.621 C 569.063 299.250, 561.025 298.772, 558 298.560 C 554.975 298.347, 551.473 298.392, 550.219 298.660 M 590.807 304.225 L 590.442 308.050 592.971 310.460 C 594.362 311.785, 598.287 314.249, 601.694 315.935 L 607.888 319 613.584 319 C 617.486 319, 620.706 318.291, 623.802 316.750 L 628.323 314.500 630.662 309.221 C 634.736 300.023, 634.455 299.917, 606.836 300.226 L 591.172 300.401 590.807 304.225 M 636 301.546 C 636 304.705, 640.189 312.763, 642.855 314.735 C 654.403 323.273, 677.003 315.893, 676.999 303.586 L 676.998 300.500 669.749 300.721 C 650.103 301.322, 641.257 301.306, 638.750 300.665 L 636 299.962 636 301.546 M 679.555 302.203 C 680.715 305.908, 685.656 312.550, 690.050 316.311 L 694.127 319.801 699.580 319.472 C 707.882 318.971, 719 309.644, 719 303.181 L 719 301.081 716.250 301.164 C 714.737 301.210, 705.700 300.946, 696.168 300.577 L 678.835 299.906 679.555 302.203 M 499.142 309.750 C 496.980 312.913, 493.782 316.850, 492.037 318.500 L 488.863 321.500 482.016 321.496 L 475.169 321.492 475.672 327.996 C 476.423 337.707, 476.423 338.156, 475.665 384.179 L 474.963 426.859 476.046 427.528 C 477.716 428.561, 492.328 429.349, 496.228 428.617 L 499.702 427.965 499.601 416.733 C 499.518 407.447, 500.939 336.299, 501.372 328.069 L 501.500 325.638 541.500 325.526 C 563.500 325.464, 585.325 325.658, 590 325.957 L 598.500 326.500 598.341 329 C 598.253 330.375, 597.858 353.486, 597.461 380.359 L 596.741 429.217 598.620 428.668 C 599.654 428.366, 605.539 427.980, 611.699 427.809 L 622.897 427.500 623.207 385.500 C 623.606 331.611, 619.252 337.365, 658.904 338.321 L 666.308 338.500 666.150 364.500 C 666.064 378.800, 666.530 399.637, 667.185 410.804 L 668.377 431.109 678.938 430.508 C 684.747 430.178, 690.923 429.691, 692.661 429.425 L 695.823 428.943 694.782 425.221 C 693.826 421.802, 694.328 370.562, 695.412 361 C 695.942 356.321, 696.341 322.971, 695.870 322.674 C 695.667 322.546, 693.819 321.677, 691.765 320.744 C 689.441 319.688, 686.380 316.805, 683.662 313.113 L 679.294 307.179 675.555 312.186 C 673.056 315.533, 670.293 317.868, 667.220 319.227 L 662.623 321.260 655.299 320.706 C 645.848 319.991, 641.293 317.718, 637.431 311.788 L 634.362 307.076 632.228 311.468 L 630.094 315.861 625.297 318.680 L 620.500 321.500 613.764 321.266 L 607.028 321.033 600.764 318.158 C 597.319 316.577, 593.442 314.130, 592.150 312.721 L 589.800 310.158 586.905 313.456 C 577.328 324.363, 553.889 322.585, 548.407 310.536 C 547.146 307.766, 546.089 306.272, 546.058 307.215 C 545.959 310.145, 540.252 315.647, 534.471 318.384 C 528.192 321.356, 526.679 321.492, 519.167 319.750 L 513.776 318.500 508.763 311.250 C 502.780 302.597, 503.913 302.773, 499.142 309.750 M 252.250 306.839 L 248 308.438 248 312.219 C 248 316.363, 248.207 316.599, 250.214 314.750 C 250.961 314.063, 252.905 312.811, 254.536 311.968 C 256.523 310.942, 257.604 309.541, 257.816 307.718 C 258.173 304.652, 258.097 304.640, 252.250 306.839 M 325 324.154 C 320.325 324.631, 311.953 325.005, 306.395 324.987 L 296.290 324.953 295.645 331.123 C 295.290 334.517, 295.026 339.815, 295.059 342.897 L 295.118 348.500 296.309 346.566 C 302.835 335.968, 308.045 333.608, 323.313 334.336 L 334.500 334.870 339.501 336.965 C 353.778 342.946, 351.485 355.854, 334.946 362.616 L 328.500 365.252 319.756 365.764 L 311.013 366.277 306.629 364.602 C 301.388 362.601, 298.896 360.061, 297.355 355.150 L 296.210 351.500 296.105 361.704 L 296 371.907 315.250 371.540 C 325.837 371.338, 341.586 370.839, 350.246 370.431 L 365.992 369.690 365.399 356.595 C 365.073 349.393, 364.402 341.925, 363.908 340 C 363.413 338.075, 363.287 333.758, 363.626 330.408 L 364.244 324.315 355.872 323.664 C 345.610 322.865, 336.174 323.015, 325 324.154 M 373.843 323.739 L 367.186 324.087 366.514 329.878 C 366.145 333.063, 366.314 339.231, 366.890 343.584 C 367.466 347.938, 368.214 355.393, 368.550 360.151 L 369.163 368.803 379.082 368.826 L 389 368.850 389.015 363.675 C 389.024 360.829, 389.389 357.935, 389.827 357.245 L 390.624 355.990 411.062 356.116 C 422.303 356.185, 432.683 355.927, 434.130 355.543 L 436.759 354.844 437.395 349.172 C 437.744 346.052, 437.982 339.172, 437.923 333.883 L 437.816 324.266 431.761 323.633 C 425.740 323.003, 386.552 323.076, 373.843 323.739 M 440.855 327.750 C 440.775 329.262, 440.814 331.998, 440.942 333.829 C 441.070 335.660, 440.623 342.760, 439.950 349.608 C 439.277 356.456, 438.904 362.238, 439.122 362.456 C 440.224 363.558, 447 360.358, 447 358.735 C 447 348.291, 457.720 337.878, 470.117 336.281 L 473.734 335.815 473.222 331.158 C 472.544 324.976, 472.704 325.033, 455.750 325.015 L 441 325 440.855 327.750 M 563.597 327.737 C 563.467 327.867, 550.004 328.037, 533.680 328.115 L 504 328.257 503.773 344.878 C 503.648 354.020, 503.511 364.875, 503.469 369 C 503.426 373.125, 503.190 382.350, 502.945 389.500 L 502.500 402.500 509.750 402.794 L 517 403.088 517.058 399.794 C 517.091 397.982, 517.066 391.632, 517.003 385.682 C 516.941 379.731, 517.202 370.601, 517.585 365.392 L 518.280 355.921 520.233 354.875 C 521.500 354.197, 535.082 353.861, 558.844 353.919 L 595.500 354.008 595.500 341.107 L 595.500 328.205 592 328.484 C 590.075 328.638, 582.950 328.479, 576.167 328.132 C 569.383 327.784, 563.727 327.606, 563.597 327.737 M 310.169 337.003 C 306.167 337.937, 301.333 342.319, 299.501 346.674 L 298.166 349.847 299.346 353.843 C 304.009 369.637, 346.333 364.309, 346.333 347.929 C 346.333 339.894, 325.170 333.500, 310.169 337.003 M 466.141 340.022 C 463.743 341.110, 461.268 342.002, 460.641 342.005 C 456.694 342.021, 448.795 355.418, 450.348 359.464 C 451.019 361.213, 449.520 362.411, 444.725 363.956 C 431.313 368.276, 427.780 384.713, 438.857 391.256 L 441.756 392.969 457.412 392.913 L 473.067 392.857 472.899 381.178 C 472.807 374.755, 473.077 362.413, 473.500 353.750 L 474.268 338 472.384 338.022 C 471.348 338.034, 468.538 338.934, 466.141 340.022 M 701.369 338.753 L 699.238 339.108 698.511 355.804 C 698.112 364.987, 697.481 376.714, 697.110 381.865 C 696.335 392.609, 695.764 391.935, 706.058 392.411 C 710.151 392.600, 717.417 393.100, 722.205 393.523 L 730.909 394.291 734.455 390.745 L 738 387.200 737.994 381.850 C 737.986 373.785, 736.423 369.497, 732.215 366.001 L 728.500 362.913 724.500 363.163 L 720.500 363.413 720.675 361.487 C 721.206 355.658, 717.344 343.765, 714.553 342.637 C 707.133 339.637, 703.133 338.459, 701.369 338.753 M 332.619 339.807 C 332.334 340.268, 331.652 343.429, 331.105 346.831 C 330.557 350.232, 329.852 353.431, 329.538 353.938 C 329.224 354.446, 329.402 355.131, 329.934 355.459 C 330.465 355.787, 331.408 355.106, 332.029 353.945 L 333.159 351.835 334.356 353.472 C 336.285 356.111, 338.695 354.314, 339.430 349.688 C 339.796 347.385, 340.348 344.488, 340.656 343.250 L 341.217 341 339.680 341 L 338.144 341 337.429 346.722 L 336.714 352.445 335.354 347.131 C 334.606 344.209, 334.228 341.440, 334.514 340.978 C 334.799 340.516, 334.606 339.875, 334.085 339.553 C 333.564 339.231, 332.905 339.345, 332.619 339.807 M 632.704 340.807 L 627.907 341.113 627 343.501 C 626.500 344.814, 625.959 364.353, 625.796 386.920 L 625.500 427.951 628.280 428.562 C 629.809 428.897, 637.234 429.317, 644.780 429.493 C 652.326 429.670, 660.029 430.150, 661.898 430.562 L 665.296 431.309 664.501 416.905 C 664.063 408.982, 663.645 388.911, 663.571 372.302 C 663.497 355.693, 663.170 341.837, 662.844 341.510 C 662.180 340.847, 640.131 340.332, 632.704 340.807 M 306.298 342.750 C 305.947 343.712, 304.836 345.573, 303.830 346.885 C 300.261 351.536, 302.360 357.973, 306.969 356.510 C 309.216 355.797, 313 349.272, 313 346.111 C 313 341.991, 307.570 339.267, 306.298 342.750 M 314.648 346.250 C 313.508 355.741, 314.883 360.770, 316.402 352.668 C 316.746 350.836, 318.192 348.324, 319.615 347.087 L 322.203 344.836 321.494 349.168 C 321.104 351.551, 320.721 353.725, 320.642 354 C 320.435 354.729, 321.615 355, 325 355 C 326.650 355, 328 354.550, 328 354 C 328 353.450, 326.889 353, 325.531 353 L 323.063 353 323.638 351.500 C 323.955 350.675, 324.841 350, 325.607 350 C 326.373 350, 327 349.550, 327 349 C 327 348.450, 326.292 348, 325.427 348 C 322.980 348, 324.185 344.548, 326.760 344.180 C 330.322 343.672, 329.355 342, 325.500 342 C 323.383 342, 321.988 342.494, 321.970 343.250 C 321.953 343.944, 321.486 343.721, 320.920 342.750 C 320.359 341.788, 318.861 341, 317.590 341 L 315.279 341 314.648 346.250 M 306.750 347.234 C 304.053 350.027, 303.168 353.368, 304.849 354.407 C 306.443 355.392, 310.129 349.975, 309.808 347.119 L 309.500 344.387 306.750 347.234 M 642.500 348.861 C 637.203 352.132, 632 361.827, 632 368.424 L 632 370.773 634.750 371.144 C 636.263 371.349, 642.112 371.358, 647.750 371.164 L 658 370.813 658 365.342 C 658 352.360, 650.223 344.090, 642.500 348.861 M 642.640 352.069 L 640.010 354.137 642.899 356.569 L 645.789 359 649.112 355.896 L 652.435 352.791 650.526 351.396 C 647.884 349.463, 645.717 349.648, 642.640 352.069 M 522.865 356.775 C 520.788 357.191, 520 361.164, 520 371.219 L 520 379.188 525.250 378.481 C 531.565 377.630, 530.997 378.097, 531.418 373.406 C 531.874 368.327, 533.346 367.590, 541.326 368.444 L 548 369.159 548.004 373.330 L 548.008 377.500 554.254 377.500 L 560.500 377.500 560.808 374.835 C 561.252 371.001, 571.335 369.663, 584 371.756 L 588.500 372.500 588.821 375.848 L 589.141 379.196 591.321 378.612 C 592.519 378.290, 593.794 378.021, 594.153 378.014 C 594.512 378.006, 594.833 373.710, 594.865 368.467 C 594.897 363.224, 595.192 358.499, 595.521 357.967 C 595.892 357.366, 591.642 356.978, 584.309 356.941 C 577.814 356.909, 561.700 356.785, 548.500 356.665 C 535.300 356.545, 523.764 356.594, 522.865 356.775 M 650.045 358.801 L 647 361.846 647 365.180 L 647 368.514 651.321 368.171 L 655.642 367.827 654.895 362.321 C 653.943 355.306, 653.710 355.137, 650.045 358.801 M 636.461 361.462 C 635.524 363.917, 635.027 366.628, 635.357 367.488 L 635.957 369.051 639.977 368.776 L 643.997 368.500 643.999 364.924 C 644 362.478, 643.269 360.662, 641.686 359.174 C 638.581 356.257, 638.423 356.327, 636.461 361.462 M 391.388 370 C 391.741 376.325, 392.055 392.396, 392.087 405.714 L 392.146 429.929 402.630 429.398 C 408.397 429.105, 417.137 429.355, 422.054 429.953 C 426.970 430.551, 432.119 430.757, 433.496 430.412 L 436 429.783 436 411.383 L 436 392.983 433 388.841 L 430 384.700 430 379.300 C 430 373.546, 431.492 369.674, 434.898 366.593 C 436.171 365.440, 437 363.470, 437 361.595 L 437 358.500 413.874 358.500 L 390.748 358.500 391.388 370 M 414.667 367.667 C 414.300 368.033, 414 370.058, 414 372.167 C 414 376.480, 412.542 377.297, 411.593 373.515 C 410.440 368.920, 402.735 368.936, 401.580 373.536 C 401.240 374.891, 400.295 376, 399.481 376 C 398.666 376, 398 376.675, 398 377.500 L 398 379 412.500 379 L 427 379 427 377.500 C 427 376.675, 426.663 375.999, 426.250 375.998 C 425.837 375.997, 425.381 374.332, 425.235 372.298 C 424.902 367.651, 417.796 364.537, 414.667 367.667 M 416.667 369.667 C 416.490 369.844, 416.543 371.341, 416.786 372.994 L 417.227 376 420.113 376 L 423 376 423 373.113 L 423 370.227 419.994 369.786 C 418.341 369.543, 416.844 369.490, 416.667 369.667 M 533.793 373.651 C 533.295 377.912, 534.168 378.375, 542.225 378.118 L 545.950 378 545.331 374.750 C 544.991 372.962, 544.649 371.409, 544.571 371.298 C 544.494 371.187, 542.130 370.871, 539.319 370.596 L 534.208 370.095 533.793 373.651 M 368.634 376.371 C 368.295 379.192, 368.013 383.413, 368.009 385.750 L 368 390 371.250 390.089 C 373.038 390.138, 376.687 390.102, 379.360 390.009 L 384.220 389.840 383.780 391.170 C 383.482 392.071, 381.050 392.594, 376.235 392.792 L 369.130 393.085 368.809 394.754 C 368.632 395.672, 368.650 398.128, 368.849 400.211 L 369.210 404 371.023 404 C 374.530 404, 376 405.194, 376 408.044 L 376 410.873 379.250 411.187 C 385.208 411.761, 382.598 413.496, 375.330 413.792 L 368.161 414.084 367.807 421.292 C 367.365 430.273, 366.293 429.442, 378.831 429.832 L 389.500 430.165 389.221 400.534 L 388.941 370.903 379.096 371.073 L 369.250 371.242 368.634 376.371 M 346.820 372.513 C 345.928 373.405, 338.074 373.777, 316.315 373.959 L 297.129 374.119 296.465 379.433 C 296.100 382.356, 295.933 390.992, 296.095 398.624 C 296.257 406.256, 296.045 416.165, 295.624 420.644 L 294.859 428.788 308.680 429.606 C 324.032 430.516, 327.883 430.519, 349.402 429.639 C 366.886 428.925, 364.953 429.951, 365.705 420.979 L 366.313 413.722 345.907 414.343 C 334.683 414.685, 319.988 415.259, 313.250 415.620 L 301 416.275 301 415.137 C 301 414.093, 303.686 413.527, 306.750 413.925 C 307.603 414.036, 308 412.518, 308 409.139 L 308 404.190 314.750 404.345 L 321.500 404.500 321.807 408.750 L 322.115 413 324.986 413 C 328.681 413, 331 410.640, 331 406.881 L 331 403.905 337.250 404.202 L 343.500 404.500 343.810 408.250 C 344.143 412.264, 345.037 412.697, 349.498 411.001 L 352.126 410.002 351.813 407.751 L 351.500 405.500 358.500 405 L 365.500 404.500 365.804 398.626 L 366.107 392.752 351.304 393.435 C 343.162 393.811, 331.325 394.535, 325 395.043 C 318.675 395.552, 310.200 395.975, 306.167 395.984 L 298.833 396 299.251 394.750 C 299.492 394.027, 300.909 393.627, 302.613 393.802 L 305.557 394.104 306.529 390.802 C 307.713 386.776, 311.400 384.752, 315.561 385.842 L 318.500 386.611 319.451 389.785 L 320.402 392.959 324.451 392.396 C 330.858 391.505, 330.877 391.485, 331.199 385.301 L 331.500 379.500 336.500 379.500 L 341.500 379.500 341.158 385.250 L 340.815 391 344.408 391 L 348 391 348.174 389.250 C 348.269 388.288, 348.382 385.250, 348.424 382.500 L 348.500 377.500 354 377.500 L 359.500 377.500 359.796 384.250 L 360.091 391 363.046 391 L 366 391 366 381.724 L 366 372.449 356.719 372.172 C 351.614 372.020, 347.160 372.174, 346.820 372.513 M 404 374 L 402.930 376 406.500 376 L 410.070 376 409 374 C 408.411 372.900, 407.286 372, 406.500 372 C 405.714 372, 404.589 372.900, 404 374 M 564.250 373.662 C 563.563 373.940, 563 375.069, 563 376.171 L 563 378.176 566.750 377.567 C 573.246 376.512, 579.026 376.626, 580.235 377.835 C 580.876 378.476, 582.435 379, 583.700 379 L 586 379 586 376.636 L 586 374.272 581.360 373.636 C 576.024 372.904, 566.090 372.920, 564.250 373.662 M 653.976 380.024 C 651.450 382.550, 651.477 384.477, 654.073 387.073 L 656.147 389.147 658.323 387.701 C 659.819 386.708, 660.500 385.235, 660.500 382.993 L 660.500 379.729 658.226 378.888 L 655.953 378.047 653.976 380.024 M 350.843 384.910 L 350.500 391.004 354.250 391.002 L 358 391 358 385.500 C 358 381.774, 357.597 379.996, 356.750 379.986 C 356.063 379.979, 354.530 379.712, 353.343 379.394 L 351.187 378.816 350.843 384.910 M 568.454 379.879 C 568.149 380.184, 559.034 380.497, 548.200 380.573 C 537.365 380.649, 526.587 381.041, 524.250 381.444 L 520 382.176 520 392.588 L 520 403 540.796 403 L 561.591 403 561.844 399.252 C 562.377 391.335, 572.308 390.927, 574.504 398.731 L 575.508 402.299 584.684 402.704 L 593.861 403.109 594.413 398.805 C 594.717 396.437, 594.860 391.497, 594.733 387.827 L 594.500 381.154 589.757 381.715 C 586.588 382.091, 583.601 381.739, 580.757 380.656 C 576.726 379.120, 569.659 378.674, 568.454 379.879 M 333.907 382.389 C 333.855 383, 333.672 385.438, 333.499 387.808 L 333.184 392.115 335.842 391.808 L 338.500 391.500 338.800 386.876 L 339.099 382.252 336.550 381.765 C 335.079 381.484, 333.961 381.748, 333.907 382.389 M 655.380 382.452 C 654.691 384.249, 655.808 386.237, 657.069 385.457 C 658.336 384.674, 658.253 381, 656.969 381 C 656.401 381, 655.686 381.653, 655.380 382.452 M 403.099 386.815 C 402.494 387.945, 402 389.997, 402 391.375 C 402 392.754, 401.438 394.246, 400.750 394.691 C 399.219 395.682, 413.230 396.673, 421.250 396.141 L 427 395.760 427 394.352 L 427 392.944 420.667 393.593 L 414.333 394.242 414.192 390.479 C 414.017 385.826, 414.069 385.875, 408.648 385.264 L 404.198 384.762 403.099 386.815 M 405.467 388.053 C 405.106 388.637, 404.691 390.214, 404.543 391.557 L 404.275 394 407.529 394 L 410.783 394 411.440 391.382 C 412.204 388.341, 412.296 388.472, 408.811 387.637 C 407.285 387.271, 405.839 387.451, 405.467 388.053 M 308.975 390.565 C 308.439 391.976, 308 393.248, 308 393.392 C 308 393.536, 309.350 393.455, 311 393.213 C 314.143 392.752, 314.827 391.227, 312.800 389.200 C 310.996 387.396, 310.052 387.732, 308.975 390.565 M 700.924 394.682 L 696.348 395.095 696.578 408.500 C 696.705 415.872, 697.116 423.726, 697.492 425.952 L 698.176 430 701.338 430.011 C 703.077 430.017, 706.182 430.300, 708.239 430.640 L 711.977 431.258 715.853 427.379 L 719.728 423.500 722.002 416 C 723.253 411.875, 724.889 406.803, 725.638 404.730 C 726.387 402.656, 727 400.127, 727 399.110 L 727 397.260 721.250 396.164 C 713.556 394.697, 706.477 394.180, 700.924 394.682 M 438.464 401.489 C 437.708 408.552, 438.432 428.765, 439.478 429.812 C 439.999 430.333, 452.062 428.255, 452.814 427.515 C 453.496 426.844, 447.417 419.074, 446.183 419.038 C 445.352 419.014, 445.086 418.303, 445.463 417.115 C 445.792 416.079, 445.148 412.912, 444.031 410.078 C 442.914 407.244, 442 403.454, 442 401.654 C 442 399.855, 441.371 397.523, 440.603 396.472 L 439.206 394.561 438.464 401.489 M 444 399.381 C 444 405.036, 448.100 415.873, 452.801 422.648 L 456.500 427.976 464.750 427.988 L 473 428 473 411.500 L 473 395 458.500 395 L 444 395 444 399.381 M 564.714 396.619 C 564.321 397.012, 564 398.608, 564 400.167 L 564 403 568.063 403 L 572.127 403 571.813 399.750 L 571.500 396.500 568.464 396.203 C 566.794 396.039, 565.107 396.227, 564.714 396.619 M 415.099 406.164 C 414.584 407.449, 413.892 409.349, 413.561 410.386 L 412.958 412.272 406.479 411.608 L 400 410.944 400 412.472 C 400 414.278, 399.142 414.193, 415.491 414.003 C 429.259 413.843, 430.527 413.590, 427.748 411.558 C 426.787 410.855, 425.993 409.654, 425.985 408.890 C 425.955 406.232, 424.354 404.991, 420.207 404.411 L 416.036 403.827 415.099 406.164 M 501.814 411 C 501.626 414.025, 501.868 419.030, 502.353 422.121 L 503.234 427.743 517.367 428.386 C 537.554 429.305, 582.504 429.409, 589.022 428.552 L 594.544 427.827 594.163 417.163 C 593.953 411.298, 593.578 406.285, 593.329 406.022 C 593.080 405.759, 572.465 405.534, 547.517 405.522 L 502.157 405.500 501.814 411 M 310 409.701 L 310 413 312.893 413 C 315.670 413, 317 411.551, 317 408.528 C 317 407.776, 315.509 407.045, 313.500 406.810 L 310 406.402 310 409.701 M 333 408.947 L 333 411.894 336.938 411.737 L 340.877 411.580 341.401 409.576 C 342.046 407.107, 340.496 406.035, 336.250 406.015 L 333 406 333 408.947 M 368.590 408.403 C 367.703 411.706, 367.836 411.871, 370.750 411.092 C 374.347 410.130, 374.901 407.405, 371.626 406.779 L 369.153 406.307 368.590 408.403 M 354 409.096 C 354 410.143, 354.337 411.039, 354.750 411.087 C 355.163 411.135, 357.863 411.354, 360.750 411.575 L 366 411.975 366 409.721 L 366 407.468 360 407.330 L 354 407.192 354 409.096 M 416.607 408.582 C 415.504 411.456, 415.964 412, 419.500 412 L 423 412 423 409.500 L 423 407 420.107 407 C 418.391 407, 416.967 407.644, 416.607 408.582 M 273.538 430.765 C 260.320 431.099, 260.021 431.248, 260.047 437.500 C 260.077 444.718, 263.262 446.187, 274.500 444.165 C 276.700 443.770, 281.200 443.829, 284.500 444.297 C 292.524 445.435, 339.708 445.243, 353.500 444.016 C 368.664 442.666, 449.340 441.726, 529 441.971 C 565.575 442.084, 616.650 442.075, 642.500 441.951 C 668.350 441.828, 697.150 441.739, 706.500 441.753 L 723.500 441.779 723.149 437.390 L 722.799 433 711.149 432.923 C 655.510 432.557, 628.921 432.014, 625.709 431.179 C 620.882 429.922, 597.769 430.893, 596.750 432.395 L 596 433.500 595.099 432.101 L 594.197 430.701 589.349 431.498 C 586.682 431.937, 583.375 432.299, 582 432.303 C 571.395 432.334, 478.994 430.828, 469.500 430.468 C 462.900 430.219, 453.900 430.515, 449.500 431.126 C 436.518 432.931, 301.735 432.539, 287 430.654 C 286.175 430.548, 280.117 430.598, 273.538 430.765" stroke="none" fill="#070706" fill-rule="evenodd"/><path d="M 658.149 28.151 L 656.363 28.801 656.190 35.651 C 656.095 39.418, 655.752 43.737, 655.429 45.250 L 654.841 48 660.298 48 L 665.755 48 666.239 39.250 C 666.505 34.438, 667.023 29.803, 667.391 28.950 L 668.060 27.400 663.997 27.450 C 661.762 27.478, 659.131 27.793, 658.149 28.151 M 637 86.875 L 637 99.750 640.125 100.375 C 641.844 100.719, 644.262 101, 645.498 101 L 647.747 101 647.859 93.750 C 647.920 89.763, 648.254 83.688, 648.602 80.250 L 649.233 74 643.116 74 L 637 74 637 86.875 M 651.519 76.250 C 651.234 77.487, 650.855 83.581, 650.677 89.792 L 650.354 101.084 656.672 100.792 L 662.989 100.500 662.995 93.128 L 663 85.755 661.250 87.110 L 659.500 88.466 661.128 86.483 C 662.023 85.392, 663.054 82.424, 663.418 79.887 L 664.081 75.275 660.291 74.648 C 653.627 73.547, 652.077 73.830, 651.519 76.250 M 576.750 76.716 L 574 77.133 573.998 91.316 L 573.996 105.500 579.998 105.161 L 586 104.822 586 93.376 L 586 81.930 584.250 82.999 C 583.288 83.587, 581.150 84.920, 579.500 85.961 C 575.828 88.278, 574.333 88.508, 576 86.500 C 576.685 85.675, 577.664 85, 578.176 85 C 580.022 85, 586 79.460, 586 77.750 L 586 76 582.750 76.150 C 580.962 76.232, 578.263 76.487, 576.750 76.716 M 642.182 79.214 C 639.882 80.982, 638 83.062, 638 83.836 L 638 85.245 639.750 83.872 C 640.712 83.118, 642.096 81.825, 642.824 81 L 644.148 79.500 643.382 81 L 642.616 82.500 644.363 81.082 C 650.069 76.450, 648.039 74.712, 642.182 79.214 M 514 91.541 L 514 106 519 106 L 524 106 524.009 97.750 C 524.020 87.432, 524.998 79, 526.183 79 C 526.694 79, 526.960 84.997, 526.794 92.750 L 526.500 106.500 531.684 106.800 L 536.868 107.100 536.713 109.154 C 536.625 110.334, 534.780 112.431, 532.379 114.084 L 528.198 116.960 527.546 115.260 C 527.188 114.326, 527.182 113.848, 527.533 114.199 C 527.884 114.551, 529.279 113.875, 530.632 112.698 L 533.093 110.559 531.296 109.850 C 530.308 109.460, 528.702 109.109, 527.727 109.070 L 525.955 109 526.136 121.428 L 526.317 133.856 531.222 134.531 C 537.454 135.388, 536.887 136.745, 537.540 119.428 C 537.850 111.218, 538.787 98.719, 539.623 91.654 C 540.458 84.589, 540.997 78.686, 540.821 78.537 C 540.644 78.388, 534.538 77.999, 527.250 77.674 L 514 77.082 514 91.541 M 588.961 79.250 C 588.927 80.487, 588.658 86.787, 588.363 93.250 L 587.828 105 594.914 105 L 602 105 602 101.965 L 602 98.930 600.168 99.910 C 599.160 100.450, 597.755 101.590, 597.045 102.445 C 596.336 103.300, 595.023 103.980, 594.128 103.955 C 593.079 103.926, 594.162 102.414, 597.170 99.705 L 601.839 95.500 602.477 88 C 602.828 83.875, 603.344 79.713, 603.625 78.750 L 604.135 77 599.126 77 C 596.372 77, 593.840 77.450, 593.500 78 C 593.160 78.550, 592.432 79, 591.882 79 C 591.332 79, 591.160 78.550, 591.500 78 C 591.840 77.450, 591.422 77, 590.570 77 C 589.650 77, 588.997 77.912, 588.961 79.250 M 635.832 106.711 C 635.272 122.664, 635.484 131.573, 636.440 132.235 C 637.724 133.125, 642.666 133.196, 645.750 132.370 L 648 131.767 648 126.261 L 648 120.755 646.250 122.110 L 644.500 123.466 646.250 121.404 L 648 119.343 648 111.778 L 648 104.214 646.418 103.607 C 643.608 102.528, 641.678 102.954, 639.314 105.174 C 638.042 106.370, 637 106.858, 637 106.258 C 637 105.658, 637.406 105.017, 637.901 104.833 C 638.397 104.650, 638.172 103.920, 637.401 103.211 L 636 101.921 635.832 106.711 M 650.630 105.250 C 650.299 106.487, 650.021 110.145, 650.014 113.378 L 650 119.256 653.250 116.604 C 655.038 115.146, 657.957 112.950, 659.738 111.726 L 662.975 109.500 662.988 106.250 L 663 103 657.117 103 L 651.233 103 650.630 105.250 M 577.372 107.714 L 574.244 108.109 573.633 111.804 C 573.297 113.837, 573.017 119.662, 573.011 124.750 L 573 134 579 134 L 585 134 585.007 129.250 C 585.011 126.638, 585.305 121.424, 585.660 117.665 L 586.305 110.830 580.701 114.415 C 574.645 118.288, 574 118.535, 574 116.975 C 574 116.412, 575.181 115.502, 576.624 114.953 C 578.067 114.404, 580.108 112.861, 581.160 111.523 C 582.267 110.117, 583.691 109.328, 584.537 109.652 C 585.342 109.961, 586 109.764, 586 109.214 C 586 108.105, 583.483 106.911, 581.668 107.160 C 581.026 107.248, 579.092 107.497, 577.372 107.714 M 591 108.112 C 591 108.600, 590.325 109, 589.500 109 L 588 109 588 121.500 L 588 134 594.031 134 C 597.971 134, 600.205 133.567, 600.472 132.750 C 601.133 130.732, 601.671 108.004, 601.059 107.956 C 593.369 107.343, 591 107.380, 591 108.112 M 515.444 108.761 C 514.834 109.188, 514.274 114.421, 514.118 121.158 L 513.847 132.817 515.685 133.400 C 516.696 133.721, 518.970 134.152, 520.738 134.358 L 523.953 134.732 523.931 121.866 L 523.909 109 521.536 109 C 520.231 109, 518.564 108.780, 517.832 108.511 C 517.099 108.241, 516.025 108.354, 515.444 108.761 M 656.250 115.702 L 650 120.485 650 126.169 L 650 131.853 651.629 132.177 C 652.524 132.355, 655.674 132.346, 658.629 132.157 L 664 131.815 663.901 126.657 C 663.847 123.821, 663.509 119.119, 663.151 116.210 L 662.500 110.919 656.250 115.702 M 518.065 122.577 C 514.904 125.697, 514.172 128.621, 517.184 126.101 C 517.908 125.495, 519.510 124.212, 520.744 123.250 C 522.045 122.236, 522.675 121.014, 522.244 120.345 C 521.741 119.565, 520.382 120.292, 518.065 122.577 M 485.240 179.326 L 482.981 180.581 484.083 181.683 L 485.185 182.785 484.057 184.893 C 482.764 187.310, 484.141 187.740, 486 185.500 C 486.685 184.675, 487.849 184, 488.587 184 C 490.217 184, 492.330 180.342, 491.487 178.979 C 490.668 177.654, 487.982 177.803, 485.240 179.326 M 476.041 183.044 C 474.139 184.105, 472.228 185.091, 471.795 185.236 C 471.362 185.381, 470.827 187.381, 470.606 189.680 L 470.203 193.860 471.852 193.148 C 478.643 190.211, 482.855 185.670, 481.664 182.567 C 480.911 180.605, 480.326 180.654, 476.041 183.044 M 461.074 190.617 L 456.647 192.965 456.285 196.847 L 455.924 200.729 461.712 197.817 C 467.698 194.804, 469.767 191.675, 467.376 189.250 C 466.698 188.563, 465.998 188.060, 465.821 188.134 C 465.645 188.208, 463.508 189.325, 461.074 190.617 M 447.840 196.704 C 445.434 198.197, 443.210 203.543, 444.471 204.804 C 445.322 205.655, 454.001 201.882, 453.986 200.667 C 453.923 195.234, 452.101 194.060, 447.840 196.704 M 433 204.512 L 425.500 208.845 425.399 211.423 C 425.274 214.607, 424.684 214.669, 433.566 210.565 L 441 207.130 441 203.565 C 441 201.604, 440.887 200.040, 440.750 200.089 C 440.613 200.138, 437.125 202.128, 433 204.512 M 490.921 206.079 C 489.865 207.135, 489 208.676, 489 209.503 C 489 211.315, 483.850 227.610, 479.994 238 C 477.061 245.903, 473.106 258.784, 472.317 263 C 472.060 264.375, 471.485 266.400, 471.039 267.500 C 470.593 268.600, 469.754 271.300, 469.174 273.500 C 468.594 275.700, 467.418 279.835, 466.560 282.688 C 465.702 285.541, 465 288.777, 465 289.879 C 465 290.981, 464.550 292.160, 464 292.500 C 458.699 295.776, 464.558 297.012, 485.584 297.052 C 506.067 297.092, 504.090 297.963, 505.657 288.207 C 506.339 283.968, 507.596 276.450, 508.451 271.500 C 512.255 249.491, 513.188 243.699, 514.976 231 C 516.021 223.575, 517.370 214.853, 517.973 211.618 C 519.329 204.339, 520.612 205.069, 505.585 204.575 L 492.843 204.157 490.921 206.079 M 560.755 205.805 L 556.011 206.109 555.548 208.305 C 554.587 212.862, 552.995 227.851, 552.499 237 C 552.216 242.225, 551.431 253.250, 550.754 261.500 C 550.076 269.750, 549.517 280.917, 549.511 286.316 L 549.500 296.131 560 296.604 C 565.775 296.865, 574.733 297.343, 579.908 297.669 L 589.315 298.260 588.669 289.854 C 588.314 285.231, 587.736 264.810, 587.386 244.474 C 587.036 224.138, 586.636 207.368, 586.498 207.207 C 586.003 206.629, 565.401 205.506, 560.755 205.805 M 657.011 206 C 656.575 206.275, 656.982 208.975, 657.916 212 C 658.850 215.025, 660.179 221.550, 660.870 226.500 C 662.052 234.965, 664.130 244.327, 666.088 250 C 666.562 251.375, 667.379 255.268, 667.904 258.652 C 668.428 262.035, 670.689 271.189, 672.929 278.994 C 675.168 286.798, 677.007 293.705, 677.015 294.342 C 677.024 294.979, 677.399 296.081, 677.849 296.790 L 678.668 298.080 697.834 298.636 C 708.375 298.941, 717 298.920, 717 298.588 C 717 298.257, 715.887 295.851, 714.527 293.243 C 711.086 286.643, 705.322 271.302, 704.480 266.500 C 702.059 252.704, 694.483 229.825, 688.391 217.914 C 685.976 213.192, 684 208.675, 684 207.878 C 684 207.081, 683.212 206.368, 682.250 206.294 C 675.826 205.801, 657.663 205.589, 657.011 206 M 519.183 217.314 C 518.020 223.466, 516.344 234.350, 515.461 241.500 C 514.577 248.650, 513.472 255.850, 513.006 257.500 C 512.200 260.350, 508.243 284.259, 507.254 292.250 L 506.790 296 526.787 296 L 546.785 296 546.904 290.250 C 546.970 287.087, 547.238 282.025, 547.501 279 C 548.909 262.762, 550.090 244.940, 550.583 232.500 C 550.888 224.800, 551.395 217.825, 551.711 217 C 552.027 216.175, 552.586 213.396, 552.953 210.825 L 553.622 206.150 537.461 206.139 L 521.299 206.127 519.183 217.314 M 590.584 206.837 L 588.857 207.174 589.438 245.337 C 589.757 266.327, 590.526 286.762, 591.147 290.750 L 592.274 298 594.887 298.110 C 596.324 298.171, 605.510 298.291, 615.300 298.378 L 633.100 298.535 632.583 296.476 C 632.299 295.343, 631.773 291.735, 631.414 288.458 C 631.056 285.181, 629.691 278.288, 628.381 273.141 L 626 263.781 625.966 251.641 C 625.948 244.963, 625.442 234.775, 624.841 229 C 624.241 223.225, 623.658 216.139, 623.546 213.254 C 623.433 210.369, 623.124 207.791, 622.859 207.526 C 622.295 206.962, 593.131 206.340, 590.584 206.837 M 632.287 206.739 L 626.073 207.094 625.444 210.445 C 625.099 212.288, 625.302 216.204, 625.896 219.148 C 626.490 222.092, 627.198 231.025, 627.468 239 C 628.136 258.677, 628.923 267.571, 630.521 273.500 C 631.261 276.250, 632.541 282.707, 633.365 287.848 C 635.152 299.002, 643.678 302.293, 661.804 298.823 C 664.387 298.328, 668.683 298.214, 671.352 298.570 L 676.203 299.216 675.639 297.358 C 675.328 296.336, 674.656 293.700, 674.145 291.500 C 673.634 289.300, 672.442 284.800, 671.496 281.500 C 670.551 278.200, 668.911 271.675, 667.852 267 C 666.793 262.325, 664.623 253.325, 663.030 247 C 661.437 240.675, 659.592 231.675, 658.930 227 C 658.269 222.325, 656.871 215.688, 655.824 212.250 L 653.920 206 646.210 206.193 C 641.969 206.299, 635.704 206.545, 632.287 206.739 M 414.712 214.414 C 411.570 216.306, 409 217.340, 409 216.713 C 409 214.996, 406.331 218.111, 405.540 220.751 L 404.865 223.002 407.667 221.936 C 413.575 219.690, 416.961 217.747, 416.439 216.902 C 416.141 216.418, 416.574 216.283, 417.402 216.601 C 419.243 217.307, 422.568 215.026, 422.529 213.083 C 422.478 210.572, 420.546 210.901, 414.712 214.414 M 393.325 224.305 C 387.438 227.746, 384.002 231.335, 385.326 232.659 C 385.536 232.869, 394.226 228.676, 400.065 225.546 C 402.071 224.471, 403.339 219.969, 401.611 220.055 C 401 220.086, 397.271 221.998, 393.325 224.305 M 375.500 233.981 C 367.884 238.962, 367 239.750, 367 241.556 L 367 243.034 371.750 240.655 C 374.363 239.347, 378.121 237.519, 380.103 236.594 L 383.706 234.912 383.236 232.456 C 382.637 229.320, 382.623 229.322, 375.500 233.981 M 356.280 243.816 L 349.061 247.500 349.030 250.924 L 349 254.349 351.250 252.326 C 352.488 251.214, 356.087 248.853, 359.250 247.079 C 369.917 241.095, 367.284 238.202, 356.280 243.816 M 345.123 250.351 C 344.485 251.121, 342.058 252.288, 339.731 252.944 C 333.548 254.687, 332.196 255.978, 332.732 259.627 L 333.188 262.736 339.544 259.118 L 345.899 255.500 346.545 252.678 C 347.309 249.340, 346.738 248.406, 345.123 250.351 M 324.265 261.849 C 321.936 263.950, 318.448 266.521, 316.515 267.562 L 313 269.455 313 271.727 C 313 275.022, 314.054 274.637, 325.799 267.059 L 331.098 263.640 330.799 261.147 C 330.356 257.457, 328.970 257.606, 324.265 261.849 M 307 273.961 C 305.625 274.958, 301.575 277.320, 298 279.210 L 291.500 282.645 292 285.471 L 292.500 288.296 295.500 285.813 C 297.150 284.448, 300.870 282.055, 303.767 280.497 C 309.940 277.176, 310.974 276.092, 310.126 273.824 L 309.500 272.148 307 273.961 M 281.132 288.759 L 274 293.473 274 296.237 C 274 299.739, 275.108 299.717, 279.215 296.135 C 281.022 294.559, 284.373 292.319, 286.663 291.159 L 290.825 289.048 290.292 287.009 C 289.419 283.670, 288.591 283.828, 281.132 288.759 M 267.732 297.536 C 265.679 298.931, 264 300.476, 264 300.969 C 264 301.462, 263.100 302.151, 262 302.500 C 260.692 302.915, 260 304.013, 260 305.674 C 260 308.715, 260.950 308.475, 267.317 303.828 L 271.876 300.500 271.938 297.750 C 272.013 294.423, 272.292 294.437, 267.732 297.536 M 462 299.195 C 462 301.280, 466.981 311.137, 469.403 313.845 C 472.725 317.560, 476.455 319, 482.754 319 L 488.608 319 491.647 315.750 C 495.236 311.912, 500.541 304.023, 501.443 301.180 L 502.080 299.172 484.537 299.105 C 474.889 299.067, 465.871 298.755, 464.497 298.410 L 462 297.783 462 299.195 M 506.750 298.679 C 504.540 299.270, 504.542 300.797, 506.755 304.116 C 515.212 316.793, 514.660 316.280, 521.784 318.069 L 527.068 319.396 533.467 316.240 L 539.866 313.085 542.351 308.792 C 543.718 306.432, 544.986 303.150, 545.168 301.500 L 545.500 298.500 527 298.355 C 516.825 298.276, 507.712 298.421, 506.750 298.679 M 550.219 298.660 L 547.937 299.147 548.604 302.824 C 550.352 312.462, 554.456 316.765, 562.726 317.629 L 568.801 318.264 575.806 316.548 C 584.500 314.417, 587.107 311.937, 587.757 305.181 L 588.226 300.297 575.863 299.621 C 569.063 299.250, 561.025 298.772, 558 298.560 C 554.975 298.347, 551.473 298.392, 550.219 298.660 M 590.807 304.225 L 590.442 308.050 592.971 310.460 C 594.362 311.785, 598.287 314.249, 601.694 315.935 L 607.888 319 613.584 319 C 617.486 319, 620.706 318.291, 623.802 316.750 L 628.323 314.500 630.662 309.221 C 634.736 300.023, 634.455 299.917, 606.836 300.226 L 591.172 300.401 590.807 304.225 M 636 301.546 C 636 304.705, 640.189 312.763, 642.855 314.735 C 654.403 323.273, 677.003 315.893, 676.999 303.586 L 676.998 300.500 669.749 300.721 C 650.103 301.322, 641.257 301.306, 638.750 300.665 L 636 299.962 636 301.546 M 679.555 302.203 C 680.715 305.908, 685.656 312.550, 690.050 316.311 L 694.127 319.801 699.580 319.472 C 707.882 318.971, 719 309.644, 719 303.181 L 719 301.081 716.250 301.164 C 714.737 301.210, 705.700 300.946, 696.168 300.577 L 678.835 299.906 679.555 302.203 M 252.250 306.839 L 248 308.438 248 312.342 L 248 316.245 249.512 314.990 C 250.343 314.300, 252.481 313.007, 254.262 312.118 L 257.500 310.500 257.816 307.750 C 258.173 304.650, 258.101 304.638, 252.250 306.839 M 310.169 337.029 C 306.178 337.929, 301.340 342.304, 299.501 346.674 L 298.166 349.847 299.346 353.843 C 304 369.607, 345.751 364.445, 346.218 348.048 C 346.449 339.905, 325.633 333.542, 310.169 337.029 M 331.998 341.505 C 331.449 342.949, 331 345.422, 331 347 C 331 348.578, 330.567 351.008, 330.038 352.399 C 328.826 355.587, 330.468 356.862, 332.029 353.945 L 333.159 351.835 334.356 353.472 C 336.184 355.972, 338.723 354.327, 339.436 350.181 C 339.784 348.156, 340.314 345.262, 340.614 343.750 L 341.159 341 339.651 341 L 338.144 341 337.429 346.722 L 336.714 352.445 335.354 347.131 C 334.606 344.209, 334.228 341.440, 334.514 340.978 C 334.799 340.516, 334.574 339.855, 334.014 339.509 C 333.454 339.163, 332.547 340.061, 331.998 341.505 M 306.298 342.750 C 305.947 343.712, 304.836 345.573, 303.830 346.885 C 300.261 351.536, 302.360 357.973, 306.969 356.510 C 309.216 355.797, 313 349.272, 313 346.111 C 313 341.991, 307.570 339.267, 306.298 342.750 M 314.636 345.640 C 313.367 354.897, 314.866 360.860, 316.402 352.668 C 316.746 350.836, 318.192 348.324, 319.615 347.087 L 322.203 344.836 321.494 349.168 C 321.104 351.551, 320.721 353.725, 320.642 354 C 320.435 354.729, 321.615 355, 325 355 C 326.650 355, 328 354.550, 328 354 C 328 353.450, 326.889 353, 325.531 353 L 323.063 353 323.638 351.500 C 323.955 350.675, 324.841 350, 325.607 350 C 326.373 350, 327 349.550, 327 349 C 327 348.450, 326.292 348, 325.427 348 C 322.980 348, 324.185 344.548, 326.760 344.180 C 330.322 343.672, 329.355 342, 325.500 342 C 323.383 342, 321.988 342.494, 321.970 343.250 C 321.953 343.944, 321.486 343.721, 320.920 342.750 C 320.359 341.788, 318.859 341, 317.586 341 L 315.272 341 314.636 345.640 M 306.750 347.294 C 304.016 350.452, 303.227 353.404, 304.849 354.407 C 306.281 355.292, 309.481 350.690, 309.825 347.250 C 310.219 343.317, 310.193 343.318, 306.750 347.294 M 416.787 373 L 417.227 376 420.113 376 L 423 376 423 373 L 423 370 419.673 370 L 416.346 370 416.787 373 M 533.793 373.651 C 533.295 377.912, 534.168 378.375, 542.225 378.118 L 545.950 378 545.331 374.750 C 544.991 372.962, 544.649 371.409, 544.571 371.298 C 544.494 371.187, 542.130 370.871, 539.319 370.596 L 534.208 370.095 533.793 373.651 M 404 374 L 402.930 376 406.500 376 L 410.070 376 409 374 C 408.411 372.900, 407.286 372, 406.500 372 C 405.714 372, 404.589 372.900, 404 374 M 564.250 373.662 C 563.563 373.940, 563 375.069, 563 376.171 L 563 378.176 566.750 377.567 C 573.246 376.512, 579.026 376.626, 580.235 377.835 C 580.876 378.476, 582.435 379, 583.700 379 L 586 379 586 376.636 L 586 374.272 581.360 373.636 C 576.024 372.904, 566.090 372.920, 564.250 373.662 M 350.843 384.910 L 350.500 391.004 354.250 391.002 L 358 391 358 385.500 C 358 381.774, 357.597 379.996, 356.750 379.986 C 356.063 379.979, 354.530 379.712, 353.343 379.394 L 351.187 378.816 350.843 384.910 M 333.901 382.389 C 333.847 383, 333.709 385.434, 333.596 387.798 L 333.389 392.095 335.944 391.798 L 338.500 391.500 338.800 386.876 L 339.099 382.252 336.550 381.765 C 335.080 381.484, 333.958 381.748, 333.901 382.389 M 405.467 388.053 C 405.106 388.637, 404.691 390.214, 404.543 391.557 L 404.275 394 407.529 394 L 410.783 394 411.440 391.382 C 412.204 388.341, 412.296 388.472, 408.811 387.637 C 407.285 387.271, 405.839 387.451, 405.467 388.053 M 309.161 390.547 C 308.522 391.948, 308 393.220, 308 393.374 C 308 393.528, 309.350 393.455, 311 393.213 C 314.143 392.752, 314.827 391.227, 312.800 389.200 C 311.067 387.467, 310.462 387.691, 309.161 390.547 M 700.924 394.682 L 696.348 395.095 696.578 408.500 C 696.705 415.872, 697.116 423.726, 697.492 425.952 L 698.176 430 701.338 430.011 C 703.077 430.017, 706.182 430.300, 708.239 430.640 L 711.977 431.258 715.853 427.379 L 719.728 423.500 722.002 416 C 723.253 411.875, 724.889 406.803, 725.638 404.730 C 726.387 402.656, 727 400.127, 727 399.110 L 727 397.260 721.250 396.164 C 713.556 394.697, 706.477 394.180, 700.924 394.682 M 444 399.381 C 444 405.036, 448.100 415.873, 452.801 422.648 L 456.500 427.976 464.750 427.988 L 473 428 473 411.500 L 473 395 458.500 395 L 444 395 444 399.381 M 564.714 396.619 C 564.321 397.012, 564 398.608, 564 400.167 L 564 403 568.063 403 L 572.127 403 571.813 399.750 L 571.500 396.500 568.464 396.203 C 566.794 396.039, 565.107 396.227, 564.714 396.619 M 333 408.947 L 333 411.894 336.938 411.737 L 340.877 411.580 341.401 409.576 C 342.046 407.107, 340.496 406.035, 336.250 406.015 L 333 406 333 408.947 M 369 407.057 C 369 407.486, 368.713 408.584, 368.362 409.498 L 367.725 411.159 370.604 410.830 C 374.370 410.398, 375.059 407.436, 371.549 406.765 C 370.147 406.497, 369 406.628, 369 407.057 M 310 410 L 310 413 312.893 413 C 315.702 413, 317 411.552, 317 408.418 C 317 407.464, 315.855 407, 313.500 407 L 310 407 310 410 M 354 409.096 C 354 410.401, 354.708 411.003, 356.250 411.011 C 357.488 411.017, 360.188 411.301, 362.250 411.642 L 366 412.262 366 409.865 L 366 407.468 360 407.330 L 354 407.192 354 409.096 M 416.607 408.582 C 415.504 411.456, 415.964 412, 419.500 412 L 423 412 423 409.500 L 423 407 420.107 407 C 418.391 407, 416.967 407.644, 416.607 408.582" stroke="none" fill="#f9dac2" fill-rule="evenodd"/></svg>