<svg xmlns="http://www.w3.org/2000/svg" width="900" height="450" viewBox="0 0 900 450" version="1.1"><path d="M 235.482 17.920 C 235.849 19.590, 236.166 23.891, 236.187 27.478 L 236.225 34 237.612 34 C 238.376 34, 239 34.533, 239 35.186 C 239 35.838, 240.012 37.449, 241.250 38.766 L 243.500 41.162 243.015 47.831 C 242.403 56.230, 242.409 78.826, 243.027 94.500 C 243.287 101.100, 243.151 108.138, 242.725 110.140 L 241.951 113.780 240.084 114.268 L 238.217 114.756 237.527 118.841 C 236.686 123.817, 237.140 124.652, 241.165 125.536 L 244.307 126.226 243.464 151.863 C 242.599 178.177, 242.553 185.289, 243.097 209.500 C 243.378 222.035, 242.539 268.222, 241.498 297.482 L 241.107 308.464 238.626 309.291 L 236.145 310.118 237.218 313.309 C 238.672 317.635, 239.877 319, 242.244 319 L 244.244 319 243.393 338.750 C 242.925 349.613, 242.668 368.231, 242.822 380.124 L 243.102 401.747 241.551 402.342 L 240 402.937 239.985 410.719 C 239.976 414.998, 239.623 419.045, 239.200 419.711 L 238.430 420.922 228.465 421.211 L 218.500 421.500 219 422.500 L 219.500 423.500 263 423.199 C 286.925 423.033, 358.925 422.465, 423 421.938 C 559.022 420.817, 659.502 420.574, 660.779 421.363 C 662.249 422.272, 699.522 422.244, 699.256 421.335 C 699.122 420.876, 695.184 420.370, 690.506 420.211 L 682 419.922 682 411.394 L 682 402.865 680.006 403.498 L 678.013 404.131 678.437 402.815 C 678.670 402.092, 679.395 382.825, 680.048 360 C 680.701 337.175, 681.632 318.073, 682.118 317.550 C 682.603 317.028, 683 314.635, 683 312.233 L 683 307.865 680.835 308.552 L 678.670 309.239 679.327 217.870 L 679.984 126.500 681.492 125.390 L 683 124.280 683 119.640 L 683 115 681.472 115 L 679.943 115 680.503 91.750 C 680.810 78.963, 681.233 62.755, 681.442 55.734 L 681.821 42.969 683.851 39.528 L 685.881 36.087 686.074 26.511 C 686.180 21.244, 686.059 16.725, 685.804 16.470 C 685.549 16.215, 583.972 15.754, 460.078 15.445 L 234.816 14.884 235.482 17.920 M 238.328 19.089 C 238.682 20.415, 238.979 22.737, 238.986 24.248 L 239 26.996 447.943 26.995 L 656.886 26.994 657.481 26.032 L 658.075 25.069 671.038 25.689 L 684 26.309 684 22.154 L 684 18 682.750 17.882 C 682.063 17.816, 681.102 17.837, 680.615 17.927 C 677.867 18.434, 311.823 17.908, 278.091 17.348 L 237.682 16.677 238.328 19.089 M 659.250 29.496 C 658.563 30.277, 658 31.610, 658 32.458 L 658 34 659.887 34 L 661.773 34 662.213 31 L 662.654 28 661.577 28.038 C 660.985 28.059, 659.938 28.715, 659.250 29.496 M 665 31 L 665 34 667.500 34 L 670 34 670 31 L 670 28 667.500 28 L 665 28 665 31 M 672.607 29.582 C 672.273 30.452, 672 31.802, 672 32.582 L 672 34 674.500 34 L 677 34 677 31 L 677 28 675.107 28 C 674.066 28, 672.941 28.712, 672.607 29.582 M 679 31.500 L 679 34 681 34 L 683 34 683 31.500 L 683 29 681 29 L 679 29 679 31.500 M 240.232 32 C 240.919 33.100, 241.823 34, 242.241 34 C 242.658 34, 243 33.100, 243 32 L 243 30 240.992 30 L 238.983 30 240.232 32 M 244.710 32 L 244.187 34 246.594 34 L 249 34 249 32 L 249 30 247.117 30 L 245.233 30 244.710 32 M 251 32 L 251 34 253.286 34 L 255.571 34 255.571 32 L 255.571 30 253.286 30 L 251 30 251 32 M 257.710 32 L 257.187 34 259.094 34 L 261 34 261 32 C 261 30.900, 260.377 30, 259.617 30 C 258.856 30, 257.998 30.900, 257.710 32 M 263.710 32 L 263.187 34 266.094 34 L 269 34 269 32 L 269 30 266.617 30 L 264.233 30 263.710 32 M 271 32 L 271 34 273.500 34 L 276 34 276 32 L 276 30 273.500 30 L 271 30 271 32 M 278 32 L 278 34 280.906 34 L 283.813 34 283.290 32 L 282.767 30 280.383 30 L 278 30 278 32 M 285.710 32 L 285.187 34 287.881 34 L 290.574 34 290.725 32 L 290.876 30 288.554 30 L 286.233 30 285.710 32 M 293 32 L 293 34 295 34 L 297 34 297 32 L 297 30 295 30 L 293 30 293 32 M 299.710 32 L 299.187 34 302.094 34 L 305 34 305 32 L 305 30 302.617 30 L 300.233 30 299.710 32 M 307.710 32 L 307.187 34 309.594 34 L 312 34 312 32 L 312 30 310.117 30 L 308.233 30 307.710 32 M 314 32 L 314 34 316.500 34 L 319 34 319 32 L 319 30 316.500 30 L 314 30 314 32 M 322 32 L 322 34 328 34 L 334 34 334 32 L 334 30 332.107 30 C 331.066 30, 329.955 30.675, 329.638 31.500 C 329.322 32.325, 328.599 33, 328.031 33 C 327.464 33, 327 32.325, 327 31.500 L 327 30 324.500 30 L 322 30 322 32 M 336.667 30.667 C 336.300 31.033, 336 31.933, 336 32.667 L 336 34 338.500 34 L 341 34 341 32 L 341 30 339.167 30 C 338.158 30, 337.033 30.300, 336.667 30.667 M 343 32 L 343 34 345.787 34 L 348.574 34 348.725 32 L 348.876 30 345.938 30 L 343 30 343 32 M 350.710 32 L 350.187 34 352.594 34 L 355 34 355 32 L 355 30 353.117 30 L 351.233 30 350.710 32 M 357 32 L 357 34 360.107 34 L 363.214 34 362.607 32.418 C 362.273 31.548, 362 30.648, 362 30.418 C 362 30.188, 360.875 30, 359.500 30 L 357 30 357 32 M 365 32 L 365 34 367 34 L 369 34 369 32 L 369 30 367 30 L 365 30 365 32 M 371 32 L 371 34 373.383 34 L 375.767 34 376.290 32 L 376.813 30 373.906 30 L 371 30 371 32 M 379 32 L 379 34 381.406 34 L 383.813 34 383.290 32 L 382.767 30 380.883 30 L 379 30 379 32 M 386 32 L 386 34 388.500 34 L 391 34 391 32 L 391 30 388.500 30 L 386 30 386 32 M 393 32 L 393 34 395.500 34 L 398 34 398 32 L 398 30 395.500 30 L 393 30 393 32 M 401 32 L 401 34 403 34 L 405 34 405 32 L 405 30 403 30 L 401 30 401 32 M 407 32 L 407 34 409.500 34 L 412 34 412 32 L 412 30 409.500 30 L 407 30 407 32 M 413.710 32 L 413.187 34 416.094 34 L 419 34 419 32 L 419 30 416.617 30 L 414.233 30 413.710 32 M 421.667 30.667 C 421.300 31.033, 421 31.933, 421 32.667 L 421 34 423.786 34 L 426.571 34 426.571 32 L 426.571 30 424.452 30 C 423.287 30, 422.033 30.300, 421.667 30.667 M 428.710 32 L 428.187 34 431.094 34 L 434 34 434 32 L 434 30 431.617 30 L 429.233 30 428.710 32 M 435.695 32.059 L 435.156 34.118 437.820 33.809 L 440.483 33.500 440.815 31.750 L 441.147 30 438.690 30 L 436.233 30 435.695 32.059 M 443 32 L 443 34 445.500 34 L 448 34 448 32 L 448 30 445.500 30 L 443 30 443 32 M 450.607 31.582 C 449.712 33.915, 449.778 34, 452.500 34 L 455 34 455 32 L 455 30 453.107 30 C 452.066 30, 450.941 30.712, 450.607 31.582 M 457 32 L 457 34 459.500 34 L 462 34 462 32 L 462 30 459.500 30 L 457 30 457 32 M 464.667 30.667 C 463.290 32.043, 464.073 34, 466 34 L 468 34 468 32 C 468 30.073, 466.043 29.290, 464.667 30.667 M 470.710 32 L 470.187 34 473.094 34 L 476 34 476 32 L 476 30 473.617 30 L 471.233 30 470.710 32 M 478.710 32 L 478.187 34 480.594 34 L 483 34 483 32 L 483 30 481.117 30 L 479.233 30 478.710 32 M 485 32 L 485 34 487.500 34 L 490 34 490 32 L 490 30 487.500 30 L 485 30 485 32 M 492.710 32 L 492.187 34 494.594 34 L 497 34 497 32 L 497 30 495.117 30 L 493.233 30 492.710 32 M 500 32 L 500 34 501.393 34 C 502.159 34, 503.059 33.288, 503.393 32.418 C 504.273 30.124, 504.202 30, 502 30 L 500 30 500 32 M 506 32 L 506 34 508.500 34 L 511 34 511 32 L 511 30 508.500 30 L 506 30 506 32 M 514 31.927 L 514 34 516.073 34 L 518.147 34 517.812 32.261 C 517.628 31.305, 516.695 30.372, 515.739 30.188 L 514 29.853 514 31.927 M 520 32 L 520 34 522.500 34 L 525 34 525 32 L 525 30 522.500 30 L 520 30 520 32 M 526.710 32 L 526.187 34 529.094 34 L 532 34 532 32 L 532 30 529.617 30 L 527.233 30 526.710 32 M 534.607 31.582 C 533.714 33.908, 533.782 34, 536.393 34 L 538.786 34 539.393 32.418 C 540.286 30.092, 540.218 30, 537.607 30 L 535.214 30 534.607 31.582 M 542 32 L 542 34 544.500 34 L 547 34 547 32 L 547 30 544.500 30 L 542 30 542 32 M 549 32 L 549 34 550.893 34 C 551.934 34, 553.059 33.288, 553.393 32.418 C 554.288 30.085, 554.222 30, 551.500 30 L 549 30 549 32 M 556 32 L 556 34 557.883 34 L 559.767 34 560.290 32 L 560.813 30 558.406 30 L 556 30 556 32 M 563 32 L 563 34 565.500 34 L 568 34 568 32 L 568 30 565.500 30 L 563 30 563 32 M 570 32 L 570 34 572.500 34 L 575 34 575 32 L 575 30 572.500 30 L 570 30 570 32 M 577 32 L 577 34 579.383 34 L 581.767 34 582.290 32 L 582.813 30 579.906 30 L 577 30 577 32 M 585 32 L 585 34 587.500 34 L 590 34 590 32 L 590 30 587.500 30 L 585 30 585 32 M 593 32 L 593 34 595.500 34 L 598 34 598 32 L 598 30 595.500 30 L 593 30 593 32 M 600.710 32 L 600.187 34 603.094 34 L 606 34 606 32 L 606 30 603.617 30 L 601.233 30 600.710 32 M 608 32 L 608 34 609.883 34 L 611.767 34 612.290 32 L 612.813 30 610.406 30 L 608 30 608 32 M 615 32 L 615 34 617.500 34 L 620 34 620 32 L 620 30 617.500 30 L 615 30 615 32 M 622 32 L 622 34 625 34 L 628 34 628 32 L 628 30 625 30 L 622 30 622 32 M 630 32 L 630 34 631.893 34 C 632.934 34, 634.059 33.288, 634.393 32.418 C 635.288 30.085, 635.222 30, 632.500 30 L 630 30 630 32 M 637 32 L 637 34 638.883 34 L 640.767 34 641.290 32 L 641.813 30 639.406 30 L 637 30 637 32 M 644 32 L 644 34 645.893 34 C 646.934 34, 648.059 33.288, 648.393 32.418 C 649.288 30.085, 649.222 30, 646.500 30 L 644 30 644 32 M 651 32 L 651 34 653.500 34 L 656 34 656 32 L 656 30 653.500 30 L 651 30 651 32 M 244.216 38.575 L 245.389 41.150 248.445 40.617 C 250.125 40.324, 257.350 40.036, 264.500 39.977 C 271.650 39.918, 334.425 39.387, 404 38.799 L 530.500 37.729 604.250 38.485 L 678 39.242 678 40.777 L 678 42.312 662.928 41.660 L 647.856 41.008 648.086 78.013 C 648.212 98.366, 648.019 115.314, 647.657 115.676 C 647.296 116.038, 647 117.833, 647 119.667 L 647 123 664.107 123 L 681.214 123 680.607 121.418 C 680.273 120.548, 680 119.363, 680 118.784 L 680 117.732 664.386 118.458 L 648.772 119.184 649.218 117.842 L 649.664 116.500 663.695 116.223 L 677.725 115.947 678.464 79.727 L 679.203 43.507 680.602 40.803 C 681.371 39.316, 682 37.627, 682 37.050 L 682 36 462.521 36 L 243.043 36 244.216 38.575 M 436.303 40.965 C 400.444 41.293, 370.828 41.839, 370.489 42.178 C 370.149 42.517, 369.605 59.233, 369.279 79.325 L 368.687 115.854 396.593 116.242 C 411.942 116.456, 453.734 116.719, 489.464 116.829 L 554.427 117.027 555.414 118.014 L 556.400 119 462.700 119 L 369 119 369 120.503 L 369 122.006 462.827 121.984 L 556.654 121.963 556.331 108.731 C 556.153 101.454, 555.730 83.013, 555.390 67.750 L 554.772 40 528.136 40.184 C 513.486 40.286, 472.161 40.637, 436.303 40.965 M 558.348 79 C 558.565 100.175, 559.062 119.300, 559.452 121.500 L 560.161 125.500 569.830 125.218 C 575.149 125.063, 580.506 124.719, 581.735 124.453 L 583.970 123.970 584.605 121.438 C 585.491 117.906, 585.644 117.955, 571.611 117.292 C 555.432 116.527, 555.253 115, 571.342 115 L 583.684 115 584.342 96.840 C 584.704 86.852, 585 70.226, 585 59.894 L 585 41.108 571.476 40.804 L 557.952 40.500 558.348 79 M 587.661 56.735 C 587.301 65.406, 587.005 83.869, 587.003 97.764 L 587 123.028 606.750 122.992 C 617.612 122.972, 630.438 122.677, 635.250 122.335 L 644 121.713 644 119.307 L 644 116.901 622.250 117.701 C 594.075 118.736, 589.554 118.709, 589.239 117.500 L 588.978 116.500 617.239 115.364 C 632.783 114.740, 645.618 114.177, 645.762 114.114 C 645.907 114.051, 645.907 97.688, 645.762 77.750 L 645.500 41.500 616.907 41.235 L 588.314 40.970 587.661 56.735 M 279.393 42.687 L 277.286 43.102 276.678 56.301 C 276.343 63.560, 276.033 78.638, 275.989 89.806 L 275.908 110.111 274.915 112.723 L 273.922 115.334 275.211 116.231 L 276.500 117.128 286.906 116.564 C 292.629 116.254, 306.977 116, 318.792 116 L 340.272 116 339.651 99.750 C 339.309 90.813, 339.023 74.162, 339.015 62.750 L 339 42 310.250 42.136 C 294.438 42.211, 280.552 42.459, 279.393 42.687 M 342 79.554 L 342 117.107 353.250 116.432 C 359.438 116.060, 364.938 115.350, 365.474 114.854 L 366.447 113.953 366.842 77.976 L 367.236 42 354.618 42 L 342 42 342 79.554 M 245.548 51.323 C 244.536 63.544, 244.591 78.257, 245.692 89.696 L 246.673 99.893 245.780 106.557 C 245.289 110.222, 245.052 113.386, 245.254 113.587 C 246.516 114.849, 273.012 117.768, 271.814 116.513 C 271.436 116.118, 271.524 114.752, 272.009 113.477 C 272.727 111.587, 274.357 68.593, 274.471 48.500 L 274.500 43.500 260.362 43.323 L 246.224 43.147 245.548 51.323 M 440.860 52.086 L 439.914 52.671 440.613 73.856 L 441.311 95.040 443.406 95.555 C 444.558 95.838, 453.600 95.941, 463.500 95.785 L 481.500 95.500 481.165 94.612 C 480.980 94.123, 481.300 93.433, 481.875 93.077 L 482.920 92.431 482.310 71.966 L 481.699 51.500 461.753 51.500 C 450.782 51.500, 441.381 51.764, 440.860 52.086 M 443 73.500 L 443 93 461.500 93 L 480 93 480 74 C 480 63.550, 479.663 55, 479.250 54.999 C 478.837 54.999, 478.500 63.212, 478.500 73.249 L 478.500 91.500 461.097 91.774 L 443.693 92.049 444.347 81.369 C 444.706 75.495, 445 67.173, 445 62.876 L 445 55.063 456.750 54.747 L 468.500 54.430 455.750 54.215 L 443 54 443 73.500 M 447.642 63.147 C 447.289 66.527, 447 73.952, 447 79.647 L 447 90 452.346 90 C 455.287 90, 461.812 89.708, 466.846 89.350 L 476 88.701 476 72.850 L 476 57 462.142 57 L 448.285 57 447.642 63.147 M 452 62.628 C 452 63.417, 452.627 64.303, 453.394 64.598 L 454.788 65.133 454.907 73.566 L 455.025 82 452.939 82 L 450.853 82 451.188 83.750 L 451.523 85.500 460.928 85.790 L 470.333 86.079 471.151 84.790 C 472.185 83.159, 472.253 78, 471.241 78 C 470.823 78, 469.954 78.844, 469.309 79.876 C 466.795 83.902, 460.720 83.182, 459.629 78.728 L 458.951 75.956 460.513 75.357 L 462.074 74.757 463.866 76.379 C 466.513 78.774, 467 78.414, 467 74.059 C 467 69.465, 465.598 68.149, 463.106 70.404 C 462.133 71.284, 461.037 71.703, 460.669 71.336 C 459.364 70.031, 460.025 66.205, 461.663 65.576 L 463.326 64.938 465.968 67.469 C 469.871 71.208, 474.468 66.802, 471.564 62.104 L 470.930 61.078 461.465 61.136 L 452 61.194 452 62.628 M 240 119.904 L 240 122.808 250.250 123.482 C 255.887 123.853, 263.425 124.009, 267 123.828 L 273.500 123.500 273.829 121.177 L 274.158 118.854 269.784 119.510 L 265.410 120.166 257.747 118.583 C 253.533 117.712, 247.815 117, 245.042 117 L 240 117 240 119.904 M 303.750 118.749 L 277 119.033 277 121.016 L 277 123 307 123 L 337 123 337 124.500 L 337 126 330 126 L 323 126 323 131.369 L 323 136.738 326.750 137.358 C 328.813 137.699, 332.863 137.983, 335.750 137.989 L 341 138 341 132.107 L 341 126.214 339.500 125.638 L 338 125.063 338 121.531 L 338 118 334.250 118.233 C 332.188 118.361, 318.462 118.593, 303.750 118.749 M 341 121.266 L 341 123.532 352.250 123.207 C 365.030 122.839, 366 122.650, 366 120.531 L 366 119 353.500 119 L 341 119 341 121.266 M 275.998 130.250 L 276 136 282 136 L 288 136 288 130.589 L 288 125.178 281.998 124.839 L 275.996 124.500 275.998 130.250 M 290 131 L 290 137 296 137 L 302 137 302 131 L 302 125 296 125 L 290 125 290 131 M 305 131 L 305 137 312.500 137 L 320 137 320 131 L 320 125 312.500 125 L 305 125 305 131 M 353.826 125.745 L 344.152 126.071 343.604 132.285 C 343.303 135.703, 342.775 177.313, 342.432 224.750 L 341.807 311 345.345 311 C 348.689 311, 350.937 312.327, 349.266 313.315 C 348.845 313.564, 332.075 313.425, 312 313.007 L 275.500 312.247 274.674 313.374 L 273.848 314.500 273.341 313.250 L 272.833 312 256.343 312 L 239.853 312 240.188 313.750 L 240.523 315.500 255.511 316.047 C 263.755 316.348, 288.869 316.695, 311.320 316.818 L 352.139 317.042 351.891 310.271 L 351.642 303.500 358.321 303.204 L 365 302.909 365 285.038 L 365 267.167 363.750 266.659 L 362.500 266.152 363.951 265.143 L 365.402 264.134 365.825 254.453 L 366.249 244.772 364.874 243.810 L 363.500 242.848 364.712 242.353 L 365.925 241.858 365.976 183.429 L 366.027 125 364.763 125.209 C 364.068 125.324, 359.147 125.565, 353.826 125.745 M 369 130.581 L 369 136.161 386 135.442 L 403 134.723 403 135.745 C 403 137.083, 399.539 137.969, 394.250 137.986 L 390 138 390 148 L 390 158 397.500 158 L 405 158 405 141.500 L 405 125 387 125 L 369 125 369 130.581 M 408 214 L 408 303 413.513 303 L 419.025 303 418.984 214 L 418.942 125 413.471 125 L 408 125 408 214 M 422 130 L 422 135 429.844 135 C 434.159 135, 442.484 135.293, 448.344 135.652 L 459 136.304 459 130.652 L 459 125 440.500 125 L 422 125 422 130 M 460.661 163.750 C 460.300 185.063, 459.707 225.113, 459.343 252.750 L 458.680 303 464.310 303 L 469.940 303 469.984 214 L 470.028 125 465.672 125 L 461.316 125 460.661 163.750 M 473 129.963 L 473 134.926 489.500 134.945 L 506 134.964 506 129.982 L 506 125 489.500 125 L 473 125 473 129.963 M 508.608 128.250 C 508.343 130.037, 507.640 159.625, 507.046 194 C 506.451 228.375, 505.679 266.738, 505.329 279.250 L 504.692 302 511.273 302 L 517.853 302 517.901 289.750 C 517.928 283.012, 518.186 270.750, 518.475 262.500 C 518.765 254.250, 519.216 235.575, 519.477 221 C 519.739 206.425, 520.259 178.863, 520.633 159.750 L 521.313 125 515.202 125 L 509.091 125 508.608 128.250 M 524 129.974 L 524 134.948 540 134.943 L 556 134.938 556 129.969 L 556 125 540 125 L 524 125 524 129.974 M 586.667 125.667 C 586.300 126.033, 586 128.508, 586 131.167 L 586 136 593 136 L 600 136 600 130.500 L 600 125 593.667 125 C 590.183 125, 587.033 125.300, 586.667 125.667 M 602.843 130.499 L 603.185 136 609.593 136 L 616 136 616 130.500 L 616 125 609.250 124.999 L 602.500 124.997 602.843 130.499 M 619 130.369 L 619 135.738 622.750 136.358 C 624.813 136.699, 627.737 136.983, 629.250 136.989 L 632 137 632 131 L 632 125 625.500 125 L 619 125 619 130.369 M 635 131 L 635 137 640 137 L 645 137 645 131 L 645 125 640 125 L 635 125 635 131 M 647 217.639 L 647 310.279 652.250 309.648 C 655.138 309.301, 661.810 309.013, 667.078 309.009 L 676.656 309 676.828 217.642 L 677 126.285 670.853 125.642 C 667.473 125.289, 660.723 125, 655.853 125 L 647 125 647 217.639 M 246.387 145.827 C 246.324 156.647, 245.874 170, 245.387 175.500 C 244.899 181, 244.783 188.875, 245.129 193 C 245.789 200.877, 245.415 244.233, 244.387 279 C 243.834 297.714, 243.806 308.140, 244.308 308.641 C 244.414 308.747, 250.913 309.160, 258.750 309.557 L 273 310.281 273 289.699 L 273 269.118 271.951 268.470 L 270.903 267.822 271.817 266.661 L 272.732 265.500 273.339 196 L 273.947 126.500 260.223 126.327 L 246.500 126.153 246.387 145.827 M 564.870 127.739 L 558.240 128.086 557.606 194.793 C 557.257 231.482, 556.866 270.613, 556.736 281.750 L 556.500 302 562 302.014 C 565.025 302.021, 568.513 302.299, 569.750 302.630 L 572 303.233 572 307.117 L 572 311 578.638 311 L 585.276 311 584.646 297.101 C 584.300 289.456, 583.995 248.056, 583.970 205.101 L 583.923 127 577.712 127.196 C 574.295 127.304, 568.516 127.548, 564.870 127.739 M 523.625 140.125 C 523.281 141.844, 523 146.569, 523 150.625 L 523 158 531 158 L 539 158 539 147.500 L 539 137 531.625 137 L 524.250 137 523.625 140.125 M 542 147.500 L 542 158 548.500 158 L 555 158 555.007 154.250 C 555.011 152.188, 555.301 147.463, 555.652 143.750 L 556.289 137 549.145 137 L 542 137 542 147.500 M 369 148 L 369 158 378 158 L 387 158 387 154.147 C 387 152.027, 387.289 147.527, 387.642 144.147 L 388.285 138 378.642 138 L 369 138 369 148 M 422 146.875 L 422 155.750 425.125 156.375 C 426.844 156.719, 431.569 157, 435.625 157 L 443 157 443 147.500 L 443 138 432.500 138 L 422 138 422 146.875 M 445 147.500 L 445 157 451.500 157 L 458 157 458 149.082 C 458 144.727, 458.273 140.452, 458.607 139.582 L 459.214 138 452.107 138 L 445 138 445 147.500 M 473 147.500 L 473 157 479.500 157 L 486 157 486 147.500 L 486 138 479.500 138 L 473 138 473 147.500 M 489 147.644 L 489 157.289 496.467 156.724 C 500.573 156.413, 504.398 155.872, 504.967 155.521 L 506 154.882 506 146.441 L 506 138 497.500 138 L 489 138 489 147.644 M 276 148 L 276 157 282 157 L 288 157 288 148 L 288 139 282 139 L 276 139 276 148 M 290 148 L 290 157 296.642 157 L 303.285 157 302.642 150.853 C 302.289 147.473, 302 143.423, 302 141.853 L 302 139 296 139 L 290 139 290 148 M 305 147.744 L 305 156.750 308.125 157.375 C 309.844 157.719, 313.219 158, 315.625 158 L 320 158 320 149 L 320 140 316.250 139.989 C 314.188 139.983, 310.813 139.699, 308.750 139.358 L 305 138.738 305 147.744 M 586 148.500 L 586 158 593 158 L 600 158 600 148.500 L 600 139 593 139 L 586 139 586 148.500 M 603 148.500 L 603 158 606.375 158 C 608.231 158, 611.156 157.719, 612.875 157.375 L 616 156.750 616 147.875 L 616 139 609.500 139 L 603 139 603 148.500 M 619 148 L 619 157 625.500 157 L 632 157 632 148 L 632 139 625.500 139 L 619 139 619 148 M 635 148 L 635 157 640 157 L 645 157 645 148 L 645 139 640 139 L 635 139 635 148 M 323 149 L 323 158 330.418 158 C 334.498 158, 338.548 158.273, 339.418 158.607 L 341 159.214 341 149.607 L 341 140 332 140 L 323 140 323 149 M 276 170.500 L 276 182 282 182 L 288 182 288 170.500 L 288 159 282 159 L 276 159 276 170.500 M 422 169.500 L 422 180 432.500 180 L 443 180 443 169.500 L 443 159 432.500 159 L 422 159 422 169.500 M 445 170 L 445 181 451.500 181 L 458 181 458 170 L 458 159 451.500 159 L 445 159 445 170 M 472.907 160.750 C 472.855 161.713, 472.675 166.213, 472.507 170.750 L 472.201 179 475.350 179.011 C 477.083 179.017, 480.188 179.301, 482.250 179.642 L 486 180.262 486 169.631 L 486 159 479.500 159 L 473 159 472.907 160.750 M 489 169.371 L 489 179.742 496 180.431 L 503 181.121 503 182.143 L 503 183.164 495.998 182.832 L 488.995 182.500 488.998 189.750 L 489 197 497 197 L 505 197 505 178 L 505 159 497 159 L 489 159 489 169.371 M 639.750 159.735 L 635 160.110 635 170.555 L 635 181 640 181 L 645 181 645 170 C 645 163.950, 644.888 159.081, 644.750 159.180 C 644.612 159.279, 642.362 159.529, 639.750 159.735 M 290 171 L 290 182 296.500 182 L 303 182 303 171 L 303 160 296.500 160 L 290 160 290 171 M 305 171 L 305 182 312.500 182 L 320 182 320 171 L 320 160 312.500 160 L 305 160 305 171 M 322.998 171.250 L 323 182 332 182 L 341 182 341 171.571 L 341 161.142 331.998 160.821 L 322.995 160.500 322.998 171.250 M 542 163.349 C 542 165.191, 541.709 170.141, 541.353 174.349 L 540.707 182 545.603 181.986 C 548.296 181.979, 551.513 181.701, 552.750 181.370 L 555 180.767 555 170.383 L 555 160 548.500 160 L 542 160 542 163.349 M 586 170.500 L 586 181 593.500 181 L 601 181 600.991 175.750 C 600.987 172.863, 600.699 168.137, 600.352 165.250 L 599.721 160 592.861 160 L 586 160 586 170.500 M 603 170.500 L 603 181 609.500 181 L 616 181 616 170.500 L 616 160 609.500 160 L 603 160 603 170.500 M 619 170.500 L 619 181 625.500 181 L 632 181 632 170.500 L 632 160 625.500 160 L 619 160 619 170.500 M 368.652 167.750 C 368.301 171.463, 368.011 175.963, 368.007 177.750 L 368 181 377.500 181 L 387 181 387 171 L 387 161 378.145 161 L 369.289 161 368.652 167.750 M 390 170.921 L 390 180.842 397.502 181.171 L 405.005 181.500 405.002 171.250 L 405 161 397.500 161 L 390 161 390 170.921 M 523 171.500 L 523 182 531 182 L 539 182 539 171.500 L 539 161 531 161 L 523 161 523 171.500 M 472.413 181.917 C 472.186 182.146, 472 185.408, 472 189.167 L 472 196 479 196 L 486 196 486 189.085 L 486 182.171 479.413 181.835 C 475.790 181.651, 472.640 181.688, 472.413 181.917 M 422 190.355 L 422 199 427.250 199.009 C 430.137 199.013, 434.863 199.301, 437.750 199.648 L 443 200.279 443 191.639 L 443 183 439.250 182.993 C 437.188 182.989, 432.462 182.699, 428.750 182.348 L 422 181.711 422 190.355 M 397.250 183.794 L 390 184.088 390 193.442 L 390 202.797 397.059 203.506 C 405.748 204.379, 405.129 205.190, 404.786 193.380 L 404.500 183.500 397.250 183.794 M 445 191.500 L 445 200 451 200 L 457 200 457 201 L 457 202 451 202 L 445 202 445 212.500 L 445 223 450.846 223 L 456.693 223 457.346 210.843 C 457.706 204.157, 458 195.157, 458 190.843 L 458 183 451.500 183 L 445 183 445 191.500 M 586.589 193.250 C 587.400 205.473, 586.340 203.941, 594.349 204.470 L 601 204.910 601 193.955 L 601 183 593.454 183 L 585.908 183 586.589 193.250 M 603 194 L 603 205 609.500 205 L 616 205 616 194 L 616 183 609.500 183 L 603 183 603 194 M 619 194 L 619 205 625.441 205 C 633.283 205, 632.868 205.716, 632.245 193.250 L 631.733 183 625.366 183 L 619 183 619 194 M 635 193.903 L 635 204.807 640.001 205.153 L 645.001 205.500 645.001 194.250 L 645 183 640 183 L 635 183 635 193.903 M 276 194 L 276 204 282 204 L 288 204 288 194 L 288 184 282 184 L 276 184 276 194 M 290 194 L 290 204 296.500 204 L 303 204 303 194 L 303 184 296.500 184 L 290 184 290 194 M 305 194 L 305 204 312.500 204 L 320 204 320 194 L 320 184 312.500 184 L 305 184 305 194 M 323 194 L 323 204 331.429 204 L 339.858 204 340.196 194.750 C 340.621 183.119, 341.338 184, 331.441 184 L 323 184 323 194 M 368 192.861 L 368 201.721 373.250 202.352 C 376.137 202.699, 380.413 202.987, 382.750 202.991 L 387 203 387 193.500 L 387 184 377.500 184 L 368 184 368 192.861 M 529.874 184.739 L 523.248 185.086 522.635 188.793 C 522.298 190.832, 522.017 194.863, 522.011 197.750 L 522 203 530.500 203 L 539 203 539 193.500 L 539 184 537.750 184.196 C 537.063 184.304, 533.518 184.548, 529.874 184.739 M 541.214 193.750 L 541.500 203.500 547.750 203.798 C 551.188 203.961, 554 204.524, 554 205.048 L 554 206 547.500 206 L 541 206 541 214.450 L 541 222.900 546.671 223.200 L 552.342 223.500 552.754 224.750 L 553.167 226 547.083 226 L 541 226 541 233.500 L 541 241 547.500 241 L 554 241 554 242.500 L 554 244 547.500 244 L 541 244 541 255.500 L 541 267 547.345 267 L 553.690 267 554.345 253.342 C 554.705 245.830, 555 227.155, 555 211.842 L 555 184 547.964 184 L 540.928 184 541.214 193.750 M 472 212.088 L 472 225.176 476.250 224.534 C 478.587 224.182, 481.738 223.656, 483.250 223.367 L 486 222.841 486 210.921 L 486 199 479 199 L 472 199 472 212.088 M 489 210.921 L 489 222.842 496.502 223.171 L 504.005 223.500 504.016 213.500 C 504.022 208, 504.299 202.488, 504.630 201.250 L 505.233 199 497.117 199 L 489 199 489 210.921 M 422 213.607 L 422 225.214 423.485 224.644 C 424.302 224.331, 429.027 223.768, 433.985 223.394 L 443 222.713 443 212.357 L 443 202 432.500 202 L 422 202 422 213.607 M 368 214 L 368 223 377.500 223 L 387 223 387 214 L 387 205 377.500 205 L 368 205 368 214 M 522 214.492 L 522 224.262 525.750 223.642 C 527.813 223.301, 531.638 223.017, 534.250 223.011 L 539 223 539 214.500 L 539 206 535.750 205.991 C 533.962 205.987, 530.138 205.699, 527.250 205.352 L 522 204.721 522 214.492 M 295.250 206.737 L 290 207.105 290 215.052 L 290 223 296.500 223 L 303 223 303 214.500 L 303 206 301.750 206.185 C 301.063 206.287, 298.137 206.535, 295.250 206.737 M 305 214.500 L 305 223 312.500 223 L 320 223 320 214.500 L 320 206 312.500 206 L 305 206 305 214.500 M 323 214.427 L 323 222.853 331.502 223.177 L 340.005 223.500 340.002 214.750 L 340 206 331.500 206 L 323 206 323 214.427 M 389.625 209.125 C 389.281 210.844, 389 214.634, 389 217.549 L 389 222.848 397.002 223.174 L 405.005 223.500 405.002 214.750 L 405 206 397.625 206 L 390.250 206 389.625 209.125 M 276 215 L 276 223 282 223 L 288 223 288 215 L 288 207 282 207 L 276 207 276 215 M 587 215 L 587 223 594 223 L 601 223 601 215 L 601 207 594 207 L 587 207 587 215 M 603 215 L 603 223 609.500 223 L 616 223 616 215 L 616 207 609.500 207 L 603 207 603 215 M 619 215 L 619 223 626 223 L 633 223 633 215 L 633 207 626 207 L 619 207 619 215 M 639.750 207.805 L 635 208.110 635 215.555 L 635 223 639.455 223 L 643.909 223 644.520 219.747 C 644.855 217.958, 644.988 214.471, 644.815 211.997 L 644.500 207.500 639.750 207.805 M 331.250 225.744 L 323 226.081 323 233.540 L 323 241 331.500 241 L 340 241 340 233 C 340 228.600, 339.887 225.092, 339.750 225.204 C 339.613 225.315, 335.788 225.559, 331.250 225.744 M 495.750 225.743 L 488 226.084 488 233.966 L 488 241.848 496.002 242.174 L 504.005 242.500 504.002 233.750 C 504.001 228.938, 503.887 225.091, 503.750 225.201 C 503.613 225.312, 500.012 225.556, 495.750 225.743 M 587 232.869 L 587 241 594 241 L 601 241 601 233.500 L 601 226 597.750 225.989 C 595.962 225.983, 592.813 225.699, 590.750 225.358 L 587 224.738 587 232.869 M 276 233.500 L 276 241 282 241 L 288 241 288 233.500 L 288 226 282 226 L 276 226 276 233.500 M 290 233.500 L 290 241 296.500 241 L 303 241 303 233.500 L 303 226 296.500 226 L 290 226 290 233.500 M 305 231.918 C 305 235.173, 305.273 238.548, 305.607 239.418 L 306.214 241 313.107 241 L 320 241 320 233.500 L 320 226 312.500 226 L 305 226 305 231.918 M 368 234 L 368 242 377.500 242 L 387 242 387 234 L 387 226 377.500 226 L 368 226 368 234 M 389 234.052 L 389 242.104 397 241.911 L 405 241.718 405 233.859 L 405 226 397 226 L 389 226 389 234.052 M 425.336 226.717 L 422.172 227.114 421.591 231.807 C 420.401 241.410, 420.824 241.747, 434.250 241.900 L 443 242 443 234 L 443 226 435.750 226.160 C 431.762 226.248, 427.076 226.499, 425.336 226.717 M 445 234 L 445 242 451 242 L 457 242 457 234 L 457 226 451 226 L 445 226 445 234 M 476 226.882 L 472.500 227.500 472.204 234.250 L 471.909 241 475.204 241.011 C 477.017 241.017, 480.188 241.301, 482.250 241.642 L 486 242.262 486 234.131 L 486 226 482.750 226.132 C 480.962 226.204, 477.925 226.542, 476 226.882 M 522 231.918 C 522 235.173, 521.727 238.548, 521.393 239.418 L 520.786 241 529.893 241 L 539 241 539 233.500 L 539 226 530.500 226 L 522 226 522 231.918 M 604 233.375 L 604 240.750 607.125 241.375 C 608.844 241.719, 611.544 242, 613.125 242 L 616 242 616 234 L 616 226 610 226 L 604 226 604 233.375 M 619 234 L 619 242 626 242 L 633 242 633 234 L 633 226 626 226 L 619 226 619 234 M 635 234 L 635 242 639.500 242 L 644 242 644 234 L 644 226 639.500 226 L 635 226 635 234 M 396.750 243.792 L 389 244.084 389 254.433 L 389 264.781 396.750 265.218 C 401.012 265.458, 404.628 265.567, 404.784 265.460 C 404.940 265.353, 404.940 260.368, 404.784 254.383 L 404.500 243.500 396.750 243.792 M 275 255 L 275 266 281.500 266 L 288 266 288 255 L 288 244 281.500 244 L 275 244 275 255 M 290 255 L 290 266 296.500 266 L 303 266 303 255 L 303 244 296.500 244 L 290 244 290 255 M 306 255 L 306 266 310.750 265.986 C 313.363 265.979, 316.512 265.701, 317.750 265.370 L 320 264.767 320 254.383 L 320 244 313 244 L 306 244 306 255 M 323 254.500 L 323 265 331.500 265 L 340 265 340 254.500 L 340 244 331.500 244 L 323 244 323 254.500 M 368 254.500 L 368 265 377.500 265 L 387 265 387 254.500 L 387 244 377.500 244 L 368 244 368 254.500 M 421 254.500 L 421 265 432 265 L 443 265 443 254.500 L 443 244 432 244 L 421 244 421 254.500 M 445 254.611 L 445 265 451 265 L 457 265 456.992 254.750 L 456.984 244.500 450.992 244.361 L 445 244.222 445 254.611 M 472 255 L 472 266 479 266 L 486 266 486 255 L 486 244 479 244 L 472 244 472 255 M 488 254.923 L 488 266 495.500 266 L 503 266 503 261.147 C 503 258.477, 503.276 253.640, 503.613 250.397 L 504.226 244.500 496.113 244.173 L 488 243.847 488 254.923 M 521 254.861 L 521 265.721 526.250 266.352 C 529.138 266.699, 532.906 266.987, 534.625 266.991 L 537.750 267 538.375 263.875 C 538.719 262.156, 539 256.981, 539 252.375 L 539 244 530 244 L 521 244 521 254.861 M 587 254.500 L 587 265 594 265 L 601 265 601 254.500 L 601 244 594 244 L 587 244 587 254.500 M 604 254.500 L 604 265 610 265 L 616 265 616 254.500 L 616 244 610 244 L 604 244 604 254.500 M 619 254.500 L 619 265 626 265 L 633 265 633 254.500 L 633 244 626 244 L 619 244 619 254.500 M 635 254.500 L 635 265 639.500 265 L 644 265 644 254.500 L 644 244 639.500 244 L 635 244 635 254.500 M 368 280.006 L 368 293 376.853 293 L 385.707 293 386.353 285.349 C 386.709 281.141, 387 275.516, 387 272.849 L 387 268 379.750 267.926 C 375.762 267.885, 371.488 267.663, 370.250 267.432 L 368 267.013 368 280.006 M 587 281.500 L 587 296 594.500 296 L 602 296 601.994 289.750 C 601.991 286.313, 601.699 279.788, 601.346 275.250 L 600.704 267 593.852 267 L 587 267 587 281.500 M 604 281.500 L 604 296 610 296 L 616 296 616 281.500 L 616 267 610 267 L 604 267 604 281.500 M 619 281.500 L 619 296 626 296 L 633 296 633 281.500 L 633 267 626 267 L 619 267 619 281.500 M 635 281.500 L 635 296 639.500 296 L 644 296 644 281.500 L 644 267 639.500 267 L 635 267 635 281.500 M 278.250 268.723 L 275 269.127 275 282.563 L 275 296 281.500 296 L 288 296 288 282 L 288 268 284.750 268.160 C 282.962 268.248, 280.038 268.502, 278.250 268.723 M 290 282 L 290 296 296.500 296 L 303 296 303 282 L 303 268 296.500 268 L 290 268 290 282 M 306 282 L 306 296 313 296 L 320 296 320 282 L 320 268 313 268 L 306 268 306 282 M 323 282 L 323 296 330.850 296 L 338.701 296 339.350 286.846 C 339.708 281.812, 340 275.512, 340 272.846 L 340 268 331.500 268 L 323 268 323 282 M 389 280 L 389 292 397 292 L 405 292 405 280 L 405 268 397 268 L 389 268 389 280 M 421 280.384 L 421 292.767 431.250 293.225 C 444.104 293.799, 443 295, 443 280.441 L 443 268 432 268 L 421 268 421 280.384 M 445 281 L 445 294 450.500 294 L 456 294 456 287.147 C 456 283.377, 456.289 277.527, 456.642 274.147 L 457.285 268 451.142 268 L 445 268 445 281 M 471.998 281.750 L 472 295 479 295 L 486 295 486 290.500 L 486 286 484.800 286 L 483.600 286 484.800 284.800 L 486 283.600 486 276.382 L 486 269.164 478.998 268.832 L 471.995 268.500 471.998 281.750 M 488 282 L 488 295 495 295 L 502 295 502 296 L 502 297 495 297 L 488 297 488 300.137 L 488 303.274 494.626 302.742 L 501.252 302.210 502.111 300.855 C 502.583 300.110, 502.976 292.637, 502.985 284.250 L 503 269 495.500 269 L 488 269 488 282 M 520.989 277.250 C 520.983 281.788, 520.699 287.188, 520.358 289.250 L 519.738 293 528.869 293 L 538 293 538 281 L 538 269 529.500 269 L 521 269 520.989 277.250 M 541 280.952 L 541 293 547.532 293 L 554.063 293 553.782 281.250 L 553.500 269.500 547.250 269.202 L 541 268.905 541 280.952 M 368 299 L 368 303 377.276 303 L 386.553 303 386.171 299 L 385.790 295 376.895 295 L 368 295 368 299 M 388.829 299 L 388.447 303 396.724 303 L 405 303 405 299 L 405 295 397.105 295 L 389.210 295 388.829 299 M 421 299.500 L 421 303 432 303 L 443 303 443 299.500 L 443 296 432 296 L 421 296 421 299.500 M 445 299.500 L 445 303 450.500 303 L 456 303 456 299.500 L 456 296 450.500 296 L 445 296 445 299.500 M 520 299 L 520 302 529 302 L 538 302 538 299 L 538 296 529 296 L 520 296 520 299 M 541 299 L 541 302 547.500 302 L 554 302 554 299 L 554 296 547.500 296 L 541 296 541 299 M 472 300 L 472 303 479 303 L 486 303 486 300 L 486 297 479 297 L 472 297 472 300 M 275 304 L 275 310 281.500 310 L 288 310 288 304 L 288 298 281.500 298 L 275 298 275 304 M 290.696 298.750 C 290.464 299.163, 290.204 301.863, 290.119 304.750 L 289.963 310 296.482 310 L 303 310 303 304 L 303 298 297.059 298 C 293.791 298, 290.928 298.337, 290.696 298.750 M 306 303.883 L 306 309.767 308.250 310.370 C 309.488 310.701, 312.637 310.979, 315.250 310.986 L 320 311 320 304.500 L 320 298 313 298 L 306 298 306 303.883 M 323 304.500 L 323 311 331 311 L 339 311 339 304.500 L 339 298 331 298 L 323 298 323 304.500 M 587 304.639 L 587 311.279 592.250 310.648 C 595.138 310.301, 598.513 310.013, 599.750 310.009 L 602 310 602 304 L 602 298 594.500 298 L 587 298 587 304.639 M 604 304 L 604 310 610 310 L 616 310 616 304 L 616 298 610 298 L 604 298 604 304 M 619 304 L 619 310 626 310 L 633 310 633 304 L 633 298 626 298 L 619 298 619 304 M 635.838 299.750 C 635.749 300.163, 635.637 302.636, 635.588 305.247 L 635.500 309.994 639.750 309.997 L 644 310 644 304.500 L 644 299 640 299 C 637.800 299, 635.927 299.337, 635.838 299.750 M 568.815 304.518 C 568.530 304.803, 526.267 305.024, 474.898 305.009 C 382.636 304.982, 354 305.489, 354 307.149 L 354 308 461.393 308 L 568.786 308 569.417 306.357 C 570.068 304.658, 569.725 303.608, 568.815 304.518 M 354 322 L 354 334 400.750 334.001 C 426.462 334.001, 474.837 334.300, 508.250 334.665 L 569 335.328 569 322.664 L 569 310 525.477 310 L 481.954 310 483.500 312.360 L 485.047 314.721 483.133 317.084 L 481.220 319.447 481.987 321.474 C 483.020 324.199, 482.737 328.021, 481.500 328.046 C 480.950 328.057, 480.275 326.364, 480 324.283 L 479.500 320.500 478.590 321.913 C 478.090 322.690, 477.404 324.681, 477.065 326.338 C 476.413 329.525, 474 331.282, 474 328.571 C 474 326.949, 477.216 314.946, 478.507 311.750 L 479.214 310 416.607 310 L 354 310 354 322 M 451.668 318.464 C 450.661 322.569, 450.155 326.441, 450.543 327.070 L 451.250 328.214 452.110 326.857 C 452.583 326.111, 452.976 324.488, 452.985 323.250 C 453.007 320.022, 454.921 320.476, 456.150 324 C 456.725 325.650, 457.602 327, 458.098 327 C 459.320 327, 459.240 323.316, 457.965 320.934 L 456.930 319 457.990 319 C 458.573 319, 459.498 317.820, 460.046 316.378 L 461.043 313.757 459.899 312.378 C 459.270 311.620, 457.573 311, 456.128 311.001 L 453.500 311.002 451.668 318.464 M 468.011 312.547 L 465.523 313.922 464.281 318.711 C 462.815 324.362, 462.656 328, 463.875 328 C 464.356 328, 465.034 326.578, 465.382 324.840 L 466.014 321.680 470.110 317.899 C 475.646 312.787, 474.210 309.123, 468.011 312.547 M 394.236 313.216 C 393.602 313.979, 393.328 315.537, 393.626 316.677 L 394.168 318.750 392.084 322.835 C 390.938 325.082, 390 327.409, 390 328.005 L 390 329.091 393.750 328.488 C 400.701 327.370, 402 326.966, 402 325.920 L 402 324.877 397.487 325.554 L 392.974 326.231 393.546 324.741 C 393.860 323.921, 395.891 322.451, 398.059 321.473 C 400.227 320.496, 402 319.315, 402 318.848 C 402 317.726, 400.293 317.773, 398.081 318.957 L 396.294 319.913 396.779 317.374 L 397.265 314.836 402.296 315.168 L 407.327 315.500 407.747 314.250 L 408.167 313 404.708 313 C 402.806 313, 399.931 312.736, 398.319 312.414 L 395.388 311.828 394.236 313.216 M 426.572 312.884 L 425.918 313.941 428.459 314.579 C 431.519 315.347, 431.617 316.475, 428.996 320.774 C 427.013 324.027, 426.315 328.046, 427.750 327.950 C 428.163 327.922, 429.745 325.269, 431.267 322.054 L 434.035 316.208 436.517 315.585 C 440.284 314.640, 439.485 313.002, 435.250 312.986 C 433.188 312.979, 430.538 312.715, 429.363 312.399 C 428.187 312.084, 426.932 312.302, 426.572 312.884 M 490.042 317.250 C 488.033 326.370, 487.974 326.866, 488.849 327.407 C 489.320 327.698, 490.559 327.284, 491.603 326.487 L 493.500 325.038 492.305 324.244 L 491.109 323.449 492.031 319.475 C 493.211 314.385, 493.233 312, 492.100 312 C 491.605 312, 490.679 314.363, 490.042 317.250 M 597.250 312.749 L 572 313.034 571.999 314.767 L 571.999 316.500 606.749 316.281 C 625.862 316.161, 650.163 315.774, 660.750 315.422 L 680 314.781 680 313.391 L 680 312 651.250 312.232 C 635.438 312.360, 611.138 312.592, 597.250 312.749 M 418.289 318.764 L 415.078 324.500 415.039 319.177 L 415 313.853 413.491 314.177 C 411.714 314.557, 405.723 326.711, 406.941 327.464 C 408.012 328.125, 409.553 326.242, 411.469 321.931 L 412.994 318.500 412.633 321.500 C 412.435 323.150, 412.668 325.271, 413.151 326.213 L 414.031 327.926 415.564 327.337 C 417.048 326.768, 423 316.115, 423 314.029 C 423 311.670, 421.307 313.372, 418.289 318.764 M 440.766 317.760 C 439.594 320.103, 437.818 322.760, 436.818 323.665 C 433.631 326.549, 433.865 326.678, 443.402 327.308 C 444.999 327.414, 446.476 327.006, 446.685 326.403 L 447.065 325.306 443.930 325.217 C 438.943 325.075, 438.588 322, 443.559 322 C 444.902 322, 446 321.550, 446 321 C 446 320.450, 445.325 320, 444.500 320 C 441.683 320, 443.327 316.455, 446.417 315.866 C 447.472 315.665, 448.516 314.953, 448.739 314.285 L 449.144 313.069 446.020 313.285 L 442.896 313.500 440.766 317.760 M 500.189 315.039 C 497.475 317.567, 497.478 317.802, 500.250 320.823 L 502.500 323.274 501.392 323.673 C 499.131 324.487, 496.525 326.858, 497.176 327.509 C 497.546 327.879, 499.120 327.574, 500.674 326.832 L 503.500 325.481 503.845 323.047 L 504.190 320.612 502.345 319.244 L 500.500 317.876 502.418 316.455 L 504.336 315.034 505.624 316.103 C 506.333 316.691, 507.450 316.840, 508.108 316.433 L 509.303 315.695 507.460 314.347 C 504.882 312.462, 502.736 312.666, 500.189 315.039 M 513.347 314.488 C 511.810 315.612, 508.405 328.738, 509.394 329.728 C 511.164 331.498, 521.628 329.824, 520.473 327.956 L 519.913 327.050 515.437 327.664 L 510.962 328.277 511.844 325.889 L 512.725 323.500 515.530 323 C 517.073 322.725, 518.542 321.878, 518.795 321.118 L 519.255 319.736 516.127 320.195 C 512.910 320.667, 512.562 320.305, 513.607 317.582 L 514.214 316 518.190 316 L 522.167 316 521.749 314.750 L 521.332 313.500 518.060 313.467 C 516.260 313.449, 514.140 313.908, 513.347 314.488 M 379.750 317.481 C 377.169 319.755, 376.143 322, 377.686 322 C 378.063 322, 379.370 321.062, 380.591 319.914 L 382.811 317.829 383.444 319.822 C 383.791 320.918, 384.816 322.099, 385.721 322.447 L 387.367 323.078 389.378 321.067 C 391.672 318.773, 390.878 317.027, 388.455 319.037 L 386.862 320.360 384.681 317.709 L 382.500 315.059 379.750 317.481 M 528.238 319.162 C 526.811 320.589, 526.584 323, 527.878 323 C 528.360 323, 529.343 322.292, 530.061 321.426 L 531.367 319.853 532.715 322.426 L 534.064 325 536.598 325 C 539.632 325, 543 323.347, 543 321.858 L 543 320.786 541.407 321.397 C 540.531 321.733, 538.844 322.251, 537.657 322.548 L 535.500 323.087 534.500 320.793 C 533.361 318.180, 530.076 317.324, 528.238 319.162 M 593.546 318.749 L 572.592 319.042 571.811 320.271 C 571.382 320.947, 571.024 325.755, 571.015 330.957 L 571 340.413 567.064 346.024 L 563.128 351.635 562.548 365.567 C 562.229 373.230, 561.726 384.337, 561.430 390.250 L 560.893 401 570.927 401 L 580.962 401 581.559 398.621 C 581.887 397.313, 582.233 390.754, 582.328 384.046 L 582.500 371.851 580.838 370.629 L 579.176 369.408 578.866 364.454 L 578.557 359.500 581.114 359.199 L 583.672 358.899 584.586 355.199 L 585.500 351.500 610.422 351.880 C 624.128 352.089, 637.628 352.539, 640.422 352.880 L 645.500 353.500 645.625 354.750 C 645.694 355.438, 645.806 356.900, 645.875 358 L 646 360 649.941 360 C 654.701 360, 655.021 360.425, 654.301 365.795 L 653.737 370 652.385 370 C 651.642 370, 649.810 372.363, 648.314 375.250 L 645.594 380.500 645.193 391.617 L 644.793 402.734 659.964 403.466 C 668.309 403.868, 675.335 403.998, 675.578 403.755 C 675.898 403.435, 678.849 330.236, 678.985 319.250 L 679 318 646.750 318.229 C 629.013 318.354, 605.071 318.589, 593.546 318.749 M 245.533 345.250 C 245.151 359.688, 244.987 378.475, 245.169 387 L 245.500 402.500 259.158 402.778 L 272.816 403.055 273.426 394.278 C 273.762 389.450, 274.186 383.368, 274.370 380.761 L 274.704 376.023 273.201 373.761 C 272.374 372.518, 270.359 370.070, 268.722 368.322 L 265.747 365.144 266.393 362.572 L 267.038 360 270.806 360 L 274.575 360 274.812 356.889 C 274.942 355.178, 275.488 352.956, 276.026 351.952 L 277.003 350.126 280.251 350.539 C 282.038 350.766, 293.400 351.420, 305.500 351.991 C 317.600 352.562, 329.863 353.280, 332.750 353.587 L 338 354.144 338 356.447 L 338 358.750 341.081 359.366 L 344.163 359.983 343.459 363.241 C 343.072 365.034, 341.848 368.292, 340.739 370.482 L 338.723 374.464 338.923 388.961 C 339.162 406.194, 337.193 403.785, 351.710 404.606 L 363.834 405.291 364.376 400.895 C 364.674 398.478, 365.172 386.825, 365.482 375 L 366.045 353.500 359.018 347.654 L 351.990 341.808 351.373 339.348 C 351.033 337.995, 350.951 333.156, 351.190 328.595 L 351.626 320.302 333.653 319.651 C 323.767 319.293, 300.053 319, 280.953 319 L 246.227 319 245.533 345.250 M 354 337.838 L 354 339.994 440.250 339.373 C 487.688 339.032, 536.175 338.428, 548 338.032 L 569.500 337.312 482 337.154 C 433.875 337.066, 385.387 336.700, 374.250 336.339 L 354 335.683 354 337.838 M 412.547 341.987 L 356.595 342.500 362.155 347.250 L 367.716 352 388.191 352 C 399.453 352, 408.854 351.822, 409.083 351.605 C 409.313 351.387, 435.375 350.929, 467 350.586 C 498.625 350.243, 532.825 349.713, 543 349.409 L 561.500 348.855 564.223 345.678 C 565.721 343.930, 566.958 342.163, 566.973 341.750 C 567.001 340.985, 512.819 341.069, 412.547 341.987 M 506.334 352.772 L 505.168 353.514 504.084 384.409 C 503.488 401.401, 503 416.136, 503 417.152 L 503 419 508.500 419 L 514 419 514.002 410.250 C 514.003 405.438, 514.300 390.363, 514.662 376.750 L 515.320 352 511.410 352.015 C 509.260 352.024, 506.975 352.364, 506.334 352.772 M 517.991 355.250 C 517.987 357.038, 517.699 360.863, 517.352 363.750 L 516.721 369 521.861 369 L 527 369 527 360.500 L 527 352 522.500 352 L 518 352 517.991 355.250 M 529 361 L 529 370 535 370 L 541 370 541 361 L 541 352 535 352 L 529 352 529 361 M 544 361 L 544 370 548.875 370 C 551.556 370, 555.156 369.719, 556.875 369.375 L 560 368.750 560 360.375 L 560 352 552 352 L 544 352 544 361 M 277.630 355.250 C 277.299 356.488, 277.021 358.058, 277.014 358.741 L 277 359.981 306.250 359.352 C 336.133 358.709, 337.050 358.636, 335.433 357.052 C 334.750 356.382, 287.867 353, 279.267 353 C 278.698 353, 277.962 354.012, 277.630 355.250 M 439.750 353.667 L 438 354.147 438 361.573 L 438 369 443.042 369 L 448.084 369 447.792 361.250 L 447.500 353.500 444.500 353.344 C 442.850 353.258, 440.712 353.403, 439.750 353.667 M 450.358 356.750 C 450.699 358.813, 450.983 362.413, 450.989 364.750 L 451 369 456 369 L 461 369 461 362.582 C 461 359.052, 460.727 355.452, 460.393 354.582 L 459.786 353 454.762 353 L 449.738 353 450.358 356.750 M 463 356.360 C 463 358.209, 463.286 361.809, 463.636 364.360 L 464.272 369 470.136 369 L 476 369 476 361 L 476 353 469.500 353 L 463 353 463 356.360 M 478 356.360 C 478 358.209, 478.286 361.809, 478.636 364.360 L 479.272 369 483.636 369 L 488 369 488 361 L 488 353 483 353 L 478 353 478 356.360 M 491 361 L 491 369 496 369 L 501 369 501 370 L 501 371 496.167 371 C 493.508 371, 491.067 371.267, 490.740 371.593 C 490.414 371.919, 478.077 372.205, 463.324 372.228 L 436.500 372.269 468.928 373.124 C 486.763 373.593, 501.450 373.870, 501.566 373.739 C 501.681 373.607, 501.955 368.887, 502.173 363.250 L 502.571 353 496.785 353 L 491 353 491 361 M 372.250 354.732 L 368 355.115 368 362.557 L 368 370 375 370 L 382 370 382 365.125 C 382 362.444, 381.719 358.844, 381.375 357.125 L 380.750 354 378.625 354.175 C 377.456 354.271, 374.587 354.522, 372.250 354.732 M 384 362 L 384 370 389.500 370 L 395 370 395 362 L 395 354 389.500 354 L 384 354 384 362 M 398 360.418 C 398 363.948, 397.727 367.548, 397.393 368.418 L 396.786 370 402.893 370 L 409 370 409 362 L 409 354 403.500 354 L 398 354 398 360.418 M 411 387 L 411 420 414.878 420 L 418.757 420 419.392 401.250 C 419.741 390.938, 420.300 376.087, 420.634 368.250 L 421.242 354 416.121 354 L 411 354 411 387 M 423 362 L 423 370 426.375 370 C 428.231 370, 431.156 369.719, 432.875 369.375 L 436 368.750 436 361.375 L 436 354 429.500 354 L 423 354 423 362 M 587 356.500 L 587 359 596.250 359.003 C 601.337 359.004, 613.938 359.301, 624.250 359.661 L 643 360.316 643 357.816 L 643 355.316 624.250 354.661 C 613.938 354.301, 601.337 354.004, 596.250 354.003 L 587 354 587 356.500 M 660.713 359.621 C 660.321 360.013, 660 364.732, 660 370.108 L 660 379.882 661.065 380.540 C 661.651 380.902, 663.658 380.911, 665.527 380.561 L 668.924 379.924 669.438 376.712 C 669.722 374.945, 670.076 370.350, 670.227 366.500 L 670.500 359.500 665.963 359.204 C 663.467 359.041, 661.105 359.229, 660.713 359.621 M 252 371.500 L 252 382 255.418 382 C 257.298 382, 259.548 382.273, 260.418 382.607 L 262 383.214 262 372.107 L 262 361 257 361 L 252 361 252 371.500 M 663 363.853 C 663 365.423, 662.716 369.421, 662.369 372.740 L 661.739 378.773 664.241 378.294 L 666.743 377.816 667.363 372.658 C 667.704 369.821, 667.987 366.038, 667.991 364.250 L 668 361 665.500 361 L 663 361 663 363.853 M 269 364.013 L 269 366.025 304.737 365.763 L 340.473 365.500 340.810 363.750 L 341.147 362 305.073 362 L 269 362 269 364.013 M 581 365 L 581 368 614.918 368 C 633.573 368, 649.548 367.727, 650.418 367.393 L 652 366.786 652 364.393 L 652 362 616.500 362 L 581 362 581 365 M 255.035 364.934 C 254.466 365.998, 254 369.598, 254 372.934 L 254 379 257 379 L 260 379 260 371 L 260 363 258.035 363 C 256.955 363, 255.605 363.870, 255.035 364.934 M 274.685 371.971 L 277.500 375.941 306.278 375.949 L 335.056 375.956 337.024 372.728 C 338.107 370.953, 338.994 369.163, 338.996 368.750 C 338.998 368.337, 323.896 368, 305.435 368 L 271.870 368 274.685 371.971 M 593.750 370.746 C 584.193 371.066, 583.279 371.358, 584.765 373.617 L 585.500 374.734 614.500 375.355 C 644.559 375.999, 644.930 375.964, 646.885 372.250 L 648.070 370 625.785 370.209 C 613.528 370.324, 599.112 370.566, 593.750 370.746 M 558.733 371.601 C 558.402 371.931, 548.877 372.140, 537.566 372.064 L 517 371.926 517 375.982 L 517 380.038 519.250 379.576 C 520.487 379.322, 529.038 378.833, 538.250 378.488 L 555 377.862 555 397.931 L 555 418 556.404 418 L 557.808 418 558.374 407.750 C 559.161 393.502, 559.908 371, 559.594 371 C 559.451 371, 559.063 371.270, 558.733 371.601 M 368.083 372.370 C 368.313 372.573, 377.725 372.978, 389 373.269 L 409.500 373.799 404 372.998 C 398.552 372.205, 367.281 371.658, 368.083 372.370 M 425.728 372.722 C 427.503 372.943, 430.653 372.946, 432.728 372.730 C 434.802 372.513, 433.350 372.333, 429.500 372.328 C 425.650 372.324, 423.952 372.501, 425.728 372.722 M 367.608 385.250 C 367.290 390.337, 366.890 400.238, 366.719 407.250 L 366.409 420 368.696 420 L 370.983 420 371.106 403.750 C 371.173 394.813, 371.337 385.700, 371.470 383.500 L 371.711 379.500 389.820 379.245 L 407.930 378.989 408.254 389.245 L 408.578 399.500 408.789 387.750 L 409 376 388.593 376 L 368.187 376 367.608 385.250 M 422.611 384.250 C 421.590 399.058, 421.326 420, 422.161 420 C 422.609 420, 422.879 419.212, 422.760 418.250 C 422.641 417.288, 422.915 407.904, 423.368 397.397 L 424.192 378.294 436.346 378.737 C 443.031 378.981, 451.351 379.477, 454.835 379.840 L 461.171 380.500 461.047 399.750 L 460.923 419 462.462 419 L 464 419 464.015 400.250 C 464.024 389.938, 464.375 380.958, 464.796 380.297 L 465.560 379.093 483.243 379.701 L 500.926 380.308 500.532 389.904 L 500.138 399.500 500.952 393 C 501.400 389.425, 501.819 384.137, 501.883 381.250 L 502 376 462.590 376 L 423.180 376 422.611 384.250 M 585.625 380.125 C 585.281 381.844, 585 384.094, 585 385.125 L 585 387 591.869 387 L 598.738 387 599.358 383.250 C 599.699 381.188, 599.983 378.938, 599.989 378.250 L 600 377 593.125 377 L 586.250 377 585.625 380.125 M 299.750 378.792 L 292 379.084 292 384.311 L 292 389.539 299.750 389.160 C 309.001 388.709, 308.180 389.299, 307.806 383.361 L 307.500 378.500 299.750 378.792 M 311 383.500 L 311 389 317 389 L 323 389 323 383.500 L 323 378 317 378 L 311 378 311 383.500 M 325 381.918 C 325 384.073, 325.273 386.548, 325.607 387.418 L 326.214 389 331.107 389 L 336 389 336 383.500 L 336 378 330.500 378 L 325 378 325 381.918 M 601.843 382.500 L 601.486 387 607.743 387 L 614 387 614 384.082 C 614 382.477, 614.273 380.452, 614.607 379.582 L 615.214 378 608.708 378 L 602.201 378 601.843 382.500 M 617 382.362 L 617 386.725 622.641 387.388 C 629.278 388.168, 628.577 388.646, 629.433 382.750 L 630.123 378 623.561 378 L 617 378 617 382.362 M 631.847 383.001 L 631.500 388.001 637.250 388.001 L 643 388 643 383 L 643 378 637.597 378 L 632.193 378 631.847 383.001 M 280 380.107 C 280 380.716, 279.381 380.977, 278.625 380.686 L 277.250 380.159 276.625 384.719 C 276.281 387.227, 276 392.366, 276 396.140 L 276 403 283 403 L 290 403 290 397.500 L 290 392 283.500 392 L 277 392 277 391 L 277 390 282.941 390 C 289.858 390, 290.349 389.510, 289.447 383.497 L 288.773 379 284.386 379 L 280 379 280 380.107 M 426.642 384.750 C 426.301 386.813, 426.017 391.313, 426.011 394.750 L 426 401 430.930 401 L 435.861 401 436.180 398.960 C 436.587 396.365, 438.581 396.464, 438.262 399.063 C 438.131 400.128, 438.406 401, 438.872 401 C 439.840 401, 440.978 392.805, 440.991 385.750 L 441 381 434.131 381 L 427.262 381 426.642 384.750 M 466 390.383 L 466 400 471.500 400 L 477 400 477 397.500 C 477 396.125, 477.450 395, 478 395 C 478.550 395, 479 396.125, 479 397.500 C 479 398.875, 479.450 400, 480 400 L 481 400 481 391 L 481 382 475.750 381.986 C 472.863 381.979, 469.488 381.701, 468.250 381.370 L 466 380.767 466 390.383 M 523.852 381.722 L 520.205 382.109 519.616 384.304 C 519.292 385.512, 519.021 389.762, 519.014 393.750 L 519 401 522.250 400.986 C 527 400.966, 530 399.959, 530 398.383 C 530 397.623, 530.614 397, 531.364 397 L 532.728 397 533.364 392.360 C 533.714 389.809, 534 386.209, 534 384.360 L 534 381 530.750 381.168 C 528.962 381.261, 525.859 381.510, 523.852 381.722 M 536 390.500 L 536 400 537 400 C 537.550 400, 538 399.325, 538 398.500 C 538 397.675, 538.464 397, 539.031 397 C 539.599 397, 540.322 397.675, 540.638 398.500 L 541.214 400 546.490 400 L 551.767 400 552.370 397.750 C 552.701 396.512, 552.979 392.238, 552.986 388.250 L 553 381 544.500 381 L 536 381 536 390.500 M 374 389.883 L 374 397.767 376.250 398.370 C 377.488 398.701, 379.685 398.979, 381.133 398.986 L 383.767 399 384.316 396.899 L 384.865 394.799 385.933 395.458 C 386.520 395.821, 387 396.766, 387 397.559 C 387 398.352, 387.450 399, 388 399 L 389 399 389 391.117 L 389 383.233 386.750 382.630 C 385.512 382.299, 382.137 382.021, 379.250 382.014 L 374 382 374 389.883 M 392.079 390.250 C 392.122 394.788, 392.385 397.938, 392.662 397.250 C 393.261 395.766, 396 395.561, 396 397 L 396 398 401 398 L 406 398 406 390 L 406 382 399 382 L 392 382 392.079 390.250 M 443 389 L 443 396 444.250 395.750 L 445.500 395.500 445.262 397.750 L 445.024 400 452.012 400 L 459 400 459 391 L 459 382 451 382 L 443 382 443 389 M 484.136 391.250 C 484.211 396.337, 484.467 399.488, 484.706 398.250 C 485.243 395.463, 487 395.272, 487 398 L 487 400 490.250 399.986 C 492.038 399.979, 494.512 399.701, 495.750 399.370 L 498 398.767 498 390.383 L 498 382 491 382 L 484 382 484.136 391.250 M 584.584 391.330 C 584.263 392.936, 584 395.705, 584 397.483 L 584 400.715 590.165 401.359 C 597.499 402.126, 596.967 402.515, 597.891 395.709 L 598.634 390.232 591.901 389.321 L 585.168 388.409 584.584 391.330 M 600.625 393.125 C 600.281 394.844, 600 397.544, 600 399.125 L 600 402 606.369 402 L 612.738 402 613.358 398.250 C 613.699 396.188, 613.983 393.488, 613.989 392.250 L 614 390 607.625 390 L 601.250 390 600.625 393.125 M 616 395.852 L 616 401.704 624.250 402.346 C 628.788 402.699, 634.638 402.991, 637.250 402.994 L 642 403 642 401.140 C 642 400.116, 642.286 397.191, 642.636 394.640 L 643.272 390 637.136 390 L 631 390 631 392.875 C 631 397.375, 629.851 402, 628.733 402 L 627.715 402 628.342 396 L 628.969 390 622.485 390 L 616 390 616 395.852 M 292.200 397.750 L 292.500 403.500 300.250 403.792 L 308 404.084 308 398.042 L 308 392 299.950 392 L 291.900 392 292.200 397.750 M 310 398 L 310 404 316.500 404 L 323 404 323 398 L 323 392 316.500 392 L 310 392 310 398 M 326 398 L 326 404 331.625 404 L 337.250 404 336.625 400.875 C 336.281 399.156, 336 396.456, 336 394.875 L 336 392 331 392 L 326 392 326 398 M 373.607 402.582 C 373.273 403.452, 373 407.727, 373 412.082 L 373 420 381 420 L 389 420 389 411 L 389 402 387.500 402 L 386 402 386 404.500 C 386 405.875, 385.550 407, 385 407 C 384.450 407, 384 405.931, 384 404.625 L 384 402.250 380.875 401.625 C 375.986 400.647, 374.262 400.874, 373.607 402.582 M 391.667 401.667 C 391.300 402.033, 391 406.308, 391 411.167 L 391 420 398.500 420 L 406 420 406 410.500 L 406 401 400.570 401 L 395.139 401 394.820 403.172 C 394.644 404.366, 393.874 405.550, 393.108 405.802 L 391.717 406.261 392.220 403.631 C 392.757 400.818, 392.704 400.629, 391.667 401.667 M 499.841 409.500 C 499.479 414.450, 499.366 418.688, 499.591 418.917 C 500.725 420.072, 501.055 417.443, 500.791 409.376 L 500.500 400.500 499.841 409.500 M 445 404.500 C 444.477 405.875, 443.588 407, 443.025 407 L 442 407 442 413 L 442 419 450 419 L 458 419 458.014 412.750 C 458.021 409.313, 458.299 405.488, 458.630 404.250 L 459.233 402 452.592 402 L 445.950 402 445 404.500 M 466 410.500 L 466 419 474.125 419 L 482.250 419 481.625 415.875 C 481.281 414.156, 481 410.331, 481 407.375 L 481 402 480 402 C 479.450 402, 479 403.387, 479 405.083 L 479 408.167 477.750 407.728 L 476.500 407.290 476.788 404.645 L 477.076 402 471.538 402 L 466 402 466 410.500 M 486.894 402.750 C 486.835 403.163, 486.723 404.400, 486.644 405.500 C 486.565 406.600, 485.938 407.387, 485.250 407.250 L 484 407 484 413 L 484 419 490.500 419 L 497 419 497 410.500 L 497 402 492 402 C 489.250 402, 486.952 402.337, 486.894 402.750 M 542.750 402.716 L 540 403.133 540 404.566 C 540 405.355, 539.550 406, 539 406 C 538.450 406, 538 405.325, 538 404.500 C 538 403.675, 537.613 403, 537.139 403 C 536.292 403, 535.026 410.874, 535.009 416.250 L 535 419 543.500 419 L 552 419 552 410.500 L 552 402 548.750 402.150 C 546.962 402.232, 544.263 402.487, 542.750 402.716 M 425.607 404.582 C 425.273 405.452, 425 409.339, 425 413.221 L 425 420.279 430.250 419.648 C 433.137 419.301, 436.512 419.013, 437.750 419.009 L 440 419 440 411 L 440 403 439.070 403 C 438.558 403, 437.995 404.012, 437.820 405.250 C 437.430 407.996, 435.621 407.852, 435.180 405.040 L 434.861 403 430.537 403 L 426.214 403 425.607 404.582 M 519 411 L 519 419 526 419 L 533 419 533 412.531 L 533 406.063 531.500 406.638 L 530 407.214 530 405.107 L 530 403 524.500 403 L 519 403 519 411 M 561 410.489 L 561 418 598.250 418.115 C 618.737 418.178, 645.175 418.515, 657 418.865 L 678.500 419.500 679.145 418.612 C 679.499 418.123, 679.724 415.198, 679.645 412.112 L 679.500 406.500 638.500 405.369 C 615.950 404.747, 589.288 403.955, 579.250 403.608 L 561 402.978 561 410.489 M 242.096 412.872 L 241.922 421 258.711 420.999 C 267.945 420.998, 295.413 420.700, 319.750 420.336 L 364 419.674 364 413.472 L 364 407.270 325.250 406.627 C 303.938 406.273, 276.548 405.705, 264.385 405.364 L 242.269 404.745 242.096 412.872 M 217 437 L 217 438 282.250 438.151 C 318.137 438.234, 348.850 438.384, 350.500 438.484 C 352.150 438.584, 430.201 438.814, 523.946 438.994 L 694.393 439.322 694.724 438.327 L 695.056 437.331 544.862 436.666 C 462.255 436.300, 354.693 436, 305.834 436 L 217 436 217 437" stroke="none" fill="#040404" fill-rule="evenodd"/><path d="M 447.642 63.147 C 447.289 66.527, 447 73.952, 447 79.647 L 447 90 451.750 89.995 C 454.363 89.992, 460.887 89.699, 466.250 89.344 L 476 88.698 476 72.849 L 476 57 462.142 57 L 448.285 57 447.642 63.147 M 452 62.593 C 452 63.402, 452.627 64.303, 453.394 64.598 L 454.788 65.133 454.907 73.566 L 455.025 82 452.939 82 L 450.853 82 451.188 83.750 L 451.523 85.500 460.928 85.790 L 470.333 86.079 471.151 84.790 C 472.185 83.159, 472.253 78, 471.241 78 C 470.823 78, 469.954 78.844, 469.309 79.876 C 466.836 83.836, 460.721 83.188, 459.661 78.854 L 459.014 76.209 460.652 75.580 L 462.289 74.952 463.973 76.476 C 466.507 78.768, 467 78.374, 467 74.059 C 467 69.465, 465.598 68.149, 463.106 70.404 C 462.133 71.284, 461.037 71.703, 460.669 71.336 C 459.364 70.031, 460.025 66.205, 461.663 65.576 L 463.326 64.938 465.968 67.469 C 470.076 71.405, 472.983 69.351, 471.826 63.329 L 471.474 61.500 461.737 61.312 L 452 61.124 452 62.593 M 354 322 L 354 334 405.835 334 C 434.345 334, 482.720 334.299, 513.335 334.664 L 569 335.327 569 322.664 L 569 310 525.477 310 L 481.954 310 483.500 312.360 L 485.047 314.721 483.118 317.103 L 481.189 319.485 482.047 321.087 C 483.166 323.178, 482.741 328.563, 481.479 328.283 C 480.940 328.164, 480.275 326.364, 480 324.283 L 479.500 320.500 478.590 321.913 C 478.090 322.690, 477.404 324.681, 477.065 326.338 C 476.726 327.995, 475.898 329.534, 475.224 329.759 L 474 330.167 474.024 328.333 C 474.038 327.325, 475.108 322.788, 476.403 318.250 L 478.757 310 416.379 310 L 354 310 354 322 M 451.605 318.469 C 450.636 322.577, 450.160 326.450, 450.547 327.076 L 451.250 328.214 452.110 326.857 C 452.583 326.111, 452.976 324.488, 452.985 323.250 C 453.007 320.022, 454.921 320.476, 456.150 324 C 456.725 325.650, 457.602 327, 458.098 327 C 459.298 327, 459.249 323.333, 458.018 321.034 L 457.037 319.200 458.390 318.681 C 459.134 318.395, 460.052 316.930, 460.429 315.426 L 461.116 312.690 459.808 311.860 C 459.089 311.404, 457.345 311.024, 455.933 311.015 L 453.366 311 451.605 318.469 M 468.011 312.547 L 465.523 313.922 464.281 318.711 C 462.815 324.362, 462.656 328, 463.875 328 C 464.356 328, 465.034 326.578, 465.382 324.840 L 466.014 321.680 470.110 317.899 C 475.646 312.787, 474.210 309.123, 468.011 312.547 M 394.236 313.216 C 393.602 313.979, 393.328 315.537, 393.626 316.677 L 394.168 318.750 392.084 322.835 C 390.938 325.082, 390 327.428, 390 328.048 L 390 329.176 394.250 328.515 C 400.330 327.569, 402 327, 402 325.871 L 402 324.877 397.487 325.554 L 392.974 326.231 393.546 324.741 C 393.860 323.921, 395.891 322.451, 398.059 321.473 C 400.227 320.496, 402 319.266, 402 318.740 L 402 317.783 399.500 318.411 L 397 319.038 397 316.927 L 397 314.816 402.163 315.158 L 407.327 315.500 407.747 314.250 L 408.167 313 404.708 313 C 402.806 313, 399.931 312.736, 398.319 312.414 L 395.388 311.828 394.236 313.216 M 426.572 312.884 L 425.918 313.941 428.459 314.579 C 431.519 315.347, 431.617 316.475, 428.996 320.774 C 427.013 324.027, 426.315 328.046, 427.750 327.950 C 428.163 327.922, 429.745 325.269, 431.267 322.054 L 434.035 316.208 436.517 315.585 C 440.284 314.640, 439.485 313.002, 435.250 312.986 C 433.188 312.979, 430.538 312.715, 429.363 312.399 C 428.187 312.084, 426.932 312.302, 426.572 312.884 M 490.042 317.250 C 488.033 326.370, 487.974 326.866, 488.849 327.407 C 489.320 327.698, 490.559 327.284, 491.603 326.487 L 493.500 325.038 492.305 324.244 L 491.109 323.449 492.031 319.475 C 493.211 314.385, 493.233 312, 492.100 312 C 491.605 312, 490.679 314.363, 490.042 317.250 M 418.289 318.764 L 415.078 324.500 415.039 319.250 L 415 314 413.556 314 L 412.112 314 409.307 320.250 C 407.765 323.688, 406.581 326.714, 406.676 326.975 C 407.268 328.594, 408.907 327.639, 409.979 325.050 C 410.668 323.387, 411.660 322.290, 412.183 322.613 C 412.705 322.936, 412.894 323.439, 412.602 323.732 C 412.309 324.024, 412.511 325.087, 413.050 326.094 L 414.031 327.926 415.564 327.337 C 417.048 326.768, 423 316.115, 423 314.029 C 423 311.670, 421.307 313.372, 418.289 318.764 M 440.881 317.500 C 439.744 319.700, 437.880 322.511, 436.737 323.746 C 434.155 326.536, 434.227 326.595, 441.250 327.447 L 447 328.144 447 326.724 L 447 325.304 443.897 325.216 C 438.936 325.075, 438.613 322, 443.559 322 C 444.902 322, 446 321.550, 446 321 C 446 320.450, 445.325 320, 444.500 320 C 441.683 320, 443.327 316.455, 446.417 315.866 C 447.472 315.665, 448.516 314.953, 448.739 314.285 L 449.144 313.069 446.045 313.285 L 442.947 313.500 440.881 317.500 M 500.189 315.039 C 497.475 317.567, 497.478 317.802, 500.250 320.823 L 502.500 323.274 501.392 323.673 C 499.131 324.487, 496.525 326.858, 497.176 327.509 C 497.546 327.879, 499.120 327.574, 500.674 326.832 L 503.500 325.481 503.845 323.047 L 504.190 320.612 502.345 319.244 L 500.500 317.876 502.418 316.455 L 504.336 315.034 505.624 316.103 C 506.333 316.691, 507.450 316.840, 508.108 316.433 L 509.303 315.695 507.460 314.347 C 504.882 312.462, 502.736 312.666, 500.189 315.039 M 513.273 314.548 C 512.031 315.452, 509.062 325.280, 509.016 328.642 C 509.007 329.269, 510.012 330.030, 511.250 330.332 C 514.210 331.054, 520.181 329.775, 519.800 328.500 L 519.500 327.500 515.233 327.834 L 510.966 328.168 512.119 325.637 L 513.272 323.107 515.809 322.803 C 517.204 322.636, 518.550 321.878, 518.800 321.118 L 519.255 319.736 516.127 320.195 C 512.635 320.707, 512.582 320.650, 514.035 317.934 L 515.070 316 518.535 316 L 522 316 522 314.501 L 522 313.001 518.358 313.251 C 516.354 313.388, 514.066 313.972, 513.273 314.548 M 379.750 317.481 C 377.169 319.755, 376.143 322, 377.686 322 C 378.063 322, 379.370 321.062, 380.591 319.914 L 382.811 317.829 383.444 319.822 C 383.791 320.918, 384.816 322.099, 385.721 322.447 L 387.367 323.078 389.378 321.067 C 391.672 318.773, 390.878 317.027, 388.455 319.037 L 386.862 320.360 384.681 317.709 L 382.500 315.059 379.750 317.481 M 528.238 319.162 C 526.811 320.589, 526.584 323, 527.878 323 C 528.360 323, 529.343 322.292, 530.061 321.426 L 531.367 319.853 532.715 322.426 L 534.064 325 536.598 325 C 539.632 325, 543 323.347, 543 321.858 L 543 320.786 541.407 321.397 C 540.531 321.733, 538.844 322.251, 537.657 322.548 L 535.500 323.087 534.500 320.793 C 533.361 318.180, 530.076 317.324, 528.238 319.162 M 517.991 355.250 C 517.987 357.038, 517.699 360.863, 517.352 363.750 L 516.721 369 521.861 369 L 527 369 527 360.500 L 527 352 522.500 352 L 518 352 517.991 355.250 M 529 361 L 529 370 535 370 L 541 370 541 361 L 541 352 535 352 L 529 352 529 361 M 544 361 L 544 370 548.875 370 C 551.556 370, 555.156 369.719, 556.875 369.375 L 560 368.750 560 360.375 L 560 352 552 352 L 544 352 544 361 M 440.250 353.685 L 438 354.139 438 361.570 L 438 369 443.042 369 L 448.084 369 447.792 361.250 L 447.500 353.500 445 353.366 C 443.625 353.292, 441.488 353.435, 440.250 353.685 M 450.375 356.125 C 450.719 357.844, 451 361.444, 451 364.125 L 451 369 456 369 L 461 369 461 362.582 C 461 359.052, 460.727 355.452, 460.393 354.582 L 459.786 353 454.768 353 L 449.750 353 450.375 356.125 M 463.009 355.750 C 463.013 357.262, 463.301 360.863, 463.648 363.750 L 464.279 369 470.139 369 L 476 369 476 361 L 476 353 469.500 353 L 463 353 463.009 355.750 M 478 356.360 C 478 358.209, 478.286 361.809, 478.636 364.360 L 479.272 369 483.636 369 L 488 369 488 361 L 488 353 483 353 L 478 353 478 356.360 M 491 361 L 491 369 496 369 L 501 369 501 370 L 501 371 496.167 371 C 493.508 371, 491.067 371.267, 490.740 371.593 C 490.414 371.919, 478.077 372.205, 463.324 372.228 L 436.500 372.271 468.944 373.108 C 486.788 373.569, 501.475 373.845, 501.582 373.723 C 501.689 373.600, 501.955 368.887, 502.173 363.250 L 502.571 353 496.785 353 L 491 353 491 361 M 373.250 354.737 L 368 355.105 368 362.552 L 368 370 375 370 L 382 370 382 365.125 C 382 358.578, 380.997 353.959, 379.625 354.185 C 379.006 354.287, 376.137 354.535, 373.250 354.737 M 384.089 362 L 384.282 370 389.641 370 L 395 370 395 362 L 395 354 389.448 354 L 383.896 354 384.089 362 M 397.826 362.002 L 397.500 370.005 403.250 370.002 L 409 370 409 362 L 409 354 403.576 354 L 398.152 354 397.826 362.002 M 423 361.992 L 423 369.983 426.250 369.559 C 428.038 369.326, 430.962 369.105, 432.750 369.067 L 436 369 436 361.500 L 436 354 429.500 354 L 423 354 423 361.992 M 663 364.860 C 663 366.984, 662.714 370.809, 662.364 373.360 L 661.728 378 664.225 378 L 666.721 378 667.352 372.750 C 667.699 369.863, 667.987 366.038, 667.991 364.250 L 668 361 665.500 361 L 663 361 663 364.860 M 256.036 363.957 L 254.572 364.883 254.169 372.019 L 253.766 379.155 256.633 378.828 L 259.500 378.500 259.828 370.750 L 260.155 363 258.828 363.015 C 258.097 363.024, 256.841 363.447, 256.036 363.957 M 561 410.364 L 561 418 598.250 418.117 C 618.737 418.182, 645.257 418.519, 657.182 418.867 L 678.865 419.500 679.545 413.628 L 680.225 407.757 679.114 407.071 C 678.504 406.693, 656.741 405.840, 630.752 405.174 C 604.763 404.508, 578.438 403.686, 572.250 403.346 L 561 402.728 561 410.364 M 242.174 413.047 L 241.847 421.328 287.674 420.665 C 312.878 420.301, 340.363 420.002, 348.750 420.001 L 364 420 364 413.635 L 364 407.269 324.250 406.625 C 302.387 406.271, 275.050 405.708, 263.500 405.373 L 242.500 404.765 242.174 413.047" stroke="none" fill="#fcdcc4" fill-rule="evenodd"/></svg>