<?xml version="1.0" encoding="utf-8"?>
<svg xmlns="http://www.w3.org/2000/svg" id="canvas" viewBox="235.829 329.301 801.220 127.379">
  <path d="M 281.41,352.19 C 281.13 352.98, 280.92 353.96, 280.23 356.22 C 279.54 358.48, 279.12 359.98, 277.95 363.49 C 276.77 367.00, 276.01 369.32, 274.37 373.76 C 272.73 378.21, 271.73 380.76, 269.73 385.71 C 267.73 390.66, 266.52 393.38, 264.36 398.50 C 262.19 403.63, 260.99 406.36, 258.90 411.33 C 256.80 416.30, 255.71 418.84, 253.86 423.35 C 252.02 427.86, 251.16 430.08, 249.69 433.89 C 248.22 437.71, 247.57 439.50, 246.53 442.42 C 245.49 445.35, 245.09 446.61, 244.48 448.52 C 243.87 450.42, 243.73 450.95, 243.48 451.94 C 243.22 452.92, 243.22 453.09, 243.20 453.42 C 243.19 453.76, 243.32 453.70, 243.41 453.61 C 243.49 453.53, 243.62 453.13, 243.61 452.99 C 243.60 452.86, 243.43 452.83, 243.37 452.94 C 243.31 453.06, 243.30 453.47, 243.31 453.58 C 243.32 453.68, 243.30 453.77, 243.40 453.46 C 243.50 453.15, 243.52 453.00, 243.83 452.04 C 244.13 451.08, 244.29 450.55, 244.92 448.66 C 245.56 446.77, 245.96 445.51, 246.98 442.58 C 248.01 439.65, 248.61 437.85, 250.05 434.03 C 251.49 430.21, 252.35 427.99, 254.18 423.48 C 256.01 418.96, 257.09 416.43, 259.19 411.46 C 261.28 406.49, 262.48 403.75, 264.65 398.63 C 266.83 393.50, 268.03 390.79, 270.05 385.84 C 272.08 380.90, 273.09 378.35, 274.76 373.91 C 276.44 369.47, 277.25 367.17, 278.44 363.66 C 279.64 360.15, 280.09 358.65, 280.73 356.36 C 281.37 354.08, 281.50 353.08, 281.63 352.25 C 281.77 351.41, 281.69 351.40, 281.41 352.19" style="stroke: black; fill: black;"/>
  <path d="M 239.12,342.72 C 239.49 342.65, 239.68 342.53, 240.88 342.17 C 242.07 341.81, 242.78 341.53, 245.08 340.92 C 247.38 340.31, 248.85 339.85, 252.37 339.12 C 255.89 338.40, 258.15 338.05, 262.69 337.31 C 267.24 336.57, 269.94 336.11, 275.10 335.42 C 280.26 334.74, 283.15 334.37, 288.50 333.88 C 293.85 333.38, 296.71 333.19, 301.85 332.95 C 306.99 332.71, 309.60 332.67, 314.20 332.67 C 318.79 332.66, 321.18 332.74, 324.82 332.93 C 328.46 333.11, 330.03 333.33, 332.39 333.58 C 334.75 333.84, 335.77 334.12, 336.62 334.21 C 337.47 334.30, 337.49 334.25, 336.65 334.04 C 335.81 333.84, 334.80 333.49, 332.44 333.18 C 330.08 332.87, 328.49 332.67, 324.84 332.50 C 321.19 332.32, 318.80 332.28, 314.20 332.31 C 309.59 332.33, 306.98 332.37, 301.83 332.62 C 296.69 332.86, 293.83 333.06, 288.47 333.55 C 283.11 334.04, 280.22 334.40, 275.05 335.06 C 269.89 335.73, 267.18 336.18, 262.63 336.88 C 258.07 337.58, 255.81 337.89, 252.26 338.57 C 248.72 339.25, 247.22 339.64, 244.91 340.27 C 242.60 340.90, 241.89 341.27, 240.72 341.72 C 239.55 342.18, 239.37 342.34, 239.05 342.54 C 238.73 342.74, 238.76 342.80, 239.12 342.72" style="stroke: black; fill: black;"/>
  <path d="M 321.60,414.26 C 321.48 414.15, 320.93 414.13, 320.88 414.04 C 320.83 413.95, 320.78 414.02, 321.35 413.80 C 321.91 413.57, 322.28 413.50, 323.71 412.91 C 325.15 412.31, 326.27 411.88, 328.52 410.82 C 330.77 409.75, 332.25 409.04, 334.95 407.59 C 337.65 406.13, 339.20 405.26, 342.04 403.56 C 344.87 401.87, 346.46 400.91, 349.14 399.12 C 351.81 397.32, 353.26 396.35, 355.42 394.58 C 357.59 392.80, 358.62 391.88, 359.94 390.26 C 361.26 388.63, 361.78 387.81, 362.04 386.44 C 362.30 385.08, 362.17 384.34, 361.24 383.44 C 360.30 382.53, 359.47 382.09, 357.36 381.93 C 355.25 381.77, 353.80 381.84, 350.70 382.63 C 347.59 383.42, 345.64 384.09, 341.84 385.88 C 338.03 387.66, 335.73 388.93, 331.69 391.53 C 327.66 394.14, 325.37 395.82, 321.66 398.90 C 317.95 401.98, 316.03 403.76, 313.15 406.94 C 310.27 410.12, 308.98 411.81, 307.27 414.80 C 305.57 417.80, 304.99 419.30, 304.63 421.92 C 304.26 424.53, 304.47 425.76, 305.45 427.88 C 306.44 430.00, 307.28 431.02, 309.55 432.53 C 311.81 434.03, 313.37 434.63, 316.77 435.42 C 320.18 436.20, 322.27 436.41, 326.56 436.47 C 330.86 436.52, 333.39 436.31, 338.25 435.68 C 343.11 435.06, 346.20 434.33, 350.86 433.35 C 355.52 432.37, 357.98 431.73, 361.54 430.77 C 365.09 429.81, 367.23 429.03, 368.63 428.54 C 370.04 428.06, 370.01 427.97, 368.57 428.34 C 367.13 428.71, 365.00 429.47, 361.44 430.40 C 357.88 431.32, 355.43 431.98, 350.78 432.96 C 346.13 433.94, 343.04 434.68, 338.20 435.29 C 333.36 435.91, 330.83 436.11, 326.57 436.03 C 322.31 435.96, 320.23 435.71, 316.89 434.92 C 313.54 434.13, 312.05 433.52, 309.84 432.08 C 307.64 430.63, 306.82 429.71, 305.87 427.69 C 304.92 425.67, 304.74 424.52, 305.09 421.98 C 305.45 419.45, 305.98 417.98, 307.65 415.02 C 309.32 412.06, 310.59 410.37, 313.44 407.20 C 316.29 404.04, 318.20 402.26, 321.90 399.19 C 325.59 396.13, 327.88 394.45, 331.91 391.87 C 335.94 389.29, 338.25 388.04, 342.03 386.30 C 345.82 384.57, 347.79 383.98, 350.84 383.21 C 353.90 382.45, 355.30 382.39, 357.32 382.49 C 359.35 382.60, 360.11 382.94, 360.98 383.71 C 361.84 384.49, 361.94 385.12, 361.65 386.36 C 361.37 387.60, 360.86 388.37, 359.54 389.92 C 358.22 391.47, 357.19 392.37, 355.05 394.12 C 352.91 395.86, 351.49 396.87, 348.83 398.66 C 346.17 400.45, 344.58 401.41, 341.75 403.08 C 338.91 404.75, 337.35 405.59, 334.64 407.00 C 331.93 408.41, 330.43 409.06, 328.19 410.12 C 325.95 411.17, 324.84 411.61, 323.43 412.27 C 322.02 412.92, 321.68 413.02, 321.13 413.39 C 320.58 413.76, 320.61 413.88, 320.68 414.11 C 320.75 414.34, 321.29 414.52, 321.47 414.55 C 321.66 414.58, 321.72 414.36, 321.60 414.26" style="stroke: black; fill: black;"/>
  <path d="M 431.17,387.60 C 430.73 387.25, 430.17 386.65, 428.87 386.07 C 427.57 385.50, 426.72 385.05, 424.66 384.72 C 422.60 384.40, 421.25 384.19, 418.56 384.44 C 415.87 384.70, 414.27 385.12, 411.24 386.00 C 408.20 386.89, 406.39 387.56, 403.38 388.86 C 400.36 390.16, 398.67 390.95, 396.17 392.52 C 393.68 394.09, 392.46 395.01, 390.89 396.70 C 389.32 398.38, 388.71 399.28, 388.32 400.95 C 387.93 402.63, 388.06 403.47, 388.92 405.07 C 389.79 406.68, 390.66 407.48, 392.65 408.97 C 394.63 410.46, 396.11 411.15, 398.85 412.51 C 401.59 413.88, 403.36 414.51, 406.35 415.78 C 409.34 417.05, 411.09 417.68, 413.80 418.86 C 416.51 420.04, 417.93 420.59, 419.91 421.67 C 421.88 422.75, 422.74 423.25, 423.67 424.26 C 424.60 425.26, 424.80 425.73, 424.55 426.68 C 424.29 427.63, 423.79 428.08, 422.37 429.01 C 420.95 429.93, 419.84 430.41, 417.44 431.30 C 415.03 432.19, 413.44 432.70, 410.35 433.47 C 407.26 434.25, 405.37 434.64, 401.98 435.19 C 398.59 435.73, 396.65 435.96, 393.39 436.21 C 390.13 436.46, 388.40 436.50, 385.68 436.42 C 382.97 436.34, 381.50 436.38, 379.83 435.81 C 378.16 435.24, 377.88 434.59, 377.33 433.58 C 376.78 432.57, 376.95 431.82, 377.09 430.76 C 377.22 429.69, 377.86 428.78, 377.99 428.26 C 378.13 427.74, 378.02 427.67, 377.75 428.16 C 377.48 428.65, 376.81 429.58, 376.66 430.70 C 376.51 431.82, 376.38 432.66, 376.98 433.77 C 377.59 434.88, 377.94 435.60, 379.67 436.25 C 381.41 436.90, 382.91 436.91, 385.66 437.01 C 388.42 437.11, 390.15 437.01, 393.44 436.75 C 396.72 436.49, 398.66 436.26, 402.07 435.73 C 405.48 435.19, 407.37 434.83, 410.50 434.07 C 413.62 433.32, 415.25 432.87, 417.68 431.95 C 420.12 431.03, 421.24 430.49, 422.68 429.46 C 424.12 428.42, 424.62 427.86, 424.88 426.77 C 425.13 425.67, 424.92 425.10, 423.98 423.98 C 423.04 422.87, 422.16 422.32, 420.18 421.18 C 418.19 420.05, 416.75 419.50, 414.04 418.31 C 411.32 417.12, 409.56 416.52, 406.58 415.24 C 403.60 413.97, 401.85 413.30, 399.14 411.94 C 396.43 410.59, 394.98 409.89, 393.01 408.47 C 391.05 407.05, 390.19 406.33, 389.33 404.84 C 388.48 403.36, 388.35 402.61, 388.74 401.06 C 389.12 399.50, 389.72 398.67, 391.27 397.06 C 392.82 395.45, 394.02 394.55, 396.48 393.02 C 398.95 391.48, 400.62 390.67, 403.60 389.38 C 406.59 388.10, 408.40 387.44, 411.40 386.59 C 414.41 385.74, 415.99 385.37, 418.62 385.13 C 421.26 384.88, 422.56 385.09, 424.56 385.37 C 426.57 385.66, 427.37 386.07, 428.67 386.56 C 429.96 387.05, 430.54 387.60, 431.04 387.81 C 431.54 388.02, 431.60 387.95, 431.17 387.60" style="stroke: black; fill: black;"/>
  <path d="M 492.30,340.95 C 491.97 341.51, 491.73 342.14, 490.85 343.86 C 489.97 345.57, 489.39 346.66, 487.88 349.53 C 486.38 352.40, 485.38 354.32, 483.32 358.19 C 481.26 362.06, 480.03 364.39, 477.60 368.87 C 475.17 373.34, 473.72 375.91, 471.18 380.58 C 468.64 385.25, 467.26 387.72, 464.92 392.22 C 462.59 396.71, 461.43 399.02, 459.50 403.05 C 457.58 407.09, 456.71 409.05, 455.30 412.41 C 453.88 415.76, 453.33 417.27, 452.44 419.83 C 451.56 422.40, 451.33 423.55, 450.89 425.21 C 450.45 426.87, 450.38 427.33, 450.22 428.14 C 450.06 428.95, 450.11 429.05, 450.08 429.28 C 450.05 429.51, 450.07 429.28, 450.07 429.28 C 450.06 429.28, 450.03 429.29, 450.06 429.30 C 450.09 429.30, 450.11 429.53, 450.21 429.32 C 450.31 429.10, 450.34 429.02, 450.56 428.22 C 450.78 427.42, 450.85 426.98, 451.33 425.33 C 451.80 423.69, 452.06 422.56, 452.93 420.00 C 453.80 417.45, 454.31 415.93, 455.69 412.57 C 457.07 409.21, 457.93 407.25, 459.83 403.21 C 461.74 399.17, 462.90 396.87, 465.23 392.37 C 467.55 387.88, 468.94 385.41, 471.48 380.74 C 474.02 376.07, 475.48 373.51, 477.93 369.05 C 480.38 364.58, 481.63 362.26, 483.73 358.41 C 485.82 354.56, 486.90 352.67, 488.41 349.81 C 489.93 346.94, 490.49 345.83, 491.30 344.08 C 492.12 342.33, 492.30 341.66, 492.50 341.04 C 492.70 340.41, 492.63 340.38, 492.30 340.95" style="stroke: black; fill: black;"/>
  <path d="M 446.57,392.30 C 447.22 392.14, 447.87 391.80, 449.70 391.28 C 451.53 390.76, 452.84 390.34, 455.75 389.70 C 458.65 389.05, 460.59 388.62, 464.22 388.04 C 467.86 387.46, 470.03 387.23, 473.94 386.80 C 477.84 386.38, 479.94 386.20, 483.74 385.91 C 487.54 385.62, 489.48 385.49, 492.93 385.36 C 496.38 385.22, 498.03 385.21, 500.98 385.24 C 503.93 385.26, 505.32 385.31, 507.68 385.46 C 510.04 385.60, 511.17 385.81, 512.78 385.96 C 514.39 386.10, 515.14 386.17, 515.73 386.18 C 516.32 386.19, 516.33 386.14, 515.75 386.01 C 515.17 385.88, 514.44 385.76, 512.83 385.54 C 511.22 385.32, 510.08 385.08, 507.72 384.91 C 505.35 384.74, 503.95 384.71, 500.98 384.70 C 498.02 384.70, 496.37 384.73, 492.91 384.88 C 489.46 385.03, 487.51 385.16, 483.71 385.45 C 479.90 385.74, 477.80 385.92, 473.89 386.33 C 469.97 386.74, 467.80 386.96, 464.14 387.50 C 460.48 388.04, 458.52 388.39, 455.60 389.05 C 452.68 389.70, 451.37 390.17, 449.54 390.78 C 447.72 391.38, 447.09 391.79, 446.49 392.09 C 445.90 392.40, 445.93 392.47, 446.57 392.30" style="stroke: black; fill: black;"/>
  <path d="M 540.84,384.01 C 540.38 384.49, 539.84 384.96, 538.68 386.54 C 537.53 388.11, 536.75 389.27, 535.08 391.88 C 533.41 394.49, 532.27 396.37, 530.35 399.59 C 528.42 402.81, 527.30 404.76, 525.46 407.97 C 523.62 411.18, 522.59 412.88, 521.14 415.64 C 519.69 418.40, 519.09 419.75, 518.22 421.77 C 517.35 423.78, 517.14 424.53, 516.78 425.71 C 516.42 426.89, 516.46 427.26, 516.42 427.66 C 516.37 428.05, 516.41 428.05, 516.55 427.69 C 516.68 427.32, 516.66 426.96, 517.09 425.82 C 517.52 424.68, 517.79 423.96, 518.69 421.98 C 519.60 419.99, 520.18 418.64, 521.62 415.89 C 523.06 413.14, 524.06 411.43, 525.90 408.23 C 527.74 405.02, 528.88 403.08, 530.82 399.88 C 532.77 396.68, 533.97 394.84, 535.63 392.23 C 537.29 389.62, 538.04 388.45, 539.11 386.84 C 540.19 385.22, 540.67 384.71, 541.02 384.15 C 541.37 383.58, 541.31 383.53, 540.84 384.01" style="stroke: black; fill: black;"/>
  <path d="M 577.97,390.53 C 577.65 391.12, 577.41 391.93, 576.62 393.54 C 575.82 395.15, 575.26 396.20, 573.99 398.58 C 572.72 400.96, 571.87 402.63, 570.26 405.45 C 568.65 408.26, 567.65 409.92, 565.96 412.67 C 564.26 415.43, 563.22 416.94, 561.78 419.23 C 560.34 421.53, 559.61 422.73, 558.77 424.16 C 557.93 425.59, 557.61 426.19, 557.58 426.39 C 557.55 426.60, 557.77 426.37, 558.61 425.20 C 559.45 424.03, 560.11 422.93, 561.78 420.55 C 563.45 418.16, 564.49 416.40, 566.96 413.28 C 569.42 410.17, 570.98 408.23, 574.10 404.95 C 577.23 401.68, 579.12 399.87, 582.58 396.90 C 586.05 393.94, 588.03 392.44, 591.43 390.13 C 594.83 387.82, 596.62 386.78, 599.60 385.33 C 602.57 383.88, 604.02 383.37, 606.30 382.88 C 608.58 382.39, 609.55 382.38, 611.00 382.88 C 612.44 383.38, 612.93 383.93, 613.53 385.39 C 614.12 386.84, 614.17 387.92, 613.97 390.18 C 613.78 392.43, 613.39 393.91, 612.54 396.66 C 611.69 399.42, 610.98 401.09, 609.72 403.95 C 608.47 406.82, 607.56 408.45, 606.26 410.99 C 604.95 413.53, 604.13 414.84, 603.20 416.66 C 602.27 418.47, 601.83 419.29, 601.63 420.05 C 601.43 420.82, 601.49 420.99, 602.21 420.50 C 602.93 420.01, 603.54 419.34, 605.23 417.59 C 606.92 415.83, 608.03 414.38, 610.66 411.72 C 613.29 409.06, 614.98 407.26, 618.39 404.28 C 621.79 401.29, 623.88 399.55, 627.68 396.81 C 631.48 394.07, 633.66 392.66, 637.38 390.57 C 641.10 388.47, 643.06 387.54, 646.25 386.33 C 649.45 385.11, 650.96 384.77, 653.34 384.49 C 655.73 384.21, 656.74 384.30, 658.19 384.92 C 659.63 385.53, 660.10 386.06, 660.57 387.58 C 661.04 389.09, 660.96 390.16, 660.53 392.49 C 660.10 394.81, 659.56 396.32, 658.41 399.18 C 657.27 402.05, 656.36 403.78, 654.82 406.81 C 653.29 409.84, 652.25 411.53, 650.76 414.34 C 649.28 417.14, 648.38 418.58, 647.40 420.82 C 646.42 423.06, 646.24 424.06, 645.87 425.52 C 645.49 426.98, 645.49 427.40, 645.52 428.14 C 645.55 428.87, 645.89 429.00, 646.00 429.20 C 646.12 429.41, 646.15 429.37, 646.11 429.16 C 646.07 428.95, 645.75 428.84, 645.79 428.14 C 645.83 427.43, 645.88 427.06, 646.30 425.64 C 646.73 424.22, 646.93 423.26, 647.92 421.05 C 648.91 418.84, 649.78 417.40, 651.27 414.60 C 652.75 411.81, 653.79 410.11, 655.33 407.07 C 656.88 404.03, 657.84 402.31, 659.00 399.42 C 660.16 396.52, 660.73 394.99, 661.13 392.59 C 661.53 390.20, 661.54 389.05, 660.98 387.44 C 660.42 385.83, 659.88 385.25, 658.34 384.56 C 656.81 383.87, 655.74 383.74, 653.29 384.01 C 650.84 384.28, 649.31 384.66, 646.09 385.90 C 642.87 387.14, 640.91 388.10, 637.18 390.22 C 633.45 392.33, 631.26 393.74, 627.44 396.48 C 623.63 399.23, 621.53 400.98, 618.09 403.94 C 614.65 406.90, 612.92 408.66, 610.25 411.30 C 607.58 413.94, 606.38 415.33, 604.74 417.13 C 603.10 418.93, 602.60 419.69, 602.03 420.29 C 601.45 420.89, 601.53 420.81, 601.86 420.14 C 602.20 419.47, 602.71 418.70, 603.70 416.93 C 604.70 415.16, 605.51 413.83, 606.83 411.28 C 608.14 408.74, 609.02 407.08, 610.29 404.20 C 611.56 401.32, 612.32 399.65, 613.18 396.86 C 614.04 394.06, 614.43 392.55, 614.58 390.22 C 614.73 387.90, 614.62 386.75, 613.93 385.21 C 613.24 383.67, 612.68 383.08, 611.13 382.52 C 609.58 381.96, 608.55 381.93, 606.20 382.41 C 603.86 382.89, 602.39 383.44, 599.39 384.91 C 596.39 386.39, 594.61 387.45, 591.20 389.79 C 587.79 392.13, 585.81 393.63, 582.32 396.60 C 578.84 399.58, 576.95 401.39, 573.79 404.66 C 570.64 407.93, 569.06 409.85, 566.54 412.95 C 564.02 416.05, 562.86 417.75, 561.20 420.15 C 559.54 422.55, 558.95 423.71, 558.24 424.97 C 557.52 426.22, 557.45 426.54, 557.63 426.43 C 557.82 426.32, 558.23 425.79, 559.17 424.41 C 560.10 423.04, 560.85 421.85, 562.30 419.57 C 563.76 417.28, 564.75 415.74, 566.45 412.98 C 568.15 410.22, 569.17 408.57, 570.81 405.76 C 572.44 402.94, 573.36 401.31, 574.61 398.91 C 575.87 396.51, 576.38 395.42, 577.10 393.76 C 577.81 392.10, 578.02 391.27, 578.19 390.62 C 578.36 389.98, 578.28 389.95, 577.97 390.53" style="stroke: black; fill: black;"/>
  <path d="M 719.59,392.12 C 719.25 391.79, 718.79 391.24, 717.75 390.69 C 716.71 390.14, 716.08 389.70, 714.38 389.38 C 712.69 389.07, 711.56 388.80, 709.27 389.12 C 706.97 389.45, 705.64 389.86, 702.90 390.99 C 700.16 392.12, 698.56 392.95, 695.57 394.79 C 692.59 396.63, 690.80 397.84, 687.99 400.20 C 685.18 402.56, 683.68 404.03, 681.52 406.60 C 679.36 409.17, 678.33 410.60, 677.19 413.05 C 676.05 415.50, 675.72 416.76, 675.81 418.84 C 675.89 420.91, 676.32 421.89, 677.62 423.42 C 678.92 424.94, 679.98 425.63, 682.32 426.45 C 684.65 427.28, 686.20 427.51, 689.30 427.55 C 692.39 427.58, 694.29 427.36, 697.80 426.64 C 701.30 425.93, 703.32 425.37, 706.85 423.98 C 710.37 422.60, 712.24 421.66, 715.44 419.72 C 718.64 417.78, 720.26 416.60, 722.85 414.29 C 725.43 411.98, 726.65 410.64, 728.36 408.18 C 730.08 405.71, 730.70 404.32, 731.42 401.97 C 732.14 399.62, 732.18 398.41, 731.97 396.43 C 731.76 394.44, 731.30 393.49, 730.37 392.06 C 729.44 390.63, 728.62 390.04, 727.33 389.25 C 726.04 388.47, 725.07 388.36, 723.92 388.16 C 722.77 387.95, 722.05 388.17, 721.58 388.22 C 721.11 388.27, 721.12 388.35, 721.57 388.43 C 722.02 388.51, 722.73 388.36, 723.83 388.62 C 724.92 388.88, 725.82 388.98, 727.04 389.73 C 728.27 390.47, 729.06 390.99, 729.95 392.34 C 730.83 393.69, 731.28 394.58, 731.48 396.48 C 731.67 398.37, 731.63 399.53, 730.92 401.81 C 730.21 404.09, 729.61 405.45, 727.93 407.88 C 726.25 410.30, 725.07 411.64, 722.53 413.93 C 719.98 416.22, 718.37 417.40, 715.20 419.33 C 712.03 421.25, 710.17 422.18, 706.67 423.54 C 703.17 424.90, 701.17 425.45, 697.69 426.13 C 694.22 426.82, 692.34 427.00, 689.31 426.95 C 686.27 426.91, 684.77 426.68, 682.50 425.91 C 680.24 425.14, 679.22 424.53, 677.98 423.11 C 676.73 421.69, 676.32 420.79, 676.27 418.82 C 676.21 416.86, 676.55 415.66, 677.68 413.28 C 678.81 410.90, 679.79 409.47, 681.92 406.93 C 684.04 404.39, 685.53 402.93, 688.31 400.59 C 691.10 398.26, 692.89 397.06, 695.86 395.25 C 698.83 393.45, 700.44 392.67, 703.14 391.58 C 705.84 390.49, 707.13 390.09, 709.36 389.78 C 711.58 389.47, 712.64 389.74, 714.27 390.01 C 715.90 390.29, 716.49 390.70, 717.52 391.16 C 718.56 391.62, 719.03 392.13, 719.45 392.32 C 719.86 392.51, 719.93 392.44, 719.59 392.12" style="stroke: black; fill: black;"/>
  <path d="M 770.78,387.79 C 770.44 388.20, 770.18 388.64, 769.30 389.97 C 768.42 391.30, 767.81 392.26, 766.37 394.43 C 764.93 396.61, 763.89 398.13, 762.08 400.84 C 760.27 403.56, 759.20 405.23, 757.34 408.01 C 755.47 410.79, 754.34 412.32, 752.76 414.73 C 751.17 417.15, 750.40 418.42, 749.43 420.09 C 748.46 421.77, 748.10 422.50, 747.91 423.13 C 747.71 423.76, 747.84 423.83, 748.45 423.24 C 749.07 422.64, 749.55 421.92, 750.97 420.14 C 752.39 418.35, 753.30 416.96, 755.55 414.31 C 757.80 411.67, 759.24 409.93, 762.23 406.92 C 765.21 403.91, 767.04 402.15, 770.49 399.27 C 773.95 396.39, 775.96 394.89, 779.49 392.52 C 783.02 390.15, 784.91 389.04, 788.13 387.44 C 791.36 385.83, 792.99 385.20, 795.61 384.49 C 798.22 383.79, 799.39 383.65, 801.22 383.89 C 803.05 384.14, 803.75 384.53, 804.77 385.72 C 805.78 386.91, 806.10 387.80, 806.28 389.83 C 806.47 391.86, 806.25 393.20, 805.69 395.89 C 805.14 398.57, 804.60 400.25, 803.53 403.25 C 802.45 406.25, 801.61 407.97, 800.32 410.89 C 799.03 413.82, 798.18 415.35, 797.10 417.87 C 796.02 420.40, 795.46 421.62, 794.92 423.52 C 794.38 425.42, 794.45 426.22, 794.40 427.38 C 794.35 428.54, 794.60 428.94, 794.68 429.33 C 794.77 429.72, 794.82 429.70, 794.83 429.31 C 794.84 428.93, 794.63 428.53, 794.75 427.40 C 794.87 426.28, 794.84 425.53, 795.42 423.67 C 796.00 421.81, 796.57 420.62, 797.66 418.11 C 798.74 415.60, 799.56 414.06, 800.85 411.12 C 802.14 408.19, 803.00 406.48, 804.09 403.46 C 805.19 400.44, 805.80 398.75, 806.35 396.02 C 806.89 393.28, 807.08 391.89, 806.83 389.77 C 806.58 387.66, 806.19 386.70, 805.08 385.44 C 803.97 384.18, 803.20 383.76, 801.28 383.47 C 799.36 383.18, 798.14 383.28, 795.47 384.00 C 792.81 384.71, 791.18 385.40, 787.93 387.04 C 784.69 388.68, 782.80 389.80, 779.26 392.18 C 775.72 394.56, 773.70 396.07, 770.23 398.95 C 766.75 401.83, 764.92 403.60, 761.89 406.59 C 758.86 409.58, 757.37 411.27, 755.07 413.90 C 752.78 416.53, 751.81 417.90, 750.44 419.73 C 749.07 421.56, 748.70 422.35, 748.23 423.05 C 747.76 423.75, 747.77 423.75, 748.10 423.22 C 748.43 422.68, 748.86 422.00, 749.89 420.37 C 750.92 418.74, 751.68 417.47, 753.26 415.07 C 754.85 412.66, 755.94 411.11, 757.81 408.33 C 759.68 405.56, 760.78 403.90, 762.61 401.20 C 764.44 398.50, 765.55 397.02, 766.97 394.83 C 768.40 392.63, 768.94 391.62, 769.74 390.24 C 770.54 388.85, 770.76 388.39, 770.97 387.90 C 771.17 387.41, 771.11 387.37, 770.78 387.79" style="stroke: black; fill: black;"/>
  <path d="M 845.29,390.37 C 844.99 390.89, 844.82 391.52, 844.02 393.06 C 843.21 394.61, 842.60 395.68, 841.26 398.09 C 839.92 400.49, 838.98 402.19, 837.34 405.09 C 835.70 407.99, 834.66 409.74, 833.06 412.58 C 831.46 415.42, 830.54 416.90, 829.34 419.29 C 828.15 421.69, 827.66 422.87, 827.09 424.57 C 826.51 426.26, 826.56 426.85, 826.48 427.76 C 826.39 428.68, 826.53 428.86, 826.67 429.16 C 826.82 429.46, 827.09 429.25, 827.20 429.25 C 827.31 429.25, 827.29 429.20, 827.21 429.17 C 827.14 429.14, 826.91 429.37, 826.83 429.10 C 826.76 428.83, 826.69 428.68, 826.84 427.81 C 826.98 426.94, 826.95 426.38, 827.56 424.73 C 828.16 423.08, 828.67 421.93, 829.88 419.56 C 831.08 417.19, 831.97 415.70, 833.57 412.87 C 835.17 410.03, 836.22 408.29, 837.88 405.40 C 839.55 402.52, 840.57 400.85, 841.89 398.43 C 843.21 396.01, 843.77 394.89, 844.49 393.29 C 845.21 391.70, 845.34 391.04, 845.50 390.46 C 845.66 389.87, 845.58 389.85, 845.29 390.37" style="stroke: black; fill: black;"/>
  <path d="M 910.70,395.56 C 910.26 395.21, 909.61 394.58, 908.35 394.03 C 907.08 393.48, 906.30 393.11, 904.38 392.82 C 902.46 392.53, 901.24 392.31, 898.75 392.59 C 896.26 392.86, 894.83 393.21, 891.91 394.20 C 888.99 395.18, 887.30 395.93, 884.16 397.51 C 881.03 399.08, 879.19 400.07, 876.22 402.07 C 873.25 404.07, 871.65 405.30, 869.29 407.52 C 866.94 409.75, 865.82 411.05, 864.45 413.20 C 863.07 415.35, 862.62 416.48, 862.41 418.29 C 862.20 420.11, 862.42 420.97, 863.38 422.27 C 864.34 423.56, 865.19 424.12, 867.21 424.75 C 869.23 425.38, 870.60 425.54, 873.47 425.41 C 876.34 425.28, 878.10 424.96, 881.55 424.10 C 885.00 423.24, 887.04 422.59, 890.73 421.10 C 894.43 419.62, 896.48 418.62, 900.02 416.67 C 903.56 414.72, 905.40 413.48, 908.45 411.34 C 911.50 409.21, 913.03 407.98, 915.25 406.01 C 917.48 404.04, 918.54 402.76, 919.58 401.50 C 920.62 400.23, 920.73 399.66, 920.45 399.68 C 920.17 399.71, 919.44 400.24, 918.19 401.62 C 916.94 403.00, 915.90 404.25, 914.20 406.60 C 912.50 408.95, 911.28 410.68, 909.70 413.39 C 908.12 416.09, 907.29 417.65, 906.31 420.12 C 905.33 422.59, 904.98 423.80, 904.81 425.72 C 904.64 427.64, 904.98 428.43, 905.48 429.71 C 905.97 431.00, 906.55 431.49, 907.28 432.16 C 908.01 432.83, 908.73 432.92, 909.11 433.07 C 909.50 433.21, 909.52 433.13, 909.21 432.89 C 908.90 432.65, 908.22 432.55, 907.55 431.88 C 906.89 431.21, 906.35 430.78, 905.90 429.56 C 905.45 428.33, 905.11 427.61, 905.31 425.77 C 905.50 423.93, 905.89 422.76, 906.88 420.35 C 907.88 417.95, 908.70 416.39, 910.28 413.73 C 911.87 411.07, 913.17 409.40, 914.83 407.05 C 916.49 404.70, 917.47 403.43, 918.60 401.97 C 919.73 400.50, 920.34 399.89, 920.48 399.74 C 920.61 399.60, 920.39 400.06, 919.27 401.23 C 918.15 402.40, 917.10 403.64, 914.88 405.59 C 912.66 407.53, 911.20 408.83, 908.18 410.96 C 905.17 413.10, 903.33 414.34, 899.80 416.28 C 896.28 418.22, 894.23 419.21, 890.56 420.67 C 886.88 422.13, 884.85 422.76, 881.42 423.58 C 878.00 424.40, 876.25 424.64, 873.44 424.77 C 870.63 424.89, 869.31 424.78, 867.36 424.23 C 865.42 423.68, 864.61 423.19, 863.71 422.01 C 862.81 420.84, 862.61 420.05, 862.85 418.35 C 863.09 416.64, 863.54 415.58, 864.90 413.49 C 866.26 411.41, 867.34 410.11, 869.66 407.91 C 871.98 405.71, 873.56 404.48, 876.51 402.49 C 879.45 400.51, 881.28 399.53, 884.40 397.99 C 887.52 396.44, 889.22 395.72, 892.10 394.77 C 894.99 393.83, 896.39 393.51, 898.82 393.25 C 901.26 392.98, 902.42 393.20, 904.29 393.45 C 906.15 393.71, 906.89 394.06, 908.15 394.52 C 909.41 394.99, 910.06 395.58, 910.57 395.78 C 911.08 395.99, 911.15 395.91, 910.70 395.56" style="stroke: black; fill: black;"/>
  <path d="M 979.15,350.56 C 978.78 351.01, 978.53 351.40, 977.52 352.93 C 976.51 354.46, 975.81 355.45, 974.09 358.19 C 972.37 360.93, 971.26 362.85, 968.91 366.62 C 966.57 370.39, 965.09 372.75, 962.36 377.04 C 959.63 381.32, 957.98 383.74, 955.26 388.05 C 952.55 392.37, 951.05 394.65, 948.80 398.63 C 946.54 402.60, 945.47 404.57, 943.98 407.93 C 942.48 411.29, 941.88 412.82, 941.31 415.42 C 940.74 418.02, 940.76 419.11, 941.13 420.92 C 941.50 422.72, 942.00 423.38, 943.16 424.44 C 944.31 425.51, 945.32 425.80, 946.90 426.24 C 948.47 426.68, 949.60 426.65, 951.05 426.64 C 952.50 426.63, 953.53 426.32, 954.15 426.18 C 954.76 426.04, 954.74 425.96, 954.13 425.94 C 953.51 425.92, 952.48 426.13, 951.06 426.08 C 949.65 426.03, 948.57 426.08, 947.05 425.68 C 945.52 425.29, 944.56 425.08, 943.46 424.11 C 942.35 423.14, 941.87 422.55, 941.54 420.84 C 941.21 419.12, 941.23 418.07, 941.79 415.53 C 942.35 412.98, 942.90 411.45, 944.36 408.10 C 945.83 404.76, 946.88 402.78, 949.12 398.81 C 951.36 394.84, 952.85 392.56, 955.57 388.24 C 958.28 383.93, 959.93 381.52, 962.68 377.24 C 965.43 372.97, 966.92 370.61, 969.31 366.87 C 971.69 363.12, 972.88 361.25, 974.60 358.51 C 976.33 355.78, 976.99 354.77, 977.94 353.20 C 978.88 351.63, 979.09 351.20, 979.33 350.67 C 979.57 350.14, 979.51 350.10, 979.15 350.56" style="stroke: black; fill: black;"/>
  <path d="M 1033.78,385.97 C 1033.38 385.72, 1032.97 385.31, 1031.72 384.95 C 1030.46 384.60, 1029.62 384.27, 1027.52 384.20 C 1025.41 384.13, 1023.97 384.09, 1021.18 384.60 C 1018.39 385.11, 1016.69 385.70, 1013.56 386.75 C 1010.42 387.80, 1008.52 388.50, 1005.51 389.86 C 1002.49 391.23, 1000.83 392.05, 998.48 393.59 C 996.13 395.13, 995.05 396.00, 993.75 397.56 C 992.46 399.12, 992.07 399.91, 992.03 401.39 C 991.98 402.87, 992.34 403.59, 993.53 404.96 C 994.73 406.33, 995.81 406.99, 997.98 408.23 C 1000.15 409.46, 1001.66 410.02, 1004.39 411.12 C 1007.12 412.22, 1008.82 412.71, 1011.63 413.71 C 1014.44 414.71, 1016.06 415.19, 1018.45 416.11 C 1020.84 417.03, 1022.01 417.46, 1023.57 418.32 C 1025.14 419.17, 1025.77 419.56, 1026.27 420.36 C 1026.77 421.17, 1026.74 421.55, 1026.07 422.35 C 1025.40 423.16, 1024.68 423.57, 1022.90 424.41 C 1021.12 425.24, 1019.84 425.69, 1017.16 426.54 C 1014.48 427.40, 1012.73 427.88, 1009.48 428.69 C 1006.23 429.50, 1004.35 429.92, 1000.92 430.57 C 997.49 431.22, 995.58 431.50, 992.33 431.95 C 989.07 432.40, 987.35 432.55, 984.65 432.81 C 981.95 433.06, 980.66 433.08, 978.84 433.22 C 977.01 433.36, 976.47 433.41, 975.55 433.50 C 974.62 433.59, 974.49 433.60, 974.23 433.66 C 973.96 433.71, 973.96 433.74, 974.23 433.77 C 974.50 433.80, 974.63 433.81, 975.56 433.80 C 976.49 433.79, 977.04 433.81, 978.87 433.72 C 980.70 433.64, 982.00 433.64, 984.71 433.39 C 987.41 433.14, 989.14 432.94, 992.40 432.48 C 995.66 432.02, 997.58 431.73, 1001.02 431.09 C 1004.46 430.45, 1006.35 430.03, 1009.62 429.26 C 1012.89 428.48, 1014.66 428.08, 1017.38 427.23 C 1020.09 426.37, 1021.38 425.89, 1023.18 424.97 C 1024.98 424.04, 1025.70 423.54, 1026.38 422.59 C 1027.05 421.63, 1027.07 421.14, 1026.56 420.20 C 1026.05 419.25, 1025.40 418.80, 1023.83 417.87 C 1022.25 416.94, 1021.07 416.49, 1018.67 415.54 C 1016.28 414.58, 1014.65 414.12, 1011.84 413.11 C 1009.04 412.11, 1007.35 411.59, 1004.64 410.50 C 1001.93 409.41, 1000.45 408.83, 998.30 407.65 C 996.15 406.48, 995.08 405.87, 993.90 404.62 C 992.73 403.37, 992.37 402.75, 992.41 401.40 C 992.46 400.05, 992.84 399.33, 994.12 397.87 C 995.40 396.41, 996.49 395.59, 998.81 394.09 C 1001.13 392.59, 1002.75 391.73, 1005.74 390.38 C 1008.73 389.02, 1010.63 388.33, 1013.75 387.32 C 1016.86 386.30, 1018.56 385.79, 1021.31 385.30 C 1024.06 384.82, 1025.44 384.85, 1027.50 384.88 C 1029.56 384.91, 1030.36 385.19, 1031.60 385.45 C 1032.83 385.71, 1033.25 386.08, 1033.69 386.18 C 1034.13 386.29, 1034.17 386.22, 1033.78 385.97" style="stroke: black; fill: black;"/>
  <path style="fill: rgb(216, 216, 216); stroke: rgb(0, 0, 0);" d="M 554.441 356.513 C 553.706 356.758 552.653 358.848 552.645 358.848"/>
  <path style="fill: rgb(216, 216, 216); stroke: rgb(0, 0, 0);" d="M 858.541 367.014 C 858.541 365.752 860.242 364.18 860.242 363.895"/>
</svg>