<svg xmlns="http://www.w3.org/2000/svg" id="canvas" viewBox="218.282 345.043 896.644 98.913"><path d="M 241.69,356.75 C 241.04 357.19, 240.62 357.84, 239.75 359.46 C 238.88 361.08, 238.27 362.14, 237.32 364.87 C 236.38 367.60, 236.07 369.56, 235.02 373.10 C 233.97 376.64, 233.34 378.67, 232.08 382.56 C 230.83 386.46, 230.05 388.60, 228.74 392.58 C 227.43 396.57, 226.68 398.67, 225.52 402.49 C 224.37 406.31, 223.78 408.26, 222.96 411.69 C 222.14 415.12, 221.71 416.77, 221.44 419.65 C 221.17 422.54, 221.26 423.89, 221.61 426.10 C 221.97 428.30, 222.29 429.26, 223.21 430.69 C 224.12 432.11, 224.79 432.66, 226.19 433.23 C 227.58 433.79, 228.48 433.87, 230.20 433.51 C 231.92 433.16, 232.87 432.68, 234.79 431.45 C 236.70 430.22, 237.76 429.32, 239.79 427.36 C 241.82 425.40, 242.84 424.06, 244.95 421.66 C 247.05 419.26, 248.20 417.82, 250.32 415.37 C 252.44 412.92, 253.64 411.61, 255.55 409.40 C 257.46 407.18, 258.41 406.03, 259.88 404.29 C 261.35 402.55, 262.01 401.73, 262.89 400.70 C 263.77 399.67, 264.01 399.29, 264.28 399.14 C 264.55 398.98, 264.37 399.11, 264.26 399.91 C 264.15 400.71, 263.90 401.44, 263.74 403.13 C 263.59 404.82, 263.52 406.06, 263.48 408.35 C 263.44 410.65, 263.44 412.09, 263.54 414.59 C 263.65 417.09, 263.67 418.48, 264.01 420.86 C 264.34 423.23, 264.53 424.43, 265.21 426.46 C 265.89 428.50, 266.29 429.47, 267.41 431.02 C 268.54 432.58, 269.23 433.29, 270.81 434.24 C 272.40 435.18, 273.36 435.53, 275.35 435.76 C 277.33 435.98, 278.46 435.91, 280.73 435.36 C 283.01 434.80, 284.28 434.37, 286.71 432.96 C 289.13 431.56, 290.39 430.53, 292.86 428.33 C 295.33 426.12, 296.61 424.77, 299.08 421.93 C 301.55 419.09, 302.82 417.45, 305.20 414.13 C 307.59 410.81, 308.79 408.95, 310.99 405.33 C 313.20 401.72, 314.32 399.76, 316.25 396.07 C 318.17 392.39, 319.09 390.45, 320.63 386.91 C 322.18 383.37, 322.85 381.58, 323.98 378.39 C 325.10 375.20, 325.63 373.65, 326.26 370.96 C 326.88 368.27, 326.95 366.99, 327.09 364.92 C 327.22 362.86, 327.12 361.95, 326.91 360.62 C 326.70 359.29, 326.40 358.91, 326.04 358.27 C 325.68 357.64, 325.42 357.54, 325.10 357.43 C 324.79 357.33, 324.59 357.49, 324.44 357.74 C 324.29 358.00, 324.39 358.09, 324.34 358.70 C 324.29 359.30, 324.25 359.58, 324.18 360.77 C 324.11 361.96, 324.22 362.75, 323.99 364.64 C 323.76 366.53, 323.58 367.67, 323.02 370.23 C 322.46 372.80, 322.16 374.34, 321.20 377.47 C 320.23 380.60, 319.63 382.39, 318.19 385.87 C 316.75 389.36, 315.87 391.28, 314.00 394.90 C 312.12 398.53, 311.02 400.47, 308.82 404.00 C 306.63 407.52, 305.42 409.35, 303.03 412.53 C 300.64 415.72, 299.34 417.29, 296.86 419.92 C 294.38 422.55, 293.04 423.76, 290.63 425.69 C 288.21 427.63, 286.96 428.38, 284.79 429.60 C 282.61 430.83, 281.60 431.25, 279.77 431.82 C 277.93 432.38, 277.09 432.47, 275.61 432.41 C 274.13 432.36, 273.50 432.19, 272.38 431.56 C 271.26 430.93, 270.79 430.46, 270.00 429.24 C 269.22 428.03, 268.92 427.24, 268.47 425.49 C 268.02 423.73, 267.89 422.65, 267.74 420.46 C 267.59 418.27, 267.65 416.95, 267.71 414.54 C 267.77 412.14, 267.99 410.74, 268.02 408.43 C 268.06 406.12, 268.16 404.84, 267.88 402.98 C 267.60 401.13, 267.35 400.23, 266.62 399.14 C 265.89 398.05, 265.34 397.65, 264.23 397.53 C 263.12 397.42, 262.46 397.67, 261.08 398.56 C 259.70 399.45, 258.98 400.28, 257.33 401.98 C 255.68 403.68, 254.76 404.83, 252.84 407.06 C 250.92 409.28, 249.84 410.68, 247.72 413.11 C 245.60 415.53, 244.40 416.93, 242.24 419.17 C 240.08 421.41, 238.85 422.51, 236.91 424.32 C 234.96 426.14, 234.03 427.02, 232.50 428.25 C 230.97 429.49, 230.34 429.97, 229.25 430.51 C 228.15 431.04, 227.78 431.15, 227.03 430.92 C 226.28 430.70, 225.96 430.44, 225.48 429.40 C 224.99 428.36, 224.76 427.62, 224.61 425.73 C 224.46 423.84, 224.50 422.63, 224.73 419.95 C 224.95 417.26, 225.08 415.64, 225.74 412.30 C 226.40 408.95, 226.95 407.01, 228.04 403.23 C 229.13 399.45, 229.86 397.35, 231.19 393.40 C 232.53 389.45, 233.33 387.32, 234.72 383.47 C 236.12 379.62, 236.87 377.61, 238.17 374.15 C 239.46 370.70, 240.31 368.92, 241.22 366.20 C 242.12 363.47, 242.35 362.32, 242.71 360.53 C 243.07 358.74, 243.22 358.00, 243.01 357.24 C 242.81 356.49, 242.34 356.31, 241.69 356.75" style="stroke: black; fill: black;"/><path d="M 364.04,348.15 C 363.43 348.40, 363.07 348.77, 362.19 350.01 C 361.32 351.25, 360.74 352.04, 359.65 354.34 C 358.57 356.65, 358.14 358.32, 356.76 361.54 C 355.38 364.76, 354.55 366.71, 352.76 370.45 C 350.96 374.19, 349.86 376.29, 347.80 380.24 C 345.75 384.18, 344.56 386.27, 342.48 390.15 C 340.40 394.03, 339.32 396.06, 337.41 399.65 C 335.49 403.24, 334.50 405.05, 332.90 408.10 C 331.30 411.16, 330.46 412.60, 329.40 414.92 C 328.34 417.24, 327.91 418.27, 327.60 419.71 C 327.28 421.14, 327.33 421.70, 327.82 422.10 C 328.32 422.50, 328.94 422.49, 330.06 421.69 C 331.18 420.90, 331.95 420.08, 333.43 418.14 C 334.91 416.21, 335.55 414.64, 337.47 412.02 C 339.39 409.41, 340.55 407.76, 343.01 405.06 C 345.47 402.36, 346.98 400.88, 349.77 398.52 C 352.56 396.16, 354.16 394.98, 356.96 393.25 C 359.76 391.51, 361.32 390.86, 363.76 389.83 C 366.20 388.81, 367.36 388.41, 369.16 388.13 C 370.95 387.85, 371.67 387.90, 372.73 388.43 C 373.79 388.96, 374.07 389.44, 374.44 390.79 C 374.81 392.13, 374.79 393.08, 374.57 395.16 C 374.34 397.24, 374.00 398.58, 373.32 401.19 C 372.63 403.80, 372.14 405.43, 371.15 408.19 C 370.16 410.94, 369.36 412.43, 368.36 414.99 C 367.36 417.54, 366.79 418.86, 366.14 420.97 C 365.48 423.07, 365.31 424.06, 365.08 425.51 C 364.85 426.96, 364.86 427.41, 364.99 428.21 C 365.11 429.02, 365.41 429.24, 365.71 429.53 C 366.00 429.83, 366.28 429.75, 366.46 429.68 C 366.65 429.61, 366.59 429.31, 366.63 429.19 C 366.68 429.08, 366.60 429.26, 366.69 429.10 C 366.79 428.94, 366.87 428.96, 367.11 428.38 C 367.34 427.81, 367.42 427.47, 367.88 426.22 C 368.33 424.97, 368.58 424.09, 369.38 422.14 C 370.19 420.18, 370.83 418.96, 371.91 416.44 C 372.98 413.91, 373.67 412.36, 374.75 409.52 C 375.84 406.68, 376.62 405.07, 377.34 402.23 C 378.06 399.39, 378.38 397.83, 378.35 395.32 C 378.33 392.81, 378.09 391.52, 377.20 389.70 C 376.31 387.87, 375.58 387.08, 373.91 386.18 C 372.25 385.28, 371.17 385.09, 368.88 385.19 C 366.59 385.30, 365.18 385.60, 362.47 386.70 C 359.76 387.80, 358.25 388.78, 355.33 390.70 C 352.41 392.61, 350.80 393.84, 347.88 396.28 C 344.96 398.71, 343.43 400.21, 340.73 402.87 C 338.04 405.54, 336.62 407.05, 334.42 409.60 C 332.23 412.14, 331.08 413.49, 329.76 415.60 C 328.44 417.70, 328.14 418.84, 327.82 420.13 C 327.49 421.41, 327.72 421.89, 328.12 422.01 C 328.53 422.13, 329.00 421.86, 329.85 420.72 C 330.70 419.59, 331.23 418.60, 332.35 416.33 C 333.48 414.06, 334.00 412.47, 335.45 409.37 C 336.91 406.27, 337.81 404.43, 339.64 400.81 C 341.47 397.20, 342.53 395.17, 344.61 391.29 C 346.68 387.41, 347.87 385.32, 350.01 381.41 C 352.14 377.50, 353.28 375.40, 355.27 371.73 C 357.25 368.05, 358.28 366.18, 359.93 363.05 C 361.57 359.91, 362.48 358.42, 363.48 356.06 C 364.49 353.71, 364.61 352.73, 364.96 351.26 C 365.31 349.80, 365.43 349.35, 365.25 348.73 C 365.06 348.11, 364.65 347.89, 364.04 348.15" style="stroke: black; fill: black;"/><path d="M 428.53,396.93 C 428.46 396.30, 428.15 395.72, 427.30 395.01 C 426.45 394.31, 425.80 393.84, 424.27 393.42 C 422.75 393.00, 421.70 392.78, 419.68 392.93 C 417.66 393.09, 416.53 393.37, 414.16 394.20 C 411.78 395.02, 410.38 395.60, 407.80 397.06 C 405.21 398.53, 403.77 399.56, 401.23 401.52 C 398.68 403.48, 397.25 404.67, 395.06 406.86 C 392.86 409.04, 391.72 410.27, 390.24 412.47 C 388.77 414.67, 388.20 415.86, 387.68 417.86 C 387.16 419.87, 387.15 420.88, 387.63 422.50 C 388.10 424.13, 388.67 424.92, 390.05 425.98 C 391.43 427.03, 392.45 427.44, 394.53 427.76 C 396.61 428.08, 397.90 428.03, 400.46 427.57 C 403.02 427.11, 404.51 426.61, 407.34 425.45 C 410.16 424.28, 411.71 423.43, 414.58 421.75 C 417.46 420.07, 418.98 419.04, 421.70 417.06 C 424.41 415.08, 425.87 413.92, 428.16 411.84 C 430.45 409.76, 431.60 408.59, 433.14 406.67 C 434.69 404.75, 435.34 403.71, 435.89 402.25 C 436.43 400.80, 436.36 399.95, 435.86 399.40 C 435.36 398.86, 434.59 398.84, 433.39 399.53 C 432.19 400.23, 431.27 401.09, 429.88 402.87 C 428.49 404.64, 427.70 406.03, 426.45 408.43 C 425.19 410.82, 424.55 412.40, 423.61 414.84 C 422.66 417.28, 422.20 418.52, 421.73 420.63 C 421.26 422.74, 421.13 423.74, 421.26 425.39 C 421.39 427.03, 421.76 427.75, 422.37 428.84 C 422.98 429.93, 423.53 430.33, 424.32 430.85 C 425.12 431.37, 425.69 431.44, 426.36 431.43 C 427.04 431.41, 427.44 431.14, 427.68 430.77 C 427.93 430.39, 427.78 429.90, 427.60 429.56 C 427.42 429.22, 427.12 429.25, 426.77 429.05 C 426.42 428.86, 426.26 428.89, 425.84 428.59 C 425.43 428.29, 425.05 428.22, 424.71 427.57 C 424.38 426.92, 424.09 426.52, 424.16 425.33 C 424.23 424.13, 424.42 423.34, 425.06 421.58 C 425.69 419.81, 426.23 418.67, 427.34 416.50 C 428.45 414.32, 429.33 412.93, 430.61 410.71 C 431.89 408.48, 432.74 407.24, 433.73 405.36 C 434.71 403.47, 435.20 402.45, 435.53 401.28 C 435.86 400.12, 435.75 399.62, 435.36 399.52 C 434.97 399.43, 434.56 399.84, 433.58 400.81 C 432.61 401.78, 432.04 402.70, 430.48 404.39 C 428.93 406.08, 427.95 407.27, 425.80 409.27 C 423.66 411.27, 422.33 412.50, 419.74 414.39 C 417.16 416.28, 415.66 417.25, 412.89 418.74 C 410.13 420.23, 408.56 420.85, 405.92 421.83 C 403.28 422.81, 401.90 423.17, 399.69 423.64 C 397.48 424.12, 396.46 424.21, 394.85 424.20 C 393.23 424.19, 392.56 424.06, 391.60 423.59 C 390.65 423.12, 390.30 422.81, 390.08 421.85 C 389.87 420.89, 389.92 420.25, 390.52 418.79 C 391.13 417.32, 391.70 416.37, 393.11 414.51 C 394.53 412.64, 395.54 411.45, 397.61 409.44 C 399.67 407.43, 401.00 406.23, 403.42 404.46 C 405.85 402.68, 407.33 401.88, 409.74 400.58 C 412.15 399.29, 413.44 398.72, 415.50 397.98 C 417.55 397.23, 418.44 397.02, 420.02 396.87 C 421.60 396.72, 422.24 397.02, 423.40 397.22 C 424.55 397.42, 424.95 397.68, 425.80 397.87 C 426.65 398.06, 427.09 398.36, 427.64 398.17 C 428.18 397.98, 428.60 397.57, 428.53 396.93" style="stroke: black; fill: black;"/><path d="M 482.85,357.03 C 482.29 357.34, 482.11 357.74, 481.29 358.99 C 480.47 360.24, 479.87 361.02, 478.75 363.29 C 477.63 365.57, 477.12 367.21, 475.70 370.37 C 474.29 373.53, 473.42 375.50, 471.68 379.10 C 469.94 382.71, 468.84 384.72, 466.99 388.40 C 465.14 392.07, 464.10 394.00, 462.41 397.49 C 460.72 400.98, 459.89 402.75, 458.53 405.83 C 457.16 408.91, 456.50 410.34, 455.60 412.90 C 454.71 415.45, 454.45 416.62, 454.07 418.61 C 453.69 420.59, 453.61 421.49, 453.71 422.82 C 453.81 424.14, 454.21 424.59, 454.59 425.23 C 454.97 425.87, 455.27 425.93, 455.60 426.01 C 455.93 426.09, 456.11 425.88, 456.24 425.63 C 456.37 425.37, 456.24 425.29, 456.26 424.74 C 456.29 424.19, 456.23 423.97, 456.39 422.88 C 456.55 421.78, 456.59 421.06, 457.05 419.27 C 457.51 417.49, 457.87 416.42, 458.70 413.96 C 459.54 411.50, 460.01 410.04, 461.23 406.97 C 462.46 403.91, 463.22 402.12, 464.84 398.65 C 466.47 395.18, 467.49 393.26, 469.38 389.62 C 471.27 385.98, 472.39 383.97, 474.29 380.44 C 476.20 376.91, 477.26 375.02, 478.91 371.95 C 480.57 368.88, 481.54 367.44, 482.58 365.08 C 483.62 362.72, 483.82 361.66, 484.13 360.14 C 484.44 358.61, 484.37 358.07, 484.11 357.45 C 483.86 356.83, 483.41 356.73, 482.85 357.03" style="stroke: black; fill: black;"/><path d="M 451.35,398.24 C 451.94 398.59, 452.55 398.60, 454.04 398.64 C 455.54 398.68, 456.54 398.63, 458.83 398.44 C 461.12 398.26, 462.64 398.02, 465.49 397.70 C 468.34 397.39, 470.02 397.12, 473.09 396.87 C 476.16 396.63, 478.05 396.70, 480.84 396.47 C 483.64 396.24, 485.04 396.03, 487.07 395.72 C 489.11 395.40, 490.22 395.29, 491.01 394.89 C 491.79 394.48, 491.81 394.11, 491.01 393.70 C 490.21 393.29, 489.08 393.06, 487.01 392.84 C 484.93 392.62, 483.48 392.54, 480.65 392.59 C 477.81 392.64, 475.94 392.92, 472.83 393.10 C 469.72 393.27, 468.01 393.25, 465.10 393.47 C 462.19 393.69, 460.60 393.80, 458.28 394.20 C 455.97 394.61, 454.96 394.96, 453.52 395.49 C 452.08 396.02, 451.52 396.31, 451.09 396.86 C 450.66 397.40, 450.76 397.88, 451.35 398.24" style="stroke: black; fill: black;"/><path d="M 610.22,356.32 C 609.70 356.61, 609.58 356.96, 608.89 358.13 C 608.19 359.30, 607.71 360.02, 606.76 362.17 C 605.80 364.32, 605.42 365.83, 604.12 368.90 C 602.82 371.97, 602.02 373.89, 600.26 377.53 C 598.49 381.18, 597.36 383.22, 595.29 387.12 C 593.22 391.01, 592.03 393.11, 589.91 397.01 C 587.79 400.90, 586.66 402.93, 584.70 406.58 C 582.74 410.23, 581.76 412.07, 580.11 415.24 C 578.45 418.42, 577.57 419.87, 576.40 422.45 C 575.23 425.02, 574.88 426.22, 574.26 428.13 C 573.63 430.05, 573.51 430.82, 573.28 432.01 C 573.06 433.21, 573.05 433.51, 573.13 434.12 C 573.22 434.74, 573.47 434.90, 573.69 435.10 C 573.92 435.31, 574.16 435.20, 574.27 435.15 C 574.37 435.09, 574.18 434.86, 574.21 434.82 C 574.25 434.77, 574.28 435.00, 574.44 434.92 C 574.60 434.85, 574.75 434.89, 575.01 434.44 C 575.27 434.00, 575.34 433.77, 575.75 432.71 C 576.17 431.66, 576.35 430.95, 577.08 429.16 C 577.80 427.38, 578.30 426.31, 579.40 423.77 C 580.50 421.23, 581.07 419.67, 582.57 416.46 C 584.07 413.26, 585.01 411.40, 586.90 407.74 C 588.79 404.08, 589.90 402.05, 592.03 398.16 C 594.15 394.28, 595.36 392.19, 597.52 388.33 C 599.68 384.48, 600.85 382.45, 602.83 378.87 C 604.82 375.29, 605.88 373.48, 607.43 370.45 C 608.99 367.43, 609.75 366.03, 610.62 363.75 C 611.48 361.48, 611.57 360.51, 611.75 359.09 C 611.92 357.66, 611.80 357.19, 611.50 356.64 C 611.19 356.09, 610.75 356.02, 610.22 356.32" style="stroke: black; fill: black;"/><path d="M 645.70,361.49 C 645.09 361.70, 644.80 362.14, 643.98 363.12 C 643.17 364.11, 642.60 364.80, 641.61 366.41 C 640.62 368.03, 639.82 369.16, 639.04 371.20 C 638.25 373.25, 637.62 375.37, 637.71 376.63 C 637.79 377.90, 638.38 378.20, 639.46 377.53 C 640.54 376.87, 641.88 375.12, 643.09 373.30 C 644.31 371.48, 644.76 370.19, 645.52 368.44 C 646.28 366.70, 646.60 365.83, 646.90 364.56 C 647.20 363.28, 647.24 362.68, 647.00 362.06 C 646.76 361.45, 646.30 361.28, 645.70 361.49" style="stroke: black; fill: black;"/><path d="M 665.38,395.20 C 664.90 395.59, 664.78 396.02, 664.35 397.21 C 663.91 398.41, 663.68 399.22, 663.21 401.17 C 662.75 403.11, 662.55 404.44, 662.03 406.94 C 661.51 409.43, 661.20 410.92, 660.62 413.64 C 660.04 416.37, 659.65 417.90, 659.11 420.57 C 658.57 423.24, 658.24 424.61, 657.92 427.00 C 657.60 429.40, 657.44 430.59, 657.52 432.54 C 657.61 434.49, 657.72 435.43, 658.33 436.75 C 658.94 438.07, 659.45 438.64, 660.59 439.15 C 661.72 439.66, 662.51 439.75, 664.02 439.31 C 665.54 438.86, 666.42 438.36, 668.18 436.92 C 669.95 435.47, 670.86 434.38, 672.85 432.08 C 674.84 429.78, 675.86 428.22, 678.12 425.42 C 680.38 422.61, 681.75 420.94, 684.13 418.04 C 686.52 415.14, 687.86 413.51, 690.05 410.90 C 692.23 408.29, 693.40 407.03, 695.06 404.97 C 696.71 402.91, 697.32 401.94, 698.34 400.59 C 699.35 399.24, 699.68 398.90, 700.12 398.20 C 700.56 397.50, 700.46 397.36, 700.56 397.11 C 700.66 396.87, 700.58 397.09, 700.62 396.98 C 700.66 396.87, 700.86 396.72, 700.76 396.56 C 700.65 396.40, 700.52 396.16, 700.09 396.18 C 699.66 396.20, 699.40 396.15, 698.61 396.66 C 697.83 397.16, 697.40 397.47, 696.16 398.70 C 694.93 399.93, 694.12 400.76, 692.42 402.81 C 690.71 404.85, 689.76 406.27, 687.63 408.92 C 685.51 411.58, 684.20 413.23, 681.79 416.09 C 679.38 418.96, 677.98 420.61, 675.59 423.26 C 673.20 425.91, 671.87 427.22, 669.84 429.35 C 667.82 431.48, 666.88 432.47, 665.46 433.92 C 664.04 435.36, 663.54 435.91, 662.72 436.58 C 661.91 437.25, 661.76 437.39, 661.38 437.27 C 661.01 437.14, 660.96 436.88, 660.84 435.94 C 660.73 435.00, 660.68 434.26, 660.80 432.58 C 660.93 430.90, 661.05 429.80, 661.46 427.56 C 661.87 425.33, 662.23 424.00, 662.86 421.41 C 663.50 418.81, 663.94 417.30, 664.63 414.59 C 665.33 411.88, 665.79 410.40, 666.35 407.86 C 666.91 405.32, 667.21 403.95, 667.44 401.90 C 667.67 399.84, 667.62 398.90, 667.48 397.58 C 667.35 396.26, 667.17 395.77, 666.75 395.30 C 666.33 394.82, 665.86 394.82, 665.38 395.20" style="stroke: black; fill: black;"/><path d="M 712.82,421.25 C 713.41 421.51, 713.95 421.45, 715.25 421.24 C 716.56 421.04, 717.43 420.84, 719.34 420.21 C 721.25 419.58, 722.52 419.09, 724.81 418.10 C 727.09 417.10, 728.43 416.45, 730.77 415.24 C 733.12 414.02, 734.40 413.33, 736.53 412.03 C 738.65 410.73, 739.74 410.07, 741.39 408.74 C 743.03 407.41, 743.84 406.74, 744.77 405.38 C 745.69 404.01, 746.03 403.24, 746.00 401.92 C 745.98 400.60, 745.71 399.78, 744.65 398.78 C 743.58 397.79, 742.72 397.25, 740.68 396.93 C 738.65 396.61, 737.24 396.56, 734.48 397.19 C 731.72 397.81, 730.06 398.56, 726.89 400.06 C 723.72 401.55, 721.86 402.60, 718.62 404.66 C 715.38 406.72, 713.56 408.00, 710.69 410.35 C 707.82 412.70, 706.30 413.97, 704.28 416.42 C 702.25 418.87, 701.40 420.20, 700.57 422.59 C 699.73 424.99, 699.63 426.25, 700.09 428.39 C 700.54 430.53, 701.17 431.60, 702.84 433.30 C 704.51 434.99, 705.75 435.82, 708.46 436.87 C 711.17 437.93, 712.92 438.14, 716.40 438.55 C 719.88 438.97, 721.92 438.96, 725.85 438.95 C 729.79 438.94, 732.02 438.79, 736.06 438.50 C 740.10 438.21, 742.46 437.94, 746.05 437.52 C 749.64 437.10, 751.45 436.94, 754.00 436.38 C 756.55 435.81, 757.87 435.26, 758.78 434.70 C 759.70 434.13, 759.62 433.77, 758.58 433.54 C 757.54 433.32, 756.16 433.38, 753.58 433.58 C 751.00 433.78, 749.24 434.13, 745.70 434.55 C 742.15 434.98, 739.82 435.41, 735.85 435.70 C 731.89 435.99, 729.68 436.11, 725.88 436.02 C 722.09 435.93, 720.09 435.78, 716.87 435.25 C 713.64 434.72, 712.16 434.21, 709.77 433.36 C 707.38 432.51, 706.35 432.10, 704.93 430.99 C 703.52 429.88, 703.03 429.29, 702.71 427.83 C 702.39 426.36, 702.54 425.54, 703.35 423.67 C 704.16 421.80, 704.91 420.69, 706.76 418.49 C 708.61 416.30, 709.92 414.93, 712.61 412.69 C 715.31 410.45, 717.12 409.18, 720.25 407.30 C 723.39 405.43, 725.27 404.50, 728.30 403.31 C 731.33 402.11, 732.98 401.85, 735.41 401.31 C 737.84 400.77, 738.89 400.69, 740.44 400.60 C 741.99 400.51, 742.49 400.64, 743.15 400.88 C 743.82 401.12, 743.92 401.27, 743.78 401.79 C 743.65 402.31, 743.37 402.65, 742.48 403.48 C 741.58 404.31, 740.88 404.88, 739.31 405.93 C 737.73 406.99, 736.69 407.62, 734.63 408.75 C 732.56 409.88, 731.29 410.51, 728.98 411.57 C 726.67 412.63, 725.33 413.11, 723.08 414.04 C 720.84 414.98, 719.56 415.38, 717.76 416.23 C 715.96 417.07, 715.17 417.52, 714.07 418.26 C 712.98 419.01, 712.55 419.34, 712.30 419.94 C 712.05 420.54, 712.23 420.99, 712.82 421.25" style="stroke: black; fill: black;"/><path d="M 880.67,369.49 C 880.09 369.84, 879.86 370.37, 879.09 371.67 C 878.33 372.96, 877.82 373.76, 876.85 375.96 C 875.87 378.16, 875.47 379.71, 874.22 382.67 C 872.98 385.63, 872.26 387.41, 870.63 390.75 C 869.00 394.10, 867.94 395.94, 866.06 399.38 C 864.18 402.81, 863.12 404.66, 861.23 407.93 C 859.34 411.19, 858.32 412.86, 856.60 415.70 C 854.88 418.54, 853.98 419.87, 852.65 422.13 C 851.32 424.39, 850.75 425.43, 849.95 427.00 C 849.14 428.57, 848.96 429.08, 848.63 429.98 C 848.31 430.88, 848.27 431.10, 848.33 431.49 C 848.40 431.87, 848.58 431.99, 848.96 431.90 C 849.34 431.80, 849.52 431.68, 850.22 431.01 C 850.92 430.35, 851.40 430.00, 852.47 428.56 C 853.53 427.13, 854.19 426.11, 855.54 423.84 C 856.89 421.57, 857.58 420.12, 859.21 417.21 C 860.83 414.31, 861.79 412.61, 863.66 409.32 C 865.52 406.02, 866.58 404.18, 868.52 400.75 C 870.46 397.32, 871.55 395.49, 873.38 392.18 C 875.20 388.88, 876.18 387.17, 877.65 384.24 C 879.11 381.32, 879.83 379.85, 880.70 377.55 C 881.58 375.24, 881.76 374.26, 882.02 372.73 C 882.28 371.20, 882.28 370.56, 882.01 369.91 C 881.74 369.26, 881.26 369.14, 880.67 369.49" style="stroke: black; fill: black;"/><path d="M 864.56,364.85 C 865.20 364.78, 865.50 364.30, 866.66 363.61 C 867.82 362.91, 868.49 362.39, 870.37 361.39 C 872.25 360.39, 873.41 359.64, 876.06 358.61 C 878.71 357.57, 880.39 356.96, 883.62 356.22 C 886.84 355.48, 888.80 355.17, 892.19 354.91 C 895.59 354.64, 897.47 354.62, 900.58 354.89 C 903.69 355.17, 905.29 355.57, 907.75 356.27 C 910.20 356.98, 911.35 357.42, 912.87 358.42 C 914.39 359.42, 914.96 359.99, 915.34 361.27 C 915.73 362.56, 915.60 363.22, 914.80 364.84 C 913.99 366.46, 913.18 367.36, 911.30 369.38 C 909.43 371.39, 908.17 372.71, 905.42 374.92 C 902.67 377.13, 900.80 378.37, 897.55 380.41 C 894.29 382.45, 892.32 383.49, 889.15 385.12 C 885.98 386.76, 884.19 387.31, 881.69 388.59 C 879.20 389.86, 878.07 390.42, 876.67 391.51 C 875.28 392.60, 874.88 393.05, 874.70 394.02 C 874.52 394.99, 874.83 395.50, 875.77 396.36 C 876.72 397.22, 877.60 397.61, 879.42 398.31 C 881.24 399.01, 882.51 399.19, 884.87 399.87 C 887.23 400.55, 888.70 400.86, 891.23 401.72 C 893.77 402.59, 895.20 403.08, 897.54 404.17 C 899.87 405.26, 901.09 405.89, 902.91 407.17 C 904.72 408.44, 905.57 409.17, 906.62 410.54 C 907.66 411.91, 908.00 412.59, 908.14 414.02 C 908.27 415.46, 908.12 416.17, 907.28 417.72 C 906.44 419.26, 905.70 420.07, 903.95 421.76 C 902.20 423.45, 901.10 424.45, 898.51 426.16 C 895.92 427.88, 894.29 428.81, 891.01 430.34 C 887.72 431.88, 885.77 432.64, 882.08 433.83 C 878.40 435.02, 876.33 435.54, 872.59 436.29 C 868.85 437.04, 866.82 437.31, 863.39 437.58 C 859.95 437.85, 858.21 437.74, 855.41 437.64 C 852.61 437.55, 851.32 437.44, 849.38 437.10 C 847.45 436.77, 846.73 436.47, 845.73 435.95 C 844.73 435.43, 844.76 435.07, 844.40 434.51 C 844.04 433.96, 844.25 433.42, 843.94 433.16 C 843.63 432.90, 843.15 432.78, 842.87 433.20 C 842.59 433.63, 842.27 434.30, 842.55 435.28 C 842.83 436.27, 843.05 437.15, 844.28 438.12 C 845.52 439.08, 846.51 439.56, 848.72 440.13 C 850.93 440.69, 852.33 440.88, 855.32 440.94 C 858.31 441.01, 860.10 440.85, 863.66 440.46 C 867.22 440.06, 869.28 439.77, 873.13 438.98 C 876.98 438.18, 879.10 437.66, 882.92 436.48 C 886.74 435.31, 888.74 434.58, 892.23 433.11 C 895.72 431.63, 897.49 430.83, 900.36 429.10 C 903.24 427.37, 904.64 426.45, 906.61 424.46 C 908.59 422.46, 909.37 421.25, 910.26 419.11 C 911.15 416.97, 911.27 415.81, 911.06 413.74 C 910.86 411.66, 910.42 410.62, 909.22 408.74 C 908.02 406.86, 907.04 405.94, 905.04 404.34 C 903.05 402.73, 901.72 402.03, 899.25 400.73 C 896.78 399.43, 895.30 398.87, 892.68 397.82 C 890.06 396.78, 888.58 396.22, 886.15 395.50 C 883.71 394.77, 882.38 394.49, 880.49 394.22 C 878.60 393.95, 877.66 394.11, 876.72 394.16 C 875.77 394.21, 875.50 394.53, 875.76 394.47 C 876.02 394.41, 876.51 394.41, 878.00 393.86 C 879.50 393.31, 880.74 392.93, 883.25 391.72 C 885.76 390.50, 887.40 389.54, 890.57 387.78 C 893.74 386.03, 895.75 384.99, 899.11 382.94 C 902.48 380.88, 904.41 379.71, 907.41 377.50 C 910.40 375.30, 912.01 374.21, 914.07 371.91 C 916.14 369.61, 916.97 368.30, 917.73 366.02 C 918.49 363.74, 918.49 362.50, 917.87 360.50 C 917.26 358.51, 916.49 357.53, 914.66 356.03 C 912.83 354.53, 911.50 353.85, 908.73 352.99 C 905.97 352.12, 904.19 351.95, 900.84 351.70 C 897.48 351.46, 895.55 351.53, 891.97 351.76 C 888.39 352.00, 886.41 352.28, 882.95 352.88 C 879.49 353.48, 877.61 353.79, 874.67 354.78 C 871.74 355.76, 870.29 356.52, 868.27 357.82 C 866.25 359.12, 865.51 360.05, 864.55 361.28 C 863.60 362.50, 863.47 363.25, 863.47 363.96 C 863.47 364.67, 863.92 364.92, 864.56 364.85" style="stroke: black; fill: black;"/><path d="M 941.06,396.46 C 940.44 396.58, 940.08 396.93, 939.07 397.82 C 938.06 398.72, 937.37 399.28, 936.01 400.96 C 934.66 402.64, 933.77 403.91, 932.31 406.23 C 930.85 408.55, 930.01 409.99, 928.72 412.54 C 927.42 415.10, 926.72 416.51, 925.83 418.99 C 924.93 421.47, 924.47 422.75, 924.23 424.96 C 923.98 427.16, 924.02 428.24, 924.60 430.01 C 925.18 431.78, 925.70 432.63, 927.11 433.80 C 928.52 434.97, 929.52 435.44, 931.63 435.85 C 933.74 436.25, 935.05 436.26, 937.66 435.82 C 940.28 435.38, 941.77 434.86, 944.72 433.65 C 947.67 432.43, 949.32 431.55, 952.42 429.75 C 955.53 427.95, 957.19 426.86, 960.23 424.64 C 963.27 422.42, 964.84 421.11, 967.64 418.66 C 970.43 416.20, 971.83 414.81, 974.19 412.37 C 976.56 409.92, 977.75 408.63, 979.46 406.44 C 981.17 404.24, 981.93 403.11, 982.73 401.37 C 983.52 399.64, 983.70 398.65, 983.44 397.77 C 983.18 396.89, 982.52 396.57, 981.43 396.97 C 980.35 397.37, 979.41 398.10, 978.00 399.77 C 976.60 401.44, 975.76 402.79, 974.40 405.32 C 973.04 407.85, 972.40 409.64, 971.19 412.42 C 969.98 415.20, 969.25 416.67, 968.34 419.23 C 967.44 421.79, 967.05 423.07, 966.66 425.23 C 966.27 427.40, 966.18 428.37, 966.39 430.07 C 966.59 431.78, 966.85 432.57, 967.68 433.76 C 968.51 434.96, 969.14 435.48, 970.53 436.04 C 971.92 436.60, 972.83 436.71, 974.63 436.56 C 976.43 436.40, 977.48 436.07, 979.54 435.26 C 981.59 434.46, 982.67 433.85, 984.89 432.54 C 987.11 431.23, 988.29 430.44, 990.62 428.73 C 992.95 427.03, 994.19 425.94, 996.54 424.01 C 998.88 422.07, 1000.16 421.01, 1002.34 419.06 C 1004.52 417.10, 1005.62 416.05, 1007.42 414.24 C 1009.23 412.44, 1010.15 411.56, 1011.36 410.02 C 1012.58 408.48, 1013.20 407.60, 1013.51 406.56 C 1013.81 405.51, 1013.55 404.90, 1012.89 404.80 C 1012.23 404.69, 1011.41 404.99, 1010.20 406.04 C 1008.99 407.09, 1008.19 408.09, 1006.84 410.04 C 1005.49 412.00, 1004.69 413.48, 1003.46 415.81 C 1002.23 418.15, 1001.59 419.59, 1000.68 421.72 C 999.77 423.86, 999.36 424.90, 998.91 426.50 C 998.46 428.10, 998.49 428.74, 998.43 429.72 C 998.37 430.70, 998.42 431.00, 998.63 431.38 C 998.83 431.75, 999.10 431.80, 999.45 431.60 C 999.81 431.39, 999.93 431.12, 1000.42 430.34 C 1000.91 429.56, 1001.14 429.08, 1001.89 427.70 C 1002.64 426.33, 1003.07 425.38, 1004.18 423.46 C 1005.29 421.54, 1006.07 420.27, 1007.43 418.10 C 1008.79 415.94, 1009.83 414.66, 1010.98 412.65 C 1012.13 410.64, 1012.68 409.52, 1013.18 408.05 C 1013.68 406.57, 1013.75 405.85, 1013.47 405.27 C 1013.19 404.69, 1012.72 404.68, 1011.79 405.16 C 1010.85 405.65, 1010.18 406.38, 1008.81 407.69 C 1007.43 408.99, 1006.68 409.95, 1004.90 411.68 C 1003.11 413.40, 1002.02 414.41, 999.89 416.31 C 997.75 418.20, 996.53 419.31, 994.22 421.15 C 991.91 422.99, 990.60 423.94, 988.33 425.53 C 986.06 427.11, 984.93 427.87, 982.86 429.08 C 980.79 430.28, 979.76 430.77, 978.00 431.55 C 976.23 432.33, 975.37 432.63, 974.05 432.98 C 972.72 433.33, 972.22 433.43, 971.38 433.30 C 970.54 433.17, 970.26 433.01, 969.83 432.32 C 969.40 431.64, 969.23 431.15, 969.24 429.88 C 969.24 428.61, 969.33 427.82, 969.85 425.96 C 970.37 424.10, 970.85 422.94, 971.84 420.58 C 972.83 418.22, 973.46 416.75, 974.82 414.16 C 976.18 411.58, 977.29 410.07, 978.65 407.65 C 980.01 405.24, 980.76 403.94, 981.61 402.07 C 982.47 400.20, 982.79 399.24, 982.91 398.31 C 983.03 397.39, 982.78 397.16, 982.22 397.45 C 981.65 397.74, 981.19 398.39, 980.09 399.76 C 978.98 401.13, 978.33 402.20, 976.70 404.30 C 975.08 406.40, 974.14 407.83, 971.94 410.27 C 969.75 412.71, 968.40 414.09, 965.72 416.49 C 963.03 418.89, 961.48 420.16, 958.51 422.25 C 955.54 424.34, 953.90 425.36, 950.87 426.95 C 947.84 428.54, 946.16 429.19, 943.38 430.20 C 940.60 431.21, 939.23 431.54, 936.97 431.98 C 934.71 432.43, 933.71 432.52, 932.08 432.43 C 930.46 432.34, 929.80 432.17, 928.85 431.53 C 927.89 430.89, 927.58 430.45, 927.31 429.24 C 927.03 428.02, 927.06 427.25, 927.45 425.48 C 927.85 423.71, 928.30 422.57, 929.28 420.38 C 930.26 418.19, 930.98 416.87, 932.35 414.52 C 933.72 412.18, 934.68 410.88, 936.12 408.66 C 937.55 406.44, 938.43 405.23, 939.53 403.43 C 940.63 401.63, 941.07 400.89, 941.60 399.66 C 942.14 398.42, 942.32 397.89, 942.21 397.26 C 942.10 396.62, 941.69 396.35, 941.06 396.46" style="stroke: black; fill: black;"/><path d="M 1021.93,375.59 C 1022.45 375.48, 1022.76 375.40, 1022.76 375.29 C 1022.75 375.17, 1022.44 375.10, 1021.91 375.00 C 1021.39 374.90, 1020.67 374.72, 1020.13 374.79 C 1019.58 374.85, 1019.18 375.12, 1019.18 375.33 C 1019.19 375.55, 1019.59 375.81, 1020.14 375.86 C 1020.69 375.91, 1021.40 375.71, 1021.93 375.59" style="stroke: black; fill: black;"/><path d="M 1060.19,360.90 C 1059.53 361.13, 1059.15 361.53, 1058.06 362.73 C 1056.97 363.93, 1056.20 364.65, 1054.73 366.92 C 1053.25 369.19, 1052.53 370.91, 1050.67 374.08 C 1048.81 377.25, 1047.67 379.13, 1045.42 382.77 C 1043.18 386.40, 1041.80 388.47, 1039.46 392.26 C 1037.11 396.05, 1035.83 398.07, 1033.71 401.70 C 1031.58 405.33, 1030.51 407.17, 1028.83 410.41 C 1027.15 413.65, 1026.27 415.16, 1025.30 417.89 C 1024.32 420.63, 1024.08 421.92, 1023.95 424.08 C 1023.82 426.23, 1023.96 427.17, 1024.65 428.68 C 1025.33 430.19, 1025.91 430.81, 1027.39 431.63 C 1028.87 432.44, 1029.87 432.73, 1032.03 432.75 C 1034.20 432.78, 1035.81 432.45, 1038.20 431.75 C 1040.59 431.06, 1042.05 430.36, 1043.98 429.27 C 1045.92 428.18, 1047.23 427.18, 1047.89 426.30 C 1048.54 425.43, 1048.32 425.02, 1047.26 424.91 C 1046.21 424.80, 1044.66 425.26, 1042.59 425.76 C 1040.53 426.26, 1039.10 426.76, 1036.92 427.40 C 1034.74 428.04, 1033.40 428.60, 1031.70 428.97 C 1030.00 429.33, 1029.40 429.46, 1028.43 429.22 C 1027.46 428.98, 1027.19 428.73, 1026.87 427.77 C 1026.54 426.80, 1026.50 426.15, 1026.79 424.39 C 1027.09 422.63, 1027.45 421.53, 1028.35 418.97 C 1029.25 416.42, 1029.78 414.82, 1031.28 411.62 C 1032.79 408.42, 1033.82 406.56, 1035.88 402.96 C 1037.94 399.35, 1039.21 397.33, 1041.58 393.59 C 1043.95 389.85, 1045.35 387.80, 1047.74 384.26 C 1050.12 380.72, 1051.39 378.91, 1053.50 375.90 C 1055.61 372.88, 1056.85 371.49, 1058.28 369.18 C 1059.71 366.87, 1060.04 365.87, 1060.65 364.36 C 1061.26 362.85, 1061.44 362.31, 1061.35 361.62 C 1061.25 360.93, 1060.85 360.68, 1060.19 360.90" style="stroke: black; fill: black;"/><path d="M 1104.41,368.22 C 1103.86 368.40, 1103.74 368.67, 1102.83 369.65 C 1101.92 370.63, 1101.24 371.17, 1099.87 373.11 C 1098.51 375.05, 1097.78 376.49, 1095.99 379.34 C 1094.20 382.19, 1093.14 384.02, 1090.93 387.36 C 1088.71 390.69, 1087.30 392.57, 1084.93 396.02 C 1082.56 399.47, 1081.24 401.33, 1079.07 404.61 C 1076.90 407.90, 1075.82 409.54, 1074.09 412.45 C 1072.36 415.37, 1071.53 416.74, 1070.42 419.18 C 1069.31 421.62, 1069.05 422.85, 1068.55 424.64 C 1068.05 426.44, 1067.99 427.09, 1067.91 428.16 C 1067.84 429.23, 1068.02 429.51, 1068.17 429.99 C 1068.32 430.47, 1068.47 430.47, 1068.67 430.58 C 1068.86 430.69, 1068.98 430.62, 1069.15 430.53 C 1069.33 430.43, 1069.31 430.48, 1069.54 430.12 C 1069.77 429.75, 1069.93 429.61, 1070.30 428.70 C 1070.67 427.79, 1070.75 427.20, 1071.37 425.57 C 1071.99 423.94, 1072.35 422.86, 1073.40 420.53 C 1074.45 418.20, 1075.04 416.79, 1076.63 413.90 C 1078.21 411.01, 1079.21 409.34, 1081.32 406.08 C 1083.42 402.81, 1084.73 400.96, 1087.14 397.56 C 1089.55 394.16, 1090.99 392.30, 1093.37 389.07 C 1095.75 385.84, 1097.05 384.15, 1099.06 381.42 C 1101.06 378.70, 1102.11 377.48, 1103.38 375.43 C 1104.65 373.37, 1104.97 372.49, 1105.41 371.15 C 1105.85 369.82, 1105.78 369.35, 1105.59 368.76 C 1105.39 368.18, 1104.96 368.04, 1104.41 368.22" style="stroke: black; fill: black;"/><path d="M 1067.99,403.10 C 1068.61 403.50, 1069.25 403.58, 1070.95 403.72 C 1072.64 403.85, 1073.84 403.89, 1076.47 403.77 C 1079.11 403.66, 1080.89 403.36, 1084.12 403.15 C 1087.35 402.94, 1089.25 402.81, 1092.62 402.72 C 1095.99 402.64, 1098.02 402.80, 1100.98 402.72 C 1103.94 402.63, 1105.36 402.50, 1107.42 402.30 C 1109.49 402.09, 1110.53 402.03, 1111.32 401.69 C 1112.10 401.34, 1112.14 400.99, 1111.37 400.57 C 1110.61 400.14, 1109.56 399.85, 1107.48 399.56 C 1105.40 399.27, 1103.95 399.17, 1100.96 399.11 C 1097.98 399.06, 1095.95 399.24, 1092.55 399.28 C 1089.16 399.33, 1087.25 399.30, 1083.98 399.34 C 1080.71 399.37, 1078.85 399.20, 1076.19 399.44 C 1073.52 399.68, 1072.31 400.07, 1070.64 400.53 C 1068.97 400.99, 1068.38 401.22, 1067.85 401.73 C 1067.32 402.24, 1067.37 402.70, 1067.99 403.10" style="stroke: black; fill: black;"/></svg>