<svg xmlns="http://www.w3.org/2000/svg" xmlns:xlink="http://www.w3.org/1999/xlink" xmlns:serif="http://www.serif.com/" version="1.1" xml:space="preserve" style="fill-rule:evenodd;clip-rule:evenodd;stroke-linejoin:round;stroke-miterlimit:2;" viewBox="900.7 715.76 1200.15 257.76"><rect id="Logo-Final---White" serif:id="Logo Final - White" x="0.78" y="0.886" width="3000" height="1687.5" style="fill:none;"/><g id="Logo-1---Lock-up" serif:id="Logo 1 - Lock up"><g id="Text"><path d="M1364.84,879.144l-6.427,27.879c-1.42,6.257 -6.427,9.354 -12.182,9.354c-6.203,0 -10.613,-3.035 -10.613,-8.425c0,-0.929 0.15,-1.735 0.374,-2.726l6.129,-26.082l-5.456,-0l-6.577,27.879c-1.495,6.195 -6.278,9.354 -12.182,9.354c-6.203,0 -10.538,-2.973 -10.538,-8.363c0,-0.806 0.15,-1.859 0.374,-2.788l6.053,-26.082l-5.455,-0l-5.979,25.71c-0.299,1.301 -0.449,2.54 -0.449,3.779c0,7.744 6.428,11.833 15.321,11.833c5.979,0 11.584,-2.354 14.873,-7.62c1.868,4.894 7.1,7.62 14.274,7.62c8.221,0 15.321,-4.336 17.339,-13.072l6.577,-28.25l-5.456,-0Z" style="fill:#fff5ee;"/><path d="M1369.55,919.661l35.873,-0l0.972,-4.089l-30.493,-0l3.363,-14.435l26.158,0l0.972,-4.089l-26.158,0l3.214,-13.815l30.492,-0l0.972,-4.089l-35.874,-0l-9.491,40.517Z" style="fill:#fff5ee;"/><path d="M1413.87,919.661l25.71,-0c9.491,-0 16.591,-4.956 16.591,-12.267c0,-4.275 -2.466,-7.186 -7.025,-8.549l-0,-0.124c5.605,-1.487 9.342,-5.948 9.342,-10.656c0,-5.39 -4.858,-8.921 -11.659,-8.921l-23.467,-0l-9.492,40.517Zm10.688,-22.675l3.213,-13.753l17.862,-0c5.307,-0 7.399,2.106 7.399,5.39c0,4.832 -4.409,8.363 -10.762,8.363l-17.712,0Zm-4.335,18.586l3.363,-14.497l19.88,0c4.26,0 7.474,1.859 7.474,5.886c-0,4.708 -4.485,8.611 -11.435,8.611l-19.282,-0Z" style="fill:#fff5ee;"/><path d="M1498.24,920.466c10.687,0 18.011,-4.77 18.011,-12.39c0,-7.001 -6.203,-8.86 -14.05,-10.78c-6.129,-1.487 -11.061,-2.416 -11.061,-7.372c-0,-4.647 4.633,-7.497 11.733,-7.497c7.25,0 11.51,2.912 11.51,7.249l-0,0.371l5.231,0l0,-0.743c0,-7.001 -7.249,-10.966 -16.516,-10.966c-10.314,0 -17.339,4.895 -17.339,12.267c-0,6.877 6.128,8.859 13.975,10.594c6.801,1.487 11.136,2.602 11.136,7.372c0,4.957 -5.007,7.806 -12.481,7.806c-6.278,0 -12.705,-2.044 -12.705,-7.558l0,-0.557l-5.231,-0c-0.075,0.309 -0.075,0.619 -0.075,0.743c-0,7.744 8.37,11.461 17.862,11.461Z" style="fill:#fff5ee;"/><path d="M1547.35,920.466c16.292,0 28.624,-10.47 28.624,-23.108c-0,-11.523 -10.239,-19.02 -24.14,-19.02c-16.218,0 -28.624,10.285 -28.624,22.985c-0,11.585 10.313,19.143 24.14,19.143Zm0.373,-4.089c-10.762,0 -19.058,-5.823 -19.058,-15.178c0,-10.098 9.567,-18.772 22.72,-18.772c10.538,0 19.058,5.576 19.058,15.117c0,10.098 -9.491,18.833 -22.72,18.833Z" style="fill:#fff5ee;"/><path d="M1578.36,919.661l34.977,-0l0.971,-4.089l-29.595,-0l8.52,-36.428l-5.381,-0l-9.492,40.517Z" style="fill:#fff5ee;"/><path d="M1642.04,920.466c11.957,0 19.207,-5.761 21.374,-15.054l6.128,-26.268l-5.306,-0l-6.053,25.896c-1.645,7.001 -6.951,11.337 -15.77,11.337c-7.698,0 -14.2,-3.283 -14.2,-10.222c0,-1.549 0.299,-2.912 0.449,-3.531l5.53,-23.48l-5.53,-0l-5.381,23.046c-0.374,1.611 -0.523,3.036 -0.523,4.213c-0,9.231 8.445,14.063 19.282,14.063Z" style="fill:#fff5ee;"/><path d="M1682.39,919.661l5.381,-0l8.52,-36.428l16.592,-0l0.971,-4.089l-38.564,-0l-0.971,4.089l16.591,-0l-8.52,36.428Z" style="fill:#fff5ee;"/><path d="M1711.62,919.661l5.381,-0l9.492,-40.517l-5.381,-0l-9.492,40.517Z" style="fill:#fff5ee;"/><path d="M1753.24,920.466c16.293,0 28.624,-10.47 28.624,-23.108c0,-11.523 -10.239,-19.02 -24.14,-19.02c-16.217,0 -28.624,10.285 -28.624,22.985c0,11.585 10.314,19.143 24.14,19.143Zm0.374,-4.089c-10.762,0 -19.058,-5.823 -19.058,-15.178c0,-10.098 9.566,-18.772 22.72,-18.772c10.538,0 19.058,5.576 19.058,15.117c-0,10.098 -9.492,18.833 -22.72,18.833Z" style="fill:#fff5ee;"/><path d="M1818.79,919.661l5.456,-0l5.381,-23.108c0.373,-1.611 0.523,-3.036 0.523,-4.275c-0,-9.169 -8.296,-13.94 -19.282,-13.94c-11.883,0 -19.357,5.7 -21.524,14.993l-6.203,26.33l5.456,-0l6.128,-25.896c1.719,-7.125 6.801,-11.338 15.844,-11.338c7.698,0 14.125,3.16 14.125,10.408c0,1.054 -0.149,2.355 -0.373,3.284l-5.531,23.542Z" style="fill:#fff5ee;"/><path d="M1851,920.466c10.688,0 18.012,-4.77 18.012,-12.39c-0,-7.001 -6.203,-8.86 -14.051,-10.78c-6.128,-1.487 -11.061,-2.416 -11.061,-7.372c0,-4.647 4.634,-7.497 11.734,-7.497c7.249,0 11.509,2.912 11.509,7.249l0,0.371l5.232,0l-0,-0.743c-0,-7.001 -7.249,-10.966 -16.517,-10.966c-10.313,0 -17.339,4.895 -17.339,12.267c0,6.877 6.129,8.859 13.976,10.594c6.801,1.487 11.136,2.602 11.136,7.372c-0,4.957 -5.008,7.806 -12.481,7.806c-6.278,0 -12.705,-2.044 -12.705,-7.558l-0,-0.557l-5.232,-0c-0.075,0.309 -0.075,0.619 -0.075,0.743c0,7.744 8.371,11.461 17.862,11.461Z" style="fill:#fff5ee;"/><path d="M1301.91,843.187l17.22,-0l-0,-46.948c-0,-10.036 6.457,-14.163 14.932,-14.163c8.475,0 14.932,4.238 14.932,14.163l0,46.948l17.22,-0l-0,-46.948c-0,-9.925 6.457,-14.163 14.932,-14.163c8.475,0 14.932,4.127 14.932,14.163l0,46.948l17.219,-0l0,-46.948c0,-18.735 -13.318,-27.433 -30.671,-27.433c-11.166,0 -19.91,3.903 -25.022,11.152c-5.112,-7.249 -13.856,-11.152 -25.022,-11.152c-17.354,0 -30.672,8.698 -30.672,27.433l0,46.948Z" style="fill:#fff5ee;"/><path d="M1427.15,843.187l16.815,-0l0,-21.857l42.914,-0l-0,21.857l17.219,-0l0,-42.711c0,-19.515 -13.722,-31.67 -38.609,-31.67c-24.887,0 -38.339,12.155 -38.339,31.67l-0,42.711Zm16.815,-34.793l0,-7.918c0,-11.709 6.996,-18.4 21.39,-18.4c14.529,0 21.524,6.691 21.524,18.4l-0,7.918l-42.914,-0Z" style="fill:#fff5ee;"/><path d="M1538.14,843.187l17.219,-0l0,-59.661l26.233,0l-0,-13.27l-69.684,-0l-0,13.27l26.232,0l0,59.661Z" style="fill:#fff5ee;"/><path d="M1615.09,843.187l17.219,-0l-0,-59.661l26.232,0l0,-13.27l-69.684,-0l0,13.27l26.233,0l-0,59.661Z" style="fill:#fff5ee;"/><path d="M1706.97,843.187l17.22,-0l-0,-24.645l15.874,-0l18.699,24.645l20.448,-0l-21.659,-26.206c11.838,-3.234 18.43,-11.152 18.43,-22.638c0,-13.939 -9.82,-24.087 -32.152,-24.087l-36.86,-0l0,72.931Zm17.22,-37.915l-0,-21.746l19.909,0c10.897,0 14.529,4.572 14.529,10.817c0,6.245 -3.632,10.929 -14.529,10.929l-19.909,-0Z" style="fill:#fff5ee;"/><path d="M1826.56,844.636c23.676,0 36.86,-11.82 36.86,-30.443l-0,-43.937l-16.816,-0l-0,43.937c-0,10.817 -6.592,17.284 -20.179,17.284c-13.318,0 -20.044,-6.467 -20.044,-17.284l-0,-43.937l-17.219,-0l-0,43.937c-0,18.734 13.318,30.443 37.398,30.443Z" style="fill:#fff5ee;"/><path d="M1879.29,843.187l64.841,-0l-0,-13.159l-47.622,-0l-0,-17.508l39.819,0l0,-12.713l-39.819,0l-0,-16.281l47.622,0l-0,-13.27l-64.841,-0l-0,72.931Z" style="fill:#fff5ee;"/><path d="M1980.19,843.187l17.219,-0l-0,-59.661l26.232,0l0,-13.27l-69.684,-0l0,13.27l26.233,0l-0,59.661Z" style="fill:#fff5ee;"/><path d="M2031.71,843.187l69.146,-0l-0,-13.159l-47.757,-0l46.412,-47.059l-0,-12.713l-65.783,-0l-0,13.27l44.393,0l-46.411,46.948l-0,12.713Z" style="fill:#fff5ee;"/></g><g><g><path d="M917.415,905.319c-13.488,-20.49 -37.62,-88.779 19.817,-146.908c62.953,-63.711 176.085,-46.956 243.001,-8.759c76.078,43.427 55.626,123.916 -9.979,102.291c-49.655,-16.368 -105.171,-13.029 -142.086,32.912c-53.157,66.154 -77.602,70.822 -110.753,20.464Z" style="fill:#f18805;"/><path d="M959.877,859.072c-9.604,-13.563 -26.786,-58.763 14.109,-97.238c44.821,-42.17 125.369,-31.08 173.012,-5.797c54.166,28.744 39.605,82.019 -7.105,67.706c-35.354,-10.834 -74.88,-8.625 -101.163,21.784c-37.846,43.786 -55.251,46.877 -78.853,13.545Z" style="fill:#f0a202;"/></g><g><path d="M1059.23,897.066c-3.467,12.887 -4.888,35.672 -3.311,48.3c3.299,26.402 22.684,37.766 44.7,18.52c27.456,-24.001 52.762,-20.258 72.986,-25.824c11.446,-3.151 22.394,-22.53 10.341,-39.832c-14.519,-20.842 -63.957,-36.278 -85.5,-33.497c-20.171,2.604 -34.073,13.222 -39.216,32.333Z" style="fill:#f18805;"/><path d="M1079.51,900.8c-2.352,8.739 -3.315,24.189 -2.246,32.752c2.237,17.903 15.382,25.61 30.311,12.559c18.619,-16.276 35.779,-13.737 49.493,-17.512c7.762,-2.136 15.185,-15.277 7.012,-27.01c-9.845,-14.133 -43.37,-24.6 -57.978,-22.714c-13.678,1.765 -23.105,8.965 -26.592,21.925Z" style="fill:#f0a202;"/></g></g></g></svg>