<svg xmlns="http://www.w3.org/2000/svg" xmlns:xlink="http://www.w3.org/1999/xlink" xmlns:serif="http://www.serif.com/" version="1.1" xml:space="preserve" style="fill-rule:evenodd;clip-rule:evenodd;stroke-linejoin:round;stroke-miterlimit:2;" viewBox="790.79 407.32 340.28 268.35">
    <g transform="matrix(1,0,0,1,-3653,-6296)">
        <g id="Logo-Icon-Final" serif:id="Logo Icon Final" transform="matrix(1,0,0,1,-12781.4,6296.91)">
            <rect x="16435.3" y="0" width="1920" height="1080" style="fill:none;"/>
            <g transform="matrix(2.20098,0,0,2.19155,15108.8,329.314)">
                <g>
                    <path d="M969.439,124.838C963.086,115.146 951.721,82.847 978.771,55.352C1008.42,25.218 1061.7,33.143 1093.21,51.209C1129.04,71.75 1119.41,109.82 1088.52,99.592C1065.13,91.85 1038.98,93.429 1021.6,115.159C996.564,146.448 985.051,148.657 969.439,124.838Z" style="fill:rgb(241,136,5);"/>
                    <g transform="matrix(0.711982,0,0,0.661894,299.213,20.3341)">
                        <path d="M969.439,124.838C963.086,115.146 951.721,82.847 978.771,55.352C1008.42,25.218 1061.7,33.143 1093.21,51.209C1129.04,71.75 1119.41,109.82 1088.52,99.592C1065.13,91.85 1038.98,93.429 1021.6,115.159C996.564,146.448 985.051,148.657 969.439,124.838Z" style="fill:rgb(240,162,2);"/>
                    </g>
                </g>
                <g transform="matrix(1,0,0,1,3.52643,-1.37215)">
                    <g transform="matrix(0.998757,-0.0498542,0.0498542,0.998757,-7.07028,44.359)">
                        <path d="M1034.59,129.688C1032.66,135.694 1031.45,146.424 1031.89,152.426C1032.82,164.976 1041.67,170.8 1052.48,162.225C1065.96,151.531 1077.78,153.894 1087.42,151.739C1092.88,150.519 1098.49,141.622 1093.23,133.165C1086.89,122.979 1064,114.526 1053.8,115.334C1044.25,116.091 1037.46,120.78 1034.59,129.688Z" style="fill:rgb(241,136,5);"/>
                    </g>
                    <g transform="matrix(0.677263,-0.0338065,0.0338065,0.677263,337.177,71.2158)">
                        <path d="M1034.59,129.688C1032.66,135.694 1031.45,146.424 1031.89,152.426C1032.82,164.976 1041.67,170.8 1052.48,162.225C1065.96,151.531 1077.78,153.894 1087.42,151.739C1092.88,150.519 1098.49,141.622 1093.23,133.165C1086.89,122.979 1064,114.526 1053.8,115.334C1044.25,116.091 1037.46,120.78 1034.59,129.688Z" style="fill:rgb(240,162,2);"/>
                    </g>
                </g>
            </g>
        </g>
    </g>
</svg>